<svg width="900" height="500" viewBox="0 0 900 500" fill="none" xmlns="http://www.w3.org/2000/svg">
<g clip-path="url(#clip0_369_566)">
<rect width="900" height="500" fill="white"/>
<path d="M900 -1H0V502H900V-1Z" fill="#E3E7FF"/>
<path d="M669.128 271.049C666.083 229.681 650.234 191.264 625.147 160.3C593.396 121.107 546.879 93.8398 492.81 87.6443C444.356 82.0951 397.979 94.3953 360.231 119.313C318.053 147.157 286.654 190.757 275.206 242.847C273.748 249.493 272.61 256.281 271.817 263.193C259.266 372.701 337.863 471.639 447.371 484.19C556.874 496.736 655.812 418.144 668.362 308.637C669.821 295.922 670.035 283.363 669.128 271.049Z" fill="#53B1FF"/>
<path d="M470.35 487.838C470.344 487.838 470.344 487.838 470.337 487.838C462.627 487.838 454.81 487.388 447.105 486.507C393.524 480.365 345.541 453.728 311.997 411.5C278.453 369.271 263.362 316.51 269.503 262.928C270.29 256.043 271.445 249.118 272.93 242.347C284.235 190.908 314.782 146.521 358.949 117.364C392.019 95.5355 430.372 83.998 469.862 83.998C477.562 83.998 485.374 84.4441 493.078 85.3282C545.919 91.3826 593.467 117.488 626.96 158.831C653.04 191.022 668.428 229.768 671.454 270.876C672.385 283.513 672.124 296.309 670.68 308.901C658.99 410.912 572.864 487.838 470.35 487.838ZM469.861 88.6623C431.287 88.6623 393.822 99.9334 361.517 121.259C318.371 149.742 288.527 193.102 277.483 243.347C276.033 249.964 274.906 256.731 274.134 263.457C268.136 315.804 282.88 367.351 315.65 408.6C348.418 449.853 395.294 475.875 447.639 481.871C455.167 482.737 462.803 483.174 470.34 483.174C570.49 483.179 654.626 408.03 666.049 308.372C667.459 296.062 667.713 283.567 666.805 271.221C663.847 231.062 648.817 193.215 623.336 161.768C590.618 121.377 544.168 95.8751 492.545 89.9594C485.018 89.0997 477.386 88.6623 469.861 88.6623Z" fill="black"/>
<path d="M608.421 161.687L604.017 157.734L598.63 160.564L594.171 163.449L587.195 161.452L587.044 158.662L595.323 158.407L592.765 155.245L579.795 152.662L575.032 148.619L566.188 147.865L562.358 149.409L554.776 149.008L542.375 156.939L532.12 158.009L532.266 164.972L536.237 169.032L543.132 166.739L547.562 174.091L557.773 168.89L558.041 165.213L554.435 164.273L558.205 160.534L564.444 158.056L567.632 160.356L564.116 166.427L566.197 169.222L571.84 168.726L569.982 172.162L569.635 175.211L565.209 176.479L563.934 180.302L540.805 178.378L539.716 172.88L538.1 173.319L536.866 178.14L527.685 183.463L515.718 186.32L510.476 185.981L509.651 187.297L516.46 194.397L514.803 200.212L500.781 198.6L497.02 205.902L499.101 215.072L503.547 216.417L504.525 218.357L509.566 218.571L516.297 215.008L516.502 211.374L525.546 205.361L525.81 202.624L533.584 203.146L539.586 200.441L547.178 210.298L553.58 214.634L553.425 220.519L557.524 216.651L556.699 214.729L559.168 214.389L559.71 213.087L556.08 211.939L550.775 207.626L546.239 200.731L547.706 198.446L550.27 198.844L557.492 206.88L562.583 209.865L563.28 215.639L567.001 219.198L567.243 224.394L570.613 225.514L572.889 220.657L570.713 216.855L574.524 215.045L581.414 216.047L583.773 214.121L581.141 211.579L584.647 204.194L588.846 201.755L594.019 208.142L596.98 208.272L596.87 204.654L600.581 203.72L603.583 202.602L603.509 206.876L603.397 209.686L612.709 215.927L612.19 219.106L602.408 218.767L598.534 215.657L588.428 217.217L581.503 217.519L579.521 222.932L582.186 226.579L585.947 229.311L589.908 228.46L593.629 230.657L596.512 230.994L600.847 230.077L601.539 235.011L599.918 239.107L599.95 244.756L594.334 245.419L586.98 243.529L583.888 244.535L574.607 241.227L566.874 235.792L562.694 238.085L562.488 241.662L559.246 241.712L549.761 234.248L540.142 232.001L539.901 228.21L542.729 226.342L540.848 223.152C540.848 223.152 541.204 220.472 541.053 220.454C540.894 220.436 526.358 219.66 526.358 219.66L519.34 218.489L514.359 222.308L508.216 222.125L503.967 220.962L499.736 225.486L494.244 227.838L491.124 231.344L491.844 233.669L491.375 236.907L487.308 239.578L482.171 239.719L480.919 243.808L475.127 249.255L473.127 253.463L469.548 256.917L471.169 266.452L469.443 273.775L467.071 278.52L470.331 283.798L469.23 289.314L469.376 292.151L474.093 298.385L474.212 303.727L476.989 304.983L486.125 315.54L492.309 313.531L502.338 316.25L514.874 312.566L518.048 314.073L519.633 316.66L521.405 320.312L527.001 319.802L529.834 323.372L528.714 332.225L525.954 334.415L525.937 339.11L533.204 352.271L534.58 362.143L533.701 368L532.639 373.62L526.428 383.146L526 391.453L530.34 405.524L529.871 418.744L532.056 427.036L531.929 432.665L533.35 433.977L533.123 442.306L551.793 442.565L568.738 427.793L571.743 426.153L572.832 419.386L581.936 412.905L581.73 404.63L600.721 392.08L601.941 381.456L603.594 377.471L601.769 370.153L609.073 349.264L622.958 338.425L630.531 331.563L632.571 325.638L638.572 317.942L639.488 309.918L628.681 313.069L621.764 311.444L618.17 307.277L619.054 304.135L616.175 300.041L611.513 296.065L608.739 286.557L603.721 282.95L604.659 276.579L596.949 259.083L596.156 255.963L593.197 249.879L598.689 253.957L604.081 261.573L605.556 266.027L607.966 267.757L609.982 278.441L613.102 280.363L618.68 291.865L618.758 295.736L622.828 295.786L620.912 299.748L621.836 304.452L628.349 303.209L644.975 296.656L650.595 295.937L656.474 290.244L660.577 283.613L652.781 271.436L652.185 267.501L646.952 272.129L641.327 272.001L640.267 266.664L638.071 265.78L632.642 257.534L632.051 253.601L635.762 254.027L644.423 264.105L649.533 265.116L652.762 263.39L656.351 269.442L669.129 271.045C666.083 229.677 650.234 191.26 625.147 160.296L609.809 159.18L608.421 161.687Z" fill="#29FF91"/>
<path d="M551.792 444.899C551.78 444.899 551.772 444.899 551.761 444.899L533.089 444.64C532.466 444.63 531.871 444.371 531.439 443.92C531.006 443.474 530.773 442.868 530.79 442.244L530.99 434.971L530.346 434.379C529.855 433.929 529.584 433.282 529.598 432.612L529.717 427.316L527.616 419.337C527.557 419.119 527.532 418.892 527.541 418.664L527.993 405.836L523.769 392.142C523.69 391.882 523.657 391.609 523.67 391.336L524.098 383.03C524.121 382.615 524.25 382.22 524.474 381.873L530.434 372.734L532.223 362.131L530.955 353.024L523.897 340.24C523.703 339.89 523.603 339.499 523.606 339.102L523.624 334.407C523.626 333.697 523.952 333.032 524.505 332.59L526.521 330.992L527.398 324.051L525.959 322.239L521.617 322.635C520.648 322.68 519.729 322.202 519.308 321.328L516.428 315.886L514.678 315.053L502.996 318.486C502.585 318.614 502.144 318.618 501.728 318.5L492.369 315.963L486.845 317.757C485.955 318.044 484.978 317.771 484.364 317.065L475.563 306.896L473.252 305.849C472.435 305.48 471.901 304.675 471.881 303.777L471.781 299.191L467.517 293.559C467.236 293.185 467.072 292.739 467.047 292.269L466.901 289.432C466.893 289.241 466.906 289.045 466.945 288.858L467.867 284.24L465.089 279.745C464.663 279.058 464.625 278.201 464.986 277.478L467.238 272.974L468.793 266.38L467.249 257.308C467.122 256.548 467.375 255.774 467.93 255.24L471.205 252.077L473.022 248.255C473.147 247.99 473.32 247.753 473.532 247.556L478.871 242.533L479.944 239.035C480.237 238.079 481.108 237.414 482.109 237.386L486.584 237.263L489.22 235.533L489.462 233.855L488.9 232.033C488.658 231.252 488.843 230.403 489.384 229.793L492.504 226.286C492.731 226.032 493.013 225.828 493.328 225.694L498.368 223.534L502.264 219.369C502.298 219.333 502.333 219.296 502.369 219.262L501.911 218.358L498.423 217.301C497.621 217.058 497.011 216.404 496.825 215.586L494.744 206.417C494.623 205.882 494.694 205.319 494.946 204.832L498.707 197.53C499.152 196.669 500.115 196.166 501.046 196.281L513.1 197.666L513.849 195.043L507.968 188.909C507.227 188.137 507.107 186.962 507.674 186.055L508.498 184.739C508.954 184.015 509.785 183.605 510.625 183.651L515.516 183.967L526.81 181.271L534.849 176.61L535.84 172.737C536.022 172.024 536.528 171.448 537.193 171.166L536.972 171.241C536.123 171.516 535.193 171.29 534.57 170.657L530.598 166.597C530.185 166.174 529.948 165.609 529.933 165.015L529.788 158.052C529.763 156.841 530.671 155.812 531.877 155.687L541.584 154.673L553.518 147.039C553.927 146.777 554.413 146.65 554.898 146.675L561.966 147.048L565.315 145.698C565.652 145.56 566.019 145.491 566.385 145.539L575.229 146.293C575.711 146.334 576.169 146.525 576.54 146.837L580.841 150.492L593.219 152.955C593.754 153.06 594.234 153.352 594.576 153.775L597.136 156.937C597.488 157.373 597.664 157.91 597.654 158.449L602.932 155.664C603.788 155.216 604.845 155.339 605.574 155.995L607.801 157.994C608.252 157.233 609.088 156.796 609.977 156.855L625.315 157.971C625.958 158.017 626.554 158.329 626.959 158.827C652.903 190.85 668.263 229.355 671.405 270.225C671.501 270.479 671.553 270.757 671.553 271.044C671.556 272.351 670.378 273.385 669.176 273.376C669.064 273.376 668.951 273.371 668.839 273.358L656.06 271.755C655.939 271.742 655.821 271.714 655.705 271.682L662.538 282.357C663.023 283.113 663.03 284.078 662.558 284.838L658.456 291.47C658.352 291.634 658.233 291.783 658.093 291.92L652.214 297.612C651.854 297.963 651.387 298.186 650.888 298.251L645.558 298.933L629.2 305.377L622.271 306.743C621.752 306.839 621.24 306.761 620.796 306.543L620.753 306.702L623.032 309.347L628.615 310.659L638.832 307.676C639.586 307.471 640.391 307.63 640.988 308.136C641.585 308.637 641.889 309.407 641.801 310.181L640.885 318.206C640.837 318.634 640.672 319.039 640.407 319.376L634.646 326.762L632.731 332.322C632.604 332.692 632.385 333.024 632.093 333.288L624.52 340.151L611.043 350.679L604.196 370.265L605.854 376.905C605.975 377.392 605.936 377.903 605.745 378.363L604.217 382.046L603.033 392.343C602.955 393.031 602.577 393.645 602.003 394.023L584.091 405.863L584.265 412.844C584.282 413.618 583.916 414.352 583.285 414.802L574.977 420.718L574.042 426.519C573.929 427.235 573.489 427.853 572.856 428.195L570.076 429.717L553.322 444.32C552.899 444.694 552.354 444.899 551.792 444.899ZM535.517 440.008L550.933 440.222L567.205 426.036C567.333 425.926 567.472 425.826 567.622 425.749L569.623 424.656L570.529 419.019C570.629 418.399 570.97 417.849 571.479 417.488L579.572 411.728L579.397 404.692C579.379 403.886 579.773 403.13 580.442 402.689L598.526 390.734L599.624 381.194C599.648 380.975 599.703 380.766 599.785 380.566L601.144 377.291L599.503 370.72C599.393 370.278 599.415 369.814 599.564 369.386L606.869 348.497C607.018 348.074 607.282 347.704 607.637 347.427L621.522 336.589L628.519 330.24L630.366 324.88C630.45 324.639 630.573 324.411 630.732 324.206L636.329 317.03L636.772 313.141L629.334 315.313C628.944 315.418 628.539 315.431 628.148 315.34L621.23 313.715C620.75 313.605 620.319 313.341 619.996 312.969L616.403 308.801C615.893 308.21 615.713 307.403 615.925 306.648L616.51 304.575L614.438 301.63L610 297.845C609.654 297.549 609.401 297.157 609.274 296.72L606.726 287.986L602.359 284.848C601.651 284.338 601.287 283.477 601.414 282.612L602.254 276.906L594.815 260.025L593.959 256.783L591.1 250.903C590.63 249.938 590.881 248.774 591.707 248.089C592.156 247.713 592.711 247.511 593.265 247.551L587.058 245.957L584.61 246.754C584.121 246.911 583.591 246.902 583.106 246.734L573.825 243.425C573.627 243.355 573.439 243.257 573.267 243.136L566.723 238.536L564.949 239.508L564.817 241.796C564.749 243.014 563.747 243.975 562.527 243.994L559.284 244.044C558.758 244.042 558.226 243.876 557.806 243.545L548.728 236.4L539.614 234.271C538.613 234.036 537.885 233.176 537.818 232.149L537.576 228.358C537.524 227.525 537.92 226.726 538.619 226.263L539.598 225.619L538.842 224.337C538.578 223.889 538.471 223.363 538.539 222.848C538.539 222.843 538.551 222.768 538.566 222.65C534.491 222.43 526.234 221.99 526.234 221.99L519.959 220.954L515.778 224.159C515.353 224.486 514.836 224.627 514.291 224.64L508.149 224.458C507.961 224.451 507.779 224.424 507.602 224.376L504.71 223.583L501.441 227.079C501.22 227.315 500.954 227.502 500.655 227.63L495.642 229.777L493.743 231.913L494.073 232.981C494.175 233.314 494.203 233.662 494.153 234.006L493.684 237.244C493.588 237.904 493.215 238.491 492.657 238.858L488.59 241.529C488.228 241.765 487.807 241.898 487.374 241.911L483.913 242.005L483.15 244.493C483.032 244.88 482.813 245.231 482.517 245.509L477.045 250.655L475.235 254.464C475.115 254.72 474.951 254.947 474.748 255.143L472.054 257.743L473.471 266.063C473.521 266.373 473.512 266.687 473.441 266.987L471.715 274.31C471.671 274.488 471.61 274.656 471.531 274.82L469.74 278.403L472.317 282.574C472.627 283.075 472.736 283.676 472.62 284.255L471.575 289.487L471.668 291.318L475.956 296.979C476.249 297.37 476.416 297.844 476.427 298.336L476.512 302.206L477.953 302.863C478.26 302.999 478.533 303.204 478.755 303.459L486.878 312.845L491.593 311.315C492.018 311.173 492.48 311.165 492.922 311.283L502.314 313.828L514.219 310.331C514.77 310.162 515.359 310.221 515.876 310.459L519.049 311.971C519.46 312.162 519.801 312.472 520.037 312.859L521.623 315.445L522.796 317.845L526.791 317.481C527.586 317.426 528.339 317.74 528.829 318.355L531.662 321.925C532.051 322.417 532.229 323.045 532.149 323.664L531.029 332.517C530.951 333.123 530.642 333.674 530.165 334.051L528.282 335.544L528.27 338.514L535.245 351.142C535.384 351.392 535.475 351.666 535.513 351.948L536.889 361.82C536.921 362.043 536.918 362.266 536.887 362.49L534.931 374.053C534.875 374.353 534.76 374.64 534.593 374.894L528.724 383.893L528.35 391.161L532.57 404.837C532.645 405.086 532.68 405.347 532.67 405.607L532.215 418.485L534.312 426.441C534.368 426.655 534.394 426.874 534.39 427.092L534.285 431.669L534.933 432.266C535.427 432.721 535.701 433.368 535.682 434.041L535.517 440.008ZM623.35 300.066L623.676 301.733L627.911 300.923L644.121 294.492C644.299 294.419 644.487 294.373 644.679 294.347L649.528 293.727L654.642 288.772L657.821 283.64L650.817 272.697C650.691 272.505 650.598 272.296 650.537 272.073L648.494 273.88C648.057 274.262 647.504 274.5 646.899 274.463L641.274 274.335C640.181 274.308 639.252 273.53 639.04 272.459L638.225 268.361L637.2 267.946C636.759 267.769 636.383 267.464 636.123 267.068L630.695 258.816C630.508 258.538 630.385 258.219 630.335 257.882L629.743 253.95C629.636 253.232 629.869 252.506 630.372 251.984C630.876 251.463 631.599 251.189 632.316 251.288L636.028 251.714C636.611 251.78 637.148 252.065 637.53 252.511L645.666 261.976L649.167 262.667L651.661 261.333C652.767 260.746 654.132 261.128 654.766 262.203L657.772 267.272L666.573 268.378C663.157 229.611 648.464 193.098 623.966 162.55L611.125 161.617L610.457 162.817C610.113 163.437 609.505 163.867 608.804 163.985C608.104 164.097 607.39 163.894 606.862 163.421L603.665 160.552L599.711 162.628L595.434 165.406C594.87 165.77 594.178 165.875 593.527 165.688L586.55 163.691C585.593 163.418 584.918 162.569 584.862 161.576L584.712 158.787C584.68 158.161 584.899 157.546 585.324 157.084C585.651 156.728 586.078 156.485 586.545 156.385L579.337 154.948C578.947 154.871 578.585 154.696 578.282 154.441L574.089 150.877L566.54 150.235L563.227 151.572C562.911 151.699 562.569 151.761 562.232 151.737L555.398 151.375L543.629 158.902C543.321 159.099 542.975 159.219 542.613 159.256L534.491 160.105L534.573 164.001L536.881 166.358L542.393 164.525C543.42 164.183 544.563 164.595 545.126 165.534L548.436 171.029L555.54 167.411L555.572 166.98L553.844 166.53C553.034 166.318 552.398 165.687 552.18 164.879C551.964 164.07 552.197 163.207 552.79 162.618L556.561 158.879C556.784 158.658 557.05 158.482 557.342 158.367L563.58 155.889C564.313 155.596 565.156 155.695 565.804 156.167L568.992 158.467C569.964 159.166 570.247 160.489 569.646 161.524L566.9 166.267L567.287 166.787L571.632 166.404C572.474 166.336 573.315 166.73 573.785 167.447C574.257 168.164 574.295 169.082 573.888 169.835L572.244 172.875L571.948 175.475C571.843 176.412 571.18 177.192 570.275 177.452L567.029 178.383L566.141 181.04C565.802 182.065 564.816 182.744 563.736 182.626L540.607 180.701C539.813 180.635 539.125 180.173 538.756 179.499C538.565 179.765 538.319 179.988 538.032 180.157L528.851 185.481C528.655 185.595 528.444 185.679 528.223 185.731L516.255 188.588C516.027 188.646 515.792 188.657 515.562 188.648L514.08 188.553L518.138 192.783C518.711 193.382 518.925 194.24 518.698 195.037L517.04 200.853C516.728 201.95 515.682 202.663 514.53 202.528L502.109 201.101L499.474 206.215L501.068 213.235L504.216 214.187C504.825 214.371 505.333 214.799 505.62 215.369L505.985 216.086L509.026 216.216L514.035 213.564L514.167 211.244C514.208 210.51 514.593 209.841 515.203 209.434L523.323 204.035L523.482 202.403C523.602 201.146 524.662 200.242 525.959 200.299L533.15 200.781L538.619 198.315C539.6 197.872 540.764 198.163 541.424 199.019L547.511 206.922L544.285 202.015C543.777 201.245 543.773 200.25 544.268 199.474L545.734 197.188C546.235 196.411 547.151 196.013 548.054 196.143L550.618 196.542C551.149 196.623 551.636 196.887 551.996 197.286L558.974 205.053L563.754 207.856C564.382 208.222 564.801 208.865 564.89 209.586L565.487 214.532L568.422 217.341C568.34 216.952 568.358 216.547 568.479 216.159C568.672 215.54 569.117 215.028 569.704 214.75L573.516 212.939C573.932 212.746 574.394 212.678 574.85 212.739L579.709 213.445L579.51 213.254C578.791 212.56 578.595 211.482 579.026 210.579L582.532 203.194C582.735 202.768 583.06 202.413 583.468 202.179L587.667 199.74C588.662 199.155 589.925 199.397 590.649 200.286L594.541 205.093L594.528 204.724C594.497 203.629 595.23 202.659 596.291 202.393L600.003 201.459L602.76 200.415C603.477 200.144 604.289 200.254 604.918 200.698C605.549 201.141 605.918 201.87 605.905 202.64L605.767 208.474L613.996 213.988C614.754 214.498 615.146 215.4 614.999 216.302L614.481 219.481C614.292 220.64 613.265 221.521 612.1 221.434L602.318 221.095C601.814 221.079 601.33 220.899 600.938 220.582L597.868 218.119L588.776 219.522L583.15 219.779L582.132 222.564L583.844 224.909L586.468 226.815L589.411 226.182C589.983 226.062 590.583 226.152 591.087 226.453L594.382 228.4L596.395 228.634L600.356 227.797C600.988 227.669 601.65 227.799 602.178 228.17C602.707 228.539 603.059 229.115 603.148 229.755L603.84 234.689C603.897 235.088 603.847 235.495 603.699 235.871L602.244 239.546L602.274 244.745C602.281 245.933 601.395 246.935 600.215 247.074L594.6 247.737C594.436 247.76 594.275 247.762 594.113 247.744C594.275 247.813 594.431 247.903 594.578 248.013L600.07 252.091C600.268 252.236 600.442 252.414 600.584 252.615L605.977 260.231C606.108 260.418 606.213 260.627 606.286 260.846L607.523 264.58L609.316 265.869C609.803 266.22 610.136 266.743 610.248 267.331L612.074 277.003L614.317 278.383C614.695 278.615 614.997 278.952 615.191 279.353L620.769 290.857C620.917 291.157 620.997 291.489 621.004 291.826L621.036 293.438L622.85 293.461C623.648 293.47 624.386 293.889 624.804 294.567C625.222 295.245 625.267 296.088 624.92 296.808L623.35 300.066ZM613.556 294.747L617.688 298.267C617.838 298.395 617.97 298.541 618.085 298.705L618.601 299.438C618.635 299.197 618.706 298.961 618.813 298.737L619.134 298.076L618.728 298.072C617.471 298.058 616.452 297.047 616.427 295.786L616.36 292.425L611.3 281.997L608.759 280.43C608.202 280.084 607.813 279.524 607.692 278.878L605.847 269.11L604.196 267.926C603.795 267.639 603.497 267.234 603.342 266.764L601.977 262.643L599.468 259.095L606.792 275.645C606.97 276.045 607.029 276.487 606.966 276.924L606.234 281.888L610.1 284.666C610.522 284.971 610.832 285.408 610.977 285.909L613.556 294.747ZM643.249 269.715L646.091 269.783L648.832 267.356L643.971 266.395C643.459 266.295 642.996 266.026 642.654 265.63L634.852 256.549L634.872 256.682L639.616 263.895L641.136 264.505C641.867 264.801 642.4 265.443 642.552 266.213L643.249 269.715ZM586.981 241.198C587.177 241.198 587.37 241.223 587.561 241.27L594.495 243.054L597.607 242.685L597.587 239.121C597.586 238.824 597.642 238.527 597.751 238.25L599.144 234.727L598.885 232.876L596.996 233.277C596.745 233.332 596.501 233.348 596.242 233.311L593.36 232.975C593.037 232.936 592.724 232.831 592.445 232.668L589.509 230.932L586.438 231.593C585.8 231.734 585.117 231.593 584.578 231.201L580.817 228.467C580.62 228.326 580.448 228.152 580.304 227.957L577.64 224.309C577.181 223.681 577.067 222.863 577.333 222.132L578.836 218.029L574.884 217.455L573.985 217.883L574.912 219.5C575.288 220.16 575.322 220.961 574.998 221.649L572.721 226.507C572.222 227.575 571 228.096 569.875 227.729L566.506 226.609C565.59 226.304 564.957 225.468 564.912 224.505L564.713 220.24L561.667 217.326C561.278 216.953 561.029 216.456 560.964 215.921L560.959 215.883C560.672 216.229 560.289 216.486 559.855 216.618C559.864 217.26 559.609 217.891 559.123 218.349L555.026 222.218C554.34 222.862 553.331 223.032 552.473 222.65C551.612 222.266 551.068 221.403 551.093 220.46L551.215 215.851L545.87 212.231C545.662 212.092 545.48 211.919 545.33 211.723L538.863 203.326L534.542 205.275C534.191 205.432 533.804 205.487 533.426 205.475L527.914 205.104L527.866 205.586C527.799 206.285 527.421 206.917 526.836 207.306L518.764 212.672L518.623 215.143C518.594 215.675 518.383 216.172 518.041 216.559C518.532 216.225 519.138 216.097 519.725 216.192L526.743 217.363C541.09 218.114 541.229 218.13 541.32 218.141C541.944 218.212 542.524 218.54 542.91 219.036C543.494 219.79 543.535 220.471 543.264 222.659L544.74 225.161C545.371 226.231 545.052 227.607 544.016 228.292L542.317 229.411L542.363 230.127L550.293 231.98C550.626 232.058 550.935 232.208 551.204 232.418L560.041 239.371L560.287 239.367L560.369 237.953C560.415 237.151 560.87 236.43 561.576 236.043L565.756 233.75C566.532 233.324 567.491 233.379 568.218 233.887L575.691 239.139L583.924 242.074L586.26 241.314C586.494 241.236 586.737 241.198 586.981 241.198ZM569.33 219.136L569.482 222.426L570.26 220.764L569.33 219.136ZM512.026 219.906L513.599 219.954L517.311 217.11L512.026 219.906ZM603.261 216.461L609.647 216.684L602.095 211.623C601.421 211.17 601.029 210.4 601.063 209.591L601.189 205.955L599.253 206.449L599.287 207.549C599.36 207.777 599.401 208.018 599.401 208.271C599.401 209.576 598.374 210.687 597.022 210.603C596.976 210.601 596.926 210.605 596.873 210.601L593.913 210.471C593.245 210.441 592.624 210.126 592.203 209.61L588.286 204.774L586.439 205.846L583.962 211.065L585.39 212.445C585.868 212.907 586.126 213.551 586.097 214.218C586.086 214.487 586.029 214.749 585.931 214.992L588.324 214.887L598.177 213.352C598.828 213.25 599.483 213.43 599.992 213.84L603.261 216.461ZM557.205 209.849L558.813 210.359L556.31 208.89C556.103 208.769 555.916 208.616 555.754 208.439L549.57 201.558L552.524 206.043L557.205 209.849ZM542.751 176.202L562.301 177.828L562.998 175.742C563.24 175.014 563.827 174.452 564.566 174.24L567.495 173.4L567.666 171.902C567.684 171.74 567.718 171.581 567.771 171.426L566.403 171.546C565.603 171.621 564.811 171.264 564.328 170.615L562.247 167.819C561.689 167.072 561.632 166.066 562.099 165.259L564.557 161.013L564.115 160.696L559.506 162.524L558.958 163.07C559.862 163.456 560.438 164.38 560.365 165.384L560.096 169.062C560.037 169.874 559.557 170.598 558.831 170.967L548.621 176.168C547.523 176.724 546.196 176.341 545.565 175.296L542.097 169.539L537.546 171.054L539.104 170.63C539.732 170.459 540.395 170.557 540.946 170.899C541.494 171.238 541.877 171.794 542.005 172.426L542.751 176.202Z" fill="black"/>
<path d="M289.888 251.373L293.422 249.689L301.523 260.119L309.256 261.006L309.183 265.283L311.965 266.54L316.027 274.841L324.279 281.216L327.476 277.933L320.672 270.774L321.924 256.188L312.744 253.313L310.476 248.508L318.094 238.1L308.672 236.237L304.1 243.312L295.912 243.002L292.429 232.335L299.856 218.145L310.111 212.74L317.985 215.131L321.478 214.744L326.473 211.484L335.8 214.826L335.18 220.238L337.439 228.565L342.93 223.715L340.339 214.873L361.943 199.328L362.681 192.912L392.915 178.595L394.573 181.92L406.577 178.356L406.467 169.018L417.669 167.015L428.048 163.267L428.58 158.629L421.085 155.653L420.083 145.277L410.119 149.463L407.528 146.113L407.246 141.062L398.201 138.621L391.725 145.24L391.452 149.671L383.164 154.987L379.967 154.857L379.662 160.937L373.864 162.305L371.155 155.886L374.183 152.002L367.766 151.266L357.52 143.825L375.349 134.979L382.521 134.621L390.053 131.099L400.072 131.173L402.258 128.032L410.414 125.256L416.134 129.152L409.052 134.348L401.744 133.458L400.682 135.842L408.715 137.337L410.091 139.009L419.394 141.698L426.148 136.099L435.324 133.961L429.837 129.414L424.837 122.941L413.27 122.191L405.842 120.035L394.02 121.552L395.259 126.236L390.395 128.135L387.744 125.273L388.542 121.028L380.204 123.153L379.088 127.413L363.887 124.682L360.23 119.311C318.052 147.156 286.652 190.756 275.204 242.845L279.366 250.168L289.888 251.373Z" fill="#29FF91"/>
<path d="M324.279 283.549C323.778 283.549 323.275 283.39 322.853 283.061L314.601 276.685C314.319 276.467 314.089 276.19 313.932 275.866L310.239 268.32L308.221 267.409C307.374 267.022 306.834 266.175 306.851 265.241L306.887 263.082L301.257 262.436C300.635 262.363 300.065 262.045 299.682 261.548L292.733 252.599L290.893 253.477C290.496 253.662 290.041 253.738 289.625 253.688L279.106 252.484C278.366 252.399 277.71 251.967 277.343 251.32L273.18 243.997C272.896 243.496 272.807 242.907 272.93 242.344C284.235 190.908 314.782 146.521 358.949 117.364C360.012 116.672 361.442 116.945 362.159 117.999L365.265 122.56L377.38 124.737L377.95 122.563C378.166 121.741 378.808 121.103 379.63 120.894L387.968 118.769C388.747 118.562 389.555 118.783 390.14 119.327C390.721 119.872 390.982 120.675 390.834 121.459L390.256 124.548L391.028 125.385L392.474 124.819L391.768 122.149C391.597 121.5 391.714 120.808 392.086 120.25C392.462 119.694 393.059 119.325 393.726 119.239L405.548 117.723C405.867 117.689 406.186 117.709 406.493 117.797L413.677 119.881L424.989 120.614C425.658 120.657 426.275 120.985 426.682 121.516L431.525 127.785L436.813 132.169C437.496 132.733 437.799 133.635 437.596 134.498C437.391 135.361 436.718 136.033 435.854 136.233L427.216 138.246L421.202 143.232C421.23 143.247 421.254 143.26 421.28 143.276C421.917 143.656 422.334 144.316 422.404 145.054L423.269 154.011L429.442 156.461C430.421 156.85 431.018 157.848 430.897 158.895L430.365 163.533C430.265 164.412 429.675 165.159 428.841 165.459L418.463 169.207L408.822 170.96L408.909 178.328C408.921 179.372 408.24 180.294 407.24 180.592L395.236 184.156C394.164 184.474 392.991 183.974 392.488 182.96L391.849 181.681L364.85 194.466L364.261 199.596C364.185 200.248 363.839 200.84 363.306 201.222L343.044 215.804L345.171 223.06C345.424 223.927 345.155 224.866 344.477 225.464L338.984 230.314C338.38 230.847 337.543 231.031 336.771 230.799C335.998 230.567 335.4 229.954 335.191 229.176L332.932 220.849C332.855 220.564 332.832 220.265 332.867 219.975L333.274 216.397L326.78 214.07L322.754 216.697C322.447 216.895 322.098 217.021 321.736 217.061L318.243 217.448C317.927 217.483 317.61 217.451 317.307 217.362L310.351 215.25L301.585 219.87L294.95 232.546L297.626 240.737L302.863 240.934L306.715 234.973C307.235 234.172 308.182 233.764 309.126 233.951L318.548 235.814C319.329 235.968 319.978 236.513 320.267 237.255C320.556 237.997 320.448 238.835 319.975 239.48L313.176 248.77L314.415 251.395L322.622 253.966C323.664 254.291 324.341 255.302 324.247 256.391L323.086 269.93L329.165 276.328C330.028 277.239 330.02 278.664 329.147 279.562L325.95 282.845C325.495 283.312 324.89 283.549 324.279 283.549ZM317.883 273.33L324.058 278.103L324.241 277.916L318.983 272.383C318.523 271.9 318.293 271.239 318.351 270.575L319.441 257.856L312.048 255.538C311.426 255.342 310.914 254.896 310.636 254.309L308.368 249.504C308.004 248.733 308.091 247.822 308.596 247.131L314.051 239.679L309.773 238.832L306.059 244.579C305.613 245.269 304.86 245.736 304.012 245.642L295.824 245.332C294.849 245.296 294.001 244.656 293.697 243.727L290.214 233.06C290.017 232.463 290.072 231.812 290.363 231.254L297.791 217.064C298.009 216.645 298.351 216.304 298.77 216.083L309.025 210.678C309.569 210.391 310.198 210.336 310.79 210.509L318.203 212.761L320.669 212.488L325.198 209.53C325.815 209.131 326.573 209.042 327.258 209.288L336.586 212.631C337.356 212.907 337.907 213.555 338.078 214.318C338.206 213.793 338.518 213.314 338.979 212.982L359.745 198.038L360.367 192.646C360.458 191.847 360.957 191.15 361.685 190.806L391.919 176.488C393.06 175.938 394.435 176.416 395.002 177.554L395.788 179.128L404.226 176.62L404.137 169.045C404.124 167.907 404.936 166.923 406.058 166.723L417.261 164.719L425.897 161.57L426.06 160.136L420.224 157.82C419.411 157.497 418.849 156.748 418.765 155.876L418.066 148.653L411.023 151.611C410.044 152.018 408.922 151.723 408.275 150.889L405.684 147.54C405.395 147.166 405.226 146.713 405.202 146.242L405.012 142.875L398.912 141.228L394.001 146.251L393.781 149.815C393.735 150.557 393.339 151.233 392.713 151.634L384.425 156.951C384.022 157.209 383.544 157.329 383.07 157.317L382.182 157.281L381.993 161.054C381.941 162.092 381.209 162.969 380.198 163.208L374.402 164.576C373.3 164.834 372.159 164.26 371.719 163.212L369.009 156.793C368.679 156.015 368.797 155.12 369.317 154.452L369.79 153.846L367.502 153.582C367.104 153.537 366.723 153.388 366.398 153.154L356.152 145.712C355.492 145.232 355.132 144.442 355.2 143.629C355.269 142.816 355.756 142.098 356.487 141.737L374.315 132.89C374.602 132.747 374.914 132.665 375.235 132.649L381.95 132.314L388.33 129.332L386.037 126.857C385.533 126.314 385.32 125.568 385.456 124.842L385.577 124.19L382.113 125.071L381.346 128.002C381.036 129.179 379.884 129.932 378.677 129.708L363.476 126.977C362.859 126.865 362.312 126.513 361.962 125.994L359.605 122.533C317.737 150.86 288.705 193.341 277.675 242.474L280.808 247.986L289.489 248.979L292.417 247.584C293.407 247.112 294.591 247.39 295.263 248.257L302.764 257.914L309.522 258.688C310.712 258.825 311.607 259.845 311.587 261.048L311.539 263.789L312.926 264.413C313.42 264.636 313.821 265.027 314.06 265.514L317.883 273.33ZM337.549 220.058L338.708 224.334L340.277 222.947L338.103 215.529C338.094 215.497 338.087 215.465 338.078 215.432L337.549 220.058ZM373.837 156.242L375.248 159.585L377.422 159.07L377.639 154.741C377.704 153.464 378.734 152.462 380.064 152.528L382.525 152.628L389.198 148.347L389.399 145.096C389.432 144.538 389.667 144.01 390.059 143.609L396.535 136.99C397.027 136.484 397.707 136.216 398.398 136.298C398.304 135.829 398.354 135.34 398.552 134.895L399.174 133.5L390.565 133.436L383.51 136.735C383.237 136.863 382.942 136.935 382.639 136.951L375.952 137.284L362.008 144.201L368.643 149.019L374.451 149.686C375.29 149.782 376.009 150.321 376.335 151.1C376.663 151.876 376.542 152.771 376.025 153.436L373.837 156.242ZM409.818 145.258L410.87 146.617L417.86 143.682L409.595 141.293L409.818 145.258ZM411.434 136.97L418.859 139.117L424.661 134.306C424.941 134.075 425.269 133.912 425.622 133.831L430.219 132.758L428.352 131.21C428.218 131.1 428.099 130.978 427.994 130.841L423.636 125.201L413.51 124.545L417.447 127.228C418.074 127.653 418.454 128.357 418.468 129.113C418.481 129.869 418.126 130.587 417.516 131.035L410.678 136.051L411.434 136.97ZM402.866 131.246L408.42 131.922L412.099 129.224L410.066 127.839L403.736 129.993L402.866 131.246ZM395.09 128.807L398.863 128.834L400.346 126.7C400.63 126.293 401.038 125.986 401.51 125.827L408.837 123.333L405.66 122.411L396.957 123.527L397.515 125.64C397.818 126.785 397.213 127.978 396.108 128.409L395.09 128.807Z" fill="black"/>
<path d="M311.594 114.444L319.491 114.563L319.973 113.34L303.47 110.143L291.389 110.248L278.009 114.2L269.671 115.2L279.252 117.712L288.36 114.809L302.961 116.167L311.594 114.444Z" fill="#29FF91"/>
<path d="M279.252 120.043C279.054 120.043 278.856 120.017 278.66 119.968L269.079 117.456C267.997 117.172 267.269 116.159 267.344 115.04C267.422 113.923 268.282 113.018 269.393 112.884L277.732 111.884L290.729 108.011C290.936 107.95 291.153 107.918 291.369 107.916L303.451 107.811L320.418 111.051C321.099 111.183 321.685 111.611 322.019 112.217C322.351 112.824 322.397 113.551 322.142 114.196L321.659 115.419C321.303 116.32 320.447 116.935 319.457 116.894L311.808 116.779L303.415 118.453C303.195 118.499 302.974 118.51 302.744 118.49L288.615 117.174L279.96 119.933C279.73 120.007 279.492 120.043 279.252 120.043ZM291.209 112.731L302.837 113.816L306.446 113.093L303.026 112.43L291.209 112.731Z" fill="black"/>
<path d="M335.563 139.771L343.723 141.722L351.816 140.848L354.981 138.546L351.989 135.23L352.826 134.074L360.96 136.256L363.597 134.442L364.198 131.929L368.524 129.757L365.309 126.332L361.879 128.213L359.972 126.43L346.852 125.392L346.132 123.434L338.112 121.65L329.834 123.445L311.856 120.861L297.287 120.813L289.195 122.602L291.367 124.483L297.465 125.296L304.123 128.411L302.355 129.463L300.752 131.156L303.949 131.918L305.101 135.574L297.647 138.405L298.54 141.558L297.355 143.695L301.759 150.388L304.592 150.948L309.36 153.772L312.739 148.202L322.621 142.674L332.662 142.569L335.563 139.771Z" fill="#29FF91"/>
<path d="M309.358 156.103C308.955 156.103 308.545 155.999 308.172 155.777L303.748 153.156L301.306 152.676C300.694 152.553 300.154 152.191 299.813 151.67L295.41 144.976C294.931 144.252 294.897 143.323 295.316 142.565L296.035 141.269L295.404 139.04C295.075 137.876 295.689 136.654 296.821 136.226L302.217 134.176L302.124 133.88L300.213 133.424C299.402 133.233 298.756 132.62 298.519 131.824C298.28 131.025 298.487 130.159 299.059 129.553L299.674 128.905L296.802 127.559L291.06 126.794C290.609 126.735 290.186 126.543 289.841 126.245L287.67 124.364C287.002 123.788 286.718 122.884 286.934 122.03C287.15 121.174 287.831 120.516 288.692 120.325L296.784 118.535C296.95 118.497 297.06 118.417 297.294 118.481L311.862 118.528L329.749 121.077L337.618 119.371C337.951 119.305 338.294 119.308 338.618 119.374L346.638 121.157C347.414 121.33 348.048 121.886 348.321 122.631L348.526 123.186L360.157 124.106C360.683 124.147 361.179 124.368 361.564 124.728L362.238 125.358L364.19 124.288C365.116 123.78 366.282 123.962 367.011 124.736L370.225 128.161C370.729 128.698 370.949 129.441 370.82 130.165C370.692 130.889 370.227 131.51 369.569 131.84L366.213 133.525L365.865 134.985C365.731 135.546 365.394 136.037 364.919 136.364L362.281 138.177C361.721 138.564 361.015 138.68 360.357 138.507L357.131 137.642C357.281 137.999 357.343 138.394 357.299 138.788C357.231 139.445 356.887 140.042 356.352 140.431L353.187 142.733C352.859 142.973 352.473 143.122 352.067 143.166L343.974 144.04C343.707 144.063 343.439 144.051 343.182 143.989L336.262 142.334L334.281 144.247C333.852 144.661 333.281 144.893 332.688 144.9L323.24 144.998L314.413 149.937L311.353 154.981C310.915 155.702 310.146 156.103 309.358 156.103ZM303.171 148.291L305.045 148.66C305.305 148.712 305.552 148.808 305.781 148.942L308.563 150.59L310.747 146.993C310.954 146.65 311.25 146.365 311.6 146.167L321.482 140.638C321.824 140.449 322.206 140.346 322.596 140.342L331.71 140.246L333.944 138.092C334.515 137.542 335.333 137.316 336.105 137.503L343.873 139.36L350.948 138.595L351.513 138.183L350.258 136.791C349.521 135.974 349.454 134.754 350.101 133.861L350.939 132.704C351.504 131.921 352.49 131.563 353.43 131.821L360.525 133.724L361.539 133.028L361.93 131.386C362.01 131.059 362.157 130.754 362.361 130.494C361.629 130.646 360.853 130.444 360.288 129.915L358.975 128.69L346.667 127.716C345.761 127.643 344.978 127.051 344.664 126.195L344.384 125.432L338.107 124.037L330.328 125.724C330.053 125.783 329.782 125.794 329.502 125.754L311.523 123.169L298.367 123.146C298.397 123.158 298.426 123.171 298.454 123.182L305.112 126.297C305.893 126.664 306.41 127.431 306.453 128.294C306.489 129.052 306.157 129.776 305.57 130.238C305.845 130.505 306.055 130.84 306.175 131.215L307.327 134.873C307.698 136.052 307.085 137.315 305.929 137.753L300.473 139.825L300.783 140.923C300.952 141.515 300.879 142.15 300.581 142.687L300.079 143.591L303.171 148.291Z" fill="black"/>
<path d="M425.521 329.385L423.8 325.218L415.22 324.439L407.015 314.935L400.32 318.665L402.597 312.444L399.241 311.643L394.354 313.273L398.226 304.111L393.243 293.827L383.48 292.398L379.933 284.151L375.615 283.549L371.312 274.597L364.426 275.475L356.571 272.907L350.573 267.36L344.498 270.694L339.193 270.912L335.905 278.686L331.264 279.045L331.451 285.175L330.545 288.518L332.567 291.415L326.874 297.762L319.302 307.344L322.466 312.563L316.642 315.969L325.677 333.301L329.552 350.036L345.915 361.782L346.165 393.777L349.203 405.563L344.353 416.447L349.685 424.585L349.735 431.009L352.563 432.274L351.206 437.29L369.335 450.018L371.039 444.73L367.773 441.325L371.484 434.443L368.552 430.864L373.703 429.68L375.141 425.354L385.129 422.95L380.051 413.486L389.159 415.158L396.312 407.416L396.973 401.638L399.942 401.246L402.488 388.166L409.71 384.396L414 386.144L419.1 378.995L424.228 357.965L427.489 355.934L428.8 350.861L434.647 344.531L434.542 335.432L425.521 329.385Z" fill="#29FF91"/>
<path d="M369.335 452.349C368.862 452.349 368.393 452.203 367.997 451.926L349.867 439.198C349.064 438.633 348.699 437.627 348.956 436.68L349.792 433.592L348.784 433.137C347.95 432.763 347.41 431.94 347.404 431.028L347.358 425.291L342.403 417.726C341.968 417.061 341.9 416.224 342.224 415.499L346.741 405.357L343.906 394.36C343.861 394.174 343.836 393.987 343.833 393.796L343.592 362.983L328.193 351.931C327.733 351.599 327.407 351.117 327.28 350.566L323.473 334.117L314.574 317.049C314.001 315.947 314.392 314.585 315.465 313.957L319.244 311.748L317.306 308.551C316.804 307.722 316.867 306.661 317.473 305.901L325.045 296.319L329.597 291.237L328.632 289.853C328.238 289.288 328.112 288.573 328.294 287.908L329.109 284.898L328.932 279.119C328.896 277.872 329.843 276.82 331.083 276.723L334.309 276.473L337.044 270.006C337.395 269.173 338.194 268.622 339.096 268.581L343.855 268.385L349.45 265.315C350.328 264.837 351.417 264.965 352.155 265.647L357.778 270.848L364.651 273.098L371.015 272.282C372.037 272.154 372.978 272.683 373.413 273.585L377.174 281.413L380.252 281.841C381.06 281.954 381.75 282.478 382.073 283.229L385.106 290.279L393.579 291.518C394.344 291.632 395.004 292.114 395.341 292.811L400.323 303.094C400.614 303.695 400.632 304.396 400.371 305.016L398.509 309.429C398.921 309.296 399.362 309.274 399.781 309.374L403.138 310.176C403.785 310.33 404.335 310.753 404.65 311.341C404.964 311.928 405.014 312.621 404.786 313.245L404.666 313.573L405.879 312.899C406.842 312.362 408.058 312.571 408.777 313.409L416.368 322.202L424.01 322.894C424.873 322.972 425.621 323.523 425.952 324.329L427.405 327.84L435.839 333.496C436.476 333.924 436.863 334.634 436.873 335.404L436.978 344.503C436.985 345.099 436.763 345.673 436.358 346.11L430.909 352.012L429.743 356.516C429.595 357.094 429.229 357.595 428.719 357.913L426.267 359.44L421.364 379.545C421.294 379.836 421.168 380.105 420.998 380.347L415.897 387.496C415.271 388.375 414.115 388.716 413.117 388.302L409.829 386.963L404.561 389.713L402.229 401.69C402.037 402.674 401.238 403.425 400.246 403.557L399.082 403.707L398.626 407.678C398.572 408.17 398.36 408.635 398.022 408.995L390.868 416.737C390.326 417.324 389.527 417.57 388.735 417.451L384.395 416.654L387.18 421.845C387.522 422.484 387.549 423.239 387.256 423.9C386.959 424.56 386.375 425.047 385.673 425.216L376.944 427.315L375.915 430.417C375.657 431.187 375.018 431.77 374.223 431.951L372.736 432.293L373.287 432.967C373.885 433.696 373.983 434.715 373.535 435.548L370.629 440.936L372.72 443.117C373.314 443.737 373.519 444.629 373.257 445.444L371.554 450.732C371.327 451.437 370.778 451.993 370.077 452.225C369.834 452.308 369.584 452.349 369.335 452.349ZM353.884 436.319L368.085 446.292L368.392 445.34L366.09 442.936C365.389 442.207 365.241 441.11 365.722 440.217L368.691 434.711L366.749 432.339C366.237 431.715 366.084 430.873 366.346 430.108C366.607 429.347 367.243 428.774 368.03 428.591L371.904 427.698L372.928 424.615C373.183 423.855 373.814 423.276 374.595 423.086L381.644 421.391L377.997 414.588C377.573 413.8 377.639 412.834 378.167 412.11C378.691 411.391 379.577 411.041 380.471 411.19L388.315 412.634L394.082 406.391L394.656 401.373C394.777 400.306 395.606 399.464 396.666 399.323L397.974 399.154L400.198 387.718C400.333 387.022 400.779 386.425 401.408 386.098L408.63 382.326C409.24 382.009 409.951 381.981 410.591 382.236L413.173 383.288L416.941 378.005L421.962 357.413C422.108 356.82 422.476 356.306 422.996 355.983L425.464 354.448L426.543 350.277C426.639 349.904 426.825 349.563 427.088 349.28L432.305 343.628L432.225 336.683L424.223 331.318C423.841 331.063 423.543 330.699 423.368 330.271L422.183 327.41L415.009 326.76C414.408 326.705 413.85 326.418 413.456 325.963L406.491 317.894L401.454 320.698C400.602 321.176 399.548 321.067 398.806 320.434C398.066 319.801 397.795 318.777 398.13 317.86L399.507 314.099L399.347 314.063L395.092 315.484C394.223 315.762 393.264 315.52 392.642 314.855C392.02 314.181 391.85 313.206 392.207 312.365L395.666 304.172L391.684 295.951L383.143 294.704C382.342 294.585 381.658 294.062 381.337 293.314L378.309 286.274L375.294 285.855C374.521 285.745 373.853 285.258 373.513 284.557L369.938 277.121L364.722 277.786C364.38 277.84 364.031 277.79 363.702 277.69L355.846 275.121C355.528 275.017 355.234 274.844 354.988 274.616L350.223 270.208L345.621 272.736C345.305 272.909 344.953 273.005 344.594 273.023L340.764 273.178L338.053 279.59C337.713 280.396 336.955 280.942 336.085 281.006L333.662 281.198L333.783 285.101C333.79 285.333 333.763 285.56 333.701 285.784L333.082 288.075L334.48 290.079C335.099 290.967 335.026 292.165 334.302 292.97L328.61 299.319L322.134 307.515L324.461 311.355C324.784 311.887 324.879 312.529 324.727 313.135C324.573 313.741 324.183 314.26 323.643 314.574L319.736 316.86L327.744 332.22C327.835 332.398 327.903 332.58 327.949 332.771L331.625 348.655L347.273 359.885C347.878 360.317 348.238 361.015 348.246 361.761L348.494 393.469L351.461 404.977C351.591 405.488 351.547 406.029 351.331 406.507L347 416.23L351.636 423.302C351.88 423.68 352.012 424.117 352.016 424.564L352.055 429.491L353.514 430.147C354.562 430.616 355.113 431.777 354.812 432.884L353.884 436.319Z" fill="black"/>
<path d="M335.581 395.385L331.392 398.79L329.129 402.639L324.953 404.133L319.566 404.383L316.001 414.853L310.418 420.176L309.884 425.272L311.519 431.607L323.468 425.932L327.336 416.492L334.717 408.923L335.569 402.411L338.191 396.518L335.581 395.385Z" fill="#29FF91"/>
<path d="M311.519 433.937C311.182 433.937 310.845 433.865 310.531 433.719C309.9 433.424 309.435 432.863 309.261 432.19L307.626 425.856C307.557 425.587 307.537 425.305 307.567 425.031L308.1 419.935C308.156 419.384 308.407 418.869 308.808 418.487L313.978 413.559L317.359 403.632C317.667 402.726 318.499 402.097 319.456 402.056L324.495 401.819L327.548 400.726L329.381 397.607C329.522 397.369 329.704 397.156 329.921 396.982L334.11 393.576C334.786 393.025 335.713 392.903 336.511 393.243L339.12 394.377C339.692 394.628 340.138 395.092 340.363 395.671C340.589 396.254 340.575 396.896 340.322 397.465L337.836 403.048L337.027 409.223C336.964 409.724 336.738 410.189 336.386 410.549L329.321 417.793L325.627 426.815C325.406 427.353 324.994 427.789 324.467 428.04L312.518 433.714C312.202 433.86 311.86 433.937 311.519 433.937ZM312.248 425.094L313.07 428.287L321.654 424.215L325.177 415.608C325.291 415.33 325.457 415.08 325.667 414.866L332.507 407.853L333.258 402.111C333.285 401.888 333.347 401.669 333.44 401.465L334.366 399.38L333.19 400.336L331.14 403.824C330.862 404.294 330.43 404.653 329.914 404.835L325.737 406.329C325.52 406.406 325.292 406.452 325.062 406.461L321.259 406.639L318.206 415.606C318.086 415.961 317.881 416.284 317.61 416.544L312.645 421.276L312.248 425.094Z" fill="black"/>
<path d="M197.458 222.325C196.436 222.325 195.609 221.498 195.609 220.476V121.849C195.609 120.827 196.436 120 197.458 120C198.48 120 199.308 120.827 199.308 121.849V220.476C199.308 221.498 198.48 222.325 197.458 222.325Z" fill="black"/>
<path d="M197.458 158.64H169.719L155.85 147.024L169.719 135.41H197.458V158.64Z" fill="#E3E7FF"/>
<path d="M197.458 160.489H169.719C169.286 160.489 168.865 160.335 168.533 160.058L154.663 148.441C154.243 148.089 154 147.571 154 147.023C154 146.476 154.242 145.956 154.663 145.606L168.533 133.992C168.865 133.713 169.286 133.56 169.719 133.56H197.457C198.479 133.56 199.307 134.388 199.307 135.409V158.639C199.307 159.662 198.48 160.489 197.458 160.489ZM170.391 156.79H195.609V137.259H170.391L158.731 147.024L170.391 156.79Z" fill="black"/>
<path d="M197.458 158.639H236.134L250.003 170.257L236.134 181.873H197.458V158.639Z" fill="#E3E7FF"/>
<path d="M236.134 183.722H197.458C196.436 183.722 195.609 182.895 195.609 181.873V158.64C195.609 157.618 196.436 156.791 197.458 156.791H236.134C236.567 156.791 236.988 156.945 237.322 157.223L251.191 168.842C251.61 169.193 251.853 169.713 251.853 170.258C251.853 170.807 251.611 171.324 251.189 171.678L237.32 183.293C236.988 183.57 236.567 183.722 236.134 183.722ZM199.308 180.023H235.462L247.123 170.257L235.462 160.489H199.308V180.023Z" fill="black"/>
<path d="M198.665 278.253C198.665 298.917 181.917 315.664 161.257 315.664C140.597 315.664 123.849 298.916 123.849 278.253C123.849 257.597 140.597 240.849 161.257 240.849C181.917 240.849 198.665 257.597 198.665 278.253Z" fill="#E3E7FF"/>
<path d="M161.257 317.514C139.612 317.514 122 299.902 122 278.253C122 256.607 139.611 239 161.257 239C182.903 239 200.514 256.607 200.514 278.253C200.514 299.902 182.902 317.514 161.257 317.514ZM161.257 242.698C141.651 242.698 125.699 258.648 125.699 278.253C125.699 297.862 141.65 313.815 161.257 313.815C180.865 313.815 196.816 297.862 196.816 278.253C196.816 258.647 180.864 242.698 161.257 242.698Z" fill="black"/>
<path d="M156.786 285.195L140.847 265.109L165.725 271.311L156.786 285.195Z" fill="#E3E7FF"/>
<path d="M156.786 287.044C156.222 287.044 155.689 286.788 155.338 286.344L139.398 266.258C138.905 265.641 138.864 264.774 139.292 264.109C139.722 263.441 140.521 263.134 141.294 263.315L166.173 269.516C166.751 269.661 167.224 270.076 167.444 270.629C167.664 271.185 167.603 271.81 167.279 272.312L158.34 286.196C158.017 286.698 157.471 287.012 156.877 287.041C156.847 287.044 156.816 287.044 156.786 287.044ZM145.676 268.219L156.628 282.024L162.772 272.481L145.676 268.219Z" fill="black"/>
<path d="M165.725 271.311L181.668 291.4L156.786 285.195L165.725 271.311Z" fill="#E3E7FF"/>
<path d="M181.668 293.249C181.52 293.249 181.369 293.232 181.219 293.195L156.338 286.99C155.76 286.846 155.287 286.431 155.067 285.878C154.846 285.321 154.908 284.696 155.231 284.195L164.171 270.311C164.494 269.809 165.04 269.494 165.634 269.466C166.223 269.397 166.804 269.693 167.174 270.163L182.861 289.926C183.305 290.266 183.592 290.797 183.592 291.399C183.592 292.433 182.706 293.228 181.708 293.249C181.695 293.249 181.679 293.249 181.668 293.249ZM159.738 284.025L176.838 288.29L165.882 274.482L159.738 284.025Z" fill="black"/>
<path d="M161.257 248.744C160.235 248.744 159.408 247.917 159.408 246.895V240.849C159.408 239.827 160.235 239 161.257 239C162.279 239 163.107 239.827 163.107 240.849V246.895C163.107 247.917 162.279 248.744 161.257 248.744Z" fill="black"/>
<path d="M161.257 317.514C160.235 317.514 159.408 316.687 159.408 315.664V309.611C159.408 308.588 160.235 307.761 161.257 307.761C162.279 307.761 163.107 308.588 163.107 309.611V315.664C163.107 316.687 162.279 317.514 161.257 317.514Z" fill="black"/>
<path d="M198.665 280.103H192.615C191.592 280.103 190.766 279.276 190.766 278.253C190.766 277.231 191.592 276.404 192.615 276.404H198.665C199.687 276.404 200.514 277.231 200.514 278.253C200.514 279.275 199.687 280.103 198.665 280.103Z" fill="black"/>
<path d="M129.903 280.103H123.849C122.827 280.103 122.001 279.276 122.001 278.253C122.001 277.231 122.828 276.404 123.849 276.404H129.903C130.925 276.404 131.752 277.231 131.752 278.253C131.752 279.275 130.925 280.103 129.903 280.103Z" fill="black"/>
<path d="M155.628 288.803C155.283 288.803 154.937 288.709 154.626 288.506C153.768 287.95 153.523 286.805 154.078 285.949L165.332 268.551C165.888 267.688 167.035 267.443 167.889 268.002C168.747 268.558 168.993 269.703 168.438 270.559L157.184 287.958C156.829 288.507 156.234 288.803 155.628 288.803Z" fill="black"/>
<path d="M491.134 12.5891C485.151 10.9611 478.87 10.0233 472.5 9.82238C471.685 9.79716 470.87 9.78613 470.05 9.78613C427.148 9.78613 391.204 44.6852 389.915 87.5874C389.032 116.63 403.987 143.943 428.938 158.891L429.129 159.003L465.596 239.586L465.792 239.224H465.697L506.837 161.341L507.028 161.241C532.84 147.822 549.402 121.455 550.263 92.4219C551.401 55.1572 527.083 22.3322 491.134 12.5891Z" fill="#FF8970"/>
<path d="M465.673 241.735C465.653 241.735 465.632 241.735 465.612 241.735C464.726 241.704 463.836 241.355 463.472 240.547L427.302 160.621C401.805 145.032 386.684 117.14 387.583 87.5172C388.911 43.3715 425.904 7.45508 470.049 7.45508C470.894 7.45508 471.732 7.46611 472.57 7.49133C479.107 7.69857 485.558 8.65523 491.747 10.34C528.743 20.3676 553.764 54.1485 552.594 92.4928C551.713 122.196 534.856 149.193 508.56 163.071L468.056 239.75C468.015 239.95 467.944 240.147 467.844 240.333C467.431 241.093 466.539 241.735 465.673 241.735ZM470.05 12.1178C428.4 12.1178 393.497 46.0059 392.246 87.6583C391.388 115.847 405.906 142.375 430.135 156.891C430.543 157.135 431.057 157.609 431.253 158.041L465.718 234.194L504.777 160.252C504.995 159.836 505.336 159.494 505.755 159.276C531.011 146.144 547.096 120.542 547.931 92.3541C549.037 56.1753 525.43 24.3006 490.524 14.8396C484.686 13.2525 478.597 12.3487 472.427 12.1533C471.637 12.1288 470.845 12.1178 470.05 12.1178Z" fill="black"/>
<path d="M508.344 91.6086C508.344 112.732 491.217 129.866 470.091 129.866C448.965 129.866 431.833 112.732 431.833 91.6086C431.833 70.4826 448.965 53.3486 470.091 53.3486C491.217 53.3486 508.344 70.4826 508.344 91.6086Z" fill="#D6735E"/>
<path d="M470.091 132.197C447.711 132.197 429.502 113.989 429.502 91.6088C429.502 69.2266 447.711 51.0178 470.091 51.0178C492.469 51.0178 510.676 69.2266 510.676 91.6088C510.676 113.989 492.469 132.197 470.091 132.197ZM470.091 55.6805C450.282 55.6805 434.165 71.7971 434.165 91.6088C434.165 111.418 450.282 127.535 470.091 127.535C489.899 127.535 506.011 111.418 506.011 91.6088C506.011 71.7971 489.899 55.6805 470.091 55.6805Z" fill="black"/>
<path d="M811.569 234.353L824.782 194.475H770.423L774.519 234.353H811.569Z" fill="#E3E7FF"/>
<path d="M811.569 236.202H774.519C773.571 236.202 772.777 235.484 772.679 234.541L768.583 194.664C768.531 194.143 768.701 193.624 769.051 193.236C769.401 192.847 769.899 192.625 770.423 192.625H824.782C825.376 192.625 825.934 192.911 826.28 193.392C826.629 193.873 826.722 194.493 826.537 195.056L813.324 234.934C813.074 235.693 812.366 236.202 811.569 236.202ZM776.188 232.504H810.234L822.221 196.324H772.474L776.188 232.504Z" fill="black"/>
<path d="M845.207 200.969C845.207 197.386 840.804 194.475 835.379 194.475H824.782L811.569 234.353H774.519L779.031 278.183H847.179C854.221 278.183 859.932 274.408 859.932 269.749L845.207 200.969Z" fill="#E3E7FF"/>
<path d="M847.179 280.032H779.031C778.083 280.032 777.288 279.316 777.191 278.37L772.679 234.541C772.627 234.021 772.797 233.505 773.147 233.114C773.498 232.724 773.996 232.504 774.519 232.504H810.234L823.027 193.894C823.278 193.137 823.986 192.626 824.783 192.626H835.379C841.828 192.626 846.899 196.18 847.053 200.756L861.74 269.363C861.768 269.489 861.782 269.619 861.782 269.749C861.781 275.514 855.367 280.032 847.179 280.032ZM780.699 276.333H847.179C852.992 276.333 857.917 273.419 858.079 269.926L843.399 201.356C843.372 201.229 843.358 201.099 843.358 200.969C843.358 198.496 839.63 196.324 835.379 196.324H826.116L813.715 233.761L826.328 244.625C826.752 244.99 826.97 245.506 826.97 246.026C826.97 246.456 826.823 246.883 826.522 247.233C825.853 248.009 824.686 248.089 823.914 247.428L810.883 236.203H776.569L780.699 276.333Z" fill="black"/>
<path d="M774.519 234.353L770.423 194.475H756.402C750.977 194.475 746.577 197.386 746.577 200.969L731.849 269.749C731.849 274.408 737.563 278.183 744.602 278.183H779.03L774.519 234.353Z" fill="#E3E7FF"/>
<path d="M779.031 280.032H744.602C736.414 280.032 730 275.514 730 269.749C730 269.619 730.014 269.489 730.041 269.363L744.732 200.756C744.884 196.179 749.956 192.626 756.402 192.626H770.424C771.372 192.626 772.167 193.343 772.264 194.286L780.871 277.996C780.924 278.516 780.753 279.032 780.404 279.422C780.053 279.812 779.554 280.032 779.031 280.032ZM733.702 269.926C733.864 273.419 738.789 276.333 744.602 276.333H776.981L768.754 196.324H756.402C752.154 196.324 748.427 198.495 748.427 200.969C748.427 201.099 748.412 201.229 748.386 201.356L733.702 269.926Z" fill="black"/>
<path d="M835.516 152.005C833.042 151.329 830.456 150.947 827.826 150.862C827.487 150.853 827.151 150.849 826.815 150.849C809.11 150.849 794.276 165.253 793.741 182.957C793.381 194.939 799.546 206.212 809.843 212.381L809.927 212.426L824.976 245.683L825.053 245.535H825.016L841.992 213.393L842.075 213.352C852.723 207.813 859.56 196.931 859.918 184.95C860.384 169.573 850.35 156.026 835.516 152.005Z" fill="#E3E7FF"/>
<path d="M825.007 247.457C824.994 247.457 824.982 247.457 824.969 247.457C824.259 247.442 823.584 247.093 823.291 246.446L808.473 213.703C797.801 207.044 791.518 195.333 791.892 182.901C792.457 164.208 808.124 149 826.814 149L827.874 149.013C830.664 149.104 833.397 149.509 836.003 150.221C851.663 154.465 862.258 168.77 861.766 185.006C861.393 197.493 854.355 208.85 843.359 214.764L826.816 246.088C826.786 246.186 826.746 246.283 826.698 246.377C826.38 246.998 825.705 247.457 825.007 247.457ZM826.815 152.699C810.101 152.699 796.095 166.297 795.591 183.012C795.249 194.327 801.075 204.971 810.793 210.794C811.116 210.988 811.456 211.32 811.611 211.663L825.087 241.443L840.358 212.53C840.537 212.189 840.82 211.913 841.166 211.739C851.277 206.481 857.733 196.207 858.069 184.894C858.509 170.375 849.036 157.586 835.033 153.789C832.702 153.154 830.257 152.791 827.768 152.709L826.815 152.699Z" fill="black"/>
<path d="M842.621 184.617C842.621 193.336 835.551 200.404 826.826 200.404C818.114 200.404 811.042 193.336 811.042 184.617C811.042 175.898 818.114 168.826 826.826 168.826C835.551 168.826 842.621 175.898 842.621 184.617Z" fill="#E3E7FF"/>
<path d="M826.826 202.253C817.102 202.253 809.193 194.341 809.193 184.617C809.193 174.89 817.102 166.976 826.826 166.976C836.554 166.976 844.47 174.89 844.47 184.617C844.47 194.341 836.554 202.253 826.826 202.253ZM826.826 170.675C819.141 170.675 812.891 176.929 812.891 184.617C812.891 192.303 819.141 198.555 826.826 198.555C834.516 198.555 840.771 192.303 840.771 184.617C840.771 176.929 834.516 170.675 826.826 170.675Z" fill="black"/>
<path d="M83.0107 450.472L48.55 463.196V371.488L83.0107 358.767V450.472Z" fill="#E3E7FF"/>
<path d="M48.55 465.045C48.1782 465.045 47.8075 464.933 47.4938 464.713C46.9969 464.366 46.7013 463.799 46.7013 463.196V371.488C46.7013 370.716 47.1832 370.022 47.9094 369.754L82.37 357.034C82.935 356.817 83.5707 356.9 84.0675 357.251C84.5644 357.597 84.8607 358.164 84.8607 358.767V450.473C84.8607 451.245 84.3788 451.939 83.6525 452.206L49.1919 464.93C48.9838 465.009 48.7669 465.045 48.55 465.045ZM50.3994 372.777V460.541L81.1613 449.182V361.422L50.3994 372.777Z" fill="black"/>
<path d="M117.467 463.196L83.0106 450.472V358.767L117.467 371.488V463.196Z" fill="#E3E7FF"/>
<path d="M117.468 465.045C117.251 465.045 117.034 465.009 116.826 464.929L82.3694 452.205C81.6431 451.937 81.1613 451.244 81.1613 450.472V358.767C81.1613 358.164 81.4575 357.597 81.9544 357.25C82.4525 356.899 83.09 356.82 83.6519 357.033L118.109 369.754C118.835 370.021 119.317 370.714 119.317 371.487V463.196C119.317 463.799 119.021 464.366 118.524 464.712C118.21 464.933 117.84 465.045 117.468 465.045ZM84.86 449.182L115.618 460.541V372.777L84.86 361.422V449.182Z" fill="black"/>
<path d="M151.928 450.472L117.468 463.196V371.488L151.928 358.767V450.472Z" fill="#E3E7FF"/>
<path d="M117.468 465.045C117.096 465.045 116.725 464.933 116.411 464.713C115.914 464.366 115.618 463.799 115.618 463.196V371.488C115.618 370.716 116.1 370.022 116.826 369.754L151.287 357.034C151.85 356.817 152.488 356.9 152.984 357.251C153.481 357.597 153.778 358.164 153.778 358.767V450.473C153.778 451.245 153.296 451.939 152.569 452.206L118.109 464.93C117.901 465.009 117.684 465.045 117.468 465.045ZM119.317 372.777V460.541L150.079 449.182V361.422L119.317 372.777Z" fill="black"/>
<path d="M186.385 463.196L151.928 450.472V358.767L186.385 371.488V463.196Z" fill="#E3E7FF"/>
<path d="M186.385 465.045C186.168 465.045 185.952 465.009 185.744 464.929L151.287 452.205C150.561 451.937 150.079 451.244 150.079 450.472V358.767C150.079 358.164 150.375 357.597 150.871 357.25C151.367 356.899 152.005 356.82 152.569 357.033L187.026 369.754C187.752 370.021 188.234 370.714 188.234 371.487V463.196C188.234 463.799 187.937 464.366 187.441 464.712C187.127 464.933 186.757 465.045 186.385 465.045ZM153.777 449.182L184.535 460.541V372.777L153.777 361.422V449.182Z" fill="black"/>
<path d="M169.156 439.679C168.134 439.679 167.307 438.852 167.307 437.83V381.041C167.307 380.019 168.134 379.192 169.156 379.192C170.178 379.192 171.005 380.019 171.005 381.041V437.83C171.006 438.852 170.179 439.679 169.156 439.679Z" fill="black"/>
<path d="M169.156 409.542H195.996L189.285 398.302L195.996 387.065H169.156V409.542Z" fill="#E3E7FF"/>
<path d="M195.996 411.391H169.156C168.134 411.391 167.307 410.564 167.307 409.542V387.065C167.307 386.043 168.134 385.216 169.156 385.216H195.996C196.662 385.216 197.276 385.574 197.604 386.152C197.931 386.734 197.924 387.441 197.582 388.015L191.439 398.302L197.582 408.595C197.924 409.166 197.931 409.874 197.604 410.456C197.276 411.034 196.663 411.391 195.996 411.391ZM171.006 407.693H192.738L187.698 399.248C187.349 398.666 187.349 397.937 187.698 397.352L192.738 388.915H171.006V407.693Z" fill="black"/>
<path d="M72.5869 307.624C70.6544 307.096 68.6213 306.793 66.5625 306.731C66.295 306.721 66.0313 306.721 65.7681 306.721C51.8913 306.721 40.2688 318.004 39.8494 331.881C39.5638 341.271 44.3969 350.106 52.4694 354.942L52.5344 354.974L64.3306 381.041L64.3882 380.922H64.3594L77.6656 355.733L77.7269 355.704C86.0744 351.359 91.43 342.831 91.7119 333.441C92.08 321.392 84.2138 310.773 72.5869 307.624Z" fill="#E3E7FF"/>
<path d="M64.3557 382.833C64.3488 382.833 64.3413 382.829 64.3338 382.829C63.6169 382.822 62.9413 382.457 62.645 381.803L51.0763 356.242C42.6282 350.896 37.7013 341.643 38 331.823C38.4494 316.964 50.905 304.871 65.7675 304.871L66.6363 304.882C68.8163 304.947 70.9888 305.269 73.0744 305.839C85.5294 309.213 93.9544 320.586 93.5607 333.499C93.2625 343.384 87.7113 352.381 79.0319 357.106L66.1413 381.508C66.1175 381.583 66.0869 381.655 66.0507 381.728C65.7425 382.367 65.065 382.833 64.3557 382.833ZM65.7682 308.569C52.885 308.569 42.0869 319.051 41.6988 331.934C41.4332 340.658 45.9244 348.867 53.4188 353.356C53.7419 353.548 54.0638 353.869 54.2188 354.212L64.4419 376.804L76.0307 354.869C76.2163 354.516 76.5144 354.23 76.8775 354.061C84.6232 350.03 89.6019 342.105 89.8619 333.386C90.205 322.194 82.9019 312.333 72.1025 309.408C70.2944 308.916 68.4132 308.639 66.5057 308.581L65.7682 308.569Z" fill="black"/>
<path d="M78.1563 333.182C78.1563 340.015 72.612 345.556 65.7782 345.556C58.9482 345.556 53.4082 340.015 53.4082 333.182C53.4082 326.347 58.9488 320.807 65.7782 320.807C72.6126 320.807 78.1563 326.347 78.1563 333.182Z" fill="#E3E7FF"/>
<path d="M65.7788 347.405C57.9376 347.405 51.5594 341.022 51.5594 333.181C51.5594 325.34 57.9382 318.957 65.7788 318.957C73.6238 318.957 80.0057 325.34 80.0057 333.181C80.0057 341.022 73.6238 347.405 65.7788 347.405ZM65.7788 322.656C59.9782 322.656 55.2576 327.377 55.2576 333.181C55.2576 338.986 59.9782 343.706 65.7788 343.706C71.5851 343.706 76.3076 338.986 76.3076 333.181C76.3069 327.376 71.5851 322.656 65.7788 322.656Z" fill="black"/>
<path d="M54.0293 78.4769L85.6074 110.057C90.7105 115.161 98.9893 115.161 104.093 110.057L106.646 107.5C111.753 102.396 111.753 94.12 106.646 89.0163L75.0718 57.4363L54.0293 78.4769Z" fill="#E3E7FF"/>
<path d="M94.8499 115.732C90.8643 115.732 87.1168 114.181 84.2999 111.364L52.7218 79.7837C52.3749 79.4368 52.1799 78.9674 52.1799 78.4762C52.1799 77.9849 52.3749 77.5149 52.7218 77.1687L73.7643 56.1281C74.1112 55.7812 74.5806 55.5862 75.0718 55.5862C75.5631 55.5862 76.0324 55.7812 76.3793 56.1281L107.954 87.7081C110.773 90.5249 112.326 94.2724 112.326 98.2562C112.326 102.242 110.773 105.989 107.954 108.806L105.402 111.363C102.583 114.181 98.8362 115.732 94.8499 115.732ZM56.6443 78.4768L86.9149 108.749C91.1518 112.986 98.5487 112.986 102.786 108.749L105.337 106.192C107.459 104.072 108.628 101.255 108.628 98.2568C108.628 95.2612 107.459 92.4437 105.339 90.3237L75.0724 60.0512L56.6443 78.4768Z" fill="black"/>
<path d="M73.7462 45.9263L43.0425 76.6325L49.4569 83.0475L80.1644 52.3469L73.7462 45.9263Z" fill="#E3E7FF"/>
<path d="M49.4569 84.8969C48.9838 84.8969 48.5106 84.7162 48.1494 84.355L41.7344 77.9406C41.0119 77.2181 41.0119 76.0481 41.7344 75.3256L72.4388 44.62C72.7856 44.2731 73.255 44.0781 73.7463 44.0781C74.2375 44.0781 74.7069 44.2731 75.0538 44.62L81.4725 51.04C82.195 51.7625 82.195 52.9325 81.4725 53.655L50.7644 84.3556C50.4031 84.7156 49.93 84.8969 49.4569 84.8969ZM45.6569 76.6325L49.4569 80.4319L77.5494 52.3462L73.7463 48.5412L45.6569 76.6325Z" fill="black"/>
<path d="M89.3887 73.7068C88.9156 73.7068 88.4424 73.5261 88.0812 73.1649C87.3587 72.4424 87.3587 71.2724 88.0812 70.5499L99.8562 58.7755C100.578 58.053 101.749 58.053 102.471 58.7755C103.194 59.498 103.194 60.668 102.471 61.3905L90.6968 73.1649C90.3356 73.5261 89.8624 73.7068 89.3887 73.7068Z" fill="black"/>
<path d="M118.091 17.9907L88.5792 47.5024L113.737 72.6606L143.249 43.1489L118.091 17.9907Z" fill="#E3E7FF"/>
<path d="M113.74 74.5106C113.267 74.5106 112.794 74.3299 112.432 73.9687L87.2725 48.8143C86.9256 48.4674 86.7306 47.9981 86.7306 47.5068C86.7306 47.0156 86.9256 46.5462 87.2725 46.1993L116.785 16.6849C117.507 15.9624 118.677 15.9624 119.4 16.6849L144.56 41.8431C144.907 42.1899 145.102 42.6593 145.102 43.1506C145.102 43.6418 144.907 44.1112 144.56 44.4581L115.047 73.9687C114.686 74.3299 114.213 74.5106 113.74 74.5106ZM91.195 47.5068L113.74 70.0462L140.637 43.1506L118.092 20.6074L91.195 47.5068Z" fill="black"/>
<path d="M56.6299 106.466C56.1568 106.466 55.6836 106.286 55.3224 105.924C54.5999 105.202 54.5999 104.032 55.3224 103.309L67.093 91.5399C67.8155 90.8174 68.9855 90.8174 69.708 91.5399C70.4305 92.2624 70.4305 93.4324 69.708 94.1549L57.9374 105.925C57.5761 106.286 57.103 106.466 56.6299 106.466Z" fill="black"/>
<path d="M44.047 92.0352L14.5353 121.547L39.6943 146.706L69.206 117.194L44.047 92.0352Z" fill="#E3E7FF"/>
<path d="M39.6937 148.559C39.2206 148.559 38.7475 148.378 38.3862 148.017L13.2262 122.859C12.8793 122.512 12.6843 122.042 12.6843 121.551C12.6843 121.06 12.8793 120.591 13.2262 120.244L42.7381 90.7318C43.4606 90.0093 44.6306 90.0093 45.3531 90.7318L70.5131 115.892C70.86 116.239 71.055 116.708 71.055 117.199C71.055 117.691 70.86 118.16 70.5131 118.507L41.0012 148.017C40.64 148.378 40.1674 148.559 39.6937 148.559ZM17.1487 121.551L39.6937 144.094L66.5912 117.199L44.0462 94.6537L17.1487 121.551Z" fill="black"/>
<path d="M96.1287 126.048C95.1087 126.048 94.2793 125.22 94.2793 124.199C94.2793 123.179 95.1068 122.349 96.1287 122.349C108.707 122.344 118.941 112.108 118.941 99.5317C118.941 98.5099 119.768 97.6824 120.79 97.6824C121.812 97.6824 122.639 98.5099 122.639 99.5317C122.64 114.147 110.747 126.042 96.1287 126.048Z" fill="black"/>
<path d="M96.125 137.617C95.1031 137.617 94.2762 136.79 94.2762 135.767C94.2762 134.746 95.1031 133.918 96.125 133.918C115.087 133.918 130.513 118.492 130.513 99.5317C130.513 98.5099 131.341 97.6824 132.362 97.6824C133.385 97.6824 134.212 98.5099 134.212 99.5317C134.212 120.532 117.126 137.617 96.125 137.617Z" fill="black"/>
<path d="M40.3112 131.267C39.8381 131.267 39.3649 131.086 39.0037 130.725L22.1799 113.904C21.4574 113.182 21.4574 112.012 22.1799 111.289C22.9024 110.567 24.0724 110.567 24.7949 111.289L41.6187 128.11C42.3412 128.833 42.3412 130.003 41.6187 130.725C41.2581 131.086 40.7849 131.267 40.3112 131.267Z" fill="black"/>
<path d="M59.6887 128.566C59.2156 128.566 58.7424 128.385 58.3812 128.024L33.2212 102.866C32.4987 102.143 32.4987 100.973 33.2212 100.251C33.9437 99.5281 35.1137 99.5281 35.8362 100.251L60.9962 125.409C61.7187 126.131 61.7187 127.301 60.9962 128.024C60.6356 128.385 60.1624 128.566 59.6887 128.566Z" fill="black"/>
<path d="M24.6831 133.547C24.21 133.547 23.7369 133.367 23.3756 133.006C22.6531 132.283 22.6531 131.113 23.3756 130.391L45.6819 108.086C46.4044 107.363 47.5744 107.363 48.2969 108.086C49.0187 108.808 49.0187 109.978 48.2969 110.701L25.9906 133.006C25.6294 133.367 25.1562 133.547 24.6831 133.547Z" fill="black"/>
<path d="M115.922 59.2563C115.449 59.2563 114.976 59.0757 114.614 58.7144L95.9918 40.0932C95.2693 39.3707 95.2693 38.2007 95.9918 37.4782C96.7143 36.7557 97.8843 36.7557 98.6068 37.4782L117.229 56.0988C117.952 56.8213 117.952 57.9913 117.229 58.7138C116.868 59.0757 116.395 59.2563 115.922 59.2563Z" fill="black"/>
<path d="M134.782 53.4717C134.309 53.4717 133.836 53.2911 133.475 52.9298L116.727 36.1798C116.004 35.4573 116.004 34.2873 116.727 33.5648C117.449 32.8423 118.619 32.8423 119.342 33.5648L136.09 50.3148C136.812 51.0373 136.812 52.2073 136.09 52.9298C135.729 53.2911 135.256 53.4717 134.782 53.4717Z" fill="black"/>
<path d="M105.039 58.0549C104.566 58.0549 104.093 57.8743 103.732 57.5131C103.009 56.7906 103.009 55.6206 103.732 54.8981L129.369 29.2631C130.091 28.5406 131.261 28.5406 131.984 29.2631C132.706 29.9856 132.706 31.1556 131.984 31.8781L106.347 57.5131C105.986 57.8743 105.512 58.0549 105.039 58.0549Z" fill="black"/>
<path d="M745.298 57.8201V107.463H750.167H755.841C759.893 107.463 763.317 110.179 764.394 113.892C764.632 114.685 764.755 115.518 764.755 116.384C764.755 121.311 760.761 125.302 755.841 125.302H750.167H745.298H658.849V57.8201H745.298Z" fill="#E3E7FF"/>
<path d="M755.841 127.151H658.849C657.827 127.151 657 126.324 657 125.303V57.8201C657 56.7976 657.827 55.9707 658.849 55.9707H745.298C746.321 55.9707 747.147 56.7976 747.147 57.8201V105.614H755.841C760.597 105.614 764.845 108.806 766.171 113.378C766.456 114.329 766.604 115.348 766.604 116.384C766.604 122.321 761.775 127.151 755.841 127.151ZM660.699 123.453H755.841C759.737 123.453 762.906 120.281 762.906 116.384C762.906 115.708 762.811 115.048 762.622 114.424C761.749 111.406 758.962 109.312 755.841 109.312H745.298C744.276 109.312 743.449 108.485 743.449 107.463V59.6688H660.699V123.453Z" fill="black"/>
<path d="M750.167 39.9812H755.841C760.761 39.9812 764.755 43.9756 764.755 48.9025V54.5768V72.4156V92.8731V110.712V116.384C764.755 115.517 764.632 114.685 764.394 113.892C763.317 110.179 759.894 107.463 755.841 107.463H750.167H745.298V57.8199V39.9812H750.167Z" fill="#E3E7FF"/>
<path d="M764.755 118.234C763.733 118.234 762.906 117.407 762.906 116.384C762.906 115.709 762.811 115.05 762.622 114.425C761.749 111.407 758.962 109.312 755.841 109.312H745.298C744.276 109.312 743.449 108.486 743.449 107.463V39.9812C743.449 38.9587 744.276 38.1318 745.298 38.1318H755.841C761.775 38.1318 766.604 42.9631 766.604 48.9025V116.384C766.604 117.406 765.777 118.234 764.755 118.234ZM747.147 105.614H755.841C758.494 105.614 760.987 106.607 762.906 108.277V48.9025C762.906 45.0031 759.737 41.8306 755.841 41.8306H747.147V105.614Z" fill="black"/>
<path d="M693.462 98.0594C692.439 98.0594 691.612 97.2325 691.612 96.2106V24.8494C691.612 23.8269 692.439 23 693.462 23C694.484 23 695.311 23.8269 695.311 24.8494V96.2106C695.311 97.2325 694.483 98.0594 693.462 98.0594Z" fill="black"/>
<path d="M693.462 60.6626H727.189L718.752 46.5351L727.189 32.4182H693.462V60.6626Z" fill="#E3E7FF"/>
<path d="M727.189 62.512H693.462C692.439 62.512 691.612 61.6851 691.612 60.6626V32.4182C691.612 31.3957 692.439 30.5688 693.462 30.5688H727.189C727.855 30.5688 728.469 30.9263 728.798 31.5063C729.126 32.0845 729.117 32.7957 728.776 33.3663L720.906 46.5351L728.776 59.7145C729.117 60.2851 729.125 60.997 728.798 61.5751C728.469 62.1545 727.855 62.512 727.189 62.512ZM695.311 58.8138H723.931L717.164 47.4832C716.816 46.9001 716.816 46.1701 717.164 45.587L723.93 34.2676H695.311V58.8138Z" fill="black"/>
<path d="M700.101 426.569H673.337C672.315 426.569 671.488 425.742 671.488 424.719C671.488 423.698 672.315 422.87 673.337 422.87H700.101C701.123 422.87 701.95 423.698 701.95 424.719C701.95 425.741 701.123 426.569 700.101 426.569Z" fill="black"/>
<path d="M686.719 439.951C685.697 439.951 684.869 439.124 684.869 438.101V411.334C684.869 410.312 685.697 409.485 686.719 409.485C687.741 409.485 688.568 410.312 688.568 411.334V438.101C688.568 439.124 687.741 439.951 686.719 439.951Z" fill="black"/>
<path d="M686.719 447.434C674.191 447.434 664 437.245 664 424.719C664 412.193 674.191 402 686.719 402C699.244 402 709.434 412.193 709.434 424.719C709.434 437.246 699.244 447.434 686.719 447.434ZM686.719 405.699C676.232 405.699 667.699 414.23 667.699 424.719C667.699 435.204 676.231 443.736 686.719 443.736C697.204 443.736 705.735 435.205 705.735 424.719C705.735 414.23 697.204 405.699 686.719 405.699Z" fill="black"/>
<path d="M242.534 311.46H221.094C220.072 311.46 219.245 310.633 219.245 309.611C219.245 308.588 220.072 307.761 221.094 307.761H242.534C243.557 307.761 244.384 308.588 244.384 309.611C244.384 310.633 243.556 311.46 242.534 311.46Z" fill="black"/>
<path d="M225.074 293.25H213.698C212.675 293.25 211.848 292.423 211.848 291.4C211.848 290.378 212.675 289.551 213.698 289.551H225.074C226.097 289.551 226.924 290.378 226.924 291.4C226.924 292.422 226.097 293.25 225.074 293.25Z" fill="black"/>
<path d="M707.584 475.487H693.462C692.44 475.487 691.613 474.66 691.613 473.638C691.613 472.616 692.44 471.789 693.462 471.789H707.584C708.607 471.789 709.434 472.616 709.434 473.638C709.434 474.66 708.607 475.487 707.584 475.487Z" fill="black"/>
<mask id="mask0_369_566" style="mask-type:luminance" maskUnits="userSpaceOnUse" x="401" y="1" width="500" height="500">
<path d="M900.996 1H401V501H900.996V1Z" fill="white"/>
</mask>
<g mask="url(#mask0_369_566)">
<path d="M819.23 356.095L765.569 302.438C760.91 297.772 753.346 297.772 748.684 302.438C744.021 307.098 744.021 314.661 748.684 319.324L745.154 315.795C740.491 311.136 732.932 311.136 728.269 315.795C723.606 320.461 723.606 328.024 728.269 332.684L727.124 331.543C722.461 326.88 714.901 326.876 710.232 331.543C705.569 336.206 705.572 343.766 710.236 348.431L664.903 303.096C660.241 298.436 652.677 298.436 648.014 303.096C643.348 307.763 643.348 315.325 648.011 319.988L702.756 374.725C701.621 375.389 700.531 376.159 699.563 377.131C693.354 383.336 696.124 390.636 702.33 396.841L728.306 422.821L729.855 424.366L739.788 434.299C739.788 434.299 749.146 442.881 758.678 441.866L777.936 443.708C777.936 443.708 784.044 442.968 786.822 445.742L790.52 449.444L841.321 398.644L832.349 389.673C829.662 386.985 828.947 382.702 828.947 382.702L826.7 370.516C826.049 362.279 819.23 356.095 819.23 356.095Z" fill="#FFE6CE"/>
<path d="M790.519 451.292C790.028 451.292 789.558 451.097 789.211 450.751L785.513 447.049C784.507 446.045 782.408 445.467 779.758 445.467C778.84 445.467 778.201 445.539 778.156 445.542C778.022 445.557 777.885 445.557 777.76 445.55L758.681 443.722C748.552 444.69 738.923 436.011 738.538 435.661L701.022 398.148C697.409 394.533 695.206 390.903 694.479 387.356C693.616 383.144 694.922 379.154 698.256 375.824C698.738 375.339 699.267 374.881 699.852 374.436L646.704 321.296C641.326 315.917 641.328 307.166 646.708 301.788C651.916 296.581 661.003 296.581 666.212 301.788L704.905 340.485C704.771 336.787 706.112 333.049 708.925 330.235C712.635 326.529 718.368 325.276 723.186 326.944C723.013 326.063 722.924 325.16 722.924 324.243C722.924 320.559 724.358 317.095 726.963 314.487C731.248 310.204 738.242 309.309 743.396 312.172C743.358 311.746 743.337 311.313 743.337 310.88C743.337 307.196 744.773 303.732 747.376 301.131C752.585 295.916 761.67 295.916 766.879 301.131L820.537 354.788C820.772 354.997 827.843 361.502 828.543 370.37L830.764 382.364C830.776 382.429 831.434 386.142 833.656 388.364L842.627 397.336C843.349 398.058 843.349 399.229 842.627 399.951L791.828 450.752C791.48 451.097 791.01 451.292 790.519 451.292ZM779.758 441.768C782.358 441.768 785.923 442.231 788.129 444.434L790.519 446.829L838.705 398.643L831.041 390.979C827.971 387.909 827.154 383.202 827.122 383.004L824.881 370.85C824.27 363.243 818.05 357.522 817.987 357.464L764.261 303.746C760.449 299.931 753.804 299.931 749.991 303.746C748.086 305.649 747.035 308.185 747.035 310.879C747.035 313.577 748.086 316.109 749.991 318.016C750.713 318.738 750.713 319.909 749.991 320.631C749.269 321.354 748.099 321.354 747.376 320.631L743.847 317.102C740.036 313.296 733.387 313.296 729.576 317.102C727.671 319.009 726.622 321.544 726.622 324.243C726.622 326.937 727.671 329.473 729.576 331.376C730.299 332.099 730.299 333.269 729.578 333.992C728.856 334.714 727.686 334.71 726.963 333.996L725.818 332.854C721.999 329.029 715.355 329.039 711.539 332.851C707.606 336.784 707.607 343.187 711.542 347.124C712.264 347.847 712.264 349.017 711.542 349.739C710.82 350.462 709.65 350.462 708.927 349.739L663.595 304.404C659.784 300.597 653.132 300.597 649.321 304.404C645.384 308.341 645.382 314.745 649.317 318.682L704.062 373.419C704.466 373.822 704.661 374.394 704.589 374.961C704.516 375.528 704.184 376.034 703.691 376.323C702.526 377.006 701.63 377.677 700.871 378.436C698.388 380.921 697.481 383.594 698.101 386.617C698.673 389.402 700.586 392.486 703.636 395.535L741.095 432.994C741.114 433.007 749.829 440.961 758.482 440.029C758.608 440.018 758.731 440.018 758.854 440.026L777.928 441.85C778.249 441.819 778.911 441.768 779.758 441.768Z" fill="black"/>
<path d="M846.249 393.742L785.301 454.69L801.185 470.574L862.133 409.626L846.249 393.742Z" fill="#E3E7FF"/>
<path d="M801.192 472.389C800.701 472.389 800.231 472.194 799.884 471.847L784 455.963C783.278 455.24 783.278 454.07 784 453.347L844.946 392.397C845.669 391.675 846.838 391.675 847.561 392.397L863.446 408.279C863.793 408.626 863.988 409.095 863.988 409.586C863.988 410.077 863.792 410.547 863.446 410.894L802.5 471.847C802.152 472.194 801.684 472.389 801.192 472.389ZM787.922 454.656L801.192 467.925L859.523 409.586L846.253 396.32L787.922 454.656Z" fill="black"/>
<path d="M867.622 404.088L795.695 476.015L863.061 543.38L934.988 471.453L867.622 404.088Z" fill="#6593AB"/>
<path d="M863.066 545.243C862.593 545.243 862.119 545.063 861.759 544.702L794.394 477.337C793.672 476.616 793.672 475.445 794.394 474.723L866.321 402.793C867.014 402.1 868.242 402.1 868.936 402.793L936.303 470.161C936.65 470.508 936.845 470.977 936.845 471.469C936.845 471.96 936.649 472.429 936.303 472.776L864.374 544.702C864.012 545.063 863.539 545.243 863.066 545.243ZM798.317 476.03L863.067 540.779L932.381 471.468L867.628 406.716L798.317 476.03Z" fill="black"/>
<path d="M762.448 334.937C761.974 334.937 761.501 334.757 761.141 334.396L747.376 320.631C746.654 319.91 746.654 318.739 747.376 318.016C748.098 317.294 749.268 317.294 749.991 318.016L763.756 331.781C764.477 332.503 764.477 333.673 763.756 334.396C763.394 334.757 762.921 334.937 762.448 334.937Z" fill="black"/>
<path d="M745.559 351.826C745.086 351.826 744.613 351.646 744.252 351.284L726.962 333.991C726.24 333.269 726.24 332.099 726.962 331.376C727.684 330.654 728.854 330.654 729.577 331.376L746.867 348.669C747.589 349.391 747.589 350.562 746.867 351.284C746.505 351.646 746.032 351.826 745.559 351.826Z" fill="black"/>
<path d="M728.674 368.716C728.201 368.716 727.728 368.535 727.366 368.174L708.928 349.739C708.206 349.017 708.206 347.847 708.928 347.124C709.65 346.401 710.82 346.401 711.543 347.124L729.981 365.559C730.704 366.281 730.704 367.451 729.981 368.174C729.62 368.535 729.147 368.716 728.674 368.716Z" fill="black"/>
<path d="M720.829 394.648C720.356 394.648 719.882 394.467 719.521 394.106L701.448 376.032C700.725 375.311 700.725 374.141 701.448 373.417C702.169 372.696 703.34 372.696 704.063 373.417L722.136 391.491C722.859 392.214 722.859 393.384 722.136 394.106C721.775 394.467 721.302 394.648 720.829 394.648Z" fill="black"/>
<path d="M650.777 317.658L658.409 325.29C661.667 328.548 666.951 328.548 670.209 325.29C673.467 322.036 673.467 316.748 670.209 313.486L662.574 305.854L650.777 317.658Z" fill="#EFD8C3"/>
<path d="M664.309 329.584C661.586 329.584 659.027 328.523 657.102 326.598L649.47 318.966C648.748 318.244 648.748 317.074 649.47 316.351L661.266 304.547C661.958 303.854 663.186 303.854 663.882 304.547L671.517 312.179C673.442 314.108 674.502 316.669 674.502 319.392C674.502 322.116 673.442 324.676 671.517 326.597C669.592 328.522 667.032 329.584 664.309 329.584ZM653.392 317.658L659.717 323.982C662.169 326.431 666.449 326.431 668.901 323.982C670.127 322.758 670.803 321.126 670.803 319.392C670.803 317.654 670.127 316.022 668.901 314.794L662.574 308.47L653.392 317.658Z" fill="black"/>
<path d="M873.284 423.489C876.206 426.411 876.206 431.146 873.284 434.076C870.358 437.001 865.62 437.001 862.694 434.076C859.769 431.15 859.772 426.411 862.694 423.489C865.62 420.559 870.362 420.559 873.284 423.489Z" fill="#E3E7FF"/>
<path d="M867.989 438.121C865.495 438.117 863.151 437.145 861.387 435.383C859.622 433.62 858.651 431.272 858.652 428.78C858.652 426.288 859.624 423.944 861.387 422.181C864.911 418.649 871.066 418.649 874.594 422.181C878.227 425.814 878.227 431.738 874.594 435.382C872.827 437.145 870.484 438.121 867.989 438.121ZM867.991 423.142C866.485 423.142 865.069 423.727 864.003 424.796C862.938 425.861 862.351 427.278 862.351 428.78C862.351 430.286 862.936 431.703 864.002 432.768C866.132 434.898 869.846 434.898 871.977 432.768C874.171 430.568 874.171 426.992 871.977 424.796C870.911 423.727 869.496 423.142 867.991 423.142Z" fill="black"/>
</g>
</g>
<defs>
<clipPath id="clip0_369_566">
<rect width="900" height="500" fill="white"/>
</clipPath>
</defs>
</svg>
