<svg width="301" height="184" viewBox="0 0 301 184" fill="none" xmlns="http://www.w3.org/2000/svg">
<path d="M252.453 183.77H47.076C37.454 166.668 31.9629 146.92 31.9629 125.887C31.9629 60.6991 84.7048 7.85352 149.764 7.85352C214.825 7.85352 267.565 60.6991 267.565 125.887C267.565 146.92 262.075 166.668 252.453 183.77Z" fill="#DEEAFA"/>
<path d="M118.801 76.9634C118.801 73.6308 120.125 70.4348 122.481 68.0783C124.838 65.7218 128.034 64.3979 131.366 64.3979H293.147C295.229 64.3979 297.227 65.2254 298.7 66.6982C300.173 68.171 301 70.1685 301 72.2514V183.77H118.801V76.9634Z" fill="white"/>
<path d="M119.979 76.9631C119.979 73.943 121.179 71.0465 123.314 68.911C125.45 66.7754 128.346 65.5757 131.366 65.5757H293.147C294.917 65.5757 296.615 66.279 297.867 67.5309C299.119 68.7827 299.822 70.4807 299.822 72.2511V182.591H119.979V76.9631Z" fill="white" stroke="#DEEAFA" stroke-width="1.5"/>
<path d="M118.801 183.77V72.2515C118.801 70.5852 119.463 68.9872 120.641 67.8089C121.819 66.6307 123.417 65.9688 125.084 65.9688H136.079V183.77H118.801Z" fill="#6D7888"/>
<path fill-rule="evenodd" clip-rule="evenodd" d="M126.114 75.8169C126.114 74.408 126.877 73.907 127.592 73.907C128.47 73.907 129.059 74.6687 129.059 75.8028C129.059 77.0954 128.31 77.6735 127.569 77.6735C126.568 77.6735 126.114 76.7106 126.114 75.8169ZM127.946 72.2515C126.903 72.2515 126.298 72.7227 126.007 73.0494C125.973 72.7682 125.789 72.4054 125.071 72.4054H123.513V74.0468H124.152C124.261 74.0468 124.295 74.0813 124.295 74.1897V81.6913H126.152V78.8766L126.149 78.6661C126.438 78.9331 126.992 79.3038 127.858 79.3038C129.673 79.3038 130.942 77.8541 130.942 75.7776C130.942 73.6682 129.738 72.2515 127.946 72.2515Z" fill="white"/>
<path d="M237.782 93.8403H190.19C188.733 93.8403 187.551 95.0217 187.551 96.4791C187.551 97.9364 188.733 99.1178 190.19 99.1178H237.782C239.239 99.1178 240.42 97.9364 240.42 96.4791C240.42 95.0217 239.239 93.8403 237.782 93.8403Z" fill="#4A8AE6"/>
<path d="M260.729 93.8403H253.741C252.284 93.8403 251.103 95.0217 251.103 96.4791C251.103 97.9364 252.284 99.1178 253.741 99.1178H260.729C262.187 99.1178 263.368 97.9364 263.368 96.4791C263.368 95.0217 262.187 93.8403 260.729 93.8403Z" fill="#4A8AE6"/>
<path d="M260.729 125.306H253.741C252.284 125.306 251.103 126.487 251.103 127.944C251.103 129.402 252.284 130.583 253.741 130.583H260.729C262.187 130.583 263.368 129.402 263.368 127.944C263.368 126.487 262.187 125.306 260.729 125.306Z" fill="#E4E6E9"/>
<path d="M260.729 156.776H253.741C252.284 156.776 251.103 157.957 251.103 159.415C251.103 160.872 252.284 162.053 253.741 162.053H260.729C262.187 162.053 263.368 160.872 263.368 159.415C263.368 157.957 262.187 156.776 260.729 156.776Z" fill="#EDEEF0"/>
<path d="M287.677 93.8403H275.475C274.017 93.8403 272.836 95.0217 272.836 96.4791C272.836 97.9364 274.017 99.1178 275.475 99.1178H287.677C289.135 99.1178 290.316 97.9364 290.316 96.4791C290.316 95.0217 289.135 93.8403 287.677 93.8403Z" fill="#4A8AE6"/>
<path d="M287.677 125.306H275.475C274.017 125.306 272.836 126.487 272.836 127.944C272.836 129.402 274.017 130.583 275.475 130.583H287.677C289.135 130.583 290.316 129.402 290.316 127.944C290.316 126.487 289.135 125.306 287.677 125.306Z" fill="#E4E6E9"/>
<path d="M287.677 156.776H275.475C274.017 156.776 272.836 157.957 272.836 159.415C272.836 160.872 274.017 162.053 275.475 162.053H287.677C289.135 162.053 290.316 160.872 290.316 159.415C290.316 157.957 289.135 156.776 287.677 156.776Z" fill="#EDEEF0"/>
<path d="M237.782 125.306H190.19C188.733 125.306 187.551 126.487 187.551 127.944C187.551 129.402 188.733 130.583 190.19 130.583H237.782C239.239 130.583 240.42 129.402 240.42 127.944C240.42 126.487 239.239 125.306 237.782 125.306Z" fill="#E4E6E9"/>
<path d="M237.782 156.776H190.19C188.733 156.776 187.551 157.957 187.551 159.415C187.551 160.872 188.733 162.053 190.19 162.053H237.782C239.239 162.053 240.42 160.872 240.42 159.415C240.42 157.957 239.239 156.776 237.782 156.776Z" fill="#EDEEF0"/>
<path d="M51.1613 114.66C78.8646 114.66 101.323 92.1568 101.323 64.398C101.323 36.6392 78.8646 14.1362 51.1613 14.1362C23.458 14.1362 1 36.6392 1 64.398C1 92.1568 23.458 114.66 51.1613 114.66Z" fill="white" stroke="#DEEAFA" stroke-width="1.5"/>
<path d="M50.7703 24.1699V37.4689M50.7703 89.8825V103.181M11.5818 64.0668H24.9059" stroke="white" stroke-width="1.5" stroke-linecap="round" stroke-linejoin="round"/>
<path d="M74.0367 64.3979C74.0367 76.9759 63.8398 87.1728 51.2618 87.1728C38.6838 87.1728 28.4869 76.9759 28.4869 64.3979C28.4869 52.8597 37.0676 43.3257 48.1958 41.8272C49.1995 41.6922 50.222 41.623 51.2618 41.623C63.8398 41.623 74.0367 51.8199 74.0367 64.3979Z" fill="#4A8AE6"/>
<path d="M12.5445 63.2202C12.232 63.2202 11.9324 63.3443 11.7115 63.5652C11.4906 63.7862 11.3665 64.0858 11.3665 64.3982C11.3665 64.7106 11.4906 65.0103 11.7115 65.2312C11.9324 65.4521 12.232 65.5762 12.5445 65.5762V63.2202ZM89.979 65.5762C90.2915 65.5762 90.5911 65.4521 90.812 65.2312C91.0329 65.0103 91.157 64.7106 91.157 64.3982C91.157 64.0858 91.0329 63.7862 90.812 63.5652C90.5911 63.3443 90.2915 63.2202 89.979 63.2202V65.5762ZM50.0837 103.115C50.0837 103.428 50.2078 103.728 50.4288 103.948C50.6497 104.169 50.9493 104.294 51.2617 104.294C51.5742 104.294 51.8738 104.169 52.0947 103.948C52.3156 103.728 52.4398 103.428 52.4398 103.115H50.0837ZM52.4398 25.6809C52.4398 25.3685 52.3156 25.0689 52.0947 24.848C51.8738 24.627 51.5742 24.5029 51.2617 24.5029C50.9493 24.5029 50.6497 24.627 50.4288 24.848C50.2078 25.0689 50.0837 25.3685 50.0837 25.6809H52.4398ZM78.5916 63.2202C78.2792 63.2202 77.9795 63.3443 77.7586 63.5652C77.5377 63.7862 77.4136 64.0858 77.4136 64.3982C77.4136 64.7106 77.5377 65.0103 77.7586 65.2312C77.9795 65.4521 78.2792 65.5762 78.5916 65.5762V63.2202ZM52.4398 91.7281C52.4398 91.4156 52.3156 91.116 52.0947 90.8951C51.8738 90.6742 51.5742 90.5501 51.2617 90.5501C50.9493 90.5501 50.6497 90.6742 50.4288 90.8951C50.2078 91.116 50.0837 91.4156 50.0837 91.7281H52.4398ZM23.9319 65.5762C24.2443 65.5762 24.544 65.4521 24.7649 65.2312C24.9858 65.0103 25.1099 64.7106 25.1099 64.3982C25.1099 64.0858 24.9858 63.7862 24.7649 63.5652C24.544 63.3443 24.2443 63.2202 23.9319 63.2202V65.5762ZM50.0837 37.0684C50.0837 37.3808 50.2078 37.6804 50.4288 37.9014C50.6497 38.1223 50.9493 38.2464 51.2617 38.2464C51.5742 38.2464 51.8738 38.1223 52.0947 37.9014C52.3156 37.6804 52.4398 37.3808 52.4398 37.0684H50.0837ZM12.5445 65.5762H19.3769V63.2202H12.5445V65.5762ZM89.979 63.2202H83.1466V65.5762H89.979V63.2202ZM52.4398 103.115V96.283H50.0837V103.115H52.4398ZM50.0837 25.6809V32.5134H52.4398V25.6809H50.0837ZM81.9686 64.3982C81.9686 81.3569 68.2204 95.105 51.2617 95.105V97.4611C69.5225 97.4611 84.3246 82.6574 84.3246 64.3982H81.9686ZM51.2617 95.105C34.3031 95.105 20.5549 81.3569 20.5549 64.3982H18.1989C18.1989 82.6574 33.001 97.4611 51.2617 97.4611V95.105ZM20.5549 64.3982C20.5549 47.438 34.3031 33.6914 51.2617 33.6914V31.3354C33.001 31.3354 18.1989 46.1375 18.1989 64.3982H20.5549ZM51.2617 33.6914C68.2204 33.6914 81.9686 47.438 81.9686 64.3982H84.3246C84.3246 46.1375 69.5225 31.3354 51.2617 31.3354V33.6914ZM83.1466 63.2202H78.5916V65.5762H83.1466V63.2202ZM51.2617 96.283H52.4398V91.7281H50.0837V96.283H51.2617ZM19.3769 64.3982V65.5762H23.9319V63.2202H19.3769V64.3982ZM50.0837 32.5134V37.0684H52.4398V32.5134H50.0837Z" fill="#4A8AE6"/>
<path d="M51.2618 71.2303C53.0739 71.2303 54.8117 70.5105 56.0931 69.2292C57.3744 67.9478 58.0942 66.21 58.0942 64.3979C58.0942 62.5858 57.3744 60.8479 56.0931 59.5666C54.8117 58.2853 53.0739 57.5654 51.2618 57.5654C49.4497 57.5654 47.7118 58.2853 46.4305 59.5666C45.1492 60.8479 44.4293 62.5858 44.4293 64.3979C44.4293 66.21 45.1492 67.9478 46.4305 69.2292C47.7118 70.5105 49.4497 71.2303 51.2618 71.2303Z" stroke="white" stroke-width="1.5"/>
<path d="M10.4241 152.356V139.791M4.14136 146.073H16.7068" stroke="#BDD4F5" stroke-width="1.5" stroke-linecap="round" stroke-linejoin="round"/>
<path d="M261.733 0L263.733 12.1366L275.869 14.1361L263.733 16.1356L261.733 28.2723L259.734 16.1356L247.597 14.1361L259.734 12.1366L261.733 0Z" fill="#CEDFF8"/>
<path d="M239.743 23.5601L240.854 30.303L247.597 31.4135L240.854 32.5239L239.743 39.2669L238.633 32.5239L231.89 31.4135L238.633 30.303L239.743 23.5601Z" fill="#BDD4F5"/>
<path fill-rule="evenodd" clip-rule="evenodd" d="M165.921 104.293C168.588 104.293 171.145 103.234 173.03 101.349C174.915 99.4635 175.975 96.9064 175.975 94.2402C175.975 91.5739 174.915 89.0168 173.03 87.1315C171.145 85.2462 168.588 84.187 165.921 84.187C163.255 84.187 160.698 85.2461 158.813 87.1313C156.928 89.0165 155.869 91.5733 155.869 94.2394C155.869 96.9054 156.928 99.4623 158.813 101.347C160.698 103.233 163.255 104.293 165.921 104.293Z" fill="#4A8AE6"/>
<path d="M172.686 100.343C171.833 101.291 170.789 102.049 169.624 102.567C168.458 103.085 167.197 103.352 165.921 103.351C164.646 103.352 163.384 103.085 162.219 102.567C161.053 102.049 160.01 101.291 159.156 100.343C159.904 99.2372 160.912 98.3317 162.092 97.7059C163.271 97.0802 164.586 96.7534 165.921 96.7542C168.736 96.7542 171.218 98.1772 172.686 100.343ZM165.921 94.8693C166.921 94.8693 167.88 94.4722 168.587 93.7652C169.294 93.0583 169.691 92.0995 169.691 91.0997C169.691 90.0999 169.294 89.1411 168.587 88.4342C167.88 87.7272 166.921 87.3301 165.921 87.3301C164.922 87.3301 163.963 87.7272 163.256 88.4342C162.549 89.1411 162.152 90.0999 162.152 91.0997C162.152 92.0995 162.549 93.0583 163.256 93.7652C163.963 94.4722 164.922 94.8693 165.921 94.8693Z" fill="white"/>
<path d="M172.686 100.343C171.833 101.291 170.789 102.049 169.624 102.567C168.458 103.085 167.197 103.352 165.921 103.351C164.646 103.352 163.384 103.085 162.219 102.567C161.053 102.049 160.01 101.291 159.156 100.343C159.904 99.237 160.912 98.3314 162.092 97.7057C163.271 97.08 164.586 96.7531 165.921 96.7539C168.736 96.7539 171.218 98.177 172.686 100.343Z" fill="white"/>
<path fill-rule="evenodd" clip-rule="evenodd" d="M165.921 138.848C168.588 138.848 171.145 137.789 173.03 135.904C174.915 134.019 175.975 131.462 175.975 128.795C175.975 126.129 174.915 123.572 173.03 121.687C171.145 119.801 168.588 118.742 165.921 118.742C163.255 118.742 160.698 119.801 158.813 121.686C156.928 123.572 155.869 126.128 155.869 128.795C155.869 131.461 156.928 134.017 158.813 135.903C160.698 137.788 163.255 138.848 165.921 138.848Z" fill="#C8CCD2"/>
<path d="M172.686 134.898C171.833 135.846 170.789 136.604 169.624 137.122C168.458 137.64 167.197 137.907 165.921 137.906C164.646 137.907 163.384 137.64 162.219 137.122C161.053 136.604 160.01 135.846 159.156 134.898C159.904 133.792 160.912 132.886 162.092 132.261C163.271 131.635 164.586 131.308 165.921 131.309C168.736 131.309 171.218 132.732 172.686 134.898ZM165.921 129.424C166.921 129.424 167.88 129.027 168.587 128.32C169.294 127.613 169.691 126.654 169.691 125.654C169.691 124.655 169.294 123.696 168.587 122.989C167.88 122.282 166.921 121.885 165.921 121.885C164.922 121.885 163.963 122.282 163.256 122.989C162.549 123.696 162.152 124.655 162.152 125.654C162.152 126.654 162.549 127.613 163.256 128.32C163.963 129.027 164.922 129.424 165.921 129.424Z" fill="white"/>
<path d="M172.686 134.898C171.833 135.846 170.789 136.604 169.624 137.122C168.458 137.64 167.197 137.907 165.921 137.906C164.646 137.907 163.384 137.64 162.219 137.122C161.053 136.604 160.01 135.846 159.156 134.898C159.904 133.792 160.912 132.887 162.092 132.261C163.271 131.635 164.586 131.308 165.921 131.309C168.736 131.309 171.218 132.732 172.686 134.898Z" fill="white"/>
<path fill-rule="evenodd" clip-rule="evenodd" d="M165.921 173.403C167.242 173.403 168.549 173.143 169.769 172.637C170.989 172.132 172.097 171.391 173.03 170.457C173.964 169.524 174.704 168.415 175.209 167.195C175.714 165.975 175.974 164.668 175.974 163.348C175.974 162.027 175.713 160.72 175.208 159.5C174.702 158.281 173.962 157.172 173.028 156.239C172.094 155.306 170.986 154.565 169.766 154.06C168.546 153.555 167.239 153.295 165.918 153.295C163.252 153.296 160.695 154.355 158.81 156.241C156.924 158.127 155.866 160.684 155.866 163.351C155.866 166.017 156.926 168.574 158.812 170.46C160.698 172.345 163.255 173.404 165.921 173.403Z" fill="#E4E6E9"/>
<path d="M172.686 169.453C171.833 170.401 170.79 171.159 169.624 171.677C168.459 172.195 167.197 172.462 165.921 172.461C164.646 172.462 163.384 172.195 162.219 171.677C161.053 171.159 160.01 170.401 159.156 169.453C159.904 168.347 160.912 167.442 162.092 166.816C163.271 166.19 164.586 165.863 165.921 165.864C168.736 165.864 171.218 167.287 172.686 169.453ZM165.921 163.979C166.921 163.979 167.88 163.582 168.587 162.875C169.294 162.168 169.691 161.209 169.691 160.21C169.691 159.21 169.294 158.251 168.587 157.544C167.88 156.837 166.921 156.44 165.921 156.44C164.922 156.44 163.963 156.837 163.256 157.544C162.549 158.251 162.152 159.21 162.152 160.21C162.152 161.209 162.549 162.168 163.256 162.875C163.963 163.582 164.922 163.979 165.921 163.979Z" fill="white"/>
<path d="M172.686 169.453C171.833 170.401 170.79 171.159 169.624 171.677C168.459 172.196 167.197 172.463 165.921 172.461C164.646 172.463 163.384 172.196 162.219 171.677C161.053 171.159 160.01 170.401 159.156 169.453C159.904 168.347 160.912 167.442 162.092 166.816C163.271 166.19 164.586 165.863 165.921 165.864C168.736 165.864 171.218 167.287 172.686 169.453Z" fill="white"/>
</svg>
