<svg width="300" height="300" viewBox="0 0 300 300" fill="none" xmlns="http://www.w3.org/2000/svg">
<g clip-path="url(#clip0_371_568)">
<mask id="mask0_371_568" style="mask-type:luminance" maskUnits="userSpaceOnUse" x="0" y="0" width="300" height="300">
<path d="M288 0H12C5.37258 0 0 5.37258 0 12V288C0 294.627 5.37258 300 12 300H288C294.627 300 300 294.627 300 288V12C300 5.37258 294.627 0 288 0Z" fill="white"/>
</mask>
<g mask="url(#mask0_371_568)">
<path d="M299.998 0H0V300H299.998V0Z" fill="#E3E7FF"/>
<path d="M244.72 142.925C243.27 123.239 235.728 104.957 223.789 90.2222C208.681 71.5712 186.544 58.5952 160.813 55.6469C137.755 53.0062 115.686 58.8595 97.7226 70.7168C77.6514 83.9678 62.709 104.716 57.261 129.504C56.5673 132.667 56.0258 135.897 55.6485 139.186C49.6758 191.299 87.078 238.381 139.19 244.353C191.3 250.324 238.382 212.924 244.355 160.812C245.049 154.761 245.15 148.785 244.72 142.925Z" fill="#53B1FF"/>
<path d="M150.125 246.089C150.122 246.089 150.122 246.089 150.119 246.089C146.45 246.089 142.73 245.875 139.064 245.456C113.566 242.533 90.7321 229.857 74.7697 209.762C58.8064 189.666 51.6248 164.559 54.5472 139.06C54.9218 135.784 55.4715 132.489 56.178 129.266C61.5577 104.788 76.0945 83.6647 97.1125 69.7897C112.849 59.402 131.101 53.9116 149.893 53.9116C153.557 53.9116 157.275 54.1239 160.941 54.5446C186.087 57.4258 208.714 69.8485 224.653 89.5225C237.064 104.842 244.386 123.28 245.826 142.842C246.269 148.856 246.145 154.945 245.458 160.938C239.894 209.482 198.91 246.089 150.125 246.089ZM149.893 56.1313C131.536 56.1313 113.707 61.4947 98.3347 71.6431C77.8027 85.1977 63.6007 105.832 58.3448 129.742C57.6548 132.891 57.1185 136.111 56.751 139.312C53.8969 164.223 60.9133 188.752 76.5073 208.382C92.1013 228.013 114.408 240.396 139.318 243.25C142.9 243.662 146.534 243.87 150.121 243.87C197.779 243.872 237.818 208.111 243.254 160.686C243.925 154.828 244.046 148.882 243.613 143.007C242.206 123.896 235.054 105.885 222.928 90.9205C207.358 71.6995 185.254 59.5636 160.687 56.7485C157.106 56.3394 153.474 56.1313 149.893 56.1313Z" fill="black"/>
<path d="M215.83 90.8813L213.735 89.0003L211.171 90.3473L209.049 91.7201L205.729 90.7697L205.658 89.4425L209.598 89.3207L208.38 87.8159L202.208 86.5871L199.941 84.6629L195.733 84.3047L193.91 85.0391L190.302 84.8483L184.401 88.6223L179.521 89.1317L179.59 92.4449L181.48 94.3769L184.761 93.2855L186.869 96.7847L191.728 94.3097L191.856 92.5595L190.14 92.1125L191.934 90.3329L194.903 89.1539L196.42 90.2483L194.747 93.1373L195.737 94.4675L198.422 94.2317L197.538 95.8667L197.373 97.3175L195.267 97.9205L194.66 99.7403L183.654 98.8247L183.135 96.2081L182.366 96.4175L181.779 98.7113L177.41 101.244L171.715 102.604L169.221 102.443L168.828 103.069L172.068 106.448L171.28 109.215L164.607 108.447L162.817 111.923L163.808 116.286L165.923 116.927L166.389 117.849L168.788 117.951L171.991 116.256L172.088 114.527L176.392 111.665L176.518 110.363L180.217 110.611L183.073 109.323L186.686 114.014L189.733 116.078L189.659 118.878L191.61 117.038L191.217 116.123L192.392 115.961L192.65 115.341L190.923 114.795L188.398 112.743L186.24 109.462L186.937 108.374L188.158 108.564L191.595 112.388L194.017 113.808L194.349 116.556L196.12 118.25L196.235 120.722L197.838 121.256L198.922 118.944L197.886 117.135L199.7 116.273L202.978 116.75L204.101 115.834L202.848 114.624L204.517 111.11L206.515 109.949L208.977 112.988L210.386 113.051L210.334 111.329L212.1 110.885L213.528 110.352L213.493 112.386L213.439 113.723L217.871 116.693L217.624 118.206L212.969 118.044L211.125 116.565L206.316 117.307L203.021 117.451L202.078 120.026L203.346 121.763L205.135 123.062L207.021 122.657L208.791 123.702L210.163 123.863L212.226 123.426L212.556 125.775L211.784 127.724L211.799 130.412L209.127 130.727L205.627 129.828L204.156 130.307L199.739 128.733L196.059 126.146L194.07 127.238L193.972 128.94L192.429 128.964L187.915 125.412L183.338 124.343L183.223 122.538L184.569 121.649L183.674 120.131C183.674 120.131 183.843 118.856 183.772 118.847C183.696 118.839 176.779 118.469 176.779 118.469L173.439 117.912L171.069 119.73L168.145 119.643L166.123 119.089L164.11 121.242L161.496 122.361L160.012 124.03L160.354 125.136L160.131 126.677L158.196 127.948L155.751 128.015L155.155 129.961L152.399 132.553L151.447 134.555L149.744 136.199L150.516 140.737L149.694 144.221L148.565 146.48L150.117 148.991L149.593 151.616L149.662 152.966L151.907 155.933L151.963 158.475L153.285 159.073L157.633 164.096L160.576 163.14L165.348 164.435L171.314 162.681L172.824 163.398L173.578 164.63L174.421 166.367L177.085 166.125L178.433 167.823L177.9 172.037L176.586 173.079L176.578 175.313L180.036 181.576L180.691 186.274L180.273 189.061L179.768 191.735L176.812 196.269L176.608 200.222L178.674 206.918L178.45 213.209L179.49 217.155L179.43 219.833L180.106 220.458L179.998 224.422L188.883 224.544L196.946 217.515L198.376 216.734L198.894 213.515L203.227 210.431L203.129 206.492L212.166 200.52L212.747 195.464L213.534 193.568L212.665 190.085L216.141 180.145L222.748 174.987L226.352 171.722L227.323 168.902L230.179 165.24L230.614 161.421L225.472 162.921L222.18 162.147L220.47 160.164L220.89 158.669L219.52 156.721L217.302 154.829L215.982 150.305L213.594 148.588L214.04 145.556L210.371 137.23L209.994 135.746L208.585 132.85L211.199 134.79L213.765 138.415L214.467 140.534L215.614 141.358L216.573 146.442L218.058 147.356L220.713 152.831L220.75 154.673L222.687 154.696L221.775 156.581L222.214 158.82L225.313 158.228L233.226 155.111L235.9 154.768L238.698 152.059L240.65 148.904L236.94 143.108L236.656 141.236L234.166 143.438L231.49 143.378L230.985 140.837L229.94 140.417L227.357 136.493L227.075 134.621L228.841 134.824L232.963 139.62L235.395 140.101L236.931 139.28L238.639 142.16L244.72 142.922C243.27 123.236 235.728 104.955 223.79 90.2195L216.491 89.6885L215.83 90.8813Z" fill="#29FF91"/>
<path d="M188.882 225.656C188.876 225.656 188.872 225.656 188.867 225.656L179.981 225.532C179.685 225.528 179.402 225.405 179.196 225.19C178.99 224.977 178.88 224.689 178.887 224.392L178.982 220.932L178.676 220.65C178.442 220.435 178.313 220.128 178.32 219.809L178.377 217.288L177.377 213.492C177.348 213.388 177.336 213.28 177.341 213.171L177.557 207.067L175.547 200.55C175.508 200.427 175.493 200.296 175.499 200.167L175.703 196.214C175.713 196.017 175.775 195.828 175.881 195.663L178.718 191.314L179.57 186.269L178.966 181.935L175.607 175.851C175.515 175.685 175.467 175.498 175.469 175.31L175.477 173.076C175.478 172.738 175.633 172.421 175.896 172.211L176.856 171.45L177.273 168.147L176.588 167.285L174.522 167.473C174.061 167.495 173.624 167.268 173.423 166.851L172.052 164.262L171.22 163.865L165.66 165.499C165.465 165.56 165.255 165.562 165.057 165.506L160.604 164.298L157.975 165.152C157.551 165.289 157.086 165.159 156.794 164.823L152.606 159.984L151.506 159.485C151.118 159.31 150.863 158.926 150.854 158.499L150.806 156.317L148.777 153.637C148.643 153.459 148.565 153.247 148.553 153.023L148.484 151.673C148.48 151.582 148.487 151.489 148.505 151.4L148.943 149.202L147.621 147.063C147.419 146.736 147.401 146.328 147.573 145.984L148.644 143.841L149.384 140.703L148.65 136.386C148.589 136.024 148.709 135.656 148.974 135.402L150.532 133.897L151.397 132.078C151.457 131.952 151.539 131.839 151.64 131.745L154.181 129.355L154.691 127.69C154.83 127.235 155.244 126.919 155.721 126.906L157.85 126.847L159.105 126.024L159.221 125.225L158.952 124.358C158.837 123.987 158.925 123.582 159.183 123.292L160.668 121.623C160.776 121.502 160.91 121.405 161.06 121.342L163.458 120.313L165.312 118.332C165.329 118.314 165.345 118.297 165.362 118.281L165.144 117.85L163.484 117.348C163.103 117.232 162.813 116.921 162.724 116.532L161.733 112.168C161.676 111.913 161.71 111.646 161.83 111.414L163.62 107.939C163.832 107.529 164.289 107.29 164.733 107.345L170.469 108.004L170.825 106.755L168.027 103.836C167.675 103.469 167.617 102.91 167.887 102.478L168.279 101.852C168.496 101.508 168.891 101.313 169.292 101.334L171.618 101.485L176.993 100.202L180.819 97.9837L181.29 96.1405C181.377 95.8009 181.617 95.5267 181.934 95.3929L181.829 95.4283C181.425 95.5597 180.983 95.4517 180.686 95.1505L178.796 93.2185C178.599 93.0169 178.487 92.7487 178.479 92.4655L178.41 89.1523C178.398 88.5757 178.83 88.0861 179.405 88.0267L184.024 87.5443L189.703 83.9113C189.897 83.7865 190.129 83.7259 190.359 83.7379L193.723 83.9155L195.317 83.2735C195.477 83.2075 195.652 83.1745 195.826 83.1979L200.034 83.5561C200.264 83.5759 200.482 83.6665 200.658 83.8153L202.706 85.5547L208.596 86.7265C208.85 86.7769 209.079 86.9155 209.241 87.1165L210.459 88.6219C210.627 88.8289 210.711 89.0845 210.707 89.3413L213.218 88.0159C213.626 87.8029 214.128 87.8611 214.475 88.1731L215.535 89.1247C215.75 88.7629 216.147 88.5547 216.57 88.5829L223.869 89.1139C224.175 89.1355 224.459 89.2837 224.652 89.5207C236.998 104.76 244.307 123.084 245.802 142.533C245.848 142.654 245.873 142.786 245.873 142.923C245.874 143.545 245.314 144.036 244.742 144.032C244.688 144.032 244.634 144.03 244.581 144.024L238.5 143.261C238.443 143.254 238.386 143.241 238.331 143.226L241.583 148.306C241.814 148.666 241.817 149.125 241.592 149.487L239.64 152.643C239.591 152.721 239.534 152.792 239.468 152.857L236.67 155.566C236.499 155.733 236.276 155.839 236.039 155.869L233.502 156.194L225.719 159.261L222.42 159.911C222.174 159.957 221.93 159.919 221.719 159.816L221.699 159.891L222.783 161.15L225.44 161.774L230.301 160.355C230.66 160.257 231.044 160.333 231.327 160.574C231.612 160.812 231.756 161.178 231.714 161.547L231.279 165.366C231.256 165.569 231.177 165.762 231.051 165.922L228.31 169.437L227.399 172.083C227.338 172.259 227.234 172.417 227.095 172.543L223.491 175.809L217.077 180.819L213.819 190.14L214.608 193.299C214.666 193.531 214.647 193.774 214.556 193.993L213.83 195.745L213.266 200.646C213.228 200.973 213.049 201.265 212.776 201.445L204.252 207.079L204.335 210.402C204.343 210.77 204.168 211.119 203.868 211.333L199.914 214.149L199.47 216.909C199.416 217.25 199.206 217.544 198.905 217.707L197.582 218.431L189.609 225.381C189.408 225.558 189.149 225.656 188.882 225.656ZM181.136 223.329L188.472 223.43L196.217 216.679C196.277 216.627 196.343 216.58 196.415 216.543L197.367 216.023L197.798 213.34C197.846 213.045 198.008 212.784 198.25 212.612L202.101 209.871L202.019 206.522C202.01 206.139 202.197 205.779 202.515 205.569L211.121 199.88L211.643 195.34C211.655 195.236 211.682 195.136 211.721 195.041L212.367 193.483L211.586 190.356C211.534 190.146 211.544 189.925 211.616 189.721L215.091 179.781C215.162 179.579 215.288 179.403 215.457 179.271L222.065 174.114L225.394 171.093L226.273 168.542C226.313 168.427 226.371 168.319 226.448 168.221L229.11 164.806L229.322 162.955L225.782 163.989C225.596 164.039 225.404 164.045 225.218 164.002L221.925 163.228C221.697 163.176 221.492 163.051 221.339 162.874L219.629 160.89C219.386 160.609 219.3 160.225 219.401 159.865L219.68 158.879L218.693 157.477L216.581 155.676C216.417 155.536 216.296 155.349 216.236 155.141L215.024 150.985L212.945 149.491C212.609 149.249 212.435 148.839 212.495 148.428L212.895 145.712L209.355 137.679L208.948 136.136L207.587 133.338C207.363 132.879 207.483 132.325 207.876 131.999C208.089 131.82 208.354 131.724 208.617 131.743L205.664 130.984L204.499 131.364C204.266 131.438 204.014 131.434 203.783 131.354L199.367 129.779C199.272 129.746 199.183 129.699 199.101 129.642L195.987 127.453L195.143 127.915L195.08 129.004C195.047 129.584 194.571 130.041 193.99 130.05L192.447 130.074C192.197 130.073 191.943 129.994 191.744 129.837L187.424 126.436L183.086 125.423C182.61 125.311 182.264 124.902 182.232 124.413L182.117 122.609C182.092 122.213 182.28 121.833 182.613 121.612L183.079 121.306L182.719 120.696C182.594 120.483 182.543 120.232 182.575 119.987C182.575 119.985 182.58 119.949 182.588 119.893C180.648 119.788 176.72 119.579 176.72 119.579L173.733 119.086L171.743 120.611C171.541 120.766 171.296 120.834 171.036 120.84L168.113 120.753C168.023 120.75 167.937 120.737 167.852 120.714L166.476 120.337L164.921 122.001C164.816 122.113 164.689 122.202 164.547 122.263L162.161 123.285L161.258 124.301L161.414 124.809C161.463 124.968 161.477 125.133 161.453 125.297L161.229 126.838C161.184 127.152 161.006 127.431 160.74 127.606L158.805 128.877C158.633 128.989 158.432 129.052 158.226 129.059L156.579 129.103L156.216 130.288C156.161 130.472 156.056 130.639 155.915 130.771L153.311 133.22L152.45 135.033C152.393 135.154 152.315 135.262 152.219 135.355L150.936 136.593L151.61 140.552C151.634 140.7 151.63 140.849 151.596 140.992L150.775 144.477C150.754 144.561 150.725 144.642 150.687 144.719L149.835 146.425L151.061 148.41C151.209 148.648 151.26 148.934 151.205 149.209L150.708 151.699L150.752 152.57L152.793 155.264C152.933 155.451 153.012 155.676 153.017 155.91L153.057 157.752L153.743 158.064C153.89 158.129 154.019 158.227 154.125 158.348L157.991 162.814L160.235 162.087C160.436 162.019 160.656 162.015 160.866 162.071L165.336 163.282L171.002 161.618C171.263 161.538 171.544 161.566 171.79 161.679L173.3 162.399C173.495 162.489 173.658 162.637 173.771 162.821L174.525 164.052L175.083 165.194L176.984 165.021C177.362 164.995 177.721 165.144 177.954 165.436L179.302 167.136C179.487 167.37 179.572 167.668 179.534 167.963L179.001 172.176C178.964 172.464 178.817 172.726 178.59 172.906L177.693 173.617L177.688 175.03L181.007 181.039C181.073 181.158 181.116 181.288 181.135 181.423L181.79 186.121C181.805 186.227 181.803 186.333 181.788 186.439L180.858 191.942C180.831 192.085 180.776 192.221 180.697 192.342L177.904 196.624L177.726 200.083L179.735 206.591C179.77 206.71 179.786 206.834 179.782 206.958L179.565 213.086L180.563 216.872C180.59 216.974 180.602 217.078 180.6 217.182L180.551 219.36L180.859 219.644C181.094 219.861 181.224 220.168 181.215 220.489L181.136 223.329ZM222.935 156.733L223.089 157.527L225.105 157.141L232.818 154.081C232.904 154.046 232.993 154.024 233.084 154.012L235.392 153.717L237.825 151.359L239.338 148.917L236.005 143.709C235.946 143.618 235.901 143.518 235.872 143.412L234.9 144.272C234.692 144.454 234.428 144.567 234.14 144.549L231.464 144.489C230.943 144.476 230.502 144.105 230.401 143.596L230.013 141.646L229.526 141.448C229.316 141.364 229.136 141.219 229.013 141.03L226.43 137.103C226.341 136.971 226.282 136.819 226.259 136.659L225.977 134.788C225.926 134.446 226.037 134.101 226.276 133.852C226.515 133.604 226.86 133.474 227.201 133.521L228.968 133.724C229.245 133.755 229.5 133.891 229.682 134.103L233.554 138.607L235.22 138.936L236.406 138.301C236.933 138.022 237.582 138.204 237.884 138.715L239.315 141.127L243.503 141.654C241.877 123.205 234.885 105.83 223.227 91.2925L217.116 90.8485L216.799 91.4197C216.635 91.7149 216.345 91.9195 216.012 91.9759C215.679 92.0287 215.339 91.9321 215.088 91.7071L213.566 90.3415L211.685 91.3297L209.65 92.6515C209.381 92.8249 209.052 92.8747 208.742 92.7859L205.422 91.8355C204.966 91.7059 204.645 91.3015 204.619 90.8293L204.548 89.5015C204.533 89.2039 204.636 88.9111 204.839 88.6915C204.995 88.5223 205.197 88.4065 205.419 88.3585L201.989 87.6751C201.804 87.6385 201.632 87.5551 201.488 87.4339L199.492 85.7377L195.9 85.4323L194.324 86.0683C194.173 86.1289 194.01 86.1583 193.85 86.1469L190.598 85.9747L184.997 89.5567C184.85 89.6503 184.686 89.7079 184.514 89.7247L180.648 90.1291L180.687 91.9831L181.785 93.1045L184.409 92.2327C184.898 92.0695 185.441 92.2657 185.709 92.7127L187.284 95.3275L190.665 93.6055L190.68 93.4009L189.858 93.1867C189.473 93.0859 189.17 92.7859 189.066 92.4007C188.963 92.0161 189.074 91.6057 189.356 91.3249L191.151 89.5459C191.257 89.4409 191.384 89.3569 191.522 89.3017L194.492 88.1227C194.84 87.9835 195.241 88.0309 195.549 88.2553L197.067 89.3497C197.529 89.6821 197.664 90.3115 197.378 90.8047L196.071 93.0619L196.256 93.3085L198.323 93.1267C198.723 93.0943 199.124 93.2815 199.347 93.6229C199.572 93.9643 199.59 94.4011 199.397 94.7599L198.614 96.2059L198.473 97.4437C198.423 97.8889 198.108 98.2609 197.677 98.3839L196.133 98.8273L195.71 100.092C195.548 100.579 195.08 100.903 194.565 100.846L183.559 99.9307C183.181 99.8989 182.853 99.6787 182.678 99.3583C182.587 99.4849 182.47 99.5911 182.333 99.6715L177.965 102.205C177.872 102.259 177.771 102.3 177.665 102.324L171.971 103.684C171.862 103.711 171.75 103.716 171.641 103.712L170.936 103.667L172.866 105.68C173.139 105.965 173.241 106.374 173.133 106.753L172.344 109.52C172.196 110.043 171.698 110.382 171.149 110.317L165.239 109.638L163.985 112.072L164.744 115.413L166.241 115.866C166.531 115.953 166.773 116.157 166.91 116.428L167.083 116.769L168.53 116.831L170.914 115.569L170.976 114.465C170.996 114.116 171.179 113.797 171.47 113.604L175.334 111.034L175.409 110.258C175.467 109.66 175.971 109.23 176.588 109.257L180.011 109.486L182.613 108.313C183.08 108.102 183.633 108.24 183.948 108.648L186.845 112.408L185.309 110.073C185.067 109.707 185.066 109.233 185.301 108.864L185.999 107.776C186.237 107.407 186.673 107.217 187.103 107.279L188.323 107.469C188.576 107.508 188.807 107.633 188.978 107.823L192.299 111.519L194.574 112.853C194.873 113.027 195.072 113.333 195.114 113.676L195.398 116.03L196.796 117.367C196.757 117.181 196.765 116.989 196.823 116.804C196.914 116.509 197.126 116.266 197.405 116.133L199.22 115.272C199.418 115.18 199.637 115.147 199.854 115.177L202.166 115.513L202.072 115.422C201.73 115.091 201.636 114.579 201.842 114.148L203.51 110.634C203.606 110.432 203.762 110.263 203.955 110.151L205.953 108.991C206.427 108.712 207.029 108.827 207.372 109.251L209.225 111.538L209.219 111.363C209.204 110.841 209.553 110.38 210.057 110.253L211.824 109.809L213.136 109.312C213.477 109.183 213.864 109.235 214.163 109.446C214.463 109.657 214.639 110.004 214.632 110.371L214.567 113.147L218.483 115.771C218.844 116.014 219.03 116.443 218.96 116.872L218.714 118.385C218.624 118.936 218.135 119.356 217.58 119.314L212.925 119.153C212.686 119.145 212.456 119.06 212.269 118.909L210.808 117.737L206.481 118.404L203.804 118.527L203.319 119.852L204.134 120.968L205.383 121.875L206.783 121.574C207.056 121.516 207.341 121.56 207.581 121.703L209.149 122.629L210.107 122.741L211.992 122.342C212.292 122.281 212.608 122.343 212.859 122.52C213.111 122.695 213.278 122.97 213.321 123.274L213.65 125.622C213.677 125.812 213.653 126.006 213.583 126.184L212.891 127.933L212.904 130.407C212.908 130.973 212.486 131.449 211.925 131.516L209.253 131.831C209.175 131.842 209.098 131.843 209.021 131.835C209.098 131.867 209.172 131.91 209.243 131.962L211.856 133.903C211.95 133.972 212.033 134.057 212.1 134.152L214.667 137.777C214.73 137.866 214.779 137.965 214.814 138.069L215.402 139.846L216.256 140.46C216.488 140.627 216.646 140.876 216.699 141.156L217.568 145.758L218.636 146.415C218.816 146.525 218.96 146.686 219.051 146.877L221.706 152.351C221.777 152.494 221.814 152.652 221.818 152.812L221.833 153.579L222.696 153.59C223.076 153.594 223.427 153.794 223.626 154.117C223.826 154.439 223.847 154.84 223.682 155.183L222.935 156.733ZM218.273 154.202L220.24 155.877C220.311 155.938 220.374 156.008 220.428 156.086L220.674 156.435C220.691 156.32 220.724 156.207 220.775 156.101L220.928 155.787L220.735 155.784C220.137 155.778 219.651 155.297 219.639 154.697L219.608 153.097L217.2 148.135L215.991 147.389C215.726 147.225 215.54 146.958 215.483 146.65L214.605 142.002L213.819 141.439C213.629 141.302 213.487 141.109 213.413 140.886L212.763 138.925L211.569 137.236L215.055 145.112C215.139 145.302 215.168 145.513 215.138 145.721L214.79 148.083L216.629 149.405C216.83 149.55 216.977 149.758 217.046 149.997L218.273 154.202ZM232.404 142.29L233.756 142.323L235.061 141.168L232.748 140.71C232.503 140.662 232.283 140.535 232.121 140.346L228.408 136.025L228.417 136.088L230.675 139.521L231.398 139.811C231.746 139.951 231.999 140.257 232.072 140.623L232.404 142.29ZM205.627 128.719C205.721 128.719 205.812 128.731 205.904 128.754L209.203 129.603L210.684 129.427L210.674 127.731C210.674 127.59 210.701 127.449 210.752 127.317L211.415 125.64L211.292 124.759L210.393 124.95C210.273 124.976 210.158 124.984 210.035 124.966L208.662 124.806C208.509 124.788 208.361 124.738 208.227 124.66L206.831 123.834L205.368 124.149C205.065 124.216 204.74 124.149 204.483 123.962L202.694 122.661C202.601 122.594 202.518 122.511 202.45 122.418L201.182 120.682C200.963 120.384 200.909 119.994 201.036 119.647L201.751 117.694L199.871 117.421L199.443 117.625L199.884 118.394C200.063 118.708 200.079 119.089 199.925 119.417L198.841 121.728C198.603 122.236 198.022 122.485 197.487 122.31L195.884 121.777C195.447 121.632 195.146 121.234 195.125 120.776L195.03 118.746L193.581 117.36C193.395 117.182 193.277 116.946 193.247 116.691L193.244 116.673C193.107 116.837 192.925 116.96 192.719 117.022C192.723 117.328 192.602 117.628 192.371 117.846L190.421 119.687C190.094 119.994 189.614 120.075 189.206 119.893C188.796 119.71 188.537 119.299 188.549 118.851L188.607 116.658L186.063 114.935C185.964 114.869 185.878 114.786 185.807 114.693L182.729 110.697L180.672 111.625C180.506 111.699 180.321 111.726 180.141 111.72L177.518 111.543L177.495 111.773C177.464 112.105 177.284 112.406 177.005 112.591L173.165 115.145L173.097 116.32C173.084 116.574 172.983 116.81 172.82 116.994C173.054 116.835 173.342 116.775 173.622 116.82L176.961 117.377C183.789 117.735 183.855 117.742 183.898 117.747C184.195 117.781 184.472 117.937 184.655 118.173C184.933 118.532 184.952 118.856 184.823 119.897L185.526 121.088C185.826 121.597 185.675 122.252 185.181 122.578L184.373 123.111L184.394 123.451L188.168 124.333C188.327 124.37 188.474 124.441 188.602 124.541L192.807 127.85L192.924 127.848L192.963 127.175C192.985 126.794 193.202 126.45 193.538 126.266L195.527 125.175C195.896 124.972 196.352 124.999 196.698 125.24L200.255 127.74L204.173 129.136L205.284 128.775C205.395 128.738 205.511 128.719 205.627 128.719ZM197.228 118.221L197.3 119.787L197.67 118.996L197.228 118.221ZM169.958 118.587L170.706 118.61L172.473 117.256L169.958 118.587ZM213.374 116.948L216.413 117.054L212.819 114.645C212.499 114.43 212.312 114.063 212.328 113.679L212.388 111.948L211.467 112.183L211.484 112.707C211.518 112.815 211.538 112.93 211.538 113.05C211.538 113.671 211.049 114.2 210.405 114.16C210.383 114.159 210.36 114.161 210.335 114.159L208.926 114.097C208.608 114.083 208.313 113.933 208.112 113.688L206.249 111.386L205.37 111.897L204.191 114.38L204.87 115.036C205.097 115.257 205.22 115.563 205.206 115.881C205.202 116.008 205.175 116.133 205.127 116.249L206.267 116.199L210.955 115.468C211.265 115.42 211.577 115.505 211.818 115.701L213.374 116.948ZM191.457 113.801L192.222 114.044L191.031 113.345C190.933 113.287 190.844 113.215 190.767 113.13L187.824 109.856L189.23 111.99L191.457 113.801ZM184.58 97.7893L193.883 98.5633L194.214 97.5709C194.33 97.2235 194.609 96.9565 194.96 96.8557L196.355 96.4555L196.436 95.7427C196.445 95.6659 196.46 95.5903 196.485 95.5165L195.834 95.5735C195.454 95.6095 195.077 95.4397 194.847 95.1307L193.857 93.7999C193.592 93.4447 193.565 92.9659 193.787 92.5819L194.956 90.5611L194.746 90.4105L192.552 91.2805L192.291 91.5403C192.722 91.7239 192.996 92.1637 192.962 92.6413L192.833 94.3915C192.806 94.7779 192.576 95.1229 192.231 95.2981L187.373 97.7731C186.85 98.0377 186.218 97.8553 185.918 97.3579L184.268 94.6189L182.102 95.3395L182.844 95.1379C183.143 95.0563 183.458 95.1031 183.72 95.2657C183.981 95.4271 184.163 95.6917 184.224 95.9929L184.58 97.7893Z" fill="black"/>
<path d="M64.248 133.561L65.9298 132.76L69.7848 137.724L73.4646 138.145L73.4298 140.181L74.754 140.779L76.6872 144.73L80.6136 147.763L82.1352 146.2L78.8976 142.794L79.4934 135.853L75.1242 134.485L74.0454 132.198L77.6706 127.245L73.1868 126.358L71.0112 129.726L67.1142 129.578L65.457 124.501L68.9916 117.749L73.8714 115.177L77.6184 116.314L79.281 116.131L81.6582 114.579L86.0964 116.17L85.8012 118.745L86.8764 122.707L89.4894 120.4L88.2564 116.192L98.5374 108.795L98.8884 105.742L113.276 98.9282L114.065 100.51L119.777 98.8148L119.725 94.3706L125.056 93.4178L129.995 91.634L130.249 89.4266L126.682 88.0106L126.205 83.0732L121.463 85.0646L120.23 83.4704L120.095 81.0674L115.792 79.9058L112.71 83.0558L112.58 85.1636L108.636 87.6938L107.114 87.632L106.969 90.5252L104.21 91.1762L102.921 88.1216L104.362 86.273L101.308 85.9232L96.4326 82.382L104.917 78.1724L108.33 78.002L111.914 76.3256L116.682 76.3616L117.722 74.8664L121.603 73.5458L124.325 75.3998L120.955 77.8724L117.478 77.4488L116.972 78.5828L120.795 79.2944L121.45 80.09L125.877 81.3698L129.091 78.7058L133.457 77.6882L130.846 75.5246L128.467 72.4436L122.962 72.0872L119.428 71.0612L113.802 71.783L114.391 74.0114L112.077 74.9156L110.815 73.5536L111.195 71.5334L107.227 72.5444L106.696 74.5718L99.4626 73.2728L97.722 70.7168C77.6502 83.9672 62.7084 104.715 57.2603 129.504L59.241 132.988L64.248 133.561Z" fill="#29FF91"/>
<path d="M80.6136 148.873C80.3754 148.873 80.136 148.798 79.9356 148.641L76.0086 145.607C75.8742 145.503 75.7644 145.371 75.69 145.217L73.9326 141.626L72.9726 141.193C72.5694 141.009 72.3126 140.605 72.3204 140.161L72.3378 139.134L69.6582 138.826C69.3624 138.792 69.0912 138.64 68.9088 138.403L65.6016 134.145L64.7262 134.563C64.5378 134.651 64.3206 134.687 64.1226 134.663L59.1168 134.09C58.7648 134.05 58.4528 133.844 58.278 133.536L56.2973 130.051C56.1618 129.813 56.1195 129.532 56.178 129.265C61.5576 104.788 76.0944 83.6647 97.1124 69.7897C97.6182 69.4603 98.2986 69.5905 98.64 70.0921L100.118 72.2623L105.884 73.2985L106.154 72.2635C106.258 71.8723 106.563 71.5693 106.954 71.4697L110.922 70.4587C111.293 70.3597 111.677 70.4653 111.956 70.7239C112.232 70.9831 112.357 71.3653 112.286 71.7385L112.01 73.2085L112.378 73.6063L113.066 73.3375L112.73 72.0667C112.649 71.7577 112.705 71.4283 112.882 71.1631C113.06 70.8985 113.345 70.7233 113.662 70.6819L119.288 69.9607C119.44 69.9445 119.591 69.9541 119.738 69.9961L123.156 70.9873L128.539 71.3365C128.858 71.3569 129.151 71.5129 129.345 71.7655L131.65 74.7487L134.166 76.8349C134.491 77.1037 134.635 77.5327 134.539 77.9437C134.441 78.3541 134.12 78.6739 133.709 78.7693L129.599 79.7269L126.737 82.0999C126.751 82.1065 126.762 82.1131 126.774 82.1203C127.078 82.3015 127.276 82.6153 127.309 82.9663L127.721 87.2293L130.658 88.3951C131.125 88.5805 131.408 89.0551 131.351 89.5537L131.098 91.7605C131.05 92.1787 130.769 92.5345 130.373 92.6773L125.434 94.4605L120.846 95.2951L120.887 98.8015C120.893 99.2977 120.569 99.7363 120.093 99.8785L114.38 101.575C113.87 101.726 113.312 101.488 113.073 101.005L112.769 100.396L99.9204 106.481L99.6402 108.922C99.6042 109.233 99.4398 109.514 99.186 109.696L89.5434 116.635L90.5556 120.088C90.6762 120.501 90.5484 120.948 90.2256 121.232L87.6114 123.54C87.3246 123.793 86.9256 123.882 86.5584 123.771C86.1906 123.661 85.9062 123.369 85.8066 122.998L84.7314 119.035C84.6948 118.9 84.684 118.758 84.7008 118.62L84.8946 116.917L81.804 115.81L79.8882 117.06C79.7418 117.154 79.5762 117.214 79.4034 117.234L77.7414 117.418C77.5908 117.434 77.4402 117.418 77.2962 117.376L73.986 116.371L69.8148 118.57L66.657 124.602L67.9302 128.5L70.4226 128.594L72.2556 125.757C72.5028 125.376 72.9534 125.182 73.4028 125.271L77.8866 126.157C78.2586 126.231 78.567 126.49 78.7044 126.843C78.8424 127.197 78.7908 127.595 78.5658 127.902L75.3306 132.322L75.9198 133.572L79.8252 134.796C80.3214 134.95 80.6436 135.432 80.5986 135.949L80.046 142.392L82.9392 145.437C83.3496 145.87 83.3454 146.548 82.9308 146.976L81.4092 148.539C81.1926 148.761 80.9046 148.873 80.6136 148.873ZM77.5704 144.01L80.5086 146.281L80.5956 146.193L78.0936 143.56C77.8746 143.329 77.7654 143.016 77.7924 142.699L78.3114 136.647L74.7936 135.544C74.4978 135.45 74.2536 135.238 74.1216 134.959L73.0422 132.672C72.8688 132.305 72.9102 131.872 73.1508 131.543L75.7464 127.996L73.7106 127.594L71.9436 130.329C71.7312 130.657 71.3724 130.879 70.9692 130.834L67.0728 130.687C66.609 130.669 66.2052 130.365 66.0606 129.923L64.4028 124.846C64.3098 124.563 64.3356 124.253 64.4742 123.988L68.0088 117.235C68.1126 117.036 68.2758 116.873 68.4744 116.768L73.3548 114.196C73.6134 114.059 73.9128 114.033 74.1948 114.115L77.7228 115.187L78.8958 115.057L81.051 113.65C81.3444 113.46 81.7056 113.418 82.0314 113.535L86.4708 115.125C86.8368 115.257 87.099 115.565 87.1806 115.928C87.2412 115.678 87.3894 115.45 87.6096 115.292L97.4916 108.181L97.7874 105.615C97.8306 105.235 98.0676 104.903 98.4144 104.739L112.802 97.9255C113.345 97.6633 113.999 97.8913 114.269 98.4325L114.643 99.1813L118.658 97.9885L118.616 94.3837C118.61 93.8419 118.997 93.3733 119.531 93.2785L124.862 92.3251L128.972 90.8263L129.049 90.1441L126.272 89.0419C125.885 88.8883 125.618 88.5313 125.578 88.1167L125.245 84.6793L121.894 86.0869C121.427 86.2807 120.893 86.1403 120.586 85.7437L119.353 84.1495C119.215 83.9719 119.135 83.7565 119.123 83.5321L119.033 81.9295L116.13 81.1465L113.793 83.5363L113.688 85.2325C113.666 85.5853 113.477 85.9075 113.18 86.0983L109.235 88.6285C109.044 88.7509 108.817 88.8079 108.591 88.8025L108.169 88.7857L108.079 90.5809C108.053 91.0747 107.705 91.4923 107.225 91.6057L104.466 92.2567C103.942 92.3797 103.399 92.1067 103.19 91.6075L101.9 88.5535C101.743 88.1827 101.799 87.7567 102.046 87.4393L102.272 87.1507L101.183 87.0254C100.993 87.0038 100.812 86.9329 100.657 86.8213L95.7816 83.2801C95.4672 83.0515 95.2962 82.6753 95.3286 82.2883C95.361 81.9013 95.5926 81.5605 95.9406 81.3883L104.425 77.1787C104.561 77.1103 104.71 77.0713 104.863 77.0635L108.058 76.9045L111.094 75.4849L110.003 74.3071C109.763 74.0491 109.661 73.6939 109.727 73.3483L109.784 73.0381L108.136 73.4575L107.771 74.8519C107.623 75.4123 107.075 75.7705 106.501 75.6637L99.2664 74.3647C98.973 74.3113 98.7126 74.1433 98.5464 73.8967L97.4244 72.2497C77.5008 85.7299 63.6852 105.946 58.4363 129.327L59.9273 131.95L64.0578 132.423L65.4516 131.758C65.9226 131.534 66.486 131.666 66.8058 132.079L70.3752 136.674L73.5912 137.043C74.1576 137.107 74.5836 137.593 74.574 138.166L74.5512 139.47L75.2112 139.767C75.4464 139.873 75.6372 140.059 75.7506 140.291L77.5704 144.01ZM86.9286 118.66L87.4806 120.694L88.227 120.034L87.1926 116.504C87.1878 116.489 87.1848 116.473 87.1806 116.458L86.9286 118.66ZM104.197 88.2907L104.869 89.8813L105.904 89.6365L106.007 87.5767C106.037 86.9689 106.528 86.4919 107.161 86.5237L108.332 86.5711L111.508 84.5341L111.602 82.9867C111.619 82.7215 111.731 82.4701 111.917 82.2793L114.998 79.1293C115.232 78.8887 115.556 78.7609 115.885 78.7999C115.841 78.5767 115.865 78.3439 115.958 78.1327L116.255 77.4685L112.157 77.4379L108.8 79.0081C108.671 79.0687 108.53 79.1035 108.386 79.1107L105.203 79.2691L98.568 82.5607L101.726 84.8533L104.489 85.1713C104.888 85.2163 105.231 85.4737 105.386 85.8439C105.542 86.2135 105.485 86.6395 105.239 86.9557L104.197 88.2907ZM121.319 83.0635L121.82 83.7103L125.147 82.3135L121.214 81.1771L121.319 83.0635ZM122.089 79.1197L125.622 80.1415L128.383 77.8525C128.516 77.7421 128.672 77.6647 128.84 77.6257L131.028 77.1157L130.139 76.3783C130.076 76.3267 130.019 76.2685 129.97 76.2031L127.895 73.5193L123.077 73.2073L124.951 74.4835C125.249 74.6863 125.429 75.0211 125.436 75.3811C125.443 75.7405 125.273 76.0825 124.983 76.2955L121.729 78.6823L122.089 79.1197ZM118.012 76.3957L120.655 76.7173L122.405 75.4333L121.438 74.7745L118.426 75.7993L118.012 76.3957ZM114.311 75.2353L116.107 75.2485L116.812 74.2327C116.948 74.0389 117.142 73.8925 117.366 73.8169L120.853 72.6307L119.341 72.1915L115.199 72.7225L115.465 73.7281C115.609 74.2729 115.321 74.8405 114.796 75.0457L114.311 75.2353Z" fill="black"/>
<path d="M140.578 68.4001L144.335 68.4565L144.565 67.8745L136.711 66.3535L130.962 66.4033L124.595 68.2843L120.627 68.7595L125.186 69.9553L129.521 68.5735L136.469 69.2203L140.578 68.4001Z" fill="#29FF91"/>
<path d="M125.187 71.0644C125.093 71.0644 124.998 71.0524 124.905 71.0284L120.346 69.8332C119.831 69.6982 119.484 69.2158 119.52 68.6836C119.557 68.152 119.967 67.7212 120.495 67.6576L124.464 67.1818L130.648 65.3386C130.747 65.3092 130.85 65.2942 130.953 65.293L136.702 65.2432L144.777 66.7852C145.101 66.8482 145.38 67.0516 145.539 67.3402C145.696 67.6294 145.719 67.975 145.597 68.2816L145.367 68.8636C145.198 69.2926 144.791 69.5854 144.319 69.5656L140.68 69.511L136.686 70.3078C136.581 70.3294 136.476 70.3348 136.366 70.3252L129.642 69.6988L125.524 71.0122C125.415 71.047 125.301 71.0644 125.187 71.0644ZM130.877 67.585L136.41 68.101L138.128 67.7572L136.5 67.4416L130.877 67.585Z" fill="black"/>
<path d="M157.983 80.4529L161.867 81.3811L165.718 80.9653L167.224 79.8697L165.8 78.2917L166.199 77.7415L170.069 78.7795L171.324 77.9167L171.61 76.7209L173.669 75.6871L172.139 74.0575L170.507 74.9527L169.599 74.1037L163.355 73.6099L163.013 72.6781L159.197 71.8297L155.257 72.6835L146.702 71.4535L139.769 71.4307L135.918 72.2827L136.952 73.1779L139.853 73.5643L143.022 75.0469L142.181 75.5473L141.418 76.3531L142.939 76.7155L143.487 78.4555L139.94 79.8025L140.365 81.3031L139.801 82.3195L141.897 85.5049L143.245 85.7719L145.514 87.1153L147.122 84.4645L151.824 81.8341L156.603 81.7843L157.983 80.4529Z" fill="#29FF91"/>
<path d="M145.513 88.2245C145.321 88.2245 145.126 88.1747 144.949 88.0697L142.843 86.8223L141.682 86.5937C141.391 86.5355 141.133 86.3627 140.971 86.1149L138.876 82.9295C138.648 82.5845 138.632 82.1423 138.831 81.7817L139.174 81.1655L138.873 80.1041C138.717 79.5503 139.009 78.9689 139.548 78.7655L142.116 77.7899L142.071 77.6489L141.162 77.4323C140.776 77.3411 140.469 77.0495 140.356 76.6703C140.242 76.2905 140.34 75.8783 140.613 75.5903L140.905 75.2813L139.539 74.6411L136.806 74.2769C136.591 74.2487 136.39 74.1575 136.226 74.0159L135.193 73.1207C134.875 72.8465 134.74 72.4163 134.842 72.0101C134.946 71.6027 135.27 71.2895 135.679 71.1983L139.53 70.3469C139.609 70.3283 139.661 70.2905 139.773 70.3211L146.705 70.3433L155.217 71.5565L158.962 70.7447C159.12 70.7135 159.283 70.7147 159.438 70.7459L163.254 71.5943C163.624 71.6771 163.925 71.9411 164.055 72.2957L164.152 72.5603L169.687 72.9977C169.938 73.0175 170.174 73.1225 170.357 73.2935L170.677 73.5935L171.607 73.0841C172.048 72.8423 172.602 72.9293 172.949 73.2977L174.478 74.9273C174.718 75.1835 174.823 75.5363 174.762 75.8813C174.701 76.2257 174.48 76.5215 174.166 76.6781L172.57 77.4803L172.404 78.1745C172.34 78.4421 172.18 78.6755 171.954 78.8315L170.698 79.6937C170.431 79.8779 170.096 79.9337 169.783 79.8509L168.247 79.4393C168.319 79.6091 168.349 79.7969 168.328 79.9847C168.295 80.2973 168.132 80.5817 167.877 80.7665L166.371 81.8621C166.215 81.9761 166.03 82.0475 165.838 82.0679L161.986 82.4837C161.86 82.4945 161.731 82.4897 161.61 82.4597L158.317 81.6725L157.374 82.5821C157.17 82.7795 156.898 82.8899 156.616 82.8935L152.119 82.9397L147.919 85.2905L146.463 87.6905C146.254 88.0337 145.888 88.2245 145.513 88.2245ZM142.569 84.5069L143.461 84.6827C143.584 84.7073 143.703 84.7529 143.811 84.8165L145.135 85.6013L146.175 83.8895C146.273 83.7257 146.414 83.5907 146.581 83.4959L151.283 80.8649C151.446 80.7749 151.627 80.7263 151.813 80.7245L156.15 80.6783L157.213 79.6535C157.485 79.3913 157.875 79.2845 158.242 79.3733L161.938 80.2571L165.305 79.8929L165.574 79.6967L164.977 79.0343C164.626 78.6455 164.595 78.0647 164.902 77.6399L165.301 77.0897C165.57 76.7165 166.039 76.5461 166.486 76.6691L169.863 77.5751L170.345 77.2433L170.532 76.4621C170.569 76.3061 170.64 76.1615 170.736 76.0373C170.388 76.1105 170.019 76.0139 169.75 75.7625L169.125 75.1793L163.268 74.7155C162.837 74.6807 162.464 74.3993 162.315 73.9919L162.181 73.6289L159.195 72.9647L155.493 73.7675C155.362 73.7957 155.233 73.8011 155.1 73.7819L146.544 72.5519L140.283 72.5411C140.298 72.5465 140.311 72.5531 140.325 72.5585L143.493 74.0405C143.865 74.2151 144.111 74.5805 144.131 74.9909C144.148 75.3515 143.991 75.6965 143.71 75.9161C143.842 76.0427 143.941 76.2023 143.998 76.3811L144.547 78.1217C144.724 78.6827 144.432 79.2839 143.881 79.4921L141.286 80.4785L141.433 81.0005C141.513 81.2825 141.478 81.5843 141.337 81.8405L141.098 82.2701L142.569 84.5069Z" fill="black"/>
<path d="M128.792 170.685L127.973 168.702L123.89 168.332L119.986 163.809L116.8 165.584L117.883 162.624L116.287 162.243L113.961 163.018L115.804 158.658L113.432 153.764L108.786 153.084L107.098 149.16L105.043 148.873L102.995 144.613L99.7189 145.031L95.9809 143.809L93.1267 141.169L90.2359 142.756L87.7111 142.86L86.1463 146.559L83.9383 146.73L84.0271 149.647L83.5957 151.238L84.5581 152.616L81.8491 155.637L78.2455 160.197L79.7515 162.68L76.9795 164.301L81.2797 172.549L83.1235 180.513L90.9097 186.102L91.0291 201.328L92.4745 206.937L90.1663 212.116L92.7043 215.989L92.7277 219.046L94.0735 219.648L93.4279 222.035L102.055 228.092L102.866 225.576L101.312 223.955L103.078 220.68L101.683 218.977L104.134 218.413L104.818 216.355L109.571 215.211L107.155 210.707L111.488 211.503L114.893 207.819L115.207 205.069L116.62 204.882L117.832 198.658L121.268 196.864L123.31 197.696L125.737 194.293L128.177 184.286L129.729 183.319L130.353 180.905L133.135 177.893L133.085 173.563L128.792 170.685Z" fill="#29FF91"/>
<path d="M102.055 229.201C101.83 229.201 101.607 229.132 101.418 229L92.7907 222.943C92.4085 222.674 92.2351 222.195 92.3575 221.745L92.7553 220.275L92.2754 220.059C91.8788 219.881 91.6214 219.489 91.6184 219.055L91.5967 216.325L89.2387 212.725C89.0317 212.409 88.9994 212.01 89.1536 211.665L91.3033 206.839L89.954 201.606C89.9324 201.517 89.9203 201.428 89.9197 201.337L89.8045 186.674L82.4767 181.415C82.2577 181.257 82.1023 181.027 82.0417 180.765L80.2303 172.937L75.9955 164.815C75.7225 164.291 75.9091 163.642 76.4197 163.344L78.218 162.292L77.2958 160.771C77.0564 160.377 77.0863 159.872 77.3749 159.51L80.9786 154.95L83.1446 152.532L82.6856 151.873C82.4978 151.604 82.4383 151.264 82.5247 150.948L82.9123 149.515L82.8283 146.765C82.8109 146.172 83.2616 145.671 83.852 145.625L85.3873 145.506L86.6887 142.429C86.8555 142.032 87.2359 141.77 87.6649 141.75L89.9294 141.657L92.5922 140.196C93.0104 139.969 93.5281 140.029 93.8797 140.354L96.5557 142.829L99.8258 143.9L102.855 143.512C103.341 143.451 103.789 143.703 103.996 144.132L105.786 147.857L107.25 148.06C107.635 148.114 107.963 148.364 108.117 148.721L109.56 152.076L113.592 152.665C113.956 152.72 114.271 152.949 114.43 153.281L116.802 158.174C116.94 158.46 116.949 158.794 116.824 159.089L115.938 161.189C116.134 161.126 116.344 161.115 116.544 161.163L118.141 161.544C118.449 161.618 118.711 161.819 118.861 162.099C119.01 162.378 119.034 162.708 118.926 163.005L118.868 163.161L119.446 162.84C119.904 162.585 120.483 162.684 120.825 163.083L124.437 167.268L128.074 167.597C128.484 167.634 128.841 167.896 128.998 168.279L129.689 169.95L133.702 172.642C134.006 172.846 134.19 173.184 134.194 173.55L134.245 177.88C134.248 178.164 134.143 178.437 133.95 178.645L131.356 181.453L130.802 183.597C130.732 183.871 130.557 184.11 130.315 184.261L129.148 184.988L126.814 194.556C126.781 194.694 126.721 194.822 126.64 194.937L124.213 198.339C123.915 198.757 123.364 198.92 122.89 198.723L121.326 198.085L118.818 199.394L117.709 205.094C117.618 205.562 117.237 205.919 116.764 205.982L116.211 206.053L115.994 207.943C115.968 208.177 115.867 208.399 115.707 208.57L112.302 212.254C112.044 212.533 111.664 212.65 111.287 212.594L109.222 212.215L110.547 214.685C110.71 214.989 110.722 215.349 110.583 215.663C110.442 215.977 110.164 216.209 109.83 216.289L105.676 217.288L105.186 218.764C105.064 219.13 104.76 219.408 104.381 219.494L103.674 219.657L103.936 219.978C104.221 220.324 104.267 220.81 104.053 221.206L102.671 223.77L103.666 224.808C103.948 225.103 104.046 225.528 103.921 225.915L103.111 228.432C103.003 228.767 102.742 229.032 102.408 229.142C102.292 229.182 102.174 229.201 102.055 229.201ZM94.7024 221.573L101.46 226.319L101.607 225.866L100.511 224.722C100.177 224.375 100.107 223.853 100.336 223.428L101.749 220.808L100.825 219.679C100.581 219.382 100.508 218.981 100.633 218.617C100.757 218.255 101.059 217.982 101.434 217.895L103.278 217.47L103.765 216.003C103.887 215.641 104.187 215.366 104.558 215.275L107.913 214.469L106.177 211.231C105.975 210.857 106.006 210.397 106.258 210.052C106.507 209.71 106.929 209.544 107.355 209.615L111.087 210.302L113.832 207.331L114.105 204.943C114.162 204.435 114.556 204.034 115.062 203.967L115.684 203.887L116.742 198.445C116.806 198.114 117.019 197.83 117.318 197.674L120.754 195.879C121.045 195.728 121.383 195.715 121.687 195.836L122.917 196.337L124.71 193.823L127.099 184.023C127.168 183.741 127.344 183.497 127.591 183.343L128.766 182.613L129.279 180.628C129.325 180.45 129.414 180.288 129.538 180.153L132.021 177.463L131.983 174.159L128.175 171.606C127.993 171.484 127.851 171.311 127.768 171.107L127.204 169.746L123.79 169.436C123.504 169.41 123.238 169.273 123.051 169.057L119.737 165.217L117.34 166.552C116.934 166.779 116.433 166.727 116.08 166.426C115.728 166.125 115.599 165.637 115.758 165.201L116.413 163.411L116.337 163.394L114.312 164.07C113.899 164.203 113.442 164.088 113.146 163.771C112.851 163.45 112.77 162.987 112.939 162.586L114.585 158.687L112.69 154.775L108.626 154.182C108.244 154.125 107.92 153.876 107.767 153.52L106.326 150.17L104.891 149.971C104.523 149.919 104.205 149.687 104.044 149.353L102.342 145.814L99.8594 146.131C99.6968 146.157 99.5311 146.133 99.3745 146.085L95.636 144.863C95.4848 144.813 95.3444 144.731 95.2274 144.622L92.9599 142.525L90.77 143.728C90.6194 143.81 90.4525 143.856 90.2815 143.864L88.4587 143.938L87.1688 146.989C87.0068 147.373 86.6461 147.633 86.2321 147.663L85.0795 147.754L85.1365 149.612C85.1401 149.722 85.1269 149.83 85.0975 149.937L84.8029 151.027L85.4684 151.981C85.763 152.403 85.7281 152.973 85.3837 153.357L82.6747 156.378L79.5931 160.278L80.7008 162.105C80.8544 162.359 80.8994 162.664 80.8274 162.953C80.7536 163.241 80.5682 163.488 80.3114 163.638L78.452 164.725L82.2626 172.035C82.3064 172.119 82.3387 172.206 82.3603 172.297L84.1099 179.856L91.5565 185.2C91.8445 185.406 92.0156 185.737 92.0192 186.093L92.1373 201.182L93.5491 206.658C93.6109 206.901 93.5905 207.159 93.4873 207.386L91.4263 212.013L93.6325 215.379C93.7483 215.558 93.8113 215.766 93.8137 215.979L93.8317 218.324L94.5266 218.636C95.0252 218.859 95.2873 219.411 95.1439 219.938L94.7024 221.573Z" fill="black"/>
<path d="M217.992 202.093L215.999 203.714L214.922 205.545L212.934 206.256L210.371 206.375L208.674 211.357L206.017 213.891L205.763 216.316L206.541 219.33L212.228 216.63L214.068 212.137L217.581 208.536L217.986 205.437L219.234 202.632L217.992 202.093Z" fill="#29FF91"/>
<path d="M206.541 220.439C206.381 220.439 206.221 220.404 206.072 220.335C205.771 220.194 205.55 219.928 205.467 219.607L204.689 216.593C204.656 216.465 204.647 216.331 204.66 216.201L204.914 213.776C204.941 213.513 205.061 213.268 205.251 213.086L207.711 210.741L209.321 206.017C209.468 205.586 209.864 205.287 210.318 205.267L212.717 205.154L214.169 204.634L215.042 203.15C215.109 203.037 215.195 202.935 215.298 202.853L217.292 201.232C217.614 200.97 218.055 200.912 218.435 201.074L219.676 201.613C219.948 201.732 220.16 201.953 220.268 202.229C220.375 202.506 220.368 202.812 220.248 203.082L219.065 205.739L218.681 208.678C218.65 208.916 218.543 209.138 218.375 209.309L215.013 212.756L213.255 217.049C213.15 217.305 212.954 217.513 212.703 217.632L207.017 220.332C206.867 220.402 206.704 220.439 206.541 220.439ZM206.888 216.23L207.279 217.75L211.364 215.812L213.041 211.716C213.095 211.584 213.174 211.465 213.274 211.363L216.529 208.026L216.887 205.293C216.899 205.187 216.929 205.083 216.973 204.986L217.414 203.994L216.854 204.449L215.879 206.109C215.747 206.332 215.541 206.503 215.295 206.59L213.308 207.301C213.204 207.338 213.096 207.359 212.987 207.363L211.176 207.448L209.724 211.715C209.666 211.884 209.569 212.038 209.44 212.162L207.077 214.413L206.888 216.23Z" fill="black"/>
<path d="M42.0525 169.528C41.4394 169.528 40.9429 169.032 40.9429 168.418V109.243C40.9429 108.629 41.4394 108.133 42.0525 108.133C42.6656 108.133 43.1621 108.629 43.1621 109.243V168.418C43.1621 169.032 42.6656 169.528 42.0525 169.528Z" fill="black"/>
<path d="M42.0523 131.316H25.409L17.0874 124.347L25.409 117.378H42.0523V131.316Z" fill="#E3E7FF"/>
<path d="M42.0524 132.426H25.4092C25.1493 132.426 24.8965 132.334 24.6974 132.167L16.3754 125.197C16.123 124.986 15.9775 124.675 15.9775 124.346C15.9775 124.018 16.1227 123.707 16.3754 123.496L24.697 116.528C24.8965 116.36 25.1489 116.269 25.4088 116.269H42.052C42.6652 116.269 43.1617 116.765 43.1617 117.379V131.316C43.162 131.93 42.6655 132.426 42.0524 132.426ZM25.8123 130.207H40.9428V118.489H25.8123L18.8159 124.347L25.8123 130.207Z" fill="black"/>
<path d="M42.0527 131.316H65.258L73.58 138.287L65.258 145.256H42.0527V131.316Z" fill="#E3E7FF"/>
<path d="M65.2578 146.366H42.0525C41.4394 146.366 40.9429 145.869 40.9429 145.256V131.316C40.9429 130.703 41.4394 130.207 42.0525 130.207H65.2578C65.5176 130.207 65.7708 130.299 65.9706 130.466L74.2926 137.438C74.5434 137.648 74.6892 137.96 74.6892 138.287C74.6892 138.617 74.544 138.927 74.2914 139.139L65.9694 146.108C65.7708 146.274 65.5176 146.366 65.2578 146.366ZM43.1621 144.146H64.8546L71.8512 138.287L64.8546 132.426H43.1621V144.146Z" fill="black"/>
<path d="M177.028 251.96C177.028 264.358 166.979 274.407 154.583 274.407C142.187 274.407 132.139 264.358 132.139 251.96C132.139 239.566 142.187 229.518 154.583 229.518C166.979 229.518 177.028 239.566 177.028 251.96Z" fill="#E3E7FF"/>
<path d="M154.583 275.517C141.596 275.517 131.029 264.949 131.029 251.96C131.029 238.972 141.596 228.408 154.583 228.408C167.571 228.408 178.138 238.972 178.138 251.96C178.138 264.949 167.57 275.517 154.583 275.517ZM154.583 230.627C142.819 230.627 133.249 240.197 133.249 251.96C133.249 263.725 142.819 273.297 154.583 273.297C166.348 273.297 175.918 263.725 175.918 251.96C175.918 240.196 166.348 230.627 154.583 230.627Z" fill="black"/>
<path d="M151.9 256.125L142.337 244.073L157.264 247.794L151.9 256.125Z" fill="#E3E7FF"/>
<path d="M151.9 257.234C151.562 257.234 151.242 257.081 151.031 256.814L141.468 244.763C141.172 244.392 141.147 243.872 141.404 243.473C141.662 243.073 142.142 242.888 142.605 242.997L157.533 246.718C157.879 246.805 158.163 247.054 158.295 247.385C158.427 247.719 158.391 248.094 158.196 248.395L152.833 256.726C152.639 257.027 152.312 257.215 151.955 257.233C151.937 257.234 151.919 257.234 151.9 257.234ZM145.234 245.939L151.806 254.222L155.492 248.497L145.234 245.939Z" fill="black"/>
<path d="M157.264 247.794L166.83 259.848L151.9 256.125L157.264 247.794Z" fill="#E3E7FF"/>
<path d="M166.829 260.957C166.741 260.957 166.651 260.947 166.561 260.925L151.632 257.202C151.285 257.116 151.001 256.867 150.869 256.534C150.737 256.201 150.774 255.826 150.968 255.525L156.332 247.195C156.526 246.893 156.853 246.704 157.21 246.688C157.562 246.646 157.912 246.824 158.134 247.106L167.546 258.964C167.812 259.168 167.984 259.486 167.984 259.847C167.984 260.468 167.453 260.944 166.854 260.957C166.846 260.957 166.837 260.957 166.829 260.957ZM153.672 255.423L163.932 257.982L157.358 249.697L153.672 255.423Z" fill="black"/>
<path d="M154.584 234.255C153.97 234.255 153.474 233.758 153.474 233.145V229.518C153.474 228.904 153.97 228.408 154.584 228.408C155.197 228.408 155.694 228.904 155.694 229.518V233.145C155.694 233.758 155.197 234.255 154.584 234.255Z" fill="black"/>
<path d="M154.584 275.516C153.97 275.516 153.474 275.02 153.474 274.406V270.775C153.474 270.161 153.97 269.665 154.584 269.665C155.197 269.665 155.694 270.161 155.694 270.775V274.406C155.694 275.02 155.197 275.516 154.584 275.516Z" fill="black"/>
<path d="M177.028 253.069H173.398C172.784 253.069 172.288 252.574 172.288 251.96C172.288 251.347 172.784 250.851 173.398 250.851H177.028C177.641 250.851 178.137 251.347 178.137 251.96C178.137 252.573 177.641 253.069 177.028 253.069Z" fill="black"/>
<path d="M135.771 253.069H132.139C131.525 253.069 131.029 252.574 131.029 251.96C131.029 251.347 131.526 250.851 132.139 250.851H135.771C136.384 250.851 136.88 251.347 136.88 251.96C136.88 252.573 136.384 253.069 135.771 253.069Z" fill="black"/>
<path d="M151.206 258.29C150.999 258.29 150.791 258.233 150.605 258.112C150.09 257.778 149.942 257.091 150.275 256.577L157.028 246.139C157.362 245.621 158.05 245.474 158.562 245.809C159.077 246.143 159.224 246.83 158.892 247.343L152.139 257.783C151.926 258.112 151.569 258.29 151.206 258.29Z" fill="black"/>
<path d="M160.016 19.9296C157.169 19.1548 154.18 18.7086 151.148 18.6129C150.761 18.6009 150.373 18.5957 149.982 18.5957C129.566 18.5957 112.461 35.2033 111.848 55.6194C111.428 69.4402 118.545 82.4374 130.418 89.551L130.509 89.6044L147.863 127.952L147.956 127.779H147.911L167.489 90.7168L167.579 90.6694C179.862 84.2836 187.745 71.7364 188.154 57.9201C188.696 40.1867 177.123 24.5661 160.016 19.9296Z" fill="#FF8970"/>
<path d="M147.9 128.975C147.89 128.975 147.881 128.975 147.87 128.975C147.449 128.96 147.026 128.794 146.852 128.41L129.64 90.3751C117.506 82.9567 110.31 69.6835 110.738 55.5865C111.371 34.5786 128.975 17.4868 149.982 17.4868C150.384 17.4868 150.783 17.4921 151.182 17.5041C154.292 17.6027 157.362 18.058 160.307 18.8597C177.913 23.6316 189.82 39.7071 189.263 57.9542C188.844 72.0889 180.822 84.9367 168.308 91.5409L149.033 128.031C149.014 128.126 148.98 128.219 148.932 128.308C148.736 128.67 148.311 128.975 147.9 128.975ZM149.982 19.7057C130.163 19.7057 113.553 35.8322 112.958 55.6536C112.55 69.0679 119.458 81.6919 130.988 88.5997C131.182 88.7161 131.427 88.9411 131.52 89.1469L147.921 125.386L166.508 90.1993C166.612 90.0013 166.775 89.8387 166.974 89.7349C178.992 83.4859 186.647 71.3023 187.044 57.8882C187.571 40.6716 176.336 25.5032 159.725 21.001C156.947 20.2457 154.05 19.8156 151.113 19.7226C150.738 19.711 150.361 19.7057 149.982 19.7057Z" fill="black"/>
<path d="M168.206 57.5332C168.206 67.5856 160.055 75.739 150.002 75.739C139.949 75.739 131.796 67.5856 131.796 57.5332C131.796 47.4798 139.949 39.3262 150.002 39.3262C160.055 39.3262 168.206 47.4798 168.206 57.5332Z" fill="#D6735E"/>
<path d="M150.002 76.8487C139.352 76.8487 130.687 68.1835 130.687 57.5336C130.687 46.8824 139.352 38.2173 150.002 38.2173C160.651 38.2173 169.316 46.8824 169.316 57.5336C169.316 68.1835 160.651 76.8487 150.002 76.8487ZM150.002 40.4361C140.576 40.4361 132.906 48.1056 132.906 57.5336C132.906 66.9601 140.576 74.6299 150.002 74.6299C159.428 74.6299 167.096 66.9601 167.096 57.5336C167.096 48.1056 159.428 40.4361 150.002 40.4361Z" fill="black"/>
<path d="M254.384 140.558L262.312 116.631H229.697L232.154 140.558H254.384Z" fill="#E3E7FF"/>
<path d="M254.385 141.667H232.155C231.586 141.667 231.109 141.236 231.051 140.671L228.593 116.744C228.562 116.431 228.664 116.12 228.874 115.888C229.084 115.654 229.383 115.521 229.697 115.521H262.312C262.669 115.521 263.004 115.693 263.211 115.981C263.421 116.27 263.477 116.641 263.365 116.98L255.438 140.906C255.288 141.362 254.863 141.667 254.385 141.667ZM233.156 139.448H253.584L260.776 117.74H230.928L233.156 139.448Z" fill="black"/>
<path d="M274.567 120.527C274.567 118.377 271.925 116.631 268.67 116.631H262.312L254.384 140.558H232.154L234.861 166.856H275.75C279.975 166.856 283.402 164.591 283.402 161.795L274.567 120.527Z" fill="#E3E7FF"/>
<path d="M275.75 167.965H234.862C234.293 167.965 233.816 167.535 233.758 166.968L231.05 140.67C231.019 140.358 231.121 140.049 231.331 139.814C231.542 139.58 231.841 139.448 232.154 139.448H253.583L261.259 116.282C261.41 115.828 261.835 115.521 262.313 115.521H268.67C272.54 115.521 275.582 117.654 275.675 120.399L284.487 161.564C284.504 161.639 284.512 161.717 284.512 161.795C284.512 165.254 280.663 167.965 275.75 167.965ZM235.862 165.746H275.75C279.238 165.746 282.193 163.997 282.29 161.901L273.482 120.759C273.466 120.683 273.458 120.605 273.458 120.527C273.458 119.043 271.221 117.74 268.67 117.74H263.113L255.672 140.202L263.24 146.721C263.494 146.94 263.625 147.249 263.625 147.561C263.625 147.819 263.537 148.076 263.356 148.286C262.955 148.751 262.255 148.799 261.791 148.403L253.973 141.668H233.384L235.862 165.746Z" fill="black"/>
<path d="M232.154 140.558L229.697 116.631H221.284C218.029 116.631 215.39 118.377 215.39 120.527L206.552 161.795C206.552 164.591 209.981 166.856 214.204 166.856H234.861L232.154 140.558Z" fill="#E3E7FF"/>
<path d="M234.861 167.965H214.204C209.291 167.965 205.443 165.254 205.443 161.795C205.443 161.717 205.451 161.639 205.467 161.564L214.283 120.399C214.373 117.653 217.416 115.521 221.285 115.521H229.697C230.267 115.521 230.743 115.952 230.801 116.517L235.965 166.743C235.997 167.055 235.895 167.365 235.685 167.599C235.475 167.833 235.175 167.965 234.861 167.965ZM207.664 161.901C207.761 163.997 210.716 165.746 214.204 165.746H233.631L228.695 117.74H221.284C218.735 117.74 216.499 119.043 216.499 120.527C216.499 120.605 216.491 120.683 216.474 120.759L207.664 161.901Z" fill="black"/>
<path d="M268.753 91.1492C267.268 90.7436 265.717 90.5144 264.139 90.4634C263.935 90.458 263.734 90.4556 263.532 90.4556C252.909 90.4556 244.009 99.098 243.688 109.72C243.472 116.91 247.171 123.673 253.349 127.375L253.399 127.402L262.429 147.356L262.474 147.267H262.453L272.638 127.982L272.688 127.957C279.077 124.634 283.179 118.105 283.393 110.916C283.673 101.69 277.653 93.5618 268.753 91.1492Z" fill="#E3E7FF"/>
<path d="M262.447 148.42C262.44 148.42 262.432 148.42 262.425 148.42C261.999 148.411 261.594 148.201 261.418 147.814L252.527 128.167C246.124 124.173 242.353 117.145 242.578 109.687C242.917 98.4704 252.318 89.3462 263.532 89.3462L264.168 89.354C265.842 89.4086 267.481 89.6516 269.045 90.0788C278.44 92.6252 284.797 101.208 284.503 110.95C284.278 118.441 280.056 125.256 273.459 128.805L263.533 147.599C263.515 147.658 263.491 147.716 263.461 147.772C263.271 148.145 262.866 148.42 262.447 148.42ZM263.532 91.5656C253.504 91.5656 245.1 99.7244 244.798 109.753C244.593 116.542 248.088 122.929 253.919 126.423C254.113 126.539 254.317 126.738 254.41 126.944L262.495 144.811L271.658 127.464C271.765 127.26 271.935 127.093 272.143 126.99C278.209 123.835 282.083 117.67 282.285 110.883C282.549 102.171 276.865 94.4978 268.463 92.2196C267.064 91.8386 265.597 91.6208 264.104 91.5716L263.532 91.5656Z" fill="black"/>
<path d="M273.016 110.716C273.016 115.948 268.774 120.189 263.539 120.189C258.312 120.189 254.068 115.948 254.068 110.716C254.068 105.485 258.312 101.242 263.539 101.242C268.774 101.242 273.016 105.485 273.016 110.716Z" fill="#E3E7FF"/>
<path d="M263.539 121.298C257.705 121.298 252.959 116.551 252.959 110.716C252.959 104.88 257.705 100.132 263.539 100.132C269.376 100.132 274.125 104.88 274.125 110.716C274.125 116.551 269.376 121.298 263.539 121.298ZM263.539 102.351C258.928 102.351 255.178 106.104 255.178 110.716C255.178 115.327 258.928 119.079 263.539 119.079C268.153 119.079 271.906 115.328 271.906 110.716C271.906 106.104 268.153 102.351 263.539 102.351Z" fill="black"/>
<path d="M49.8063 270.883L29.1299 278.518V223.493L49.8063 215.86V270.883Z" fill="#E3E7FF"/>
<path d="M29.1302 279.627C28.9071 279.627 28.6847 279.56 28.4965 279.428C28.1984 279.22 28.021 278.88 28.021 278.518V223.493C28.021 223.03 28.3101 222.613 28.7459 222.453L49.4222 214.821C49.7612 214.69 50.1426 214.74 50.4407 214.951C50.7389 215.158 50.9166 215.499 50.9166 215.86V270.884C50.9166 271.347 50.6275 271.764 50.1917 271.924L29.5154 279.558C29.3905 279.606 29.2604 279.627 29.1302 279.627ZM30.2399 224.266V276.925L48.697 270.109V217.453L30.2399 224.266Z" fill="black"/>
<path d="M70.48 278.518L49.8062 270.883V215.86L70.48 223.493V278.518Z" fill="#E3E7FF"/>
<path d="M70.4808 279.627C70.3506 279.627 70.2204 279.606 70.0956 279.558L49.4216 271.923C48.9859 271.762 48.6968 271.347 48.6968 270.883V215.86C48.6968 215.499 48.8745 215.158 49.1726 214.95C49.4715 214.74 49.854 214.692 50.1911 214.82L70.8654 222.453C71.301 222.613 71.5902 223.029 71.5902 223.492V278.518C71.5902 278.88 71.4126 279.22 71.1144 279.427C70.926 279.56 70.704 279.627 70.4808 279.627ZM50.916 270.109L69.3708 276.925V224.266L50.916 217.453V270.109Z" fill="black"/>
<path d="M91.157 270.883L70.481 278.518V223.493L91.157 215.86V270.883Z" fill="#E3E7FF"/>
<path d="M70.4806 279.627C70.2574 279.627 70.0348 279.56 69.8464 279.428C69.5482 279.22 69.3706 278.88 69.3706 278.518V223.493C69.3706 223.03 69.6598 222.613 70.0954 222.453L90.772 214.821C91.1098 214.69 91.4926 214.74 91.7902 214.951C92.0884 215.158 92.2666 215.499 92.2666 215.86V270.884C92.2666 271.347 91.9774 271.764 91.5412 271.924L70.8652 279.558C70.7404 279.606 70.6102 279.627 70.4806 279.627ZM71.59 224.266V276.925L90.0472 270.109V217.453L71.59 224.266Z" fill="black"/>
<path d="M111.831 278.518L91.1567 270.883V215.86L111.831 223.493V278.518Z" fill="#E3E7FF"/>
<path d="M111.831 279.627C111.701 279.627 111.571 279.606 111.446 279.558L90.7722 271.923C90.3366 271.762 90.0474 271.347 90.0474 270.883V215.86C90.0474 215.499 90.225 215.158 90.5226 214.95C90.8202 214.74 91.203 214.692 91.5414 214.82L112.216 222.453C112.651 222.613 112.94 223.029 112.94 223.492V278.518C112.94 278.88 112.762 279.22 112.465 279.427C112.276 279.56 112.054 279.627 111.831 279.627ZM92.2662 270.109L110.721 276.925V224.266L92.2662 217.453V270.109Z" fill="black"/>
<path d="M101.494 264.407C100.88 264.407 100.384 263.911 100.384 263.298V229.225C100.384 228.611 100.88 228.115 101.494 228.115C102.107 228.115 102.603 228.611 102.603 229.225V263.298C102.604 263.911 102.107 264.407 101.494 264.407Z" fill="black"/>
<path d="M101.494 246.325H117.598L113.571 239.581L117.598 232.839H101.494V246.325Z" fill="#E3E7FF"/>
<path d="M117.598 247.434H101.494C100.88 247.434 100.384 246.938 100.384 246.325V232.839C100.384 232.226 100.88 231.729 101.494 231.729H117.598C117.997 231.729 118.366 231.944 118.562 232.291C118.759 232.64 118.754 233.064 118.549 233.409L114.863 239.581L118.549 245.757C118.754 246.099 118.759 246.524 118.562 246.873C118.366 247.22 117.998 247.434 117.598 247.434ZM102.604 245.216H115.643L112.619 240.149C112.409 239.799 112.409 239.362 112.619 239.011L115.643 233.949H102.604V245.216Z" fill="black"/>
<path d="M43.552 185.175C42.3925 184.858 41.1727 184.676 39.9374 184.639C39.7769 184.633 39.6187 184.633 39.4608 184.633C31.1347 184.633 24.1612 191.403 23.9095 199.729C23.7382 205.363 26.638 210.664 31.4815 213.565L31.5205 213.585L38.5983 229.225L38.6328 229.153H38.6155L46.5993 214.04L46.636 214.023C51.6445 211.416 54.8579 206.299 55.027 200.665C55.2479 193.435 50.5282 187.064 43.552 185.175Z" fill="#E3E7FF"/>
<path d="M38.6136 230.3C38.6095 230.3 38.605 230.297 38.6005 230.297C38.1703 230.293 37.765 230.074 37.5872 229.682L30.646 214.345C25.5771 211.137 22.621 205.586 22.8002 199.694C23.0698 190.778 30.5432 183.522 39.4607 183.522L39.982 183.529C41.29 183.568 42.5935 183.761 43.8448 184.103C51.3178 186.128 56.3728 192.951 56.1366 200.699C55.9577 206.63 52.627 212.028 47.4193 214.863L39.685 229.505C39.6707 229.55 39.6523 229.593 39.6306 229.637C39.4457 230.02 39.0392 230.3 38.6136 230.3ZM39.4611 185.741C31.7312 185.741 25.2523 192.03 25.0195 199.76C24.8601 204.995 27.5548 209.92 32.0515 212.613C32.2453 212.729 32.4385 212.921 32.5315 213.127L38.6653 226.682L45.6186 213.521C45.73 213.309 45.9088 213.138 46.1267 213.036C50.7741 210.618 53.7613 205.863 53.9173 200.631C54.1232 193.916 49.7413 188 43.2617 186.245C42.1768 185.949 41.0481 185.783 39.9036 185.748L39.4611 185.741Z" fill="black"/>
<path d="M46.8938 200.509C46.8938 204.609 43.5672 207.933 39.4669 207.933C35.3689 207.933 32.0449 204.609 32.0449 200.509C32.0449 196.408 35.3693 193.084 39.4669 193.084C43.5676 193.084 46.8938 196.408 46.8938 200.509Z" fill="#E3E7FF"/>
<path d="M39.4672 209.043C34.7625 209.043 30.9355 205.213 30.9355 200.509C30.9355 195.804 34.7628 191.974 39.4672 191.974C44.1742 191.974 48.0033 195.804 48.0033 200.509C48.0033 205.213 44.1742 209.043 39.4672 209.043ZM39.4672 194.194C35.9868 194.194 33.1545 197.026 33.1545 200.509C33.1545 203.992 35.9868 206.824 39.4672 206.824C42.951 206.824 45.7845 203.992 45.7845 200.509C45.784 197.026 42.951 194.194 39.4672 194.194Z" fill="black"/>
<path d="M32.4175 47.6864L51.3643 66.6343C54.4262 69.6967 59.3935 69.6967 62.4557 66.6343L63.9875 65.1001C67.0517 62.0383 67.0517 57.0723 63.9875 54.01L45.043 35.062L32.4175 47.6864Z" fill="#E3E7FF"/>
<path d="M56.9101 70.0396C54.5187 70.0396 52.2702 69.1084 50.5801 67.4182L31.6332 48.4702C31.4251 48.262 31.3081 47.9804 31.3081 47.6857C31.3081 47.3909 31.4251 47.1089 31.6332 46.9012L44.2587 34.2768C44.4669 34.0687 44.7485 33.9517 45.0432 33.9517C45.338 33.9517 45.6196 34.0687 45.8277 34.2768L64.7726 53.2248C66.464 54.9149 67.3958 57.1634 67.3958 59.5537C67.3958 61.945 66.464 64.1938 64.7726 65.8834L63.2414 67.4176C61.55 69.1084 59.3019 70.0396 56.9101 70.0396ZM33.9867 47.6861L52.1491 65.8498C54.6912 68.3914 59.1294 68.3914 61.6718 65.8498L63.2024 64.315C64.4756 63.043 65.177 61.3528 65.177 59.5541C65.177 57.7567 64.4756 56.0662 63.2036 54.7942L45.0436 36.6307L33.9867 47.6861Z" fill="black"/>
<path d="M44.2479 28.1558L25.8257 46.5795L29.6743 50.4285L48.0988 32.0081L44.2479 28.1558Z" fill="#E3E7FF"/>
<path d="M29.674 51.5382C29.3901 51.5382 29.1062 51.4297 28.8895 51.213L25.0405 47.3644C24.607 46.9309 24.607 46.2289 25.0405 45.7954L43.4631 27.372C43.6712 27.1639 43.9528 27.0469 44.2476 27.0469C44.5423 27.0469 44.824 27.1639 45.0321 27.372L48.8833 31.224C49.3168 31.6575 49.3168 32.3595 48.8833 32.793L30.4585 51.2134C30.2417 51.4294 29.9578 51.5382 29.674 51.5382ZM27.394 46.5795L29.674 48.8592L46.5295 32.0077L44.2476 29.7247L27.394 46.5795Z" fill="black"/>
<path d="M53.6331 44.8244C53.3492 44.8244 53.0653 44.716 52.8486 44.4992C52.4151 44.0657 52.4151 43.3637 52.8486 42.9302L59.9136 35.8657C60.3466 35.4322 61.0492 35.4322 61.4824 35.8657C61.9162 36.2992 61.9162 37.0012 61.4824 37.4347L54.4179 44.4992C54.2012 44.716 53.9173 44.8244 53.6331 44.8244Z" fill="black"/>
<path d="M70.8545 11.3945L53.1475 29.1016L68.2421 44.1965L85.9493 26.4895L70.8545 11.3945Z" fill="#E3E7FF"/>
<path d="M68.2442 45.3062C67.9604 45.3062 67.6766 45.1978 67.4594 44.981L52.3637 29.8884C52.1556 29.6803 52.0386 29.3987 52.0386 29.1039C52.0386 28.8092 52.1556 28.5275 52.3637 28.3194L70.0712 10.6108C70.5044 10.1773 71.2064 10.1773 71.6402 10.6108L86.7362 25.7057C86.9444 25.9138 87.0614 26.1954 87.0614 26.4902C87.0614 26.7849 86.9444 27.0665 86.7362 27.2747L69.0284 44.981C68.8118 45.1978 68.528 45.3062 68.2442 45.3062ZM54.7172 29.1039L68.2442 42.6276L84.3824 26.4902L70.8554 12.9643L54.7172 29.1039Z" fill="black"/>
<path d="M33.9778 64.4795C33.6939 64.4795 33.41 64.3715 33.1933 64.1543C32.7598 63.7211 32.7598 63.0191 33.1933 62.5853L40.2557 55.5239C40.6892 55.0904 41.3911 55.0904 41.8246 55.5239C42.2582 55.9574 42.2582 56.6594 41.8246 57.0929L34.7623 64.1549C34.5455 64.3715 34.2617 64.4795 33.9778 64.4795Z" fill="black"/>
<path d="M26.4282 55.8213L8.72119 73.5284L23.8166 88.6238L41.5236 70.9166L26.4282 55.8213Z" fill="#E3E7FF"/>
<path d="M23.816 89.7353C23.5321 89.7353 23.2483 89.6267 23.0315 89.4101L7.93549 74.3153C7.72735 74.1071 7.61035 73.8251 7.61035 73.5305C7.61035 73.2359 7.72735 72.9545 7.93549 72.7463L25.6426 55.039C26.0761 54.6055 26.7781 54.6055 27.2116 55.039L42.3076 70.1351C42.5158 70.3433 42.6328 70.6247 42.6328 70.9193C42.6328 71.2145 42.5158 71.4959 42.3076 71.7041L24.6005 89.4101C24.3838 89.6267 24.1002 89.7353 23.816 89.7353ZM10.289 73.5305L23.816 87.0563L39.9545 70.9193L26.4275 57.3921L10.289 73.5305Z" fill="black"/>
<path d="M57.677 76.2288C57.065 76.2288 56.5674 75.732 56.5674 75.1194C56.5674 74.5074 57.0639 74.0094 57.677 74.0094C65.224 74.0064 71.3644 67.8648 71.3644 60.3192C71.3644 59.706 71.8606 59.2095 72.4738 59.2095C73.087 59.2095 73.5832 59.706 73.5832 60.3192C73.5838 69.0882 66.448 76.2252 57.677 76.2288Z" fill="black"/>
<path d="M57.6752 83.1702C57.0621 83.1702 56.5659 82.674 56.5659 82.0602C56.5659 81.4476 57.0621 80.9508 57.6752 80.9508C69.0524 80.9508 78.308 71.6952 78.308 60.3192C78.308 59.706 78.8048 59.2095 79.4174 59.2095C80.0312 59.2095 80.5274 59.706 80.5274 60.3192C80.5274 72.9192 70.2758 83.1702 57.6752 83.1702Z" fill="black"/>
<path d="M24.1868 79.36C23.903 79.36 23.619 79.2514 23.4023 79.0348L13.308 68.9422C12.8745 68.509 12.8745 67.807 13.308 67.3732C13.7415 66.94 14.4435 66.94 14.877 67.3732L24.9713 77.4658C25.4048 77.8996 25.4048 78.6016 24.9713 79.0348C24.755 79.2514 24.471 79.36 24.1868 79.36Z" fill="black"/>
<path d="M35.813 77.7396C35.5292 77.7396 35.2453 77.631 35.0285 77.4144L19.9325 62.3196C19.499 61.8858 19.499 61.1838 19.9325 60.7506C20.366 60.3168 21.068 60.3168 21.5015 60.7506L36.5975 75.8454C37.031 76.2786 37.031 76.9806 36.5975 77.4144C36.3812 77.631 36.0973 77.7396 35.813 77.7396Z" fill="black"/>
<path d="M14.8098 80.7284C14.526 80.7284 14.2421 80.6204 14.0253 80.4038C13.5918 79.97 13.5918 79.268 14.0253 78.8348L27.4091 65.4518C27.8426 65.018 28.5446 65.018 28.9781 65.4518C29.4112 65.885 29.4112 66.587 28.9781 67.0208L15.5943 80.4038C15.3776 80.6204 15.0937 80.7284 14.8098 80.7284Z" fill="black"/>
<path d="M69.5533 36.1537C69.2695 36.1537 68.9857 36.0453 68.7685 35.8286L57.5951 24.6558C57.1616 24.2223 57.1616 23.5203 57.5951 23.0868C58.0286 22.6533 58.7306 22.6533 59.1641 23.0868L70.3375 34.2592C70.7713 34.6927 70.7713 35.3947 70.3375 35.8282C70.1209 36.0453 69.8371 36.1537 69.5533 36.1537Z" fill="black"/>
<path d="M80.8693 32.6828C80.5855 32.6828 80.3017 32.5745 80.0851 32.3577L70.0363 22.3077C69.6025 21.8742 69.6025 21.1722 70.0363 20.7387C70.4695 20.3052 71.1715 20.3052 71.6053 20.7387L81.6541 30.7887C82.0873 31.2222 82.0873 31.9242 81.6541 32.3577C81.4375 32.5745 81.1537 32.6828 80.8693 32.6828Z" fill="black"/>
<path d="M63.0236 35.4327C62.7398 35.4327 62.456 35.3244 62.2394 35.1076C61.8056 34.6741 61.8056 33.9721 62.2394 33.5386L77.6216 18.1576C78.0548 17.7241 78.7568 17.7241 79.1906 18.1576C79.6238 18.5911 79.6238 19.2931 79.1906 19.7266L63.8084 35.1076C63.5918 35.3244 63.3074 35.4327 63.0236 35.4327Z" fill="black"/>
<path d="M265.215 33.8457V63.6311H268.137H271.541C273.972 63.6311 276.027 65.2607 276.674 67.4891C276.816 67.9649 276.89 68.4641 276.89 68.9837C276.89 71.9399 274.493 74.3351 271.541 74.3351H268.137H265.215H213.347V33.8457H265.215Z" fill="#E3E7FF"/>
<path d="M271.541 75.4444H213.347C212.733 75.4444 212.237 74.9482 212.237 74.335V33.8454C212.237 33.2319 212.733 32.7358 213.347 32.7358H265.216C265.829 32.7358 266.326 33.2319 266.326 33.8454V62.5216H271.541C274.396 62.5216 276.944 64.4374 277.739 67.18C277.91 67.7506 277.999 68.362 277.999 68.9842C278 72.5458 275.102 75.4444 271.541 75.4444ZM214.456 73.225H271.541C273.879 73.225 275.78 71.3224 275.78 68.9836C275.78 68.5786 275.723 68.182 275.611 67.8082C275.086 65.9974 273.415 64.7404 271.541 64.7404H265.216C264.602 64.7404 264.106 64.2442 264.106 63.631V34.9547H214.456V73.225Z" fill="black"/>
<path d="M268.137 23.1426H271.542C274.494 23.1426 276.89 25.5392 276.89 28.4953V31.8999V42.6032V54.8777V65.5807V68.9845C276.89 68.4643 276.817 67.9651 276.674 67.4893C276.028 65.2615 273.973 63.6319 271.542 63.6319H268.137H265.216V33.8458V23.1426H268.137Z" fill="#E3E7FF"/>
<path d="M276.89 70.0938C276.277 70.0938 275.781 69.5976 275.781 68.9844C275.781 68.5788 275.724 68.1834 275.611 67.8084C275.086 65.9976 273.415 64.7412 271.542 64.7412H265.216C264.603 64.7412 264.106 64.245 264.106 63.6312V23.1424C264.106 22.5289 264.603 22.0327 265.216 22.0327H271.542C275.102 22.0327 277.999 24.9314 277.999 28.4951V68.9838C277.999 69.5976 277.504 70.0938 276.89 70.0938ZM266.326 62.5218H271.542C273.133 62.5218 274.63 63.1176 275.781 64.1202V28.4951C275.781 26.1554 273.879 24.2519 271.542 24.2519H266.326V62.5218Z" fill="black"/>
<path d="M234.114 57.9892C233.5 57.9892 233.004 57.4931 233.004 56.88V14.0632C233.004 13.4497 233.5 12.9536 234.114 12.9536C234.727 12.9536 235.223 13.4497 235.223 14.0632V56.88C235.223 57.4931 234.726 57.9892 234.114 57.9892Z" fill="black"/>
<path d="M234.114 35.5511H254.35L249.288 27.0746L254.35 18.6045H234.114V35.5511Z" fill="#E3E7FF"/>
<path d="M254.35 36.661H234.114C233.5 36.661 233.004 36.1649 233.004 35.5514V18.6048C233.004 17.9913 233.5 17.4951 234.114 17.4951H254.35C254.75 17.4951 255.118 17.7096 255.315 18.0576C255.512 18.4045 255.507 18.8313 255.302 19.1736L250.58 27.0749L255.302 34.9825C255.507 35.3249 255.512 35.752 255.315 36.0989C255.118 36.4465 254.75 36.661 254.35 36.661ZM235.223 34.4421H252.395L248.335 27.6438C248.126 27.2939 248.126 26.8559 248.335 26.506L252.395 19.7144H235.223V34.4421Z" fill="black"/>
<path d="M273.247 194.193H257.189C256.576 194.193 256.08 193.697 256.08 193.084C256.08 192.471 256.576 191.975 257.189 191.975H273.247C273.861 191.975 274.357 192.471 274.357 193.084C274.357 193.697 273.861 194.193 273.247 194.193Z" fill="black"/>
<path d="M265.218 202.223C264.605 202.223 264.108 201.727 264.108 201.113V185.053C264.108 184.439 264.605 183.944 265.218 183.944C265.832 183.944 266.327 184.439 266.327 185.053V201.113C266.327 201.727 265.832 202.223 265.218 202.223Z" fill="black"/>
<path d="M265.218 206.713C257.702 206.713 251.586 200.599 251.586 193.084C251.586 185.569 257.702 179.452 265.218 179.452C272.733 179.452 278.847 185.569 278.847 193.084C278.847 200.6 272.733 206.713 265.218 206.713ZM265.218 181.672C258.926 181.672 253.806 186.79 253.806 193.084C253.806 199.375 258.926 204.494 265.218 204.494C271.509 204.494 276.627 199.375 276.627 193.084C276.627 186.79 271.509 181.672 265.218 181.672Z" fill="black"/>
<path d="M203.349 271.884H190.485C189.872 271.884 189.376 271.388 189.376 270.775C189.376 270.161 189.872 269.665 190.485 269.665H203.349C203.963 269.665 204.459 270.161 204.459 270.775C204.459 271.388 203.963 271.884 203.349 271.884Z" fill="black"/>
<path d="M192.874 260.958H186.047C185.434 260.958 184.938 260.462 184.938 259.848C184.938 259.235 185.434 258.739 186.047 258.739H192.874C193.487 258.739 193.984 259.235 193.984 259.848C193.984 260.461 193.487 260.958 192.874 260.958Z" fill="black"/>
<path d="M277.737 223.544H269.264C268.65 223.544 268.154 223.048 268.154 222.435C268.154 221.822 268.65 221.326 269.264 221.326H277.737C278.351 221.326 278.847 221.822 278.847 222.435C278.847 223.048 278.351 223.544 277.737 223.544Z" fill="black"/>
<mask id="mask1_371_568" style="mask-type:luminance" maskUnits="userSpaceOnUse" x="0" y="0" width="300" height="300">
<path d="M299.998 0H0V300H299.998V0Z" fill="white"/>
</mask>
<g mask="url(#mask1_371_568)">
<path d="M252.738 211.257L220.542 179.063C217.746 176.263 213.208 176.263 210.411 179.063C207.613 181.859 207.613 186.396 210.411 189.194L208.293 187.077C205.495 184.281 200.959 184.281 198.162 187.077C195.364 189.876 195.364 194.414 198.162 197.21L197.475 196.526C194.677 193.728 190.141 193.725 187.339 196.526C184.542 199.323 184.544 203.859 187.342 206.658L160.142 179.457C157.345 176.661 152.807 176.661 150.009 179.457C147.209 182.258 147.209 186.795 150.007 189.593L182.854 222.435C182.173 222.833 181.519 223.295 180.938 223.878C177.213 227.601 178.875 231.981 182.598 235.704L198.184 251.292L199.113 252.219L205.073 258.179C205.073 258.179 210.688 263.328 216.407 262.719L227.962 263.825C227.962 263.825 231.627 263.381 233.293 265.045L235.512 267.266L265.993 236.786L260.61 231.404C258.998 229.791 258.568 227.221 258.568 227.221L257.22 219.909C256.83 214.967 252.738 211.257 252.738 211.257Z" fill="#FFE6CE"/>
<path d="M235.512 268.375C235.217 268.375 234.935 268.258 234.727 268.05L232.508 265.829C231.905 265.227 230.645 264.88 229.055 264.88C228.504 264.88 228.121 264.923 228.094 264.925C228.013 264.934 227.931 264.934 227.856 264.93L216.409 263.833C210.331 264.414 204.554 259.206 204.323 258.996L181.814 236.489C179.646 234.32 178.324 232.142 177.888 230.013C177.37 227.486 178.153 225.092 180.154 223.094C180.443 222.803 180.76 222.528 181.111 222.261L149.223 190.377C145.996 187.15 145.997 181.899 149.225 178.673C152.35 175.548 157.802 175.548 160.927 178.673L184.143 201.891C184.063 199.672 184.867 197.429 186.555 195.741C188.781 193.517 192.221 192.765 195.112 193.766C195.008 193.238 194.955 192.696 194.955 192.146C194.955 189.935 195.815 187.857 197.378 186.292C199.949 183.722 204.146 183.185 207.238 184.903C207.215 184.647 207.202 184.388 207.202 184.128C207.202 181.917 208.064 179.839 209.626 178.278C212.751 175.149 218.202 175.149 221.328 178.278L253.523 210.473C253.663 210.598 257.906 214.501 258.326 219.822L259.659 227.018C259.666 227.057 260.061 229.285 261.394 230.618L266.777 236.001C267.21 236.435 267.21 237.137 266.777 237.57L236.297 268.051C236.088 268.258 235.806 268.375 235.512 268.375ZM229.055 262.661C230.615 262.661 232.754 262.938 234.078 264.26L235.512 265.697L264.423 236.786L259.825 232.187C257.983 230.345 257.493 227.521 257.473 227.402L256.129 220.11C255.762 215.546 252.03 212.113 251.993 212.078L219.757 179.847C217.47 177.558 213.483 177.558 211.195 179.847C210.052 180.989 209.421 182.511 209.421 184.127C209.421 185.746 210.052 187.265 211.195 188.409C211.628 188.843 211.628 189.545 211.195 189.978C210.762 190.412 210.06 190.412 209.626 189.978L207.508 187.861C205.222 185.577 201.232 185.577 198.946 187.861C197.803 189.005 197.173 190.526 197.173 192.146C197.173 193.762 197.803 195.284 198.946 196.425C199.38 196.859 199.38 197.561 198.947 197.995C198.514 198.428 197.812 198.426 197.378 197.997L196.691 197.312C194.4 195.017 190.413 195.023 188.124 197.31C185.764 199.67 185.764 203.512 188.126 205.874C188.559 206.308 188.559 207.01 188.126 207.443C187.692 207.877 186.99 207.877 186.556 207.443L159.357 180.242C157.071 177.958 153.079 177.958 150.793 180.242C148.431 182.604 148.43 186.447 150.791 188.809L183.637 221.651C183.88 221.893 183.997 222.236 183.954 222.576C183.91 222.917 183.711 223.22 183.415 223.394C182.716 223.803 182.178 224.206 181.723 224.661C180.233 226.152 179.689 227.756 180.061 229.57C180.404 231.241 181.552 233.091 183.382 234.921L205.857 257.396C205.869 257.404 211.098 262.176 216.289 261.617C216.365 261.611 216.439 261.611 216.513 261.615L227.957 262.71C228.15 262.691 228.547 262.661 229.055 262.661Z" fill="black"/>
<path d="M268.95 233.845L232.381 270.414L241.911 279.944L278.48 243.376L268.95 233.845Z" fill="#E3E7FF"/>
<path d="M241.915 281.033C241.621 281.033 241.339 280.916 241.131 280.708L231.6 271.177C231.167 270.744 231.167 270.042 231.6 269.608L268.168 233.038C268.602 232.605 269.303 232.605 269.737 233.038L279.268 242.567C279.476 242.775 279.593 243.057 279.593 243.351C279.593 243.646 279.476 243.928 279.268 244.136L242.7 280.708C242.492 280.916 242.211 281.033 241.915 281.033ZM233.954 270.393L241.915 278.355L276.914 243.351L268.952 235.392L233.954 270.393Z" fill="black"/>
<path d="M281.774 240.053L238.617 283.209L279.037 323.628L322.193 280.472L281.774 240.053Z" fill="#6593AB"/>
<path d="M279.04 324.746C278.756 324.746 278.472 324.638 278.256 324.421L237.837 284.002C237.404 283.57 237.404 282.867 237.837 282.434L280.993 239.276C281.409 238.86 282.145 238.86 282.562 239.276L322.982 279.697C323.19 279.905 323.307 280.186 323.307 280.481C323.307 280.776 323.19 281.057 322.982 281.266L279.825 324.421C279.608 324.638 279.324 324.746 279.04 324.746ZM240.191 283.218L279.04 322.067L320.629 280.481L281.777 241.63L240.191 283.218Z" fill="black"/>
<path d="M218.669 198.562C218.384 198.562 218.101 198.454 217.885 198.237L209.626 189.978C209.192 189.546 209.192 188.843 209.626 188.409C210.059 187.976 210.761 187.976 211.195 188.409L219.454 196.668C219.887 197.102 219.887 197.804 219.454 198.237C219.236 198.454 218.953 198.562 218.669 198.562Z" fill="black"/>
<path d="M208.535 208.695C208.252 208.695 207.968 208.587 207.751 208.37L197.377 197.994C196.944 197.561 196.944 196.859 197.377 196.425C197.81 195.992 198.512 195.992 198.946 196.425L209.32 206.801C209.753 207.234 209.753 207.937 209.32 208.37C209.103 208.587 208.819 208.695 208.535 208.695Z" fill="black"/>
<path d="M198.404 218.829C198.121 218.829 197.837 218.721 197.62 218.504L186.557 207.443C186.124 207.01 186.124 206.308 186.557 205.874C186.99 205.44 187.692 205.44 188.126 205.874L199.189 216.935C199.622 217.368 199.622 218.07 199.189 218.504C198.972 218.721 198.688 218.829 198.404 218.829Z" fill="black"/>
<path d="M193.698 234.389C193.414 234.389 193.129 234.28 192.913 234.064L182.069 223.219C181.635 222.787 181.635 222.085 182.069 221.65C182.502 221.218 183.204 221.218 183.638 221.65L194.482 232.495C194.916 232.928 194.916 233.63 194.482 234.064C194.265 234.28 193.981 234.389 193.698 234.389Z" fill="black"/>
<path d="M151.667 188.195L156.246 192.774C158.2 194.729 161.371 194.729 163.326 192.774C165.28 190.822 165.28 187.649 163.326 185.691L158.745 181.112L151.667 188.195Z" fill="#EFD8C3"/>
<path d="M159.785 195.35C158.152 195.35 156.616 194.714 155.461 193.559L150.882 188.979C150.449 188.546 150.449 187.844 150.882 187.41L157.96 180.328C158.375 179.912 159.112 179.912 159.529 180.328L164.111 184.907C165.266 186.065 165.902 187.601 165.902 189.235C165.902 190.869 165.266 192.405 164.111 193.558C162.955 194.713 161.419 195.35 159.785 195.35ZM153.235 188.195L157.03 191.989C158.502 193.458 161.069 193.458 162.541 191.989C163.277 191.255 163.682 190.275 163.682 189.235C163.682 188.192 163.277 187.213 162.541 186.476L158.744 182.682L153.235 188.195Z" fill="black"/>
<path d="M285.171 251.693C286.924 253.446 286.924 256.287 285.171 258.045C283.415 259.8 280.572 259.8 278.817 258.045C277.062 256.29 277.064 253.446 278.817 251.693C280.572 249.935 283.417 249.935 285.171 251.693Z" fill="#E3E7FF"/>
<path d="M281.994 260.472C280.497 260.47 279.091 259.887 278.032 258.829C276.974 257.772 276.391 256.363 276.392 254.868C276.392 253.372 276.975 251.966 278.032 250.908C280.147 248.789 283.84 248.789 285.957 250.908C288.136 253.088 288.136 256.642 285.957 258.829C284.897 259.887 283.491 260.472 281.994 260.472ZM281.995 251.485C281.091 251.485 280.242 251.836 279.602 252.477C278.963 253.116 278.611 253.966 278.611 254.868C278.611 255.771 278.962 256.621 279.601 257.26C280.88 258.538 283.108 258.538 284.386 257.26C285.703 255.94 285.703 253.795 284.386 252.477C283.747 251.836 282.898 251.485 281.995 251.485Z" fill="black"/>
</g>
</g>
</g>
<defs>
<clipPath id="clip0_371_568">
<rect width="300" height="300" fill="white"/>
</clipPath>
</defs>
</svg>
