<svg width="301" height="183" viewBox="0 0 301 183" fill="none" xmlns="http://www.w3.org/2000/svg">
<path d="M255.966 183H54.8031C45.3769 165.97 40 146.305 40 125.36C40 60.4449 91.66 7.8208 155.385 7.8208C219.109 7.8208 270.769 60.4449 270.769 125.36C270.769 146.305 265.392 165.97 255.966 183Z" fill="#FFEFAD"/>
<path d="M121.538 76.6412C121.538 73.3226 122.835 70.1399 125.143 67.7933C127.451 65.4467 130.582 64.1284 133.846 64.1284H292.308C294.348 64.1284 296.304 64.9524 297.747 66.419C299.19 67.8856 300 69.8748 300 71.9489V181.436H121.538V76.6412Z" fill="white" stroke="#FFEFAD" stroke-width="1.5"/>
<path d="M121.538 183V70.3848C121.538 68.7255 122.187 67.1342 123.341 65.9609C124.495 64.7876 126.06 64.1284 127.692 64.1284H138.462V183H121.538Z" fill="#6D7888"/>
<path fill-rule="evenodd" clip-rule="evenodd" d="M128.701 77.0632C128.701 75.6602 129.449 75.1613 130.149 75.1613C131.009 75.1613 131.586 75.9198 131.586 77.0491C131.586 78.3364 130.852 78.912 130.126 78.912C129.146 78.912 128.701 77.9532 128.701 77.0632ZM130.495 73.5127C129.474 73.5127 128.881 73.9819 128.597 74.3073C128.563 74.0273 128.383 73.666 127.68 73.666H126.154V75.3005H126.78C126.886 75.3005 126.92 75.3349 126.92 75.4428V82.9129H128.738V80.1101L128.735 79.9005C129.018 80.1664 129.561 80.5355 130.409 80.5355C132.188 80.5355 133.431 79.0918 133.431 77.0241C133.431 74.9235 132.251 73.5127 130.495 73.5127Z" fill="white"/>
<path d="M52.2092 111.695C79.3442 111.695 101.342 89.3736 101.342 61.8382C101.342 34.3028 79.3442 11.981 52.2092 11.981C25.0742 11.981 3.0769 34.3028 3.0769 61.8382C3.0769 89.3736 25.0742 111.695 52.2092 111.695Z" fill="#FFF4C9"/>
<path d="M82.9168 61.8373C82.9168 79.0455 69.1692 92.9973 52.2092 92.9973C35.2507 92.9973 21.5015 79.0455 21.5015 61.8373C21.5015 44.6275 35.2507 30.6758 52.2092 30.6758C69.1692 30.6758 82.9168 44.6275 82.9168 61.8373Z" fill="#FFD21F"/>
<path d="M97.7693 80.534C100.136 74.5949 101.349 68.2462 101.342 61.8383C101.342 52.7571 98.9493 44.2422 94.7693 36.9097H38.3908C37.988 36.9093 37.589 36.9895 37.2166 37.1459C36.8443 37.3022 36.5059 37.5316 36.2207 37.8209C35.9356 38.1103 35.7093 38.4538 35.5548 38.8321C35.4002 39.2103 35.3205 39.6158 35.3201 40.0254V77.4183C35.3201 79.1388 36.6955 80.534 38.3908 80.534H97.7693Z" fill="#DDB207"/>
<path d="M51.8263 20.9399V34.1832M51.8263 86.3772V99.6204M13.4417 60.6696H26.4924" stroke="white" stroke-width="1.5" stroke-linecap="round" stroke-linejoin="round"/>
<path d="M41.4614 33.804C41.4614 32.9743 41.7856 32.1787 42.3626 31.592C42.9397 31.0054 43.7223 30.6758 44.5383 30.6758H110.548C111.364 30.6758 112.146 31.0054 112.723 31.592C113.3 32.1787 113.625 32.9743 113.625 33.804V71.1734C113.625 72.0031 113.3 72.7988 112.723 73.3854C112.146 73.9721 111.364 74.3016 110.548 74.3016H44.5383C43.7223 74.3016 42.9397 73.9721 42.3626 73.3854C41.7856 72.7988 41.4614 72.0031 41.4614 71.1734V33.804Z" fill="white"/>
<path d="M84.4523 47.8155C84.2453 47.8061 84.0385 47.8394 83.8445 47.9134C83.6505 47.9875 83.4733 48.1007 83.3236 48.2463C83.1738 48.3919 83.0546 48.5668 82.9732 48.7605C82.8917 48.9542 82.8497 49.1627 82.8497 49.3734C82.8497 49.584 82.8917 49.7925 82.9732 49.9862C83.0546 50.1799 83.1738 50.3549 83.3236 50.5005C83.4733 50.646 83.6505 50.7593 83.8445 50.8333C84.0385 50.9073 84.2453 50.9406 84.4523 50.9312H102.877C103.084 50.9406 103.291 50.9073 103.485 50.8333C103.679 50.7593 103.856 50.646 104.006 50.5005C104.155 50.3549 104.275 50.1799 104.356 49.9862C104.437 49.7925 104.479 49.584 104.479 49.3734C104.479 49.1627 104.437 48.9542 104.356 48.7605C104.275 48.5668 104.155 48.3919 104.006 48.2463C103.856 48.1007 103.679 47.9875 103.485 47.9134C103.291 47.8394 103.084 47.8061 102.877 47.8155H84.4523ZM84.4523 54.0485C84.2453 54.039 84.0385 54.0723 83.8445 54.1464C83.6505 54.2204 83.4733 54.3336 83.3236 54.4792C83.1738 54.6248 83.0546 54.7997 82.9732 54.9935C82.8917 55.1872 82.8497 55.3956 82.8497 55.6063C82.8497 55.817 82.8917 56.0254 82.9732 56.2192C83.0546 56.4129 83.1738 56.5878 83.3236 56.7334C83.4733 56.879 83.6505 56.9922 83.8445 57.0662C84.0385 57.1403 84.2453 57.1736 84.4523 57.1642H93.6646C93.8716 57.1736 94.0783 57.1403 94.2723 57.0662C94.4663 56.9922 94.6435 56.879 94.7933 56.7334C94.943 56.5878 95.0622 56.4129 95.1437 56.2192C95.2251 56.0254 95.2671 55.817 95.2671 55.6063C95.2671 55.3956 95.2251 55.1872 95.1437 54.9935C95.0622 54.7997 94.943 54.6248 94.7933 54.4792C94.6435 54.3336 94.4663 54.2204 94.2723 54.1464C94.0783 54.0723 93.8716 54.039 93.6646 54.0485H84.4523Z" fill="#FFCC00"/>
<path d="M67.4447 46.3056C67.4447 46.3056 65.3063 46.7873 63.014 45.9662C60.7217 45.145 58.7324 43.1868 58.7324 43.1868C59.7378 42.179 61.0928 41.6137 62.5047 41.6133H62.6093C63.4181 41.6131 64.2191 41.7749 64.9663 42.0895C65.7136 42.404 66.3926 42.8652 66.9645 43.4467C67.5364 44.0281 67.99 44.7184 68.2994 45.4781C68.6089 46.2378 68.768 47.0521 68.7678 47.8744V48.1653C68.7678 49.573 67.8309 50.9322 66.8017 51.9973C65.7709 53.0672 65.9017 55.0223 67.2293 55.6698C68.8373 55.9317 70.3007 56.7675 71.3572 58.0273C72.4137 59.2872 72.994 60.8885 72.994 62.5441V65.1186M52.2247 65.0748V62.5503C52.2247 59.1249 54.6709 56.2095 57.9986 55.6683C59.2878 55.0411 59.3832 53.0969 58.377 52.0646C57.3663 51.0276 56.4601 49.6762 56.4601 48.1653M57.2293 56.5176C57.2293 56.5176 59.1632 58.7026 62.7078 58.7026C66.2524 58.7026 68.1878 56.516 68.1878 56.516" stroke="#3B4656" stroke-width="1.5" stroke-linecap="round" stroke-linejoin="round"/>
<path d="M210.557 71.9482H170.769C168.22 71.9482 166.154 74.0491 166.154 76.6405V116.244C166.154 118.835 168.22 120.936 170.769 120.936H210.557C213.106 120.936 215.172 118.835 215.172 116.244V76.6405C215.172 74.0491 213.106 71.9482 210.557 71.9482Z" fill="#EFF5FD"/>
<path d="M264.191 71.9482H224.403C221.854 71.9482 219.788 74.0491 219.788 76.6405V116.244C219.788 118.835 221.854 120.936 224.403 120.936H264.191C266.74 120.936 268.806 118.835 268.806 116.244V76.6405C268.806 74.0491 266.74 71.9482 264.191 71.9482Z" fill="#EFF5FD"/>
<path d="M210.557 127.192H170.769C168.22 127.192 166.154 129.293 166.154 131.884V171.487C166.154 174.079 168.22 176.179 170.769 176.179H210.557C213.106 176.179 215.172 174.079 215.172 171.487V131.884C215.172 129.293 213.106 127.192 210.557 127.192Z" fill="#EFF5FD"/>
<path d="M264.191 127.192H224.403C221.854 127.192 219.788 129.293 219.788 131.884V171.487C219.788 174.079 221.854 176.179 224.403 176.179H264.191C266.74 176.179 268.806 174.079 268.806 171.487V131.884C268.806 129.293 266.74 127.192 264.191 127.192Z" fill="#EFF5FD"/>
<path d="M244.615 97.3651C244.309 97.3651 244.016 97.4887 243.799 97.7087C243.583 97.9287 243.462 98.227 243.462 98.5381C243.462 98.8493 243.583 99.1476 243.799 99.3676C244.016 99.5876 244.309 99.7112 244.615 99.7112V97.3651ZM247.692 99.7112C247.998 99.7112 248.292 99.5876 248.508 99.3676C248.725 99.1476 248.846 98.8493 248.846 98.5381C248.846 98.227 248.725 97.9287 248.508 97.7087C248.292 97.4887 247.998 97.3651 247.692 97.3651V99.7112ZM236.617 104.795V103.621C236.459 103.621 236.302 103.655 236.157 103.719C236.012 103.783 235.882 103.876 235.774 103.994L236.617 104.795ZM247.308 80.551C247.308 80.2399 247.186 79.9415 246.97 79.7215C246.753 79.5015 246.46 79.3779 246.154 79.3779C245.848 79.3779 245.554 79.5015 245.338 79.7215C245.122 79.9415 245 80.2399 245 80.551H247.308ZM245 86.0254C245 86.3365 245.122 86.6348 245.338 86.8548C245.554 87.0748 245.848 87.1984 246.154 87.1984C246.46 87.1984 246.753 87.0748 246.97 86.8548C247.186 86.6348 247.308 86.3365 247.308 86.0254H245ZM244.615 99.7112H247.692V97.3651H244.615V99.7112ZM234.494 87.1984H257.814V84.8523H234.494V87.1984ZM235.774 103.994L232.222 107.862L233.908 109.463L237.46 105.595L235.774 103.994ZM257.814 103.621H236.617V105.968H257.814V103.621ZM258.846 88.2479V102.572H261.154V88.2464H258.846V88.2479ZM233.462 108.359V88.2479H231.154V108.361L233.462 108.359ZM257.814 105.968C258.7 105.968 259.549 105.61 260.176 104.973C260.802 104.336 261.154 103.473 261.154 102.572H258.846C258.846 103.151 258.383 103.621 257.814 103.621V105.968ZM232.222 107.862C232.32 107.755 232.447 107.681 232.587 107.649C232.728 107.617 232.874 107.629 233.008 107.682C233.141 107.736 233.256 107.829 233.337 107.95C233.418 108.07 233.461 108.213 233.462 108.359L231.154 108.361C231.154 109.829 232.923 110.536 233.908 109.463L232.222 107.862ZM257.814 87.1984C258.383 87.1984 258.846 87.6677 258.846 88.2479H261.154C261.154 86.3726 259.658 84.8523 257.814 84.8523V87.1984ZM234.494 84.8523C233.608 84.8523 232.758 85.21 232.132 85.8468C231.506 86.4837 231.154 87.3474 231.154 88.2479H233.462C233.462 87.6692 233.925 87.1984 234.494 87.1984V84.8523ZM245 80.551V86.0254H247.308V80.551H245ZM241.538 93.0638C241.538 93.686 241.295 94.2828 240.863 94.7228C240.43 95.1628 239.843 95.4099 239.231 95.4099C238.619 95.4099 238.032 95.1628 237.599 94.7228C237.166 94.2828 236.923 93.686 236.923 93.0638C236.923 92.4416 237.166 91.8448 237.599 91.4048C238.032 90.9648 238.619 90.7176 239.231 90.7176C239.843 90.7176 240.43 90.9648 240.863 91.4048C241.295 91.8448 241.538 92.4416 241.538 93.0638ZM255.385 93.0638C255.385 93.686 255.141 94.2828 254.709 94.7228C254.276 95.1628 253.689 95.4099 253.077 95.4099C252.465 95.4099 251.878 95.1628 251.445 94.7228C251.012 94.2828 250.769 93.686 250.769 93.0638C250.769 92.4416 251.012 91.8448 251.445 91.4048C251.878 90.9648 252.465 90.7176 253.077 90.7176C253.689 90.7176 254.276 90.9648 254.709 91.4048C255.141 91.8448 255.385 92.4416 255.385 93.0638ZM190.769 146.243C190.463 146.243 190.17 146.367 189.953 146.587C189.737 146.807 189.615 147.105 189.615 147.416C189.615 147.727 189.737 148.026 189.953 148.246C190.17 148.466 190.463 148.589 190.769 148.589V146.243ZM196.538 148.589C196.844 148.589 197.138 148.466 197.354 148.246C197.571 148.026 197.692 147.727 197.692 147.416C197.692 147.105 197.571 146.807 197.354 146.587C197.138 146.367 196.844 146.243 196.538 146.243V148.589ZM190.769 152.109C190.463 152.109 190.17 152.232 189.953 152.452C189.737 152.672 189.615 152.97 189.615 153.282C189.615 153.593 189.737 153.891 189.953 154.111C190.17 154.331 190.463 154.455 190.769 154.455V152.109ZM196.538 154.455C196.844 154.455 197.138 154.331 197.354 154.111C197.571 153.891 197.692 153.593 197.692 153.282C197.692 152.97 197.571 152.672 197.354 152.452C197.138 152.232 196.844 152.109 196.538 152.109V154.455ZM190.769 157.974C190.463 157.974 190.17 158.097 189.953 158.317C189.737 158.537 189.615 158.836 189.615 159.147C189.615 159.458 189.737 159.756 189.953 159.976C190.17 160.196 190.463 160.32 190.769 160.32V157.974ZM196.538 160.32C196.844 160.32 197.138 160.196 197.354 159.976C197.571 159.756 197.692 159.458 197.692 159.147C197.692 158.836 197.571 158.537 197.354 158.317C197.138 158.097 196.844 157.974 196.538 157.974V160.32ZM181.538 142.724H200V140.378H181.538V142.724ZM200 163.839H181.538V166.185H200V163.839ZM201.154 143.897V162.666H203.462V143.897H201.154ZM180.385 162.666V143.897H178.077V162.666H180.385ZM200 166.185C200.918 166.185 201.798 165.815 202.448 165.155C203.097 164.495 203.462 163.6 203.462 162.666H201.154C201.154 162.977 201.032 163.276 200.816 163.496C200.599 163.716 200.306 163.839 200 163.839V166.185ZM181.538 163.839C181.232 163.839 180.939 163.716 180.723 163.496C180.506 163.276 180.385 162.977 180.385 162.666H178.077C178.077 163.6 178.442 164.495 179.091 165.155C179.74 165.815 180.62 166.185 181.538 166.185V163.839ZM200 142.724C200.306 142.724 200.599 142.848 200.816 143.068C201.032 143.288 201.154 143.586 201.154 143.897H203.462C203.462 142.964 203.097 142.069 202.448 141.409C201.798 140.749 200.918 140.378 200 140.378V142.724ZM181.538 140.378C180.62 140.378 179.74 140.749 179.091 141.409C178.442 142.069 178.077 142.964 178.077 143.897H180.385C180.385 143.586 180.506 143.288 180.723 143.068C180.939 142.848 181.232 142.724 181.538 142.724V140.378ZM190.769 148.589H196.538V146.243H190.769V148.589ZM190.769 154.455H196.538V152.109H190.769V154.455ZM190.769 160.32H196.538V157.974H190.769V160.32ZM183.846 147.416C183.846 146.95 184.028 146.502 184.353 146.172C184.678 145.842 185.118 145.657 185.577 145.657C186.036 145.657 186.476 145.842 186.801 146.172C187.125 146.502 187.308 146.95 187.308 147.416C187.308 147.883 187.125 148.33 186.801 148.66C186.476 148.99 186.036 149.176 185.577 149.176C185.118 149.176 184.678 148.99 184.353 148.66C184.028 148.33 183.846 147.883 183.846 147.416ZM183.846 153.282C183.846 152.815 184.028 152.367 184.353 152.037C184.678 151.707 185.118 151.522 185.577 151.522C186.036 151.522 186.476 151.707 186.801 152.037C187.125 152.367 187.308 152.815 187.308 153.282C187.308 153.748 187.125 154.196 186.801 154.526C186.476 154.856 186.036 155.041 185.577 155.041C185.118 155.041 184.678 154.856 184.353 154.526C184.028 154.196 183.846 153.748 183.846 153.282ZM183.846 159.147C183.846 158.68 184.028 158.233 184.353 157.903C184.678 157.573 185.118 157.387 185.577 157.387C186.036 157.387 186.476 157.573 186.801 157.903C187.125 158.233 187.308 158.68 187.308 159.147C187.308 159.614 187.125 160.061 186.801 160.391C186.476 160.721 186.036 160.907 185.577 160.907C185.118 160.907 184.678 160.721 184.353 160.391C184.028 160.061 183.846 159.614 183.846 159.147Z" fill="#4A8AE6"/>
<path d="M200 94.2371V86.6122C200 85.6408 199.225 84.8525 198.269 84.8525H179.808C178.852 84.8525 178.077 85.6408 178.077 86.6122V101.882C178.077 102.09 178.326 102.195 178.471 102.048L181.031 99.444C181.355 99.1156 181.797 98.9294 182.255 98.9294H188.462M189.615 104.795H199.475C199.817 104.795 200.152 104.898 200.435 105.09L203.103 106.899C203.138 106.922 203.178 106.935 203.22 106.937C203.262 106.939 203.303 106.93 203.34 106.91C203.377 106.89 203.407 106.86 203.429 106.824C203.45 106.787 203.462 106.745 203.462 106.703V95.5275C203.462 95.1853 203.328 94.8571 203.09 94.6151C202.852 94.3731 202.529 94.2371 202.192 94.2371H189.615C189.309 94.2371 189.016 94.3607 188.799 94.5807C188.583 94.8007 188.462 95.0991 188.462 95.4102V103.622C188.462 104.269 188.978 104.795 189.615 104.795Z" stroke="#4A8AE6" stroke-width="1.5" stroke-linecap="round" stroke-linejoin="round"/>
<path d="M248.654 153.282H243.654M248.654 146.045H243.654M248.654 146.045V156.301M248.654 146.045C248.654 145.458 248.827 144.885 249.151 144.399C249.475 143.914 249.935 143.538 250.472 143.322C251.008 143.105 251.596 143.057 252.16 143.184C252.723 143.312 253.236 143.608 253.632 144.035L261.029 152.01M243.654 146.045V156.301M243.654 146.045C243.654 145.458 243.481 144.885 243.156 144.399C242.832 143.914 242.372 143.538 241.836 143.322C241.299 143.105 240.711 143.057 240.148 143.184C239.584 143.312 239.071 143.608 238.675 144.035L231.278 152.01M248.654 156.301C248.654 160.248 251.732 163.449 255.529 163.449C259.326 163.449 262.403 160.248 262.403 156.301C262.407 154.758 261.926 153.255 261.029 152.01M248.654 156.301C248.654 152.353 251.732 149.153 255.529 149.153C256.602 149.155 257.66 149.415 258.616 149.912C259.572 150.408 260.399 151.127 261.029 152.01M243.654 156.301C243.654 160.248 240.575 163.449 236.778 163.449C232.981 163.449 229.905 160.248 229.905 156.301C229.9 154.758 230.382 153.255 231.278 152.01M243.654 156.301C243.654 152.353 240.575 149.153 236.778 149.153C235.705 149.155 234.647 149.415 233.692 149.912C232.736 150.408 231.909 151.127 231.278 152.01" stroke="#4A8AE6" stroke-width="1.625" stroke-linecap="round" stroke-linejoin="round"/>
<path d="M52.3077 112.615C79.4971 112.615 101.538 90.2064 101.538 62.5639C101.538 34.9214 79.4971 12.5127 52.3077 12.5127C25.1183 12.5127 3.0769 34.9214 3.0769 62.5639C3.0769 90.2064 25.1183 112.615 52.3077 112.615Z" fill="#FFF7D6"/>
<path d="M83.0769 62.5637C83.0769 79.8408 69.3015 93.8457 52.3077 93.8457C35.3138 93.8457 21.5385 79.8408 21.5385 62.5637C21.5385 45.2867 35.3138 31.2817 52.3077 31.2817C69.3015 31.2817 83.0769 45.2867 83.0769 62.5637Z" fill="#FFE685"/>
<path d="M97.96 81.3329C100.331 75.3694 101.547 68.9961 101.538 62.5637C101.552 53.7773 99.2799 45.1436 94.9523 37.5381H38.4616C37.6455 37.5381 36.8629 37.8677 36.2859 38.4543C35.7088 39.041 35.3846 39.8366 35.3846 40.6663V78.2047C35.3846 79.0343 35.7088 79.83 36.2859 80.4166C36.8629 81.0033 37.6455 81.3329 38.4616 81.3329H97.96Z" fill="#DDB207"/>
<path d="M51.9231 21.5068V34.8017M51.9231 87.199V100.494M13.4615 61.3914H26.5385" stroke="#FFCC00" stroke-width="1.5" stroke-linecap="round" stroke-linejoin="round"/>
<path d="M41.5385 34.4099C41.5385 33.5803 41.8626 32.7846 42.4397 32.198C43.0167 31.6113 43.7993 31.2817 44.6154 31.2817H110.769C111.585 31.2817 112.368 31.6113 112.945 32.198C113.522 32.7846 113.846 33.5803 113.846 34.4099V71.9483C113.846 72.778 113.522 73.5736 112.945 74.1603C112.368 74.7469 111.585 75.0765 110.769 75.0765H44.6154C43.7993 75.0765 43.0167 74.7469 42.4397 74.1603C41.8626 73.5736 41.5385 72.778 41.5385 71.9483V34.4099Z" fill="white"/>
<path d="M84.6154 48.4873C84.2073 48.4873 83.816 48.6521 83.5275 48.9454C83.239 49.2387 83.0769 49.6366 83.0769 50.0514C83.0769 50.4662 83.239 50.8641 83.5275 51.1574C83.816 51.4507 84.2073 51.6155 84.6154 51.6155H103.077C103.485 51.6155 103.876 51.4507 104.165 51.1574C104.453 50.8641 104.615 50.4662 104.615 50.0514C104.615 49.6366 104.453 49.2387 104.165 48.9454C103.876 48.6521 103.485 48.4873 103.077 48.4873H84.6154ZM84.6154 54.7437C84.2073 54.7437 83.816 54.9085 83.5275 55.2018C83.239 55.4951 83.0769 55.893 83.0769 56.3078C83.0769 56.7226 83.239 57.1205 83.5275 57.4138C83.816 57.7071 84.2073 57.8719 84.6154 57.8719H93.8461C94.2542 57.8719 94.6455 57.7071 94.934 57.4138C95.2225 57.1205 95.3846 56.7226 95.3846 56.3078C95.3846 55.893 95.2225 55.4951 94.934 55.2018C94.6455 54.9085 94.2542 54.7437 93.8461 54.7437H84.6154Z" fill="#FFE685"/>
<path d="M71.8846 64.9104C71.8846 65.2216 72.0061 65.5199 72.2225 65.7399C72.4389 65.9599 72.7324 66.0835 73.0384 66.0835C73.3444 66.0835 73.6379 65.9599 73.8543 65.7399C74.0707 65.5199 74.1923 65.2216 74.1923 64.9104H71.8846ZM51.1538 64.9104C51.1538 65.2216 51.2754 65.5199 51.4918 65.7399C51.7081 65.9599 52.0016 66.0835 52.3077 66.0835C52.6137 66.0835 52.9072 65.9599 53.1235 65.7399C53.3399 65.5199 53.4615 65.2216 53.4615 64.9104H51.1538ZM71.883 62.3391L71.8846 64.9104H74.1923L74.1907 62.3391H71.883ZM67.1015 56.6364C68.4355 56.8536 69.6497 57.5469 70.5262 58.592C71.4028 59.6371 71.8828 60.9656 71.883 62.3391H74.1907C74.1905 60.4076 73.5148 58.5395 72.2821 57.0699C71.0494 55.6002 69.342 54.6253 67.4661 54.3199L67.1015 56.6364ZM62.6723 42.622C64.083 42.622 65.04 43.1085 65.6615 43.8452C66.3046 44.6084 66.7015 45.7721 66.7015 47.3034H69.0092C69.0092 45.3842 68.5123 43.6199 67.4123 42.3186C66.2923 40.9891 64.6584 40.2759 62.6738 40.2759L62.6723 42.622ZM66.0338 50.9931C65.6689 51.3784 65.3909 51.84 65.2193 52.3457C65.0477 52.8513 64.9865 53.3889 65.04 53.9211C65.1415 54.9487 65.6923 56.0045 66.7846 56.5363L67.7815 54.42C67.5507 54.3074 67.3738 54.0634 67.3353 53.6865C67.3158 53.4963 67.3366 53.3041 67.3963 53.1228C67.456 52.9414 67.5532 52.7752 67.6815 52.6354L66.0338 50.9931ZM51.1538 62.3391V64.9104H53.4615V62.3391H51.1538ZM57.88 54.3199C56.0041 54.6253 54.2966 55.6002 53.064 57.0699C51.8313 58.5395 51.1541 60.4076 51.1538 62.3391H53.4615C53.4618 60.9654 53.9436 59.6367 54.8204 58.5916C55.6973 57.5464 56.9119 56.8532 58.2461 56.6364L57.88 54.3199ZM62.6738 40.2759C60.6892 40.2759 59.0538 40.9907 57.9338 42.3186C56.8338 43.6199 56.3369 45.3842 56.3369 47.3034H58.6446C58.6446 45.7706 59.0415 44.6084 59.6846 43.8467C60.3061 43.1085 61.263 42.622 62.6723 42.622L62.6738 40.2759ZM57.6646 52.6354C57.9184 52.8982 58.0477 53.3001 58.0092 53.6865C57.9723 54.0619 57.7953 54.3074 57.563 54.42L58.5615 56.5363C59.6538 56.0045 60.2046 54.9487 60.3061 53.9211C60.3596 53.3889 60.2984 52.8513 60.1268 52.3457C59.9551 51.84 59.6772 51.3784 59.3123 50.9931L57.6646 52.6354ZM66.5877 54.5405L65.4446 55.4179L66.8338 57.2917L67.9784 56.4158L66.5877 54.5405ZM59.9015 55.4179L58.7569 54.542L57.3677 56.4143L58.5107 57.2901L59.9015 55.4179ZM56.3369 47.3034C56.3369 48.0635 56.3061 49.0254 56.4338 49.9154C56.5661 50.8351 56.88 51.8236 57.6646 52.6354L59.3107 50.9931C58.9938 50.6631 58.8092 50.2157 58.7184 49.576C58.6215 48.9034 58.6446 48.184 58.6446 47.3034H56.3369ZM66.7015 47.3034C66.7015 48.1824 66.7246 48.905 66.6277 49.576C66.5353 50.2157 66.3523 50.6631 66.0338 50.9931L67.6815 52.6354C68.4661 51.8221 68.78 50.8351 68.9123 49.9139C69.0384 49.0254 69.0092 48.0635 69.0092 47.3034H66.7015ZM65.4446 55.4179C64.6458 56.0303 63.6727 56.3615 62.6723 56.3615C61.6719 56.3615 60.7003 56.0303 59.9015 55.4179L58.5107 57.2917C59.7098 58.2109 61.1706 58.708 62.6723 58.708C64.1739 58.708 65.6348 58.2109 66.8338 57.2917L65.4446 55.4179ZM62.9384 46.5323H67.28V44.1861H62.9384V46.5323ZM58.3415 43.3822L59.723 45.0245L61.4769 43.5011L60.0953 41.8587L58.3415 43.3822ZM62.9384 44.1861C62.6606 44.186 62.3861 44.1248 62.1338 44.0065C61.8815 43.8882 61.6574 43.7158 61.4769 43.5011L59.723 45.026C60.1202 45.4983 60.6132 45.8775 61.1683 46.1375C61.7234 46.3976 62.3273 46.5322 62.9384 46.5323V44.1861Z" fill="#2A3647"/>
<path d="M250.769 0L252.728 12.0858L264.615 14.0769L252.728 16.068L250.769 28.1538L248.811 16.068L236.923 14.0769L248.811 12.0858L250.769 0ZM10 150.154L11.4154 158.883L20 160.32L11.4154 161.758L10 170.487L8.58462 161.758L0 160.32L8.58462 158.883L10 150.154Z" fill="#FFDF5C"/>
<path d="M283.846 42.2307V28.1538M276.923 35.1923H290.769" stroke="#FFE685" stroke-width="1.5" stroke-linecap="round" stroke-linejoin="round"/>
</svg>
