<svg width="400" height="400" viewBox="0 0 400 400" fill="none" xmlns="http://www.w3.org/2000/svg">
<path d="M200 400C310.457 400 400 310.457 400 200C400 89.5431 310.457 0 200 0C89.5431 0 0 89.5431 0 200C0 310.457 89.5431 400 200 400Z" fill="#D8E4FF"/>
<path d="M225.046 35.2069H221.593C221.284 33.523 220.843 31.8854 220.282 30.3042L223.271 28.5781L217.428 18.4531L214.432 20.1831C213.333 18.8959 212.135 17.6966 210.848 16.5969L212.577 13.6004L202.456 7.75469L200.731 10.7444C199.15 10.1835 197.514 9.74245 195.83 9.43316V5.97852H184.144V9.43316C182.461 9.74245 180.824 10.1838 179.243 10.7444L177.518 7.75469L167.397 13.6004L169.126 16.5969C167.84 17.6966 166.641 18.8957 165.542 20.1831L162.547 18.4531L156.703 28.5781L159.692 30.3042C159.131 31.8854 158.69 33.523 158.381 35.2069H154.928V46.8983H158.381C158.69 48.5822 159.131 50.2198 159.692 51.801L156.703 53.5272L162.546 63.6522L165.542 61.9221C166.641 63.2096 167.839 64.4087 169.126 65.5084L167.397 68.5049L177.518 74.3505L179.243 71.3608C180.823 71.9217 182.46 72.3628 184.144 72.6721V76.1267H195.83V72.6721C197.513 72.3628 199.15 71.9215 200.731 71.3608L202.456 74.3505L212.577 68.5049L210.848 65.5084C212.134 64.4087 213.333 63.2096 214.432 61.9221L217.427 63.6522L223.27 53.5272L220.282 51.801C220.843 50.2198 221.284 48.5822 221.593 46.8983H225.046L225.046 35.2069ZM209.097 41.6784C208.777 51.6935 200.624 59.8507 190.613 60.1704C179.558 60.5234 170.524 51.4856 170.877 40.4266C171.197 30.4115 179.35 22.2544 189.361 21.9346C200.416 21.5816 209.45 30.6194 209.097 41.6784Z" fill="white"/>
<path d="M188.985 68.113C174.623 68.113 162.938 56.424 162.938 42.0564C162.938 29.264 172.459 18.1869 185.084 16.2901C185.349 16.2485 185.593 16.4319 185.633 16.6951C185.672 16.9582 185.491 17.2037 185.227 17.2431C173.07 19.0697 163.902 29.737 163.902 42.0564C163.902 55.8925 175.154 67.1491 188.985 67.1491C200.413 67.1491 210.396 59.431 213.264 48.3801C213.33 48.1222 213.594 47.9666 213.851 48.0345C214.109 48.1014 214.263 48.3644 214.196 48.6219C211.219 60.0981 200.851 68.113 188.985 68.113Z" fill="#F2E6DC"/>
<path d="M381.203 39.2422H96.0859V241.422H381.203V39.2422Z" fill="#263238"/>
<path d="M372.258 215.147L372.258 48.1875L105.031 48.1875L105.031 215.147L372.258 215.147Z" fill="#D8E4FF"/>
<path d="M268.657 245.706H260.216C260.216 252.038 255.083 257.171 248.751 257.171H228.538C222.206 257.171 217.073 252.038 217.073 245.706H208.632L200.191 290.564V294.316H277.098V290.564L268.657 245.706Z" fill="#263238"/>
<path d="M277.099 299.486H200.192C199.925 299.486 199.71 299.271 199.71 299.004C199.71 298.738 199.925 298.522 200.192 298.522H277.099C277.365 298.522 277.581 298.738 277.581 299.004C277.581 299.271 277.365 299.486 277.099 299.486Z" fill="#263238"/>
<path d="M372.353 47.9697H104.87V63.7398H372.353V47.9697Z" fill="#407BFF"/>
<path d="M372.24 63.4365H104.719V145.622H372.24V63.4365Z" fill="white"/>
<path d="M180.174 179.106C186.516 172.764 186.516 162.482 180.174 156.14C173.831 149.798 163.549 149.798 157.207 156.14C150.865 162.482 150.865 172.764 157.207 179.106C163.549 185.448 173.831 185.448 180.174 179.106Z" fill="#407BFF"/>
<path d="M249.615 179.532C255.957 173.19 255.957 162.908 249.615 156.566C243.273 150.223 232.99 150.223 226.648 156.566C220.306 162.908 220.306 173.19 226.648 179.532C232.99 185.874 243.273 185.874 249.615 179.532Z" fill="#407BFF"/>
<path d="M303.056 183.865C312.026 183.865 319.296 176.594 319.296 167.625C319.296 158.656 312.026 151.385 303.056 151.385C294.087 151.385 286.816 158.656 286.816 167.625C286.816 176.594 294.087 183.865 303.056 183.865Z" fill="#407BFF"/>
<path d="M195.398 189.293H140.961V209.309H195.398V189.293Z" fill="#B7CCFB"/>
<path d="M264.694 189.445H210.257V209.461H264.694V189.445Z" fill="#B7CCFB"/>
<path d="M331.256 189.295H276.819V209.311H331.256V189.295Z" fill="#B7CCFB"/>
<path d="M171.4 68.8955H116.396V75.5674H171.4V68.8955Z" fill="#407BFF"/>
<path d="M234.541 68.668H179.538V75.3399H234.541V68.668Z" fill="#407BFF"/>
<path d="M296.84 68.668H241.837V75.3399H296.84V68.668Z" fill="#407BFF"/>
<path d="M358.86 68.8955H303.856V75.5674H358.86V68.8955Z" fill="#407BFF"/>
<path d="M116.311 57.8965C117.733 56.4753 117.733 54.1712 116.311 52.75C114.89 51.3289 112.586 51.3289 111.165 52.75C109.744 54.1712 109.744 56.4753 111.165 57.8965C112.586 59.3176 114.89 59.3176 116.311 57.8965Z" fill="#F7F1EB"/>
<path d="M127.684 57.8975C129.105 56.4763 129.105 54.1721 127.684 52.751C126.262 51.3298 123.958 51.3298 122.537 52.751C121.116 54.1721 121.116 56.4763 122.537 57.8974C123.958 59.3186 126.262 59.3186 127.684 57.8975Z" fill="#F7F1EB"/>
<path d="M139.967 58.124C141.388 56.7029 141.388 54.3987 139.967 52.9775C138.546 51.5564 136.241 51.5564 134.82 52.9776C133.399 54.3987 133.399 56.7029 134.82 58.124C136.241 59.5452 138.546 59.5452 139.967 58.124Z" fill="#F7F1EB"/>
<path d="M191.326 59.1922H158.751C156.755 59.1922 155.137 57.5738 155.137 55.5773V55.5277C155.137 53.5314 156.755 51.9131 158.751 51.9131H191.326C193.322 51.9131 194.941 53.5314 194.941 55.5277V55.5773C194.941 57.5736 193.322 59.1922 191.326 59.1922Z" fill="#F7F1EB"/>
<path d="M364.501 377.806H298.123C294.569 377.806 291.688 374.926 291.688 371.372V237.054C291.688 233.5 294.569 230.619 298.123 230.619H364.501C368.055 230.619 370.936 233.5 370.936 237.054V371.372C370.936 374.926 368.055 377.806 364.501 377.806Z" fill="#B7CCFB"/>
<path d="M366.146 370.099H296.956V239.567H312.548H350.553H366.146V370.099Z" fill="#F2E6DC"/>
<path d="M364.908 379.51H298.53C294.716 379.51 291.613 376.407 291.613 372.593V238.275C291.613 234.461 294.716 231.358 298.53 231.358H364.908C368.722 231.358 371.825 234.461 371.825 238.275V372.593C371.825 376.407 368.722 379.51 364.908 379.51ZM298.53 232.322C295.248 232.322 292.577 234.993 292.577 238.275V372.593C292.577 375.876 295.248 378.546 298.53 378.546H364.908C368.19 378.546 370.861 375.876 370.861 372.593V238.275C370.861 234.993 368.19 232.322 364.908 232.322H298.53Z" fill="#363E44"/>
<path d="M324.601 301.137C325.407 296.175 322.037 291.499 317.074 290.693C312.111 289.888 307.436 293.258 306.63 298.221C305.825 303.183 309.195 307.859 314.157 308.664C319.12 309.47 323.796 306.1 324.601 301.137Z" fill="#407BFF"/>
<path d="M324.441 327.821C325.246 322.858 321.876 318.182 316.914 317.377C311.951 316.572 307.275 319.942 306.47 324.904C305.665 329.867 309.035 334.543 313.997 335.348C318.96 336.153 323.636 332.783 324.441 327.821Z" fill="#407BFF"/>
<path d="M324.449 355.657C325.254 350.694 321.884 346.018 316.922 345.213C311.959 344.407 307.283 347.777 306.478 352.74C305.672 357.703 309.042 362.378 314.005 363.184C318.968 363.989 323.643 360.619 324.449 355.657Z" fill="#407BFF"/>
<path d="M366.094 246.21H296.997V283.641H366.094V246.21Z" fill="white"/>
<path d="M366.145 239.447H296.862V246.385H366.145V239.447Z" fill="#407BFF"/>
<path d="M364.634 247.53H360.32V248.457H364.634V247.53Z" fill="#FFD092"/>
<path d="M364.603 249.268H360.289V250.195H364.603V249.268Z" fill="#FFD092"/>
<path d="M364.574 250.939H360.261V251.867H364.574V250.939Z" fill="#FFD092"/>
<path d="M364.543 252.676H360.229V253.603H364.543V252.676Z" fill="#FFD092"/>
<path d="M357.208 294.15H329.753V305.815H357.208V294.15Z" fill="#B7CCFB"/>
<path d="M357.343 320.596H329.888V332.26H357.343V320.596Z" fill="#B7CCFB"/>
<path d="M357.345 348.397H329.89V360.062H357.345V348.397Z" fill="#B7CCFB"/>
<path d="M300.648 244.492C301.465 244.492 302.127 243.83 302.127 243.013C302.127 242.196 301.465 241.533 300.648 241.533C299.83 241.533 299.168 242.196 299.168 243.013C299.168 243.83 299.83 244.492 300.648 244.492Z" fill="#F7F1EB"/>
<path d="M305.272 244.492C306.089 244.492 306.751 243.83 306.751 243.013C306.751 242.196 306.089 241.533 305.272 241.533C304.454 241.533 303.792 242.196 303.792 243.013C303.792 243.83 304.454 244.492 305.272 244.492Z" fill="#F7F1EB"/>
<path d="M311.744 243.104C311.744 243.921 311.082 244.583 310.265 244.583C309.448 244.583 308.785 243.921 308.785 243.104C308.785 242.287 309.448 241.624 310.265 241.624C311.082 241.624 311.744 242.287 311.744 243.104Z" fill="#F7F1EB"/>
<path d="M332.181 244.584H318.957C318.14 244.584 317.478 243.921 317.478 243.104C317.478 242.287 318.14 241.624 318.957 241.624H332.181C332.998 241.624 333.661 242.287 333.661 243.104C333.661 243.921 332.998 244.584 332.181 244.584Z" fill="#F7F1EB"/>
<path d="M24.5645 351.436H57.881C57.881 351.436 54.8486 324.628 44.1218 318.405H34.5074C34.5074 318.405 25.4899 333.491 24.5645 351.436Z" fill="#B7CCFB"/>
<path d="M30.7363 303.35C30.8898 303.845 32.603 314.145 33.667 320.584C34.1536 323.528 36.7003 325.687 39.6856 325.687C43.0548 325.687 45.7859 322.957 45.7859 319.588V305.033L30.7363 303.35Z" fill="#969AB0"/>
<path d="M69.3576 317.479C69.3576 317.479 66.8245 334.071 67.8078 351.436H118.624C118.624 351.436 113.53 327.791 85.5893 317.479H69.3576Z" fill="#B7CCFB"/>
<path d="M71.4091 303.816C71.1665 304.217 70.3464 310.819 69.664 316.622C69.114 321.299 72.7894 325.398 77.4994 325.359C81.0004 325.33 84.0565 322.98 84.9822 319.605L90.3639 299.98L71.4091 303.816Z" fill="#969AB0"/>
<path d="M36.8798 174.471C29.1524 199.763 14.2822 259.655 29.5977 306.228H49.2007C49.2007 306.228 61.7979 221.829 63.2685 206.988H66.1288C66.1288 206.988 67.3692 262.061 69.3572 305.033H91.3378C91.3378 305.033 110.66 238.695 93.3454 174.471L86.872 168.98H45.7524L36.8798 174.471Z" fill="#33415E"/>
<path d="M104.81 131.275C104.81 131.275 129.745 112.262 138.4 106.506C147.489 100.46 161.788 92.8578 162.826 94.8714C163.418 96.0183 161.682 97.4583 156.787 100.999C157.213 101.067 158.454 101.594 158.828 102.747C159.381 104.455 158.124 105.28 158.048 105.405C158.195 105.417 159.857 105.637 160.421 106.717C161.056 107.934 160.674 109.035 159.994 109.87C160.356 109.91 161.866 110.333 162.355 111.398C162.992 112.781 162.028 114.165 160.971 114.846C159.031 116.096 153.646 119.377 151.02 121.476C145.851 125.607 129.467 142.738 120.419 146.734C119.747 138.201 104.81 131.275 104.81 131.275Z" fill="#969AB0"/>
<path d="M145.226 116.699C145.125 116.699 145.023 116.668 144.936 116.602C144.724 116.442 144.682 116.139 144.842 115.927C146.221 114.103 146.551 112.256 146.817 110.772C147.102 109.181 147.348 107.806 148.866 107.517C149.684 107.362 150.609 106.748 151.54 105.743C151.761 105.505 151.657 105.245 151.619 105.171C151.581 105.096 151.434 104.85 151.1 104.889L144.047 105.678C143.783 105.708 143.544 105.517 143.515 105.253C143.485 104.988 143.676 104.75 143.94 104.72L150.993 103.931C151.617 103.863 152.197 104.178 152.48 104.737C152.759 105.292 152.668 105.944 152.247 106.398C151.159 107.572 150.082 108.267 149.046 108.464C148.217 108.622 148.045 109.38 147.766 110.942C147.497 112.444 147.129 114.5 145.611 116.508C145.517 116.633 145.372 116.699 145.226 116.699Z" fill="#363E44"/>
<path d="M156.902 116.323C156.744 116.323 156.59 116.246 156.497 116.103C155.655 114.805 155.66 113.177 156.389 111.903C155.22 112.356 153.881 111.96 153.149 110.923C152.718 110.312 152.556 109.57 152.693 108.835C152.829 108.1 153.247 107.466 153.869 107.05L154.2 106.83C153.614 106.673 153.091 106.288 152.78 105.722C152.218 104.697 152.514 103.417 153.469 102.743L155.592 101.245C155.81 101.092 156.11 101.144 156.264 101.362C156.418 101.579 156.365 101.88 156.148 102.033L154.024 103.531C153.47 103.921 153.299 104.664 153.625 105.258C153.971 105.889 154.774 106.13 155.41 105.797L156.997 104.966C157.224 104.847 157.504 104.927 157.635 105.147C157.766 105.368 157.701 105.652 157.488 105.794L154.405 107.852C154.001 108.122 153.73 108.534 153.641 109.011C153.552 109.489 153.658 109.971 153.938 110.367C154.435 111.073 155.364 111.322 156.148 110.959L158.675 109.791C158.901 109.687 159.165 109.77 159.291 109.981C159.418 110.192 159.364 110.465 159.168 110.613L158.036 111.465C156.756 112.428 156.435 114.235 157.307 115.579C157.451 115.803 157.388 116.101 157.164 116.246C157.083 116.298 156.992 116.323 156.902 116.323Z" fill="#363E44"/>
<path d="M132.339 108.468L144.428 129.65L124.742 145.556C119.767 149.575 112.808 150.054 107.33 146.753L76.7998 135.415L81.9473 103.096C92.2116 105.832 103.712 112.878 115.542 121.073L132.339 108.468Z" fill="#407BFF"/>
<path d="M34.7114 105.241C32.6771 105.878 24.1162 189.975 24.1162 189.975L29.3553 203.613H44.1127H97.2023L104.874 189.975L97.9066 135.921C97.9066 135.921 84.1044 107.498 81.9477 103.096C81.9477 103.096 51.0756 100.111 34.7114 105.241Z" fill="#407BFF"/>
<path d="M6.01144 169.888C8.92795 170.796 20.18 173.169 27.4705 158.796L37.7502 133.786L34.9872 105.181L34.712 105.241C27.5181 106.826 21.1428 110.964 16.7669 116.888C16.7669 116.888 10.7992 125.986 8.92904 129.093C4.70106 136.115 -5.86594 160.371 4.68554 169.162C5.07723 169.488 5.52467 169.737 6.01144 169.888Z" fill="#407BFF"/>
<path d="M100.92 175.053H45.7197V177.224L102.745 178.931L100.92 175.053Z" fill="#FFD092"/>
<path d="M131.771 181.326H79.8203L103.087 131.6H160.34L139.321 176.523C137.95 179.454 135.007 181.326 131.771 181.326Z" fill="#363E44"/>
<path d="M45.7197 176.334C45.7197 179.104 47.9656 181.35 50.7361 181.35H98.6393L100.986 176.334H45.7197Z" fill="#363E44"/>
<path d="M123.938 157.228C125.813 156.992 127.142 155.281 126.906 153.407C126.67 151.532 124.959 150.203 123.084 150.439C121.209 150.674 119.88 152.385 120.116 154.26C120.352 156.135 122.063 157.464 123.938 157.228Z" fill="#B77250"/>
<path d="M14.6833 152.792C22.9309 155.778 42.7016 161.849 44.6081 162.519C48.1718 163.771 69.2986 171.791 68.5543 174.638C68.1987 175.998 62.3088 173.965 61.0653 173.515C63.3735 175.18 65.2109 181.385 64.0363 181.445C62.6721 181.515 59.9031 177.033 58.8763 177.43C59.8024 178.217 62.6413 181.676 59.97 183.011C59.1268 183.433 58.6146 181.505 56.692 181.33C56.7488 181.566 58.0057 182.01 57.2291 183.674C56.6588 184.895 55.4179 185.179 53.6723 184.5C50.5053 183.39 12.9733 172.479 6.25704 169.561C3.62775 168.419 10.2299 154.36 14.6833 152.792Z" fill="#969AB0"/>
<path d="M61.1556 173.88C61.0483 173.88 60.9401 173.845 60.8507 173.771C60.2559 173.283 59.6229 172.833 58.9692 172.433C57.7941 171.714 56.5261 171.14 55.1998 170.725C54.9455 170.646 54.8039 170.376 54.8835 170.122C54.9622 169.868 55.2336 169.726 55.4867 169.805C56.8887 170.243 58.2297 170.851 59.4721 171.611C60.163 172.034 60.8328 172.51 61.4614 173.026C61.6675 173.195 61.6972 173.498 61.5287 173.704C61.4332 173.82 61.2953 173.88 61.1556 173.88Z" fill="#363E44"/>
<path d="M58.9793 177.845C58.8891 177.845 58.7977 177.82 58.7162 177.767C58.5811 177.679 58.4427 177.591 58.3002 177.503C57.1251 176.784 55.8572 176.21 54.5308 175.796C54.2766 175.716 54.135 175.446 54.2145 175.192C54.293 174.937 54.5647 174.797 54.8178 174.875C56.2198 175.313 57.5605 175.921 58.8032 176.681C58.9538 176.773 59.1006 176.866 59.2432 176.959C59.4657 177.105 59.5288 177.403 59.3835 177.626C59.2908 177.768 59.1365 177.845 58.9793 177.845Z" fill="#363E44"/>
<path d="M56.6192 181.744C56.5466 181.744 56.4734 181.728 56.4041 181.694C55.5988 181.291 54.7512 180.95 53.8863 180.679C53.6321 180.6 53.4904 180.33 53.57 180.076C53.6496 179.822 53.9202 179.68 54.1733 179.759C55.0882 180.045 55.9833 180.406 56.8351 180.831C57.0734 180.951 57.1698 181.24 57.0507 181.478C56.9665 181.647 56.796 181.744 56.6192 181.744Z" fill="#363E44"/>
<path d="M51.1357 108.946L62.762 107.066L67.3388 91.1581L57.1008 88.2139L51.1357 108.946Z" fill="#969AB0"/>
<path d="M46.3177 106.744C46.4108 108.882 51.5983 110.392 57.9048 110.118C64.2112 109.843 69.248 107.888 69.1548 105.75C69.0617 103.613 63.874 102.102 57.5677 102.377C51.2615 102.651 46.2246 104.607 46.3177 106.744Z" fill="#969AB0"/>
<path d="M73.7513 91.9167C72.8523 94.7452 64.5834 95.1312 64.5834 95.1312L56.5358 90.9502C54.0232 87.6153 54.6905 82.8754 58.0263 80.3635C61.362 77.8516 66.1032 78.5187 68.6158 81.8536C68.6158 81.8536 74.6669 89.0359 73.7513 91.9167Z" fill="#969AB0"/>
<path d="M69.1182 83.9641C69.1182 83.9641 72.1492 84.4628 72.4122 84.9992C72.7258 85.6395 71.0956 87.4016 71.0956 87.4016C71.0956 87.4016 69.1663 83.9345 69.1182 83.9641Z" fill="#969AB0"/>
<path d="M63.4717 87.8093C63.4717 87.8093 64.0732 86.5041 65.2922 85.5863C65.5517 85.3911 66.6256 87.8342 66.2909 87.9021C64.8192 88.2005 63.4717 87.8093 63.4717 87.8093Z" fill="white"/>
<mask id="mask0_373_1941" style="mask-type:luminance" maskUnits="userSpaceOnUse" x="63" y="84" width="7" height="5">
<path d="M63.4707 87.8106C63.4707 87.8106 64.3553 85.8911 66.1533 85.0705C67.9511 84.2502 69.9815 84.8399 69.9815 84.8399C69.9815 84.8399 69.0967 86.7595 67.2989 87.58C65.5011 88.4001 63.4707 87.8106 63.4707 87.8106Z" fill="white"/>
</mask>
<g mask="url(#mask0_373_1941)">
<path d="M65.3029 85.4955C65.5018 84.0824 66.8089 83.0981 68.2224 83.297C69.6358 83.4959 70.6205 84.8026 70.4216 86.2157C70.2227 87.6288 68.9156 88.6131 67.502 88.4142C66.0887 88.2153 65.104 86.9084 65.3029 85.4955Z" fill="#363E44"/>
</g>
<path d="M69.7556 90.2674C69.2115 90.2674 68.6952 89.9736 68.419 89.4986C68.2852 89.2687 68.363 88.9736 68.5932 88.8398C68.8233 88.7052 69.1184 88.7836 69.252 89.014C69.3626 89.2044 69.5702 89.3176 69.7932 89.3026C70.0192 89.2868 70.2163 89.1375 70.2952 88.9227C70.3879 88.6728 70.6657 88.5452 70.9145 88.6374C71.1639 88.7297 71.292 89.0066 71.1997 89.2562C70.9888 89.8263 70.4631 90.2217 69.8598 90.2639C69.8253 90.2663 69.7903 90.2674 69.7556 90.2674Z" fill="#363E44"/>
<path d="M64.6623 95.7177C64.4068 95.7177 64.1934 95.5166 64.1812 95.2582C64.1689 94.9924 64.3742 94.7667 64.64 94.7542C64.687 94.752 69.3759 94.5184 71.9333 93.2211C72.17 93.1009 72.461 93.1955 72.581 93.4331C72.7014 93.6703 72.6067 93.9605 72.3692 94.0808C69.6262 95.472 64.8857 95.7076 64.6852 95.7173C64.6774 95.7175 64.6697 95.7177 64.6623 95.7177Z" fill="#363E44"/>
<path d="M64.3914 80.1983C65.6144 79.7644 66.4749 78.6584 66.5849 77.3658C66.7809 75.0573 66.753 71.5183 65.0225 69.9848C64.6928 69.6928 64.4061 69.5529 64.0061 69.4873C61.779 69.1234 61.0231 73.2645 57.1377 76.1583C53.3936 78.9467 49.8988 78.227 48.9921 80.9205C48.5936 82.1048 48.9464 83.2409 49.0216 83.5196C50.0148 87.2009 53.57 87.8267 53.57 87.8267C53.57 87.8267 51.2098 87.6178 51.3534 90.7518C51.4974 93.8855 60.9481 91.2162 60.9481 91.2162L61.7151 89.7325L59.6572 87.0895C58.0924 85.0794 58.9547 82.1275 61.3558 81.2757L64.3914 80.1983Z" fill="#363E44"/>
<path d="M55.3823 91.8567C55.7296 93.2543 57.1444 94.1057 58.5423 93.7586C59.9403 93.4115 60.7919 91.9968 60.4446 90.5995C60.0972 89.2021 58.6824 88.3505 57.2846 88.6976C55.8865 89.0447 55.0349 90.4594 55.3823 91.8567Z" fill="#969AB0"/>
<path d="M243.172 379.63H49.832C45.4698 379.63 41.9336 376.094 41.9336 371.732V240.543C41.9336 236.181 45.4698 232.645 49.832 232.645H243.173C247.535 232.645 251.071 236.181 251.071 240.543V371.732C251.071 376.094 247.535 379.63 243.172 379.63Z" fill="#B7CCFB"/>
<path d="M234.945 243.515H58.417V368.948H234.945V243.515Z" fill="#F2E6DC"/>
<path d="M235.065 252.069H58.4873V317.296H235.065V252.069Z" fill="white"/>
<path d="M235.065 242.841H58.3252V253.22H235.065V242.841Z" fill="#407BFF"/>
<path d="M116.812 341.385C121.337 336.86 121.337 329.525 116.812 325C112.288 320.476 104.952 320.476 100.428 325C95.9032 329.525 95.9032 336.86 100.428 341.385C104.952 345.909 112.288 345.909 116.812 341.385Z" fill="#407BFF"/>
<path d="M158.552 336.19C160.022 329.963 156.166 323.723 149.939 322.252C143.712 320.782 137.472 324.638 136.001 330.865C134.531 337.093 138.387 343.333 144.614 344.803C150.841 346.273 157.081 342.417 158.552 336.19Z" fill="#407BFF"/>
<path d="M197.886 335.889C199.356 329.662 195.5 323.422 189.273 321.952C183.046 320.481 176.806 324.337 175.335 330.565C173.865 336.792 177.721 343.032 183.948 344.502C190.175 345.973 196.415 342.117 197.886 335.889Z" fill="#407BFF"/>
<path d="M123.301 348.607H90.4531V362.859H123.301V348.607Z" fill="#B7CCFB"/>
<path d="M165.115 348.716H132.267V362.968H165.115V348.716Z" fill="#B7CCFB"/>
<path d="M205.281 348.609H172.433V362.861H205.281V348.609Z" fill="#B7CCFB"/>
<path d="M104.059 257.587H67.8574V261.978H104.059V257.587Z" fill="#407BFF"/>
<path d="M145.616 257.438H109.415V261.829H145.616V257.438Z" fill="#407BFF"/>
<path d="M186.62 257.438H150.419V261.829H186.62V257.438Z" fill="#407BFF"/>
<path d="M227.438 257.587H191.236V261.978H227.438V257.587Z" fill="#407BFF"/>
<path d="M65.0125 249.498C65.9469 248.636 66.006 247.181 65.1446 246.246C64.2832 245.312 62.8274 245.253 61.893 246.114C60.9586 246.975 60.8995 248.431 61.7609 249.366C62.6224 250.3 64.0782 250.359 65.0125 249.498Z" fill="#F7F1EB"/>
<path d="M72.929 248.164C73.1332 246.909 72.2819 245.727 71.0275 245.523C69.7731 245.318 68.5906 246.17 68.3864 247.424C68.1822 248.678 69.0335 249.861 70.2879 250.065C71.5423 250.269 72.7247 249.418 72.929 248.164Z" fill="#F7F1EB"/>
<path d="M80.7037 248.315C80.9073 247.061 80.0553 245.879 78.8008 245.675C77.5463 245.472 76.3642 246.324 76.1606 247.578C75.957 248.833 76.809 250.015 78.0635 250.218C79.318 250.422 80.5001 249.57 80.7037 248.315Z" fill="#F7F1EB"/>
<path d="M112.637 250.244H91.8193C90.6175 250.244 89.6436 249.27 89.6436 248.068V247.817C89.6436 246.616 90.6178 245.642 91.8193 245.642H112.637C113.839 245.642 114.813 246.616 114.813 247.817V248.068C114.813 249.27 113.839 250.244 112.637 250.244Z" fill="#F7F1EB"/>
<path d="M244.634 382.06H51.2936C46.6724 382.06 42.9131 378.301 42.9131 373.68V242.491C42.9131 237.87 46.6724 234.11 51.2936 234.11H244.634C249.255 234.11 253.015 237.87 253.015 242.491V373.68C253.015 378.301 249.255 382.06 244.634 382.06ZM51.2936 235.074C47.2038 235.074 43.877 238.401 43.877 242.49V373.68C43.877 377.769 47.204 381.096 51.2936 381.096H244.634C248.724 381.096 252.051 377.769 252.051 373.68V242.49C252.051 238.401 248.724 235.074 244.634 235.074H51.2936Z" fill="#363E44"/>
<path d="M382.572 334.432C377.551 362.911 378.605 386.903 378.605 386.903C378.605 386.903 387.8 364.719 392.821 336.239C397.842 307.76 396.788 283.769 396.788 283.769C396.788 283.769 387.593 305.952 382.572 334.432Z" fill="#049146"/>
<path d="M360.239 345.421C368.817 373.038 380.74 393.882 380.74 393.882C380.74 393.882 378.756 369.95 370.178 342.332C361.601 314.715 349.678 293.871 349.678 293.871C349.678 293.871 351.662 317.803 360.239 345.421Z" fill="#049146"/>
<path d="M372.125 360.437C371.925 360.437 371.742 360.312 371.672 360.12C371.612 359.954 365.597 343.231 362.869 322.336C360.14 301.44 361.66 283.734 361.675 283.557C361.695 283.332 361.869 283.151 362.093 283.122C362.318 283.094 362.531 283.223 362.608 283.435C362.669 283.602 368.684 300.324 371.412 321.22C374.141 342.116 372.621 359.822 372.606 359.998C372.586 360.223 372.412 360.404 372.188 360.433C372.167 360.436 372.146 360.437 372.125 360.437ZM362.474 286.043C362.165 291.555 361.695 305.905 363.824 322.211C365.953 338.516 370.092 352.263 371.806 357.513C372.116 352 372.586 337.651 370.457 321.344C368.328 305.039 364.189 291.292 362.474 286.043Z" fill="#049146"/>
<path d="M381.581 375.283C381.573 375.283 381.564 375.283 381.556 375.283C381.33 375.271 381.143 375.104 381.105 374.882C381.065 374.644 377.128 350.817 378.608 322.215C380.088 293.613 386.463 270.319 386.527 270.087C386.587 269.87 386.783 269.725 387.016 269.735C387.242 269.746 387.429 269.913 387.467 270.136C387.507 270.374 391.444 294.2 389.965 322.803C388.485 351.405 382.109 374.699 382.045 374.93C381.988 375.14 381.796 375.283 381.581 375.283ZM379.571 322.265C378.364 345.586 380.77 365.71 381.706 372.381C383.325 365.843 387.796 346.071 389.002 322.753C390.208 299.431 387.802 279.307 386.866 272.637C385.248 279.175 380.777 298.946 379.571 322.265Z" fill="#049146"/>
<path d="M370.442 344.9C374.207 373.573 383.225 395.384 383.225 395.384C383.225 395.384 385.333 371.462 381.569 342.789C377.804 314.116 369.593 291.55 369.593 291.55C369.593 291.55 366.678 316.227 370.442 344.9Z" fill="#049146"/>
<path d="M396.497 352.222C398.175 357.372 399.124 363.225 399.124 369.432C399.124 381.457 395.565 392.153 390.04 398.983H361.456C355.931 392.152 352.372 381.457 352.372 369.432C352.372 363.225 353.321 357.372 354.999 352.222H396.497Z" fill="white"/>
<path d="M390.039 399.464H361.454C361.309 399.464 361.171 399.398 361.08 399.285C355.239 392.064 351.889 381.183 351.889 369.432C351.889 363.311 352.78 357.471 354.539 352.072C354.604 351.873 354.789 351.739 354.997 351.739H396.495C396.704 351.739 396.889 351.874 396.954 352.072C398.712 357.471 399.604 363.311 399.604 369.432C399.604 381.183 396.254 392.065 390.413 399.285C390.322 399.398 390.184 399.464 390.039 399.464ZM361.685 398.5H389.808C395.424 391.447 398.64 380.87 398.64 369.432C398.64 363.623 397.778 357.847 396.145 352.703H355.348C353.715 357.847 352.853 363.623 352.853 369.432C352.852 380.87 356.069 391.447 361.685 398.5Z" fill="#049146"/>
</svg>
