<svg width="705" height="248" viewBox="0 0 705 248" fill="none" xmlns="http://www.w3.org/2000/svg">
<rect width="705" height="248" fill="url(#paint0_linear)"/>
<mask id="mask0" mask-type="alpha" maskUnits="userSpaceOnUse" x="61" y="192" width="583" height="55">
<rect x="61.5" y="192" width="582" height="55" fill="#C4C4C4"/>
</mask>
<g mask="url(#mask0)">
<circle cx="97" cy="231" r="19.5" fill="white" stroke="#CBCCCD"/>
<path d="M104 222.5C104.53 222.5 105.039 222.711 105.414 223.086C105.789 223.461 106 223.97 106 224.5V235.78L101.26 240.5H90C89.4696 240.5 88.9609 240.289 88.5858 239.914C88.2107 239.539 88 239.03 88 238.5V224.5C88 223.4 88.9 222.5 90 222.5H104ZM100 234.5V239.5L105 234.5H100ZM98 230.5H92V232.5H98V230.5ZM102 226.5H92V228.5H102V226.5Z" fill="#404346"/>
<rect width="511" height="56" transform="matrix(1 0 0 -1 121.5 248)" fill="white"/>
<path d="M638.5 210V297.5H456.357H349.981H141.229C139.296 297.5 137.729 295.933 137.729 294V239.816V239.558L137.518 239.408L126.884 231.873L137.505 224.816L137.729 224.668V224.4V210C137.729 208.067 139.296 206.5 141.229 206.5H635C636.933 206.5 638.5 208.067 638.5 210Z" fill="#FFFCDC" stroke="#E5E5E5"/>
</g>
<circle cx="97" cy="102.5" r="19.5" fill="white" stroke="#CBCCCD"/>
<path d="M104 93.5C104.53 93.5 105.039 93.7107 105.414 94.0858C105.789 94.4609 106 94.9696 106 95.5V106.78L101.26 111.5H90C89.4696 111.5 88.9609 111.289 88.5858 110.914C88.2107 110.539 88 110.03 88 109.5V95.5C88 94.4 88.9 93.5 90 93.5H104ZM100 105.5V110.5L105 105.5H100ZM98 101.5H92V103.5H98V101.5ZM102 97.5H92V99.5H102V97.5Z" fill="#404346"/>
<rect x="96.5" y="123" width="1" height="89" fill="#CBCCCD"/>
<path d="M137.729 108.184V107.927L137.52 107.777L126.877 100.154L137.507 93.0151L137.729 92.8665V92.6V78C137.729 76.067 139.296 74.5 141.229 74.5H635C636.933 74.5 638.5 76.067 638.5 78V163C638.5 164.933 636.933 166.5 635 166.5H456.357H349.981H141.229C139.296 166.5 137.729 164.933 137.729 163V108.184Z" fill="#FFFCDC" stroke="#E5E5E5"/>
<path d="M160.39 102.5H161.65V93.725H164.635V92.66H157.42V93.725H160.39V102.5ZM168.111 102.68C169.896 102.68 171.501 101.285 171.501 98.87C171.501 96.425 169.896 95.03 168.111 95.03C166.326 95.03 164.736 96.425 164.736 98.87C164.736 101.285 166.326 102.68 168.111 102.68ZM168.111 101.645C166.866 101.645 166.026 100.535 166.026 98.87C166.026 97.19 166.866 96.065 168.111 96.065C169.371 96.065 170.211 97.19 170.211 98.87C170.211 100.535 169.371 101.645 168.111 101.645ZM175.896 102.68C176.751 102.68 177.531 102.2 178.101 101.645H178.146L178.251 102.5H179.271V91.82H178.026V94.625L178.086 95.87C177.441 95.345 176.886 95.03 176.046 95.03C174.381 95.03 172.881 96.5 172.881 98.87C172.881 101.3 174.066 102.68 175.896 102.68ZM176.166 101.63C174.891 101.63 174.171 100.595 174.171 98.855C174.171 97.19 175.101 96.08 176.256 96.08C176.856 96.08 177.411 96.275 178.026 96.83V100.64C177.426 101.3 176.841 101.63 176.166 101.63ZM183.406 102.68C184.321 102.68 185.116 102.215 185.806 101.63H185.851L185.971 102.5H186.991V98.015C186.991 96.215 186.226 95.03 184.456 95.03C183.286 95.03 182.266 95.525 181.591 95.975L182.071 96.815C182.641 96.44 183.406 96.065 184.246 96.065C185.431 96.065 185.731 96.95 185.746 97.865C182.626 98.21 181.276 98.99 181.276 100.61C181.276 101.93 182.191 102.68 183.406 102.68ZM183.751 101.66C183.046 101.66 182.491 101.345 182.491 100.535C182.491 99.59 183.286 99.035 185.746 98.75V100.73C185.041 101.345 184.456 101.66 183.751 101.66ZM189.42 105.635C190.875 105.635 191.64 104.54 192.15 103.1L194.895 95.21H193.68L192.375 99.23C192.18 99.875 191.97 100.625 191.775 101.285H191.715C191.475 100.61 191.235 99.86 190.995 99.23L189.525 95.21H188.235L191.16 102.515L190.995 103.055C190.695 103.955 190.17 104.6 189.36 104.6C189.18 104.6 189 104.57 188.82 104.51L188.55 105.485C188.79 105.575 189.075 105.635 189.42 105.635ZM200.984 102.68C201.899 102.68 202.694 102.215 203.384 101.63H203.429L203.549 102.5H204.569V98.015C204.569 96.215 203.804 95.03 202.034 95.03C200.864 95.03 199.844 95.525 199.169 95.975L199.649 96.815C200.219 96.44 200.984 96.065 201.824 96.065C203.009 96.065 203.309 96.95 203.324 97.865C200.204 98.21 198.854 98.99 198.854 100.61C198.854 101.93 199.769 102.68 200.984 102.68ZM201.329 101.66C200.624 101.66 200.069 101.345 200.069 100.535C200.069 99.59 200.864 99.035 203.324 98.75V100.73C202.619 101.345 202.034 101.66 201.329 101.66ZM208.953 102.68C209.448 102.68 209.943 102.545 210.333 102.365L210.078 101.48C209.778 101.615 209.508 101.66 209.238 101.66C208.413 101.66 208.113 101.15 208.113 100.265V96.215H210.093V95.21H208.113V92.87H207.078L206.928 95.21L205.788 95.285V96.215H206.868V100.235C206.868 101.69 207.393 102.68 208.953 102.68ZM214.699 102.5H220.099V101.465H218.134V92.93H217.174C216.649 93.245 216.019 93.485 215.134 93.635V94.445H216.889V101.465H214.699V102.5ZM224.885 97.58C226.07 97.58 226.655 98.36 226.655 99.605C226.655 100.865 225.935 101.705 224.99 101.705C223.79 101.705 223.055 100.715 222.89 98.855C223.49 97.955 224.27 97.58 224.885 97.58ZM224.99 102.68C226.535 102.68 227.825 101.435 227.825 99.605C227.825 97.64 226.76 96.65 225.095 96.65C224.315 96.65 223.46 97.13 222.86 97.88C222.905 94.835 224.045 93.785 225.38 93.785C225.98 93.785 226.58 94.085 226.955 94.55L227.645 93.77C227.12 93.185 226.37 92.75 225.335 92.75C223.43 92.75 221.69 94.235 221.69 98.075C221.69 101.15 223.115 102.68 224.99 102.68ZM230.301 97.28C230.796 97.28 231.201 96.89 231.201 96.335C231.201 95.765 230.796 95.375 230.301 95.375C229.806 95.375 229.401 95.765 229.401 96.335C229.401 96.89 229.806 97.28 230.301 97.28ZM230.301 102.68C230.796 102.68 231.201 102.29 231.201 101.735C231.201 101.165 230.796 100.775 230.301 100.775C229.806 100.775 229.401 101.165 229.401 101.735C229.401 102.29 229.806 102.68 230.301 102.68ZM235.911 102.68C237.816 102.68 238.971 100.895 238.971 97.685C238.971 94.475 237.816 92.75 235.911 92.75C233.991 92.75 232.836 94.475 232.836 97.685C232.836 100.895 233.991 102.68 235.911 102.68ZM235.911 101.675C234.801 101.675 234.051 100.49 234.051 97.685C234.051 94.88 234.801 93.755 235.911 93.755C237.021 93.755 237.771 94.88 237.771 97.685C237.771 100.49 237.021 101.675 235.911 101.675ZM243.172 102.68C244.927 102.68 246.337 101.645 246.337 99.95C246.337 98.63 245.422 97.79 244.267 97.52V97.46C245.302 97.07 245.992 96.335 245.992 95.18C245.992 93.635 244.792 92.75 243.127 92.75C242.002 92.75 241.117 93.26 240.382 93.95L241.042 94.73C241.612 94.175 242.287 93.77 243.082 93.77C244.102 93.77 244.732 94.355 244.732 95.27C244.732 96.275 244.042 97.055 242.017 97.055V98C244.297 98 245.077 98.765 245.077 99.905C245.077 100.97 244.252 101.645 243.097 101.645C241.972 101.645 241.222 101.12 240.652 100.52L240.022 101.33C240.667 102.035 241.642 102.68 243.172 102.68Z" fill="#747678"/>
<path d="M160.54 234.18C162.295 234.18 163.705 233.145 163.705 231.45C163.705 230.13 162.79 229.29 161.635 229.02V228.96C162.67 228.57 163.36 227.835 163.36 226.68C163.36 225.135 162.16 224.25 160.495 224.25C159.37 224.25 158.485 224.76 157.75 225.45L158.41 226.23C158.98 225.675 159.655 225.27 160.45 225.27C161.47 225.27 162.1 225.855 162.1 226.77C162.1 227.775 161.41 228.555 159.385 228.555V229.5C161.665 229.5 162.445 230.265 162.445 231.405C162.445 232.47 161.62 233.145 160.465 233.145C159.34 233.145 158.59 232.62 158.02 232.02L157.39 232.83C158.035 233.535 159.01 234.18 160.54 234.18ZM171.179 234.18C172.034 234.18 172.814 233.7 173.384 233.145H173.429L173.534 234H174.554V223.32H173.309V226.125L173.369 227.37C172.724 226.845 172.169 226.53 171.329 226.53C169.664 226.53 168.164 228 168.164 230.37C168.164 232.8 169.349 234.18 171.179 234.18ZM171.449 233.13C170.174 233.13 169.454 232.095 169.454 230.355C169.454 228.69 170.384 227.58 171.539 227.58C172.139 227.58 172.694 227.775 173.309 228.33V232.14C172.709 232.8 172.124 233.13 171.449 233.13ZM178.689 234.18C179.604 234.18 180.399 233.715 181.089 233.13H181.134L181.254 234H182.274V229.515C182.274 227.715 181.509 226.53 179.739 226.53C178.569 226.53 177.549 227.025 176.874 227.475L177.354 228.315C177.924 227.94 178.689 227.565 179.529 227.565C180.714 227.565 181.014 228.45 181.029 229.365C177.909 229.71 176.559 230.49 176.559 232.11C176.559 233.43 177.474 234.18 178.689 234.18ZM179.034 233.16C178.329 233.16 177.774 232.845 177.774 232.035C177.774 231.09 178.569 230.535 181.029 230.25V232.23C180.324 232.845 179.739 233.16 179.034 233.16ZM184.703 237.135C186.158 237.135 186.923 236.04 187.433 234.6L190.178 226.71H188.963L187.658 230.73C187.463 231.375 187.253 232.125 187.058 232.785H186.998C186.758 232.11 186.518 231.36 186.278 230.73L184.808 226.71H183.518L186.443 234.015L186.278 234.555C185.978 235.455 185.453 236.1 184.643 236.1C184.463 236.1 184.283 236.07 184.103 236.01L183.833 236.985C184.073 237.075 184.358 237.135 184.703 237.135ZM193.489 234.18C195.214 234.18 196.159 233.19 196.159 232.005C196.159 230.685 195.064 230.19 193.924 229.785C193.009 229.47 192.379 229.2 192.379 228.54C192.379 228 192.784 227.49 193.714 227.49C194.359 227.49 194.884 227.7 195.394 228.075L195.964 227.355C195.394 226.875 194.614 226.53 193.699 226.53C192.109 226.53 191.179 227.43 191.179 228.6C191.179 229.8 192.229 230.325 193.324 230.715C194.149 231.015 194.959 231.33 194.959 232.08C194.959 232.71 194.494 233.205 193.534 233.205C192.634 233.205 191.974 232.935 191.344 232.41L190.774 233.13C191.449 233.79 192.424 234.18 193.489 234.18ZM202.552 234.18C203.467 234.18 204.262 233.715 204.952 233.13H204.997L205.117 234H206.137V229.515C206.137 227.715 205.372 226.53 203.602 226.53C202.432 226.53 201.412 227.025 200.737 227.475L201.217 228.315C201.787 227.94 202.552 227.565 203.392 227.565C204.577 227.565 204.877 228.45 204.892 229.365C201.772 229.71 200.422 230.49 200.422 232.11C200.422 233.43 201.337 234.18 202.552 234.18ZM202.897 233.16C202.192 233.16 201.637 232.845 201.637 232.035C201.637 231.09 202.432 230.535 204.892 230.25V232.23C204.187 232.845 203.602 233.16 202.897 233.16ZM210.89 237.36C213.155 237.36 214.58 236.19 214.58 234.825C214.58 233.625 213.725 233.085 212.03 233.085H210.62C209.645 233.085 209.345 232.755 209.345 232.305C209.345 231.9 209.54 231.66 209.81 231.435C210.14 231.6 210.53 231.69 210.89 231.69C212.375 231.69 213.56 230.715 213.56 229.155C213.56 228.54 213.32 228 212.975 227.67H214.46V226.71H211.925C211.655 226.605 211.295 226.53 210.89 226.53C209.405 226.53 208.145 227.535 208.145 229.125C208.145 229.995 208.61 230.7 209.09 231.09V231.15C208.715 231.405 208.295 231.885 208.295 232.5C208.295 233.07 208.58 233.46 208.94 233.685V233.745C208.28 234.195 207.875 234.78 207.875 235.395C207.875 236.655 209.105 237.36 210.89 237.36ZM210.89 230.85C210.05 230.85 209.345 230.19 209.345 229.125C209.345 228.06 210.035 227.43 210.89 227.43C211.745 227.43 212.435 228.075 212.435 229.125C212.435 230.19 211.73 230.85 210.89 230.85ZM211.07 236.49C209.75 236.49 208.955 236.01 208.955 235.23C208.955 234.81 209.18 234.375 209.705 234C210.02 234.09 210.365 234.12 210.65 234.12H211.895C212.855 234.12 213.365 234.345 213.365 235.02C213.365 235.77 212.45 236.49 211.07 236.49ZM218.633 234.18C220.418 234.18 222.023 232.785 222.023 230.37C222.023 227.925 220.418 226.53 218.633 226.53C216.848 226.53 215.258 227.925 215.258 230.37C215.258 232.785 216.848 234.18 218.633 234.18ZM218.633 233.145C217.388 233.145 216.548 232.035 216.548 230.37C216.548 228.69 217.388 227.565 218.633 227.565C219.893 227.565 220.733 228.69 220.733 230.37C220.733 232.035 219.893 233.145 218.633 233.145Z" fill="#747678"/>
<path d="M275.43 102.5H276.975L278.4 96.56C278.565 95.78 278.715 95.105 278.865 94.25H278.925C279.06 95.105 279.18 95.78 279.36 96.56L280.815 102.5H282.375L284.43 92.66H283.215L282.165 98.015C281.985 99.08 281.805 100.13 281.64 101.24H281.58C281.37 100.13 281.115 99.065 280.875 98.015L279.54 92.66H278.295L276.93 98.015C276.69 99.08 276.465 100.13 276.27 101.24H276.21C276.03 100.13 275.865 99.08 275.67 98.015L274.65 92.66H273.345L275.43 102.5ZM288.962 102.68C289.967 102.68 290.747 102.38 291.377 101.93L290.942 101.135C290.432 101.48 289.817 101.675 289.112 101.675C287.732 101.675 286.817 100.685 286.712 99.185H291.617C291.662 98.945 291.677 98.72 291.677 98.45C291.677 96.35 290.612 95.03 288.752 95.03C287.087 95.03 285.482 96.485 285.482 98.855C285.482 101.27 287.012 102.68 288.962 102.68ZM286.712 98.225C286.862 96.83 287.762 96.02 288.782 96.02C289.892 96.02 290.567 96.785 290.567 98.225H286.712ZM296.688 102.68C298.353 102.68 299.853 101.225 299.853 98.735C299.853 96.485 298.833 95.03 296.958 95.03C296.148 95.03 295.338 95.465 294.663 96.035L294.708 94.73V91.82H293.463V102.5H294.453L294.573 101.75H294.618C295.263 102.335 296.013 102.68 296.688 102.68ZM296.478 101.63C295.998 101.63 295.338 101.435 294.708 100.88V97.07C295.398 96.41 296.028 96.08 296.643 96.08C298.008 96.08 298.563 97.145 298.563 98.75C298.563 100.55 297.678 101.63 296.478 101.63ZM306.347 102.5H307.802L310.382 95.21H309.152L307.787 99.335C307.562 100.055 307.322 100.79 307.112 101.495H307.052C306.827 100.79 306.602 100.055 306.377 99.335L305.012 95.21H303.722L306.347 102.5ZM311.789 102.5H313.034V95.21H311.789V102.5ZM312.419 93.71C312.899 93.71 313.244 93.395 313.244 92.9C313.244 92.42 312.899 92.09 312.419 92.09C311.939 92.09 311.594 92.42 311.594 92.9C311.594 93.395 311.939 93.71 312.419 93.71ZM317.4 102.68C319.125 102.68 320.07 101.69 320.07 100.505C320.07 99.185 318.975 98.69 317.835 98.285C316.92 97.97 316.29 97.7 316.29 97.04C316.29 96.5 316.695 95.99 317.625 95.99C318.27 95.99 318.795 96.2 319.305 96.575L319.875 95.855C319.305 95.375 318.525 95.03 317.61 95.03C316.02 95.03 315.09 95.93 315.09 97.1C315.09 98.3 316.14 98.825 317.235 99.215C318.06 99.515 318.87 99.83 318.87 100.58C318.87 101.21 318.405 101.705 317.445 101.705C316.545 101.705 315.885 101.435 315.255 100.91L314.685 101.63C315.36 102.29 316.335 102.68 317.4 102.68ZM321.779 102.5H323.024V95.21H321.779V102.5ZM322.409 93.71C322.889 93.71 323.234 93.395 323.234 92.9C323.234 92.42 322.889 92.09 322.409 92.09C321.929 92.09 321.584 92.42 321.584 92.9C321.584 93.395 321.929 93.71 322.409 93.71ZM327.78 102.68C328.275 102.68 328.77 102.545 329.16 102.365L328.905 101.48C328.605 101.615 328.335 101.66 328.065 101.66C327.24 101.66 326.94 101.15 326.94 100.265V96.215H328.92V95.21H326.94V92.87H325.905L325.755 95.21L324.615 95.285V96.215H325.695V100.235C325.695 101.69 326.22 102.68 327.78 102.68ZM333.198 102.68C334.983 102.68 336.588 101.285 336.588 98.87C336.588 96.425 334.983 95.03 333.198 95.03C331.413 95.03 329.823 96.425 329.823 98.87C329.823 101.285 331.413 102.68 333.198 102.68ZM333.198 101.645C331.953 101.645 331.113 100.535 331.113 98.87C331.113 97.19 331.953 96.065 333.198 96.065C334.458 96.065 335.298 97.19 335.298 98.87C335.298 100.535 334.458 101.645 333.198 101.645ZM338.493 102.5H339.738V97.82C340.233 96.59 340.968 96.155 341.583 96.155C341.868 96.155 342.033 96.185 342.243 96.245L342.513 95.18C342.288 95.075 342.063 95.03 341.733 95.03C340.923 95.03 340.173 95.615 339.663 96.53H339.618L339.513 95.21H338.493V102.5ZM345.554 102.68C347.279 102.68 348.224 101.69 348.224 100.505C348.224 99.185 347.129 98.69 345.989 98.285C345.074 97.97 344.444 97.7 344.444 97.04C344.444 96.5 344.849 95.99 345.779 95.99C346.424 95.99 346.949 96.2 347.459 96.575L348.029 95.855C347.459 95.375 346.679 95.03 345.764 95.03C344.174 95.03 343.244 95.93 343.244 97.1C343.244 98.3 344.294 98.825 345.389 99.215C346.214 99.515 347.024 99.83 347.024 100.58C347.024 101.21 346.559 101.705 345.599 101.705C344.699 101.705 344.039 101.435 343.409 100.91L342.839 101.63C343.514 102.29 344.489 102.68 345.554 102.68ZM354.616 102.68C355.531 102.68 356.326 102.215 357.016 101.63H357.061L357.181 102.5H358.201V98.015C358.201 96.215 357.436 95.03 355.666 95.03C354.496 95.03 353.476 95.525 352.801 95.975L353.281 96.815C353.851 96.44 354.616 96.065 355.456 96.065C356.641 96.065 356.941 96.95 356.956 97.865C353.836 98.21 352.486 98.99 352.486 100.61C352.486 101.93 353.401 102.68 354.616 102.68ZM354.961 101.66C354.256 101.66 353.701 101.345 353.701 100.535C353.701 99.59 354.496 99.035 356.956 98.75V100.73C356.251 101.345 355.666 101.66 354.961 101.66ZM362.985 102.68C363.84 102.68 364.62 102.2 365.19 101.645H365.235L365.34 102.5H366.36V91.82H365.115V94.625L365.175 95.87C364.53 95.345 363.975 95.03 363.135 95.03C361.47 95.03 359.97 96.5 359.97 98.87C359.97 101.3 361.155 102.68 362.985 102.68ZM363.255 101.63C361.98 101.63 361.26 100.595 361.26 98.855C361.26 97.19 362.19 96.08 363.345 96.08C363.945 96.08 364.5 96.275 365.115 96.83V100.64C364.515 101.3 363.93 101.63 363.255 101.63ZM371.305 102.68C372.16 102.68 372.94 102.2 373.51 101.645H373.555L373.66 102.5H374.68V91.82H373.435V94.625L373.495 95.87C372.85 95.345 372.295 95.03 371.455 95.03C369.79 95.03 368.29 96.5 368.29 98.87C368.29 101.3 369.475 102.68 371.305 102.68ZM371.575 101.63C370.3 101.63 369.58 100.595 369.58 98.855C369.58 97.19 370.51 96.08 371.665 96.08C372.265 96.08 372.82 96.275 373.435 96.83V100.64C372.835 101.3 372.25 101.63 371.575 101.63ZM376.52 99.215H379.97V98.255H376.52V99.215ZM384.628 102.68C386.413 102.68 388.018 101.285 388.018 98.87C388.018 96.425 386.413 95.03 384.628 95.03C382.843 95.03 381.253 96.425 381.253 98.87C381.253 101.285 382.843 102.68 384.628 102.68ZM384.628 101.645C383.383 101.645 382.543 100.535 382.543 98.87C382.543 97.19 383.383 96.065 384.628 96.065C385.888 96.065 386.728 97.19 386.728 98.87C386.728 100.535 385.888 101.645 384.628 101.645ZM389.923 102.5H391.168V97.22C391.888 96.485 392.413 96.11 393.148 96.11C394.108 96.11 394.528 96.68 394.528 98.045V102.5H395.773V97.88C395.773 96.02 395.083 95.03 393.538 95.03C392.533 95.03 391.783 95.57 391.093 96.26H391.048L390.943 95.21H389.923V102.5Z" fill="#747678"/>
<path d="M251.43 234H252.975L254.4 228.06C254.565 227.28 254.715 226.605 254.865 225.75H254.925C255.06 226.605 255.18 227.28 255.36 228.06L256.815 234H258.375L260.43 224.16H259.215L258.165 229.515C257.985 230.58 257.805 231.63 257.64 232.74H257.58C257.37 231.63 257.115 230.565 256.875 229.515L255.54 224.16H254.295L252.93 229.515C252.69 230.58 252.465 231.63 252.27 232.74H252.21C252.03 231.63 251.865 230.58 251.67 229.515L250.65 224.16H249.345L251.43 234ZM264.962 234.18C265.967 234.18 266.747 233.88 267.377 233.43L266.942 232.635C266.432 232.98 265.817 233.175 265.112 233.175C263.732 233.175 262.817 232.185 262.712 230.685H267.617C267.662 230.445 267.677 230.22 267.677 229.95C267.677 227.85 266.612 226.53 264.752 226.53C263.087 226.53 261.482 227.985 261.482 230.355C261.482 232.77 263.012 234.18 264.962 234.18ZM262.712 229.725C262.862 228.33 263.762 227.52 264.782 227.52C265.892 227.52 266.567 228.285 266.567 229.725H262.712ZM272.688 234.18C274.353 234.18 275.853 232.725 275.853 230.235C275.853 227.985 274.833 226.53 272.958 226.53C272.148 226.53 271.338 226.965 270.663 227.535L270.708 226.23V223.32H269.463V234H270.453L270.573 233.25H270.618C271.263 233.835 272.013 234.18 272.688 234.18ZM272.478 233.13C271.998 233.13 271.338 232.935 270.708 232.38V228.57C271.398 227.91 272.028 227.58 272.643 227.58C274.008 227.58 274.563 228.645 274.563 230.25C274.563 232.05 273.678 233.13 272.478 233.13ZM282.347 234H283.802L286.382 226.71H285.152L283.787 230.835C283.562 231.555 283.322 232.29 283.112 232.995H283.052C282.827 232.29 282.602 231.555 282.377 230.835L281.012 226.71H279.722L282.347 234ZM287.789 234H289.034V226.71H287.789V234ZM288.419 225.21C288.899 225.21 289.244 224.895 289.244 224.4C289.244 223.92 288.899 223.59 288.419 223.59C287.939 223.59 287.594 223.92 287.594 224.4C287.594 224.895 287.939 225.21 288.419 225.21ZM293.4 234.18C295.125 234.18 296.07 233.19 296.07 232.005C296.07 230.685 294.975 230.19 293.835 229.785C292.92 229.47 292.29 229.2 292.29 228.54C292.29 228 292.695 227.49 293.625 227.49C294.27 227.49 294.795 227.7 295.305 228.075L295.875 227.355C295.305 226.875 294.525 226.53 293.61 226.53C292.02 226.53 291.09 227.43 291.09 228.6C291.09 229.8 292.14 230.325 293.235 230.715C294.06 231.015 294.87 231.33 294.87 232.08C294.87 232.71 294.405 233.205 293.445 233.205C292.545 233.205 291.885 232.935 291.255 232.41L290.685 233.13C291.36 233.79 292.335 234.18 293.4 234.18ZM297.779 234H299.024V226.71H297.779V234ZM298.409 225.21C298.889 225.21 299.234 224.895 299.234 224.4C299.234 223.92 298.889 223.59 298.409 223.59C297.929 223.59 297.584 223.92 297.584 224.4C297.584 224.895 297.929 225.21 298.409 225.21ZM303.78 234.18C304.275 234.18 304.77 234.045 305.16 233.865L304.905 232.98C304.605 233.115 304.335 233.16 304.065 233.16C303.24 233.16 302.94 232.65 302.94 231.765V227.715H304.92V226.71H302.94V224.37H301.905L301.755 226.71L300.615 226.785V227.715H301.695V231.735C301.695 233.19 302.22 234.18 303.78 234.18ZM309.198 234.18C310.983 234.18 312.588 232.785 312.588 230.37C312.588 227.925 310.983 226.53 309.198 226.53C307.413 226.53 305.823 227.925 305.823 230.37C305.823 232.785 307.413 234.18 309.198 234.18ZM309.198 233.145C307.953 233.145 307.113 232.035 307.113 230.37C307.113 228.69 307.953 227.565 309.198 227.565C310.458 227.565 311.298 228.69 311.298 230.37C311.298 232.035 310.458 233.145 309.198 233.145ZM314.493 234H315.738V229.32C316.233 228.09 316.968 227.655 317.583 227.655C317.868 227.655 318.033 227.685 318.243 227.745L318.513 226.68C318.288 226.575 318.063 226.53 317.733 226.53C316.923 226.53 316.173 227.115 315.663 228.03H315.618L315.513 226.71H314.493V234ZM321.554 234.18C323.279 234.18 324.224 233.19 324.224 232.005C324.224 230.685 323.129 230.19 321.989 229.785C321.074 229.47 320.444 229.2 320.444 228.54C320.444 228 320.849 227.49 321.779 227.49C322.424 227.49 322.949 227.7 323.459 228.075L324.029 227.355C323.459 226.875 322.679 226.53 321.764 226.53C320.174 226.53 319.244 227.43 319.244 228.6C319.244 229.8 320.294 230.325 321.389 230.715C322.214 231.015 323.024 231.33 323.024 232.08C323.024 232.71 322.559 233.205 321.599 233.205C320.699 233.205 320.039 232.935 319.409 232.41L318.839 233.13C319.514 233.79 320.489 234.18 321.554 234.18ZM330.616 234.18C331.531 234.18 332.326 233.715 333.016 233.13H333.061L333.181 234H334.201V229.515C334.201 227.715 333.436 226.53 331.666 226.53C330.496 226.53 329.476 227.025 328.801 227.475L329.281 228.315C329.851 227.94 330.616 227.565 331.456 227.565C332.641 227.565 332.941 228.45 332.956 229.365C329.836 229.71 328.486 230.49 328.486 232.11C328.486 233.43 329.401 234.18 330.616 234.18ZM330.961 233.16C330.256 233.16 329.701 232.845 329.701 232.035C329.701 231.09 330.496 230.535 332.956 230.25V232.23C332.251 232.845 331.666 233.16 330.961 233.16ZM338.985 234.18C339.84 234.18 340.62 233.7 341.19 233.145H341.235L341.34 234H342.36V223.32H341.115V226.125L341.175 227.37C340.53 226.845 339.975 226.53 339.135 226.53C337.47 226.53 335.97 228 335.97 230.37C335.97 232.8 337.155 234.18 338.985 234.18ZM339.255 233.13C337.98 233.13 337.26 232.095 337.26 230.355C337.26 228.69 338.19 227.58 339.345 227.58C339.945 227.58 340.5 227.775 341.115 228.33V232.14C340.515 232.8 339.93 233.13 339.255 233.13ZM347.305 234.18C348.16 234.18 348.94 233.7 349.51 233.145H349.555L349.66 234H350.68V223.32H349.435V226.125L349.495 227.37C348.85 226.845 348.295 226.53 347.455 226.53C345.79 226.53 344.29 228 344.29 230.37C344.29 232.8 345.475 234.18 347.305 234.18ZM347.575 233.13C346.3 233.13 345.58 232.095 345.58 230.355C345.58 228.69 346.51 227.58 347.665 227.58C348.265 227.58 348.82 227.775 349.435 228.33V232.14C348.835 232.8 348.25 233.13 347.575 233.13ZM352.52 230.715H355.97V229.755H352.52V230.715ZM360.628 234.18C362.413 234.18 364.018 232.785 364.018 230.37C364.018 227.925 362.413 226.53 360.628 226.53C358.843 226.53 357.253 227.925 357.253 230.37C357.253 232.785 358.843 234.18 360.628 234.18ZM360.628 233.145C359.383 233.145 358.543 232.035 358.543 230.37C358.543 228.69 359.383 227.565 360.628 227.565C361.888 227.565 362.728 228.69 362.728 230.37C362.728 232.035 361.888 233.145 360.628 233.145ZM365.923 234H367.168V228.72C367.888 227.985 368.413 227.61 369.148 227.61C370.108 227.61 370.528 228.18 370.528 229.545V234H371.773V229.38C371.773 227.52 371.083 226.53 369.538 226.53C368.533 226.53 367.783 227.07 367.093 227.76H367.048L366.943 226.71H365.923V234Z" fill="#747678"/>
<circle cx="260.5" cy="98" r="1.5" fill="#747678"/>
<circle cx="236.5" cy="229.5" r="1.5" fill="#747678"/>
<path d="M161.98 140.68C164.455 140.68 166.195 138.7 166.195 135.535C166.195 132.4 164.455 130.48 161.98 130.48C159.505 130.48 157.78 132.385 157.78 135.535C157.78 138.7 159.505 140.68 161.98 140.68ZM161.98 139.57C160.225 139.57 159.085 137.995 159.085 135.535C159.085 133.09 160.225 131.59 161.98 131.59C163.735 131.59 164.89 133.09 164.89 135.535C164.89 137.995 163.735 139.57 161.98 139.57ZM168.191 140.5H169.436V135.82C169.931 134.59 170.666 134.155 171.281 134.155C171.566 134.155 171.731 134.185 171.941 134.245L172.211 133.18C171.986 133.075 171.761 133.03 171.431 133.03C170.621 133.03 169.871 133.615 169.361 134.53H169.316L169.211 133.21H168.191V140.5ZM175.719 143.86C177.984 143.86 179.409 142.69 179.409 141.325C179.409 140.125 178.554 139.585 176.859 139.585H175.449C174.474 139.585 174.174 139.255 174.174 138.805C174.174 138.4 174.369 138.16 174.639 137.935C174.969 138.1 175.359 138.19 175.719 138.19C177.204 138.19 178.389 137.215 178.389 135.655C178.389 135.04 178.149 134.5 177.804 134.17H179.289V133.21H176.754C176.484 133.105 176.124 133.03 175.719 133.03C174.234 133.03 172.974 134.035 172.974 135.625C172.974 136.495 173.439 137.2 173.919 137.59V137.65C173.544 137.905 173.124 138.385 173.124 139C173.124 139.57 173.409 139.96 173.769 140.185V140.245C173.109 140.695 172.704 141.28 172.704 141.895C172.704 143.155 173.934 143.86 175.719 143.86ZM175.719 137.35C174.879 137.35 174.174 136.69 174.174 135.625C174.174 134.56 174.864 133.93 175.719 133.93C176.574 133.93 177.264 134.575 177.264 135.625C177.264 136.69 176.559 137.35 175.719 137.35ZM175.899 142.99C174.579 142.99 173.784 142.51 173.784 141.73C173.784 141.31 174.009 140.875 174.534 140.5C174.849 140.59 175.194 140.62 175.479 140.62H176.724C177.684 140.62 178.194 140.845 178.194 141.52C178.194 142.27 177.279 142.99 175.899 142.99ZM182.278 140.68C183.193 140.68 183.988 140.215 184.678 139.63H184.723L184.843 140.5H185.863V136.015C185.863 134.215 185.098 133.03 183.328 133.03C182.158 133.03 181.138 133.525 180.463 133.975L180.943 134.815C181.513 134.44 182.278 134.065 183.118 134.065C184.303 134.065 184.603 134.95 184.618 135.865C181.498 136.21 180.148 136.99 180.148 138.61C180.148 139.93 181.063 140.68 182.278 140.68ZM182.623 139.66C181.918 139.66 181.363 139.345 181.363 138.535C181.363 137.59 182.158 137.035 184.618 136.75V138.73C183.913 139.345 183.328 139.66 182.623 139.66ZM188.157 140.5H189.402V135.22C190.122 134.485 190.647 134.11 191.382 134.11C192.342 134.11 192.762 134.68 192.762 136.045V140.5H194.007V135.88C194.007 134.02 193.317 133.03 191.772 133.03C190.767 133.03 190.017 133.57 189.327 134.26H189.282L189.177 133.21H188.157V140.5ZM196.36 140.5H197.605V133.21H196.36V140.5ZM196.99 131.71C197.47 131.71 197.815 131.395 197.815 130.9C197.815 130.42 197.47 130.09 196.99 130.09C196.51 130.09 196.165 130.42 196.165 130.9C196.165 131.395 196.51 131.71 196.99 131.71ZM199.301 140.5H204.836V139.48H200.876L204.701 133.87V133.21H199.721V134.215H203.126L199.301 139.84V140.5ZM207.766 140.68C208.681 140.68 209.476 140.215 210.166 139.63H210.211L210.331 140.5H211.351V136.015C211.351 134.215 210.586 133.03 208.816 133.03C207.646 133.03 206.626 133.525 205.951 133.975L206.431 134.815C207.001 134.44 207.766 134.065 208.606 134.065C209.791 134.065 210.091 134.95 210.106 135.865C206.986 136.21 205.636 136.99 205.636 138.61C205.636 139.93 206.551 140.68 207.766 140.68ZM208.111 139.66C207.406 139.66 206.851 139.345 206.851 138.535C206.851 137.59 207.646 137.035 210.106 136.75V138.73C209.401 139.345 208.816 139.66 208.111 139.66ZM215.735 140.68C216.23 140.68 216.725 140.545 217.115 140.365L216.86 139.48C216.56 139.615 216.29 139.66 216.02 139.66C215.195 139.66 214.895 139.15 214.895 138.265V134.215H216.875V133.21H214.895V130.87H213.86L213.71 133.21L212.57 133.285V134.215H213.65V138.235C213.65 139.69 214.175 140.68 215.735 140.68ZM218.523 140.5H219.768V133.21H218.523V140.5ZM219.153 131.71C219.633 131.71 219.978 131.395 219.978 130.9C219.978 130.42 219.633 130.09 219.153 130.09C218.673 130.09 218.328 130.42 218.328 130.9C218.328 131.395 218.673 131.71 219.153 131.71ZM225.064 140.68C226.849 140.68 228.454 139.285 228.454 136.87C228.454 134.425 226.849 133.03 225.064 133.03C223.279 133.03 221.689 134.425 221.689 136.87C221.689 139.285 223.279 140.68 225.064 140.68ZM225.064 139.645C223.819 139.645 222.979 138.535 222.979 136.87C222.979 135.19 223.819 134.065 225.064 134.065C226.324 134.065 227.164 135.19 227.164 136.87C227.164 138.535 226.324 139.645 225.064 139.645ZM230.359 140.5H231.604V135.22C232.324 134.485 232.849 134.11 233.584 134.11C234.544 134.11 234.964 134.68 234.964 136.045V140.5H236.209V135.88C236.209 134.02 235.519 133.03 233.974 133.03C232.969 133.03 232.219 133.57 231.529 134.26H231.484L231.379 133.21H230.359V140.5ZM242.87 140.68C243.185 140.68 243.41 140.635 243.59 140.545L243.425 139.615C243.305 139.645 243.245 139.645 243.17 139.645C242.975 139.645 242.81 139.51 242.81 139.12V129.82H241.565V139.03C241.565 140.08 241.94 140.68 242.87 140.68ZM245.388 140.5H246.633V133.21H245.388V140.5ZM246.018 131.71C246.498 131.71 246.843 131.395 246.843 130.9C246.843 130.42 246.498 130.09 246.018 130.09C245.538 130.09 245.193 130.42 245.193 130.9C245.193 131.395 245.538 131.71 246.018 131.71ZM249.094 140.5H250.339V135.22C251.059 134.485 251.584 134.11 252.319 134.11C253.279 134.11 253.699 134.68 253.699 136.045V140.5H254.944V135.88C254.944 134.02 254.254 133.03 252.709 133.03C251.704 133.03 250.954 133.57 250.264 134.26H250.219L250.114 133.21H249.094V140.5ZM257.297 140.5H258.527V138.58L259.877 137.005L262.007 140.5H263.357L260.612 136.15L263.042 133.21H261.647L258.572 137.02H258.527V129.82H257.297V140.5ZM267.4 140.68C268.405 140.68 269.185 140.38 269.815 139.93L269.38 139.135C268.87 139.48 268.255 139.675 267.55 139.675C266.17 139.675 265.255 138.685 265.15 137.185H270.055C270.1 136.945 270.115 136.72 270.115 136.45C270.115 134.35 269.05 133.03 267.19 133.03C265.525 133.03 263.92 134.485 263.92 136.855C263.92 139.27 265.45 140.68 267.4 140.68ZM265.15 136.225C265.3 134.83 266.2 134.02 267.22 134.02C268.33 134.02 269.005 134.785 269.005 136.225H265.15ZM274.392 140.68C275.247 140.68 276.027 140.2 276.597 139.645H276.642L276.747 140.5H277.767V129.82H276.522V132.625L276.582 133.87C275.937 133.345 275.382 133.03 274.542 133.03C272.877 133.03 271.377 134.5 271.377 136.87C271.377 139.3 272.562 140.68 274.392 140.68ZM274.662 139.63C273.387 139.63 272.667 138.595 272.667 136.855C272.667 135.19 273.597 134.08 274.752 134.08C275.352 134.08 275.907 134.275 276.522 134.83V138.64C275.922 139.3 275.337 139.63 274.662 139.63ZM285.52 140.68C286.015 140.68 286.51 140.545 286.9 140.365L286.645 139.48C286.345 139.615 286.075 139.66 285.805 139.66C284.98 139.66 284.68 139.15 284.68 138.265V134.215H286.66V133.21H284.68V130.87H283.645L283.495 133.21L282.355 133.285V134.215H283.435V138.235C283.435 139.69 283.96 140.68 285.52 140.68ZM290.938 140.68C292.723 140.68 294.328 139.285 294.328 136.87C294.328 134.425 292.723 133.03 290.938 133.03C289.153 133.03 287.563 134.425 287.563 136.87C287.563 139.285 289.153 140.68 290.938 140.68ZM290.938 139.645C289.693 139.645 288.853 138.535 288.853 136.87C288.853 135.19 289.693 134.065 290.938 134.065C292.198 134.065 293.038 135.19 293.038 136.87C293.038 138.535 292.198 139.645 290.938 139.645ZM301.531 140.68C302.026 140.68 302.521 140.545 302.911 140.365L302.656 139.48C302.356 139.615 302.086 139.66 301.816 139.66C300.991 139.66 300.691 139.15 300.691 138.265V134.215H302.671V133.21H300.691V130.87H299.656L299.506 133.21L298.366 133.285V134.215H299.446V138.235C299.446 139.69 299.971 140.68 301.531 140.68ZM304.319 140.5H305.564V135.22C306.284 134.485 306.809 134.11 307.544 134.11C308.504 134.11 308.924 134.68 308.924 136.045V140.5H310.169V135.88C310.169 134.02 309.479 133.03 307.934 133.03C306.929 133.03 306.194 133.57 305.519 134.23L305.564 132.73V129.82H304.319V140.5ZM312.478 140.5H313.723V133.21H312.478V140.5ZM313.108 131.71C313.588 131.71 313.933 131.395 313.933 130.9C313.933 130.42 313.588 130.09 313.108 130.09C312.628 130.09 312.283 130.42 312.283 130.9C312.283 131.395 312.628 131.71 313.108 131.71ZM318.089 140.68C319.814 140.68 320.759 139.69 320.759 138.505C320.759 137.185 319.664 136.69 318.524 136.285C317.609 135.97 316.979 135.7 316.979 135.04C316.979 134.5 317.384 133.99 318.314 133.99C318.959 133.99 319.484 134.2 319.994 134.575L320.564 133.855C319.994 133.375 319.214 133.03 318.299 133.03C316.709 133.03 315.779 133.93 315.779 135.1C315.779 136.3 316.829 136.825 317.924 137.215C318.749 137.515 319.559 137.83 319.559 138.58C319.559 139.21 319.094 139.705 318.134 139.705C317.234 139.705 316.574 139.435 315.944 138.91L315.374 139.63C316.049 140.29 317.024 140.68 318.089 140.68ZM327.961 140.68C328.816 140.68 329.596 140.2 330.166 139.645H330.211L330.316 140.5H331.336V129.82H330.091V132.625L330.151 133.87C329.506 133.345 328.951 133.03 328.111 133.03C326.446 133.03 324.946 134.5 324.946 136.87C324.946 139.3 326.131 140.68 327.961 140.68ZM328.231 139.63C326.956 139.63 326.236 138.595 326.236 136.855C326.236 135.19 327.166 134.08 328.321 134.08C328.921 134.08 329.476 134.275 330.091 134.83V138.64C329.491 139.3 328.906 139.63 328.231 139.63ZM336.732 140.68C337.737 140.68 338.517 140.38 339.147 139.93L338.712 139.135C338.202 139.48 337.587 139.675 336.882 139.675C335.502 139.675 334.587 138.685 334.482 137.185H339.387C339.432 136.945 339.447 136.72 339.447 136.45C339.447 134.35 338.382 133.03 336.522 133.03C334.857 133.03 333.252 134.485 333.252 136.855C333.252 139.27 334.782 140.68 336.732 140.68ZM334.482 136.225C334.632 134.83 335.532 134.02 336.552 134.02C337.662 134.02 338.337 134.785 338.337 136.225H334.482ZM342.708 140.68C343.623 140.68 344.418 140.215 345.108 139.63H345.153L345.273 140.5H346.293V136.015C346.293 134.215 345.528 133.03 343.758 133.03C342.588 133.03 341.568 133.525 340.893 133.975L341.373 134.815C341.943 134.44 342.708 134.065 343.548 134.065C344.733 134.065 345.033 134.95 345.048 135.865C341.928 136.21 340.578 136.99 340.578 138.61C340.578 139.93 341.493 140.68 342.708 140.68ZM343.053 139.66C342.348 139.66 341.793 139.345 341.793 138.535C341.793 137.59 342.588 137.035 345.048 136.75V138.73C344.343 139.345 343.758 139.66 343.053 139.66ZM349.891 140.68C350.206 140.68 350.431 140.635 350.611 140.545L350.446 139.615C350.326 139.645 350.266 139.645 350.191 139.645C349.996 139.645 349.831 139.51 349.831 139.12V129.82H348.586V139.03C348.586 140.08 348.961 140.68 349.891 140.68ZM355.413 140.5H356.658V135.22C357.378 134.485 357.903 134.11 358.638 134.11C359.598 134.11 360.018 134.68 360.018 136.045V140.5H361.263V135.88C361.263 134.02 360.573 133.03 359.028 133.03C358.023 133.03 357.288 133.57 356.613 134.23L356.658 132.73V129.82H355.413V140.5ZM365.252 140.68C366.167 140.68 366.962 140.215 367.652 139.63H367.697L367.817 140.5H368.837V136.015C368.837 134.215 368.072 133.03 366.302 133.03C365.132 133.03 364.112 133.525 363.437 133.975L363.917 134.815C364.487 134.44 365.252 134.065 366.092 134.065C367.277 134.065 367.577 134.95 367.592 135.865C364.472 136.21 363.122 136.99 363.122 138.61C363.122 139.93 364.037 140.68 365.252 140.68ZM365.597 139.66C364.892 139.66 364.337 139.345 364.337 138.535C364.337 137.59 365.132 137.035 367.592 136.75V138.73C366.887 139.345 366.302 139.66 365.597 139.66ZM373.035 140.68C374.76 140.68 375.705 139.69 375.705 138.505C375.705 137.185 374.61 136.69 373.47 136.285C372.555 135.97 371.925 135.7 371.925 135.04C371.925 134.5 372.33 133.99 373.26 133.99C373.905 133.99 374.43 134.2 374.94 134.575L375.51 133.855C374.94 133.375 374.16 133.03 373.245 133.03C371.655 133.03 370.725 133.93 370.725 135.1C370.725 136.3 371.775 136.825 372.87 137.215C373.695 137.515 374.505 137.83 374.505 138.58C374.505 139.21 374.04 139.705 373.08 139.705C372.18 139.705 371.52 139.435 370.89 138.91L370.32 139.63C370.995 140.29 371.97 140.68 373.035 140.68ZM381.993 140.5H383.448L386.028 133.21H384.798L383.433 137.335C383.208 138.055 382.968 138.79 382.758 139.495H382.698C382.473 138.79 382.248 138.055 382.023 137.335L380.658 133.21H379.368L381.993 140.5ZM387.434 140.5H388.679V133.21H387.434V140.5ZM388.064 131.71C388.544 131.71 388.889 131.395 388.889 130.9C388.889 130.42 388.544 130.09 388.064 130.09C387.584 130.09 387.239 130.42 387.239 130.9C387.239 131.395 387.584 131.71 388.064 131.71ZM393.045 140.68C394.77 140.68 395.715 139.69 395.715 138.505C395.715 137.185 394.62 136.69 393.48 136.285C392.565 135.97 391.935 135.7 391.935 135.04C391.935 134.5 392.34 133.99 393.27 133.99C393.915 133.99 394.44 134.2 394.95 134.575L395.52 133.855C394.95 133.375 394.17 133.03 393.255 133.03C391.665 133.03 390.735 133.93 390.735 135.1C390.735 136.3 391.785 136.825 392.88 137.215C393.705 137.515 394.515 137.83 394.515 138.58C394.515 139.21 394.05 139.705 393.09 139.705C392.19 139.705 391.53 139.435 390.9 138.91L390.33 139.63C391.005 140.29 391.98 140.68 393.045 140.68ZM397.424 140.5H398.669V133.21H397.424V140.5ZM398.054 131.71C398.534 131.71 398.879 131.395 398.879 130.9C398.879 130.42 398.534 130.09 398.054 130.09C397.574 130.09 397.229 130.42 397.229 130.9C397.229 131.395 397.574 131.71 398.054 131.71ZM403.425 140.68C403.92 140.68 404.415 140.545 404.805 140.365L404.55 139.48C404.25 139.615 403.98 139.66 403.71 139.66C402.885 139.66 402.585 139.15 402.585 138.265V134.215H404.565V133.21H402.585V130.87H401.55L401.4 133.21L400.26 133.285V134.215H401.34V138.235C401.34 139.69 401.865 140.68 403.425 140.68ZM408.948 140.68C409.953 140.68 410.733 140.38 411.363 139.93L410.928 139.135C410.418 139.48 409.803 139.675 409.098 139.675C407.718 139.675 406.803 138.685 406.698 137.185H411.603C411.648 136.945 411.663 136.72 411.663 136.45C411.663 134.35 410.598 133.03 408.738 133.03C407.073 133.03 405.468 134.485 405.468 136.855C405.468 139.27 406.998 140.68 408.948 140.68ZM406.698 136.225C406.848 134.83 407.748 134.02 408.768 134.02C409.878 134.02 410.553 134.785 410.553 136.225H406.698ZM415.94 140.68C416.795 140.68 417.575 140.2 418.145 139.645H418.19L418.295 140.5H419.315V129.82H418.07V132.625L418.13 133.87C417.485 133.345 416.93 133.03 416.09 133.03C414.425 133.03 412.925 134.5 412.925 136.87C412.925 139.3 414.11 140.68 415.94 140.68ZM416.21 139.63C414.935 139.63 414.215 138.595 414.215 136.855C414.215 135.19 415.145 134.08 416.3 134.08C416.9 134.08 417.455 134.275 418.07 134.83V138.64C417.47 139.3 416.885 139.63 416.21 139.63ZM424.908 143.635C426.363 143.635 427.128 142.54 427.638 141.1L430.383 133.21H429.168L427.863 137.23C427.668 137.875 427.458 138.625 427.263 139.285H427.203C426.963 138.61 426.723 137.86 426.483 137.23L425.013 133.21H423.723L426.648 140.515L426.483 141.055C426.183 141.955 425.658 142.6 424.848 142.6C424.668 142.6 424.488 142.57 424.308 142.51L424.038 143.485C424.278 143.575 424.563 143.635 424.908 143.635ZM434.566 140.68C436.351 140.68 437.956 139.285 437.956 136.87C437.956 134.425 436.351 133.03 434.566 133.03C432.781 133.03 431.191 134.425 431.191 136.87C431.191 139.285 432.781 140.68 434.566 140.68ZM434.566 139.645C433.321 139.645 432.481 138.535 432.481 136.87C432.481 135.19 433.321 134.065 434.566 134.065C435.826 134.065 436.666 135.19 436.666 136.87C436.666 138.535 435.826 139.645 434.566 139.645ZM441.991 140.68C442.996 140.68 443.716 140.155 444.391 139.36H444.436L444.541 140.5H445.561V133.21H444.316V138.37C443.641 139.225 443.116 139.6 442.381 139.6C441.421 139.6 441.001 139.015 441.001 137.665V133.21H439.756V137.83C439.756 139.69 440.446 140.68 441.991 140.68ZM448.02 140.5H449.265V135.82C449.76 134.59 450.495 134.155 451.11 134.155C451.395 134.155 451.56 134.185 451.77 134.245L452.04 133.18C451.815 133.075 451.59 133.03 451.26 133.03C450.45 133.03 449.7 133.615 449.19 134.53H449.145L449.04 133.21H448.02V140.5ZM457.408 140.5H458.908L459.883 136.585C460.078 135.925 460.213 135.28 460.348 134.425H460.408C460.573 135.28 460.708 135.91 460.888 136.585L461.878 140.5H463.453L465.418 133.21H464.233L463.168 137.44C463.003 138.1 462.883 138.73 462.733 139.51H462.673C462.523 138.73 462.358 138.1 462.193 137.44L461.083 133.21H459.748L458.653 137.44C458.488 138.1 458.353 138.73 458.203 139.51H458.143C458.023 138.73 457.873 138.1 457.708 137.44L456.643 133.21H455.368L457.408 140.5ZM469.886 140.68C470.891 140.68 471.671 140.38 472.301 139.93L471.866 139.135C471.356 139.48 470.741 139.675 470.036 139.675C468.656 139.675 467.741 138.685 467.636 137.185H472.541C472.586 136.945 472.601 136.72 472.601 136.45C472.601 134.35 471.536 133.03 469.676 133.03C468.011 133.03 466.406 134.485 466.406 136.855C466.406 139.27 467.936 140.68 469.886 140.68ZM467.636 136.225C467.786 134.83 468.686 134.02 469.706 134.02C470.816 134.02 471.491 134.785 471.491 136.225H467.636ZM477.612 140.68C479.277 140.68 480.777 139.225 480.777 136.735C480.777 134.485 479.757 133.03 477.882 133.03C477.072 133.03 476.262 133.465 475.587 134.035L475.632 132.73V129.82H474.387V140.5H475.377L475.497 139.75H475.542C476.187 140.335 476.937 140.68 477.612 140.68ZM477.402 139.63C476.922 139.63 476.262 139.435 475.632 138.88V135.07C476.322 134.41 476.952 134.08 477.567 134.08C478.932 134.08 479.487 135.145 479.487 136.75C479.487 138.55 478.602 139.63 477.402 139.63ZM484.598 140.68C486.323 140.68 487.268 139.69 487.268 138.505C487.268 137.185 486.173 136.69 485.033 136.285C484.118 135.97 483.488 135.7 483.488 135.04C483.488 134.5 483.893 133.99 484.823 133.99C485.468 133.99 485.993 134.2 486.503 134.575L487.073 133.855C486.503 133.375 485.723 133.03 484.808 133.03C483.218 133.03 482.288 133.93 482.288 135.1C482.288 136.3 483.338 136.825 484.433 137.215C485.258 137.515 486.068 137.83 486.068 138.58C486.068 139.21 485.603 139.705 484.643 139.705C483.743 139.705 483.083 139.435 482.453 138.91L481.883 139.63C482.558 140.29 483.533 140.68 484.598 140.68ZM488.977 140.5H490.222V133.21H488.977V140.5ZM489.607 131.71C490.087 131.71 490.432 131.395 490.432 130.9C490.432 130.42 490.087 130.09 489.607 130.09C489.127 130.09 488.782 130.42 488.782 130.9C488.782 131.395 489.127 131.71 489.607 131.71ZM494.978 140.68C495.473 140.68 495.968 140.545 496.358 140.365L496.103 139.48C495.803 139.615 495.533 139.66 495.263 139.66C494.438 139.66 494.138 139.15 494.138 138.265V134.215H496.118V133.21H494.138V130.87H493.103L492.953 133.21L491.813 133.285V134.215H492.893V138.235C492.893 139.69 493.418 140.68 494.978 140.68ZM500.501 140.68C501.506 140.68 502.286 140.38 502.916 139.93L502.481 139.135C501.971 139.48 501.356 139.675 500.651 139.675C499.271 139.675 498.356 138.685 498.251 137.185H503.156C503.201 136.945 503.216 136.72 503.216 136.45C503.216 134.35 502.151 133.03 500.291 133.03C498.626 133.03 497.021 134.485 497.021 136.855C497.021 139.27 498.551 140.68 500.501 140.68ZM498.251 136.225C498.401 134.83 499.301 134.02 500.321 134.02C501.431 134.02 502.106 134.785 502.106 136.225H498.251ZM505.647 140.68C506.142 140.68 506.547 140.29 506.547 139.735C506.547 139.165 506.142 138.775 505.647 138.775C505.152 138.775 504.747 139.165 504.747 139.735C504.747 140.29 505.152 140.68 505.647 140.68Z" fill="black"/>
<path d="M517.638 140.68C519.858 140.68 521.178 139.345 521.178 137.755C521.178 136.33 520.368 135.595 519.198 135.1L517.878 134.56C517.068 134.215 516.333 133.945 516.333 133.195C516.333 132.49 516.918 132.07 517.833 132.07C518.583 132.07 519.303 132.37 519.918 132.895L520.878 131.725C520.113 130.99 519.018 130.51 517.833 130.51C515.913 130.51 514.533 131.725 514.533 133.3C514.533 134.725 515.538 135.49 516.513 135.895L517.848 136.48C518.733 136.855 519.363 137.11 519.363 137.89C519.363 138.64 518.763 139.135 517.683 139.135C516.738 139.135 515.763 138.745 515.058 138.07L514.098 139.24C515.028 140.185 516.288 140.68 517.638 140.68ZM525.947 140.68C526.907 140.68 527.807 140.41 528.497 139.9L527.897 138.79C527.387 139.12 526.817 139.3 526.187 139.3C525.017 139.3 524.237 138.58 524.057 137.35H528.707C528.767 137.08 528.797 136.81 528.797 136.45C528.797 134.38 527.717 132.94 525.722 132.94C523.997 132.94 522.317 134.41 522.317 136.81C522.317 139.27 523.907 140.68 525.947 140.68ZM524.057 136.03C524.207 134.92 524.927 134.32 525.767 134.32C526.727 134.32 527.237 134.95 527.237 136.03H524.057ZM533.564 140.68C534.524 140.68 535.424 140.41 536.114 139.9L535.514 138.79C535.004 139.12 534.434 139.3 533.804 139.3C532.634 139.3 531.854 138.58 531.674 137.35H536.324C536.384 137.08 536.414 136.81 536.414 136.45C536.414 134.38 535.334 132.94 533.339 132.94C531.614 132.94 529.934 134.41 529.934 136.81C529.934 139.27 531.524 140.68 533.564 140.68ZM531.674 136.03C531.824 134.92 532.544 134.32 533.384 134.32C534.344 134.32 534.854 134.95 534.854 136.03H531.674ZM542.699 140.5H544.739L547.244 133.12H545.534L544.379 136.915C544.184 137.65 543.959 138.4 543.764 139.15H543.704C543.494 138.4 543.284 137.65 543.074 136.915L541.934 133.12H540.134L542.699 140.5ZM548.505 140.5H550.29V133.12H548.505V140.5ZM549.405 131.86C550.035 131.86 550.47 131.455 550.47 130.855C550.47 130.255 550.035 129.85 549.405 129.85C548.775 129.85 548.34 130.255 548.34 130.855C548.34 131.455 548.775 131.86 549.405 131.86ZM554.515 140.68C556.39 140.68 557.41 139.66 557.41 138.385C557.41 137.11 556.405 136.525 555.265 136.135C554.335 135.82 553.81 135.61 553.81 135.07C553.81 134.635 554.14 134.275 554.875 134.275C555.46 134.275 556 134.455 556.525 134.845L557.29 133.84C556.69 133.315 555.835 132.94 554.83 132.94C553.18 132.94 552.13 133.87 552.13 135.16C552.13 136.33 553.12 136.945 554.185 137.335C555.01 137.635 555.73 137.875 555.73 138.49C555.73 138.985 555.355 139.345 554.575 139.345C553.825 139.345 553.15 139.12 552.505 138.595L551.725 139.6C552.445 140.29 553.495 140.68 554.515 140.68ZM558.92 140.5H560.705V133.12H558.92V140.5ZM559.82 131.86C560.45 131.86 560.885 131.455 560.885 130.855C560.885 130.255 560.45 129.85 559.82 129.85C559.19 129.85 558.755 130.255 558.755 130.855C558.755 131.455 559.19 131.86 559.82 131.86ZM565.485 140.68C566.085 140.68 566.625 140.545 567.015 140.365L566.7 139.12C566.445 139.225 566.19 139.27 565.935 139.27C565.245 139.27 564.9 138.85 564.9 137.995V134.53H566.775V133.12H564.9V130.825H563.43L563.22 133.12L562.08 133.21V134.53H563.13V137.995C563.13 139.6 563.76 140.68 565.485 140.68ZM573.907 140.68C574.687 140.68 575.437 140.245 575.977 139.705H576.037L576.172 140.5H577.612V129.91H575.842V132.565L575.917 133.75C575.347 133.255 574.822 132.94 573.997 132.94C572.377 132.94 570.877 134.41 570.877 136.825C570.877 139.255 572.062 140.68 573.907 140.68ZM574.342 139.21C573.292 139.21 572.692 138.385 572.692 136.795C572.692 135.28 573.457 134.41 574.372 134.41C574.867 134.41 575.347 134.56 575.842 135.01V138.4C575.377 138.97 574.897 139.21 574.342 139.21ZM582.944 140.68C583.904 140.68 584.804 140.41 585.494 139.9L584.894 138.79C584.384 139.12 583.814 139.3 583.184 139.3C582.014 139.3 581.234 138.58 581.054 137.35H585.704C585.764 137.08 585.794 136.81 585.794 136.45C585.794 134.38 584.714 132.94 582.719 132.94C580.994 132.94 579.314 134.41 579.314 136.81C579.314 139.27 580.904 140.68 582.944 140.68ZM581.054 136.03C581.204 134.92 581.924 134.32 582.764 134.32C583.724 134.32 584.234 134.95 584.234 136.03H581.054ZM589.89 140.68C590.49 140.68 591.03 140.545 591.42 140.365L591.105 139.12C590.85 139.225 590.595 139.27 590.34 139.27C589.65 139.27 589.305 138.85 589.305 137.995V134.53H591.18V133.12H589.305V130.825H587.835L587.625 133.12L586.485 133.21V134.53H587.535V137.995C587.535 139.6 588.165 140.68 589.89 140.68ZM594.192 140.68C595.062 140.68 595.782 140.26 596.442 139.69H596.502L596.652 140.5H598.092V136.135C598.092 134.08 597.162 132.94 595.332 132.94C594.162 132.94 593.112 133.39 592.302 133.9L592.932 135.07C593.592 134.68 594.282 134.38 595.002 134.38C595.992 134.38 596.292 135.01 596.322 135.76C593.292 136.09 592.002 136.9 592.002 138.52C592.002 139.81 592.902 140.68 594.192 140.68ZM594.732 139.27C594.132 139.27 593.712 139.03 593.712 138.4C593.712 137.65 594.312 137.2 596.322 136.96V138.52C595.782 139.03 595.332 139.27 594.732 139.27ZM600.126 140.5H601.911V133.12H600.126V140.5ZM601.026 131.86C601.656 131.86 602.091 131.455 602.091 130.855C602.091 130.255 601.656 129.85 601.026 129.85C600.396 129.85 599.961 130.255 599.961 130.855C599.961 131.455 600.396 131.86 601.026 131.86ZM605.776 140.68C606.196 140.68 606.496 140.62 606.706 140.515L606.496 139.21C606.376 139.24 606.316 139.24 606.226 139.24C606.046 139.24 605.851 139.09 605.851 138.655V129.91H604.066V138.565C604.066 139.87 604.531 140.68 605.776 140.68ZM610.223 140.68C612.098 140.68 613.118 139.66 613.118 138.385C613.118 137.11 612.113 136.525 610.973 136.135C610.043 135.82 609.518 135.61 609.518 135.07C609.518 134.635 609.848 134.275 610.583 134.275C611.168 134.275 611.708 134.455 612.233 134.845L612.998 133.84C612.398 133.315 611.543 132.94 610.538 132.94C608.888 132.94 607.838 133.87 607.838 135.16C607.838 136.33 608.828 136.945 609.893 137.335C610.718 137.635 611.438 137.875 611.438 138.49C611.438 138.985 611.063 139.345 610.283 139.345C609.533 139.345 608.858 139.12 608.213 138.595L607.433 139.6C608.153 140.29 609.203 140.68 610.223 140.68Z" fill="#317AE2"/>
<path d="M71.5019 75.8771L76.3223 80.6975M80.4569 73.3493L80.6855 77.2524M68.7444 85.0618L72.6476 85.2904" stroke="#721EA9" stroke-width="2.5" stroke-linecap="round" stroke-linejoin="round"/>
<path d="M140.06 21.51C140.405 20.415 140.72 19.335 141.02 18.195H141.08C141.395 19.335 141.71 20.415 142.07 21.51L142.535 22.995H139.595L140.06 21.51ZM137.045 27H138.32L139.265 24.015H142.85L143.78 27H145.115L141.8 17.16H140.36L137.045 27ZM146.509 27H152.059V25.935H147.769V17.16H146.509V27ZM153.804 27H159.354V25.935H155.064V17.16H153.804V27Z" fill="#747678"/>
<path d="M196.06 21.51C196.405 20.415 196.72 19.335 197.02 18.195H197.08C197.395 19.335 197.71 20.415 198.07 21.51L198.535 22.995H195.595L196.06 21.51ZM193.045 27H194.32L195.265 24.015H198.85L199.78 27H201.115L197.8 17.16H196.36L193.045 27ZM206.083 27.18C207.343 27.18 208.303 26.67 209.098 25.755L208.408 25.005C207.778 25.695 207.073 26.07 206.128 26.07C204.268 26.07 203.098 24.525 203.098 22.05C203.098 19.605 204.328 18.09 206.173 18.09C207.013 18.09 207.658 18.435 208.183 18.975L208.873 18.195C208.288 17.55 207.358 16.98 206.158 16.98C203.653 16.98 201.793 18.915 201.793 22.08C201.793 25.29 203.623 27.18 206.083 27.18ZM212.708 27H213.968V18.225H216.953V17.16H209.738V18.225H212.708V27ZM218.71 27H219.97V17.16H218.71V27ZM224.391 27H225.846L229.041 17.16H227.751L226.116 22.47C225.771 23.625 225.531 24.57 225.171 25.71H225.111C224.751 24.57 224.496 23.625 224.166 22.47L222.636 17.16H221.301L224.391 27ZM230.385 27H231.645V17.16H230.385V27ZM236.366 27H237.626V18.225H240.611V17.16H233.396V18.225H236.366V27ZM242.368 27H243.628V17.16H242.368V27ZM246.308 27H252.128V25.935H247.568V22.365H251.288V21.3H247.568V18.225H251.978V17.16H246.308V27ZM256.948 27.18C259.018 27.18 260.308 25.935 260.308 24.375C260.308 22.92 259.423 22.23 258.283 21.75L256.873 21.135C256.108 20.82 255.253 20.46 255.253 19.515C255.253 18.645 255.973 18.09 257.068 18.09C257.923 18.09 258.688 18.435 259.288 19.005L259.978 18.165C259.288 17.475 258.268 16.98 257.068 16.98C255.283 16.98 253.978 18.09 253.978 19.59C253.978 21.045 255.043 21.735 255.958 22.125L257.383 22.755C258.298 23.16 259.018 23.475 259.018 24.48C259.018 25.425 258.253 26.07 256.963 26.07C255.928 26.07 254.923 25.62 254.203 24.885L253.498 25.71C254.353 26.625 255.538 27.18 256.948 27.18Z" fill="#747678"/>
<path d="M294.35 27H295.535V21.825C295.535 20.805 295.445 19.74 295.37 18.75H295.43C295.76 19.47 296.12 20.205 296.495 20.865L300.005 27H301.355V17.16H300.17V22.29C300.17 23.31 300.26 24.39 300.335 25.41H300.275C299.93 24.69 299.585 23.955 299.21 23.295L295.7 17.16H294.35V27ZM307.677 27.18C310.152 27.18 311.892 25.2 311.892 22.035C311.892 18.9 310.152 16.98 307.677 16.98C305.202 16.98 303.477 18.885 303.477 22.035C303.477 25.2 305.202 27.18 307.677 27.18ZM307.677 26.07C305.922 26.07 304.782 24.495 304.782 22.035C304.782 19.59 305.922 18.09 307.677 18.09C309.432 18.09 310.587 19.59 310.587 22.035C310.587 24.495 309.432 26.07 307.677 26.07ZM315.682 27H316.942V18.225H319.927V17.16H312.712V18.225H315.682V27ZM321.684 27H327.504V25.935H322.944V22.365H326.664V21.3H322.944V18.225H327.354V17.16H321.684V27ZM332.324 27.18C334.394 27.18 335.684 25.935 335.684 24.375C335.684 22.92 334.799 22.23 333.659 21.75L332.249 21.135C331.484 20.82 330.629 20.46 330.629 19.515C330.629 18.645 331.349 18.09 332.444 18.09C333.299 18.09 334.064 18.435 334.664 19.005L335.354 18.165C334.664 17.475 333.644 16.98 332.444 16.98C330.659 16.98 329.354 18.09 329.354 19.59C329.354 21.045 330.419 21.735 331.334 22.125L332.759 22.755C333.674 23.16 334.394 23.475 334.394 24.48C334.394 25.425 333.629 26.07 332.339 26.07C331.304 26.07 330.299 25.62 329.579 24.885L328.874 25.71C329.729 26.625 330.914 27.18 332.324 27.18Z" fill="#747678"/>
<path d="M370.35 27H376.17V25.935H371.61V22.365H375.33V21.3H371.61V18.225H376.02V17.16H370.35V27ZM378.245 27H379.4V21.57C379.4 20.7 379.295 19.485 379.22 18.63H379.28L380.06 20.925L381.89 26.01H382.805L384.65 20.925L385.415 18.63H385.475C385.4 19.485 385.295 20.7 385.295 21.57V27H386.48V17.16H384.905L383.045 22.425C382.805 23.115 382.625 23.745 382.4 24.48H382.34C382.13 23.745 381.92 23.115 381.68 22.425L379.82 17.16H378.245V27ZM390.869 21.51C391.214 20.415 391.529 19.335 391.829 18.195H391.889C392.204 19.335 392.519 20.415 392.879 21.51L393.344 22.995H390.404L390.869 21.51ZM387.854 27H389.129L390.074 24.015H393.659L394.589 27H395.924L392.609 17.16H391.169L387.854 27ZM397.318 27H398.578V17.16H397.318V27ZM401.258 27H406.808V25.935H402.518V17.16H401.258V27ZM410.946 27.18C413.016 27.18 414.306 25.935 414.306 24.375C414.306 22.92 413.421 22.23 412.281 21.75L410.871 21.135C410.106 20.82 409.251 20.46 409.251 19.515C409.251 18.645 409.971 18.09 411.066 18.09C411.921 18.09 412.686 18.435 413.286 19.005L413.976 18.165C413.286 17.475 412.266 16.98 411.066 16.98C409.281 16.98 407.976 18.09 407.976 19.59C407.976 21.045 409.041 21.735 409.956 22.125L411.381 22.755C412.296 23.16 413.016 23.475 413.016 24.48C413.016 25.425 412.251 26.07 410.961 26.07C409.926 26.07 408.921 25.62 408.201 24.885L407.496 25.71C408.351 26.625 409.536 27.18 410.946 27.18Z" fill="#747678"/>
<path d="M448.35 27H449.61V17.16H448.35V27ZM452.29 27H453.475V21.825C453.475 20.805 453.385 19.74 453.31 18.75H453.37C453.7 19.47 454.06 20.205 454.435 20.865L457.945 27H459.295V17.16H458.11V22.29C458.11 23.31 458.2 24.39 458.275 25.41H458.215C457.87 24.69 457.525 23.955 457.15 23.295L453.64 17.16H452.29V27ZM463.728 27H465.183L468.378 17.16H467.088L465.453 22.47C465.108 23.625 464.868 24.57 464.508 25.71H464.448C464.088 24.57 463.833 23.625 463.503 22.47L461.973 17.16H460.638L463.728 27ZM473.206 27.18C475.681 27.18 477.421 25.2 477.421 22.035C477.421 18.9 475.681 16.98 473.206 16.98C470.731 16.98 469.006 18.885 469.006 22.035C469.006 25.2 470.731 27.18 473.206 27.18ZM473.206 26.07C471.451 26.07 470.311 24.495 470.311 22.035C470.311 19.59 471.451 18.09 473.206 18.09C474.961 18.09 476.116 19.59 476.116 22.035C476.116 24.495 474.961 26.07 473.206 26.07ZM479.537 27H480.797V17.16H479.537V27ZM487.197 27.18C488.457 27.18 489.417 26.67 490.212 25.755L489.522 25.005C488.892 25.695 488.187 26.07 487.242 26.07C485.382 26.07 484.212 24.525 484.212 22.05C484.212 19.605 485.442 18.09 487.287 18.09C488.127 18.09 488.772 18.435 489.297 18.975L489.987 18.195C489.402 17.55 488.472 16.98 487.272 16.98C484.767 16.98 482.907 18.915 482.907 22.08C482.907 25.29 484.737 27.18 487.197 27.18ZM492.046 27H497.866V25.935H493.306V22.365H497.026V21.3H493.306V18.225H497.716V17.16H492.046V27ZM502.686 27.18C504.756 27.18 506.046 25.935 506.046 24.375C506.046 22.92 505.161 22.23 504.021 21.75L502.611 21.135C501.846 20.82 500.991 20.46 500.991 19.515C500.991 18.645 501.711 18.09 502.806 18.09C503.661 18.09 504.426 18.435 505.026 19.005L505.716 18.165C505.026 17.475 504.006 16.98 502.806 16.98C501.021 16.98 499.716 18.09 499.716 19.59C499.716 21.045 500.781 21.735 501.696 22.125L503.121 22.755C504.036 23.16 504.756 23.475 504.756 24.48C504.756 25.425 503.991 26.07 502.701 26.07C501.666 26.07 500.661 25.62 499.941 24.885L499.236 25.71C500.091 26.625 501.276 27.18 502.686 27.18Z" fill="#747678"/>
<path d="M540.35 27H541.61V22.605H545.36V21.54H541.61V18.225H546.02V17.16H540.35V27ZM547.777 27H549.037V17.16H547.777V27ZM551.717 27H557.267V25.935H552.977V17.16H551.717V27ZM559.012 27H564.832V25.935H560.272V22.365H563.992V21.3H560.272V18.225H564.682V17.16H559.012V27ZM569.652 27.18C571.722 27.18 573.012 25.935 573.012 24.375C573.012 22.92 572.127 22.23 570.987 21.75L569.577 21.135C568.812 20.82 567.957 20.46 567.957 19.515C567.957 18.645 568.677 18.09 569.772 18.09C570.627 18.09 571.392 18.435 571.992 19.005L572.682 18.165C571.992 17.475 570.972 16.98 569.772 16.98C567.987 16.98 566.682 18.09 566.682 19.59C566.682 21.045 567.747 21.735 568.662 22.125L570.087 22.755C571.002 23.16 571.722 23.475 571.722 24.48C571.722 25.425 570.957 26.07 569.667 26.07C568.632 26.07 567.627 25.62 566.907 24.885L566.202 25.71C567.057 26.625 568.242 27.18 569.652 27.18Z" fill="#747678"/>
<rect x="294" y="30" width="42" height="2" rx="1" fill="#721EA9"/>
<defs>
<linearGradient id="paint0_linear" x1="352.5" y1="0" x2="352.5" y2="248" gradientUnits="userSpaceOnUse">
<stop stop-color="#F7F7F7"/>
<stop offset="1" stop-color="#F7F7F7" stop-opacity="0"/>
</linearGradient>
</defs>
</svg>
