<svg width="122" height="102" viewBox="0 0 122 102" fill="none" xmlns="http://www.w3.org/2000/svg">
<path d="M116.548 90.866C116.546 88.369 115.653 85.9543 114.028 84.0555C112.403 82.1566 110.153 80.8979 107.681 80.5054M107.681 80.5054C105.645 79.5274 105.445 76.5782 107.038 74.9584C108.723 73.2316 108.569 70.6338 108.569 68.1583C108.569 62.9322 105.813 59.2953 100.606 59.2953C95.3691 59.2953 92.6126 62.9322 92.6126 68.1583C92.6126 70.6338 92.4595 73.2316 94.144 74.9584C97.513 78.3508 95.5222 79.5274 93.5008 80.5054M107.681 80.5054L105.92 81.8196C104.384 82.9725 102.513 83.596 100.591 83.596C98.6687 83.596 96.7983 82.9725 95.2619 81.8196L93.5008 80.5054M93.5008 80.5054C91.5893 80.809 89.7987 81.633 88.3262 82.8867C86.8537 84.1404 85.7563 85.7752 85.1549 87.6111M107.681 65.4994H100.943C100.025 65.5013 99.1222 65.2658 98.3225 64.8159C97.5227 64.366 96.8534 63.717 96.3798 62.9322L95.2772 61.0831M24.7425 80.4901C22.7058 79.5274 22.5067 76.5782 24.0841 74.9584C25.7686 73.2316 25.6154 70.6338 25.6154 68.1583C25.6154 62.9322 22.859 59.2953 17.6523 59.2953C12.415 59.2953 9.6739 62.9322 9.6739 68.1583C9.6739 70.6338 9.52077 73.2316 11.2053 74.9584C14.559 78.3508 12.5835 79.5274 10.5468 80.5054L12.3079 81.8196C13.8456 82.9762 15.719 83.6018 17.6447 83.6018C19.5703 83.6018 21.4437 82.9762 22.9815 81.8196L24.7425 80.5054C26.6514 80.8116 28.4387 81.6368 29.9083 82.8903C31.3779 84.1439 32.4729 85.7772 33.0732 87.6111M1.68018 90.866C1.68242 88.3667 2.57814 85.9502 4.20625 84.0511C5.83437 82.1519 8.08807 80.8947 10.5621 80.5054M24.7425 65.4994H18.0045C17.0864 65.5013 16.1835 65.2658 15.3837 64.8159C14.584 64.366 13.9147 63.717 13.4411 62.9322L12.3232 61.0831M84.6342 100.6C84.6306 96.6081 83.2034 92.7477 80.6081 89.7099C78.0127 86.6721 74.4186 84.6551 70.4691 84.02M70.4691 84.02C67.2073 82.4614 66.8857 77.7395 69.4278 75.157C72.1383 72.4064 71.878 68.2194 71.878 64.2616C71.878 55.9181 67.4676 50.1113 59.1217 50.1113C50.7604 50.1113 46.3501 55.9181 46.3501 64.2616C46.3501 68.2347 46.1051 72.4064 48.8003 75.157C54.1754 80.5665 51.0208 82.4614 47.759 84.02M70.4691 84.02L67.6514 86.1288C65.1916 87.9796 62.1947 88.9807 59.114 88.9807C56.0334 88.9807 53.0365 87.9796 50.5767 86.1288L47.759 84.02M47.759 84.02C43.8095 84.6551 40.2154 86.6721 37.62 89.7099C35.0246 92.7477 33.5974 96.6081 33.5938 100.6M70.4691 60.0288H57.866C56.9475 60.0249 56.0458 59.7835 55.2487 59.3282C54.4515 58.873 53.7863 58.2193 53.3178 57.431L50.6073 52.9383" stroke="#4A8AE6" stroke-width="1.5" stroke-linecap="round" stroke-linejoin="round"/>
<path d="M98.646 0.599609C94.5068 0.600317 90.4513 1.76354 86.9435 3.95623C83.4356 6.14891 80.6171 9.28253 78.8102 12.9986C77.0033 16.7148 76.281 20.8633 76.7259 24.9698C77.1709 29.0764 78.7651 32.975 81.3263 36.2198C81.4335 36.3726 81.4948 36.5254 81.4948 36.7088V43.2338C81.4948 43.8298 82.1532 44.1965 82.6739 43.8756L86.5023 41.4918C86.7473 41.339 87.0689 41.339 87.3139 41.4918C90.2287 43.2305 93.5065 44.2739 96.8918 44.5408C100.277 44.8076 103.678 44.2907 106.831 43.0303C109.983 41.7699 112.801 39.8001 115.065 37.2744C117.329 34.7486 118.977 31.7353 119.882 28.4693C120.788 25.2032 120.924 21.7727 120.283 18.4452C119.641 15.1176 118.237 11.983 116.182 9.28555C114.127 6.58813 111.475 4.40085 108.433 2.89422C105.391 1.38759 102.042 0.60231 98.646 0.599609Z" fill="#4A8AE6" stroke="#4A8AE6"/>
<path fill-rule="evenodd" clip-rule="evenodd" d="M105.66 16.9974C106.539 16.998 107.395 16.7244 108.11 16.215C108.825 15.7055 109.363 14.9856 109.647 14.1562C109.932 13.3267 109.949 12.4293 109.697 11.5894C109.445 10.7496 108.936 10.0094 108.242 9.47261C107.547 8.9358 106.701 8.62923 105.824 8.59583C104.946 8.56242 104.079 8.80385 103.346 9.28631C102.612 9.76876 102.048 10.4681 101.733 11.2863C101.417 12.1046 101.366 13.0008 101.587 13.8495L91.7399 19.5799C91.1477 18.9995 90.3964 18.6073 89.581 18.4531C88.7655 18.2988 87.9225 18.3894 87.1586 18.7132C86.3947 19.0371 85.7442 19.5798 85.2894 20.2726C84.8347 20.9655 84.596 21.7773 84.6037 22.6055C84.6032 23.4306 84.8462 24.2375 85.3022 24.9257C85.7582 25.6138 86.4072 26.1529 87.1681 26.4755C87.9291 26.7981 88.7683 26.8901 89.5813 26.74C90.3943 26.5898 91.145 26.2042 91.7399 25.6312L101.587 31.3616C101.333 32.3435 101.445 33.3837 101.9 34.2902C102.355 35.1967 103.123 35.9085 104.063 36.2943C105.002 36.6801 106.05 36.7139 107.013 36.3895C107.975 36.0651 108.788 35.4043 109.301 34.529C109.813 33.6538 109.992 32.623 109.803 31.6268C109.614 30.6305 109.07 29.7361 108.273 29.1083C107.475 28.4805 106.476 28.1618 105.461 28.2108C104.447 28.2598 103.484 28.6733 102.75 29.375L92.9037 23.6599C93.0833 22.9684 93.0833 22.2426 92.9037 21.5511L102.75 15.8207C103.527 16.5794 104.573 17.0021 105.66 16.9974Z" fill="white"/>
</svg>
