<svg width="115" height="102" viewBox="0 0 115 102" fill="none" xmlns="http://www.w3.org/2000/svg">
<path d="M88.7183 0.700195C83.8436 0.700589 79.0678 2.07667 74.9386 4.67059C70.8094 7.26451 67.4941 10.9712 65.373 15.3655C63.2519 19.7598 62.411 24.6636 62.9466 29.5146C63.4822 34.3656 65.3727 38.9671 68.4012 42.7915C68.4978 42.9157 68.5392 43.0677 68.5392 43.2196V51.3671C68.5392 51.9195 69.1461 52.2509 69.6012 51.961L74.5391 48.8676C74.6502 48.7963 74.7795 48.7583 74.9115 48.7583C75.0436 48.7583 75.1728 48.7963 75.2839 48.8676C78.7057 50.9428 82.5605 52.1971 86.547 52.5326C90.5335 52.868 94.5434 52.2755 98.2631 50.8013C101.983 49.327 105.311 47.0112 107.988 44.0348C110.665 41.0584 112.618 37.5022 113.694 33.6445C114.77 29.7868 114.94 25.7322 114.19 21.7978C113.441 17.8635 111.792 14.1561 109.374 10.9657C106.955 7.77536 103.832 5.18855 100.248 3.40767C96.6651 1.62679 92.7189 0.70013 88.7183 0.700195Z" fill="#4A8AE6"/>
<path fill-rule="evenodd" clip-rule="evenodd" d="M88.7182 29.0924C88.0744 29.0924 87.4569 28.8363 87.0017 28.3805C86.5464 27.9247 86.2906 27.3065 86.2906 26.6619C86.2906 26.0173 86.5464 25.3991 87.0017 24.9433C87.4569 24.4875 88.0744 24.2314 88.7182 24.2314C89.362 24.2314 89.9795 24.4875 90.4347 24.9433C90.89 25.3991 91.1458 26.0173 91.1458 26.6619C91.1458 27.3065 90.89 27.9247 90.4347 28.3805C89.9795 28.8363 89.362 29.0924 88.7182 29.0924ZM101.684 29.0924C101.04 29.0924 100.422 28.8363 99.9671 28.3805C99.5118 27.9247 99.2561 27.3065 99.2561 26.6619C99.2561 26.0173 99.5118 25.3991 99.9671 24.9433C100.422 24.4875 101.04 24.2314 101.684 24.2314C102.327 24.2314 102.945 24.4875 103.4 24.9433C103.855 25.3991 104.111 26.0173 104.111 26.6619C104.111 27.3065 103.855 27.9247 103.4 28.3805C102.945 28.8363 102.327 29.0924 101.684 29.0924ZM75.7528 29.0924C75.1089 29.0924 74.4915 28.8363 74.0362 28.3805C73.581 27.9247 73.3252 27.3065 73.3252 26.6619C73.3252 26.0173 73.581 25.3991 74.0362 24.9433C74.4915 24.4875 75.1089 24.2314 75.7528 24.2314C76.3966 24.2314 77.0141 24.4875 77.4693 24.9433C77.9246 25.3991 78.1803 26.0173 78.1803 26.6619C78.1803 27.3065 77.9246 27.9247 77.4693 28.3805C77.0141 28.8363 76.3966 29.0924 75.7528 29.0924Z" fill="white"/>
<path d="M44.8289 73.7662H43.8082H44.8427H44.8289ZM49.2013 50.8287C49.2013 37.9859 38.8014 27.5597 25.9601 27.5597V25.4883C32.6728 25.4883 39.1105 28.1581 43.8571 32.9103C48.6036 37.6626 51.2702 44.108 51.2702 50.8287H49.2013ZM44.1944 65.2596C47.4457 61.1547 49.2107 56.0675 49.2013 50.8287H51.2702C51.2702 56.7667 49.2289 62.2215 45.822 66.5438L44.1944 65.2596ZM43.8082 73.7662V66.3781H45.8772V73.7662H43.8082ZM39.8358 70.7834L44.222 73.5314L43.1324 75.2852L38.7462 72.5371L39.8496 70.7834H39.8358ZM25.9601 74.0976C30.3463 74.0976 34.4428 72.8824 37.9462 70.7695L39.0083 72.5371C35.2014 74.8433 30.7325 76.169 25.9601 76.169V74.0976ZM2.71885 50.8287C2.71885 63.6715 13.1188 74.0976 25.9601 74.0976V76.169C19.2474 76.169 12.8097 73.4993 8.06308 68.747C3.3165 63.9948 0.649902 57.5493 0.649902 50.8287H2.71885ZM25.9601 27.5597C13.1326 27.5597 2.71885 37.972 2.71885 50.8287H0.649902C0.649902 44.108 3.3165 37.6626 8.06308 32.9103C12.8097 28.1581 19.2474 25.4883 25.9601 25.4883V27.5597ZM38.7462 72.5371C38.829 72.5924 38.9393 72.5924 39.0221 72.5371L37.9462 70.7695C38.5117 70.4243 39.2565 70.4105 39.8358 70.7695L38.7324 72.5371H38.7462ZM45.8772 73.7662C45.8767 74.0866 45.7907 74.401 45.6279 74.6769C45.4651 74.9527 45.2316 75.1799 44.9515 75.3349C44.6715 75.4899 44.3551 75.567 44.0352 75.5583C43.7153 75.5496 43.4036 75.4553 43.1324 75.2852L44.2358 73.5314C44.1939 73.5038 44.1453 73.4881 44.0952 73.4861C44.0451 73.4841 43.9954 73.4958 43.9514 73.5199C43.9074 73.544 43.8709 73.5797 43.8456 73.6231C43.8204 73.6665 43.8075 73.716 43.8082 73.7662H45.8772ZM45.822 66.5438C45.8578 66.496 45.8772 66.4379 45.8772 66.3781H43.8082C43.8082 65.9638 43.9462 65.5634 44.1944 65.2596L45.822 66.5438Z" fill="#4A8AE6"/>
<path d="M81.0633 98.5265L79.1047 99.5208C76.0742 100.792 72.7135 101.043 69.5279 100.238C66.3423 99.4322 63.5039 97.6131 61.4395 95.054C59.3752 92.4948 58.1963 89.3338 58.0803 86.0463C57.9642 82.7588 58.9172 79.5224 60.796 76.8237C62.6747 74.125 65.3777 72.1098 68.4986 71.0812C71.6194 70.0525 74.9895 70.0659 78.1021 71.1194C81.2147 72.1729 83.9016 74.2095 85.7589 76.9231C87.6161 79.6366 88.5434 82.8805 88.4012 86.167V86.6779C88.4012 89.7575 85.9185 92.257 82.8288 92.257H82.6909C81.5446 92.2533 80.4466 91.7949 79.6373 90.9821C78.8281 90.1693 78.3737 89.0684 78.3737 87.9208V86.0427M72.8565 92.257C71.3932 92.257 69.9899 91.675 68.9552 90.6391C67.9206 89.6032 67.3393 88.1982 67.3393 86.7332V83.9713C67.3393 82.5063 67.9206 81.1013 68.9552 80.0654C69.9899 79.0295 71.3932 78.4475 72.8565 78.4475C74.3197 78.4475 75.7231 79.0295 76.7578 80.0654C77.7924 81.1013 78.3737 82.5063 78.3737 83.9713V86.7332C78.3737 88.1982 77.7924 89.6032 76.7578 90.6391C75.7231 91.675 74.3197 92.257 72.8565 92.257Z" stroke="#4A8AE6" stroke-width="1.5" stroke-linecap="round" stroke-linejoin="round"/>
<path d="M18.1118 37.295C19.4911 37.295 20.7738 38.1236 21.2428 39.4493L22.6221 43.3712C23.0911 44.6969 22.6221 46.1607 21.4359 47.0031C21.1672 47.1931 20.9779 47.4757 20.9041 47.7966C20.8303 48.1176 20.8773 48.4545 21.0359 48.7431C22.6031 51.6098 24.8597 54.04 27.6014 55.8135C27.9844 56.0501 28.434 56.1551 28.8821 56.1127C29.3301 56.0704 29.7521 55.8829 30.0841 55.5788C30.544 55.1886 31.0948 54.9208 31.6854 54.8001C32.2761 54.6794 32.8876 54.7097 33.4634 54.8883C34.7875 55.3026 36.2358 55.5788 37.491 56.1588C37.9056 56.3405 38.2786 56.6054 38.5869 56.9371C38.8953 57.2688 39.1324 57.6603 39.2836 58.0874C39.4349 58.5145 39.497 58.9681 39.4663 59.4202C39.4355 59.8723 39.3125 60.3133 39.1048 60.7159C38.1806 62.4697 37.3255 64.403 34.9944 64.3616C23.2704 64.1683 16.2497 52.6788 12.6084 42.9845C12.1946 41.7417 12.567 40.3883 13.5601 39.5322C14.636 38.6069 16.6221 37.2812 18.1118 37.295Z" fill="#4A8AE6"/>
</svg>
