<svg width="160" height="101" viewBox="0 0 160 101" fill="none" xmlns="http://www.w3.org/2000/svg">
<path d="M80.5457 83.8676C98.1184 83.8676 112.364 69.5979 112.364 51.9953C112.364 34.3928 98.1184 20.123 80.5457 20.123C62.973 20.123 48.7275 34.3928 48.7275 51.9953C48.7275 69.5979 62.973 83.8676 80.5457 83.8676Z" fill="#4A8AE6"/>
<path fill-rule="evenodd" clip-rule="evenodd" d="M76.7267 41.955C76.7267 42.3056 77.1245 42.4968 77.379 42.2737L85.5085 35.4849C85.5522 35.4475 85.5873 35.4011 85.6113 35.3488C85.6353 35.2966 85.6478 35.2397 85.6478 35.1822C85.6478 35.1246 85.6353 35.0677 85.6113 35.0155C85.5873 34.9632 85.5522 34.9168 85.5085 34.8794L77.3949 28.0906C77.3365 28.036 77.2631 28.0003 77.1842 27.9881C77.1053 27.9759 77.0246 27.9877 76.9525 28.0221C76.8804 28.0565 76.8203 28.1118 76.7801 28.1809C76.7398 28.2499 76.7212 28.3295 76.7267 28.4093V34.1144C73.7241 34.7393 70.9257 36.1076 68.5868 38.0945C66.2479 40.0813 64.4431 42.6234 63.3373 45.4887C62.2314 48.3539 61.8597 51.451 62.256 54.4971C62.6524 57.5432 63.8042 60.4414 65.6063 62.927C65.7285 63.0975 65.883 63.2423 66.0611 63.353C66.2392 63.4638 66.4373 63.5383 66.6441 63.5723C66.8509 63.6063 67.0624 63.5992 67.2665 63.5514C67.4706 63.5036 67.6633 63.4159 67.8335 63.2935C68.0038 63.1711 68.1483 63.0163 68.2589 62.8379C68.3694 62.6595 68.4438 62.4611 68.4778 62.2539C68.5118 62.0467 68.5047 61.8349 68.4569 61.6304C68.4092 61.426 68.3217 61.233 68.1995 61.0624C66.7436 59.0545 65.8005 56.7201 65.4527 54.2631C65.1048 51.806 65.3626 49.301 66.2037 46.9668C67.0448 44.6325 68.4436 42.54 70.2779 40.8719C72.1122 39.2038 74.3262 38.0109 76.7267 37.3973V41.971V41.955ZM84.3631 62.0027C84.3625 61.9272 84.3405 61.8535 84.2997 61.7901C84.2589 61.7267 84.2009 61.6762 84.1326 61.6445C84.0643 61.6128 83.9884 61.6012 83.9137 61.611C83.839 61.6208 83.7687 61.6516 83.7108 61.6999L75.5813 68.4887C75.5376 68.5261 75.5026 68.5725 75.4785 68.6248C75.4545 68.6771 75.442 68.7339 75.442 68.7915C75.442 68.849 75.4545 68.9059 75.4785 68.9582C75.5026 69.0104 75.5376 69.0569 75.5813 69.0943L83.6949 75.8831C83.9654 76.1062 84.3631 75.9149 84.3631 75.5803V70.1142C87.3483 69.4679 90.1253 68.0858 92.4427 66.0932C94.7601 64.1005 96.5446 61.5602 97.6346 58.7024C98.7246 55.8446 99.0856 52.7596 98.685 49.7267C98.2844 46.6938 97.1348 43.809 95.3404 41.3335C95.2221 41.1544 95.0688 41.0011 94.8899 40.8828C94.7109 40.7645 94.51 40.6837 94.299 40.6451C94.0881 40.6066 93.8716 40.6112 93.6625 40.6586C93.4533 40.706 93.256 40.7952 93.0821 40.921C92.9083 41.0467 92.7617 41.2064 92.651 41.3903C92.5403 41.5743 92.4679 41.7787 92.4381 41.9914C92.4083 42.2041 92.4218 42.4206 92.4776 42.628C92.5334 42.8353 92.6306 43.0292 92.7631 43.198C94.2127 45.197 95.1541 47.5197 95.5059 49.9651C95.8576 52.4105 95.6091 54.905 94.7818 57.2325C93.9546 59.5601 92.5734 61.6506 90.758 63.3232C88.9426 64.9957 86.7476 66.1998 84.3631 66.8313V62.0027Z" fill="white"/>
<path d="M154.873 28.8886C154.873 29.2056 154.999 29.5096 155.222 29.7338C155.446 29.9579 155.75 30.0838 156.066 30.0838C156.383 30.0838 156.686 29.9579 156.91 29.7338C157.134 29.5096 157.259 29.2056 157.259 28.8886H154.873ZM133.443 28.8886C133.443 29.2056 133.569 29.5096 133.793 29.7338C134.017 29.9579 134.32 30.0838 134.637 30.0838C134.953 30.0838 135.256 29.9579 135.48 29.7338C135.704 29.5096 135.83 29.2056 135.83 28.8886H133.443ZM141.78 20.1716L141.048 21.1277L141.764 20.1716H141.78ZM154.873 26.2751V28.8886H157.259V26.2751H154.873ZM149.941 20.4584C151.318 20.6851 152.57 21.3944 153.473 22.4597C154.376 23.5251 154.873 24.8773 154.873 26.2751H157.259C157.258 24.3075 156.558 22.4045 155.284 20.9067C154.01 19.4089 152.246 18.4139 150.307 18.0999L149.941 20.4584ZM145.359 6.17962C146.807 6.17962 147.809 6.67364 148.446 7.42264C149.114 8.20351 149.527 9.38279 149.527 10.9445H151.914C151.914 9.00032 151.389 7.19953 150.259 5.87683C149.648 5.18726 148.891 4.64229 148.044 4.28127C147.196 3.92025 146.279 3.75218 145.359 3.7892V6.17962ZM148.827 14.7055C148.032 15.5341 147.714 16.6497 147.809 17.6855C147.905 18.7373 148.477 19.821 149.607 20.3628L150.641 18.1955C150.402 18.0839 150.212 17.8289 150.164 17.4465C150.145 17.2526 150.167 17.0569 150.23 16.8726C150.294 16.6883 150.396 16.5199 150.53 16.3788L148.827 14.7055ZM133.443 26.2751V28.8886H135.83V26.2751H133.443ZM140.396 18.0999C138.457 18.4139 136.692 19.4089 135.419 20.9067C134.145 22.4045 133.445 24.3075 133.443 26.2751H135.83C135.83 24.8773 136.326 23.5251 137.23 22.4597C138.133 21.3944 139.385 20.6851 140.762 20.4584L140.396 18.0999ZM145.359 3.7892C143.291 3.7892 141.621 4.52226 140.459 5.8609C139.314 7.30647 138.727 9.11671 138.805 10.9605H141.191C141.191 9.38279 141.605 8.20351 142.257 7.42264C142.893 6.67364 143.896 6.17962 145.359 6.17962V3.7892ZM140.173 16.3788C140.443 16.6497 140.571 17.064 140.539 17.4465C140.491 17.8289 140.316 18.0839 140.062 18.1955L141.096 20.3628C141.605 20.114 142.04 19.7359 142.359 19.2662C142.677 18.7965 142.867 18.2515 142.909 17.6855C142.964 17.1433 142.899 16.5958 142.721 16.0811C142.542 15.5664 142.254 15.0969 141.875 14.7055L140.173 16.3788ZM149.4 18.323L148.223 19.2154L149.655 21.1277L150.848 20.2353L149.416 18.323H149.4ZM142.496 19.2154L141.302 18.323L139.871 20.2353L141.048 21.1277L142.48 19.2154H142.496ZM138.805 10.9445C138.805 11.7254 138.773 12.6975 138.9 13.6059C139.043 14.562 139.377 15.5501 140.173 16.3788L141.875 14.7055C141.557 14.3867 141.366 13.9087 141.271 13.2712C141.159 12.586 141.191 11.837 141.191 10.9445H138.805ZM149.527 10.9445C149.527 11.8529 149.543 12.586 149.448 13.2712C149.352 13.9087 149.162 14.3867 148.827 14.7055L150.53 16.3788C151.341 15.5501 151.675 14.5461 151.802 13.6059C151.93 12.6975 151.914 11.7254 151.914 10.9445H149.527ZM148.223 19.2313C147.397 19.852 146.392 20.1875 145.359 20.1875C144.327 20.1875 143.322 19.852 142.496 19.2313L141.064 21.1277C142.303 22.0587 143.81 22.562 145.359 22.562C146.908 22.562 148.416 22.0587 149.655 21.1277L148.223 19.2154V19.2313ZM145.63 10.1637H150.116V7.77324H145.63V10.1637ZM140.873 6.96049L142.305 8.63379L144.118 7.07205L142.687 5.39875L140.873 6.96049ZM145.63 7.77324C145.057 7.77324 144.5 7.51826 144.118 7.07205L142.305 8.63379C143.132 9.58996 144.357 10.1637 145.63 10.1637V7.77324Z" fill="#4A8AE6"/>
<path d="M143.386 80.6811V79.8843M143.386 87.0556V86.2587M153.727 87.8524V87.0556M153.727 94.2268V93.43M138.613 80.6811V79.8843M138.613 87.0556V86.2587M143.386 93.43V92.6332M138.613 93.43V92.6332M148.954 90.5615V83.8683C148.954 83.4457 149.122 83.0403 149.42 82.7415C149.718 82.4426 150.123 82.2747 150.545 82.2747H156.909C157.33 82.2747 157.735 82.4426 158.034 82.7415C158.332 83.0403 158.499 83.4457 158.499 83.8683V98.2109C158.499 98.6335 158.332 99.0389 158.034 99.3377C157.735 99.6366 157.33 99.8045 156.909 99.8045H145.772M133.045 90.5615V75.9003C133.045 75.4776 133.213 75.0723 133.511 74.7734C133.809 74.4745 134.214 74.3066 134.636 74.3066H147.363C147.785 74.3066 148.19 74.4745 148.488 74.7734C148.786 75.0723 148.954 75.4776 148.954 75.9003V98.2109C148.954 98.6335 148.786 99.0389 148.488 99.3377C148.19 99.6366 147.785 99.8045 147.363 99.8045H134.636C134.214 99.8045 133.809 99.6366 133.511 99.3377C133.213 99.0389 133.045 98.6335 133.045 98.2109V90.5456V90.5615Z" stroke="#4A8AE6" stroke-width="1.5" stroke-linecap="round" stroke-linejoin="round"/>
<path d="M18.8173 82.9439C18.8804 83.0928 18.973 83.2272 19.0895 83.3392C19.206 83.4511 19.3439 83.5383 19.495 83.5953C19.6461 83.6523 19.8071 83.678 19.9684 83.6708C20.1296 83.6637 20.2878 83.6238 20.4332 83.5537C20.5787 83.4835 20.7084 83.3845 20.8145 83.2627C20.9207 83.1409 21.0011 82.9987 21.0508 82.8449C21.1005 82.6911 21.1185 82.5287 21.1038 82.3677C21.0891 82.2067 21.0419 82.0503 20.9651 81.9081L18.8173 82.9439ZM16.9082 86.9598L17.306 85.8284C17.2849 85.8224 17.2637 85.8171 17.2423 85.8124L16.9082 86.9598ZM14.9992 90.9439C14.9292 90.8026 14.8321 90.6765 14.7135 90.5729C14.5948 90.4692 14.457 90.3899 14.3078 90.3396C14.0064 90.238 13.6771 90.2605 13.3923 90.402C13.1075 90.5436 12.8905 90.7928 12.7891 91.0946C12.6877 91.3965 12.7101 91.7263 12.8514 92.0116L14.9992 90.9598V90.9439ZM18.1014 93.2546C18.1014 92.9376 17.9757 92.6336 17.752 92.4095C17.5282 92.1853 17.2247 92.0594 16.9082 92.0594C16.5918 92.0594 16.2883 92.1853 16.0645 92.4095C15.8408 92.6336 15.7151 92.9376 15.7151 93.2546H18.1014ZM15.7151 95.0235C15.7151 95.3405 15.8408 95.6445 16.0645 95.8687C16.2883 96.0928 16.5918 96.2187 16.9082 96.2187C17.2247 96.2187 17.5282 96.0928 17.752 95.8687C17.9757 95.6445 18.1014 95.3405 18.1014 95.0235H15.7151ZM18.1014 79.0874C18.1014 78.7704 17.9757 78.4664 17.752 78.2422C17.5282 78.0181 17.2247 77.8922 16.9082 77.8922C16.5918 77.8922 16.2883 78.0181 16.0645 78.2422C15.8408 78.4664 15.7151 78.7704 15.7151 79.0874H18.1014ZM15.7151 80.6491C15.7151 80.9661 15.8408 81.2701 16.0645 81.4943C16.2883 81.7184 16.5918 81.8443 16.9082 81.8443C17.2247 81.8443 17.5282 81.7184 17.752 81.4943C17.9757 81.2701 18.1014 80.9661 18.1014 80.6491H15.7151ZM20.9651 81.9081C20.6102 81.1742 20.0567 80.555 19.3675 80.1211C18.6784 79.6872 17.8813 79.456 17.0673 79.4539V81.8443C17.831 81.8443 18.4992 82.2905 18.8173 82.9599L20.9651 81.9081ZM17.0673 79.4539C15.9155 79.4539 14.8107 79.9123 13.9962 80.7282C13.1817 81.5441 12.7242 82.6506 12.7242 83.8045H15.1105C15.1105 82.7208 15.9855 81.8443 17.0673 81.8443V79.4539ZM12.7242 83.8045C12.7242 85.0156 13.2014 85.9877 13.9651 86.7049C14.681 87.3901 15.6355 87.8204 16.5742 88.1072L17.2423 85.8124C16.6397 85.6579 16.0796 85.3692 15.6037 84.9678C15.4439 84.8208 15.3182 84.6404 15.2358 84.4394C15.1533 84.2383 15.116 84.0216 15.1264 83.8045H12.7401H12.7242ZM12.8514 92.0116C13.5514 93.4458 15.031 94.4498 16.7492 94.4498V92.0594C15.9855 92.0594 15.3173 91.6132 14.9992 90.9439L12.8514 92.0116ZM16.7492 94.4498C19.1355 94.4498 21.0923 92.5056 21.0923 90.0993H18.706C18.706 91.1829 17.831 92.0594 16.7492 92.0594V94.4498ZM21.0923 90.0993C21.0994 89.5528 20.9894 89.0112 20.7699 88.5109C20.5503 88.0105 20.2263 87.5632 19.8196 87.1989C19.0816 86.5783 18.2269 86.1123 17.306 85.8284L16.5105 88.0754C17.2582 88.3463 17.831 88.6331 18.1969 88.9678C18.5151 89.2706 18.706 89.6052 18.706 90.0993H21.0923ZM15.7151 93.2546V95.0235H18.1014V93.2546H15.7151ZM15.7151 79.0874V80.6491H18.1014V79.0874H15.7151ZM28.4423 87.0555C28.4423 93.4299 23.2719 98.6092 16.9082 98.6092V101C20.6002 101 24.1409 99.5305 26.7515 96.9154C29.3621 94.3004 30.8287 90.7537 30.8287 87.0555H28.4423ZM16.9082 98.6092C10.5446 98.6092 5.37416 93.4299 5.37416 87.0555H2.98779C2.98779 90.7537 4.45441 94.3004 7.065 96.9154C9.67559 99.5305 13.2163 101 16.9082 101V98.6092ZM5.37416 87.0555C5.37416 80.681 10.5446 75.5017 16.9082 75.5017V73.1113C13.2163 73.1113 9.67559 74.5804 7.065 77.1955C4.45441 79.8105 2.98779 83.3572 2.98779 87.0555H5.37416ZM16.9082 75.5017C23.2719 75.5017 28.4423 80.681 28.4423 87.0555H30.8287C30.8287 83.3572 29.3621 79.8105 26.7515 77.1955C24.1409 74.5804 20.6002 73.1113 16.9082 73.1113V75.5017Z" fill="#4A8AE6"/>
<path d="M28.3636 16.9361H32.8182M1 16.9361H5.77273M5.77273 16.9361C5.77273 18.4011 6.06078 19.8517 6.62043 21.2051C7.18009 22.5585 8.00039 23.7883 9.03449 24.8241C10.0686 25.86 11.2963 26.6817 12.6474 27.2423C13.9985 27.8029 15.4466 28.0914 16.9091 28.0914C18.3715 28.0914 19.8197 27.8029 21.1708 27.2423C22.5219 26.6817 23.7496 25.86 24.7837 24.8241C25.8178 23.7883 26.6381 22.5585 27.1978 21.2051C27.7574 19.8517 28.0455 18.4011 28.0455 16.9361C28.0455 13.9776 26.8722 11.1402 24.7837 9.04816C22.6952 6.95613 19.8626 5.78084 16.9091 5.78084C13.9555 5.78084 11.123 6.95613 9.03449 9.04816C6.94602 11.1402 5.77273 13.9776 5.77273 16.9361ZM16.9091 28.7289V32.8723M16.9091 1V5.46212M16.9091 20.1234C17.753 20.1234 18.5623 19.7876 19.159 19.1899C19.7557 18.5921 20.0909 17.7814 20.0909 16.9361C20.0909 16.0908 19.7557 15.2802 19.159 14.6824C18.5623 14.0847 17.753 13.7489 16.9091 13.7489C16.0652 13.7489 15.2559 14.0847 14.6592 14.6824C14.0625 15.2802 13.7273 16.0908 13.7273 16.9361C13.7273 17.7814 14.0625 18.5921 14.6592 19.1899C15.2559 19.7876 16.0652 20.1234 16.9091 20.1234Z" stroke="#4A8AE6" stroke-width="1.5" stroke-linecap="round"/>
</svg>
