<svg width="38" height="38" viewBox="0 0 38 38" fill="none" xmlns="http://www.w3.org/2000/svg">
<g clip-path="url(#clip0_865_116142)">
<path d="M0.111084 3.88886C0.111084 1.80245 1.80245 0.111084 3.88886 0.111084H34.1111C36.1975 0.111084 37.8889 1.80245 37.8889 3.88886V34.1111C37.8889 36.1975 36.1975 37.8889 34.1111 37.8889H3.88886C1.80245 37.8889 0.111084 36.1975 0.111084 34.1111V3.88886Z" fill="#413D99"/>
<path d="M15.2767 23.659L12.6641 15.6116C18.655 12.4579 21.3809 8.86271 22.5363 6.80276C22.9072 6.14155 23.9106 6.03412 24.2802 6.69608C25.154 8.26151 26.4996 11.022 27.8347 15.1342C29.1697 19.2464 29.7022 22.2709 29.9145 24.0511C30.0043 24.8039 29.1291 25.3064 28.4405 24.9891C26.2955 24.0007 21.9776 22.6922 15.2767 23.659Z" fill="white"/>
<path d="M6.36866 20.7305C5.95434 19.4543 6.66199 18.0887 7.91575 17.6109C9.12684 17.1493 10.2434 16.6649 11.2724 16.166L13.7686 23.8548C12.6428 24.0555 11.4546 24.3193 10.2034 24.6572C8.90799 25.0069 7.53315 24.3174 7.11884 23.0412L6.36866 20.7305Z" fill="white"/>
<path d="M31.4131 13.8976C31.914 15.4404 31.3304 17.0751 30.0829 17.9767C29.815 16.9588 29.4919 15.8479 29.1023 14.6478C28.7127 13.4477 28.3217 12.3589 27.9405 11.3778C29.4798 11.3747 30.9122 12.3548 31.4131 13.8976Z" fill="white"/>
<path d="M14.2914 25.2769C13.5368 25.4114 12.7518 25.5755 11.9361 25.7728L15.2767 30.9197C15.8246 31.7638 16.953 32.0039 17.7971 31.4561C18.6412 30.9082 18.8813 29.7798 18.3334 28.9357L15.805 25.0402C15.6925 25.0553 15.5792 25.071 15.4652 25.0875L14.2914 25.2769Z" fill="white"/>
</g>
<defs>
<clipPath id="clip0_865_116142">
<rect width="37.7778" height="37.7778" fill="white" transform="translate(0.111084 0.111084)"/>
</clipPath>
</defs>
</svg>
