<svg width="501" height="401" viewBox="0 0 501 401" fill="none" xmlns="http://www.w3.org/2000/svg">
<path d="M243.855 400.331C378.262 400.331 487.221 387.379 487.221 371.401C487.221 355.423 378.262 342.471 243.855 342.471C109.447 342.471 0.488037 355.423 0.488037 371.401C0.488037 387.379 109.447 400.331 243.855 400.331Z" fill="#DBE6F7"/>
<path d="M183.981 23.7856C183.981 24.9275 183.512 25.9699 182.749 26.723C181.995 27.4815 180.946 27.9475 179.795 27.9475H90.2116C87.9107 27.9475 86.0259 26.0758 86.0259 23.7856C86.0259 22.6426 86.4952 21.6013 87.2579 20.8482C88.0121 20.0897 89.0606 19.6236 90.2116 19.6236H94.4453C96.1178 15.7647 99.9793 13.0677 104.474 13.0677C107.499 13.0677 110.235 14.2912 112.217 16.2646C114.856 11.8199 119.724 8.83478 125.297 8.83478C126.83 8.83478 128.304 9.06465 129.696 9.48307C132.61 4.04044 138.373 0.333984 145.014 0.333984C152.989 0.333984 159.698 5.68128 161.724 12.9575C163.192 12.2277 164.851 11.8103 166.61 11.8103C171.584 11.8103 175.779 15.1079 177.099 19.6247H179.796C182.096 19.6247 183.981 21.4965 183.981 23.7856Z" fill="#DBE6F7"/>
<path d="M465.648 50.3726C465.648 51.5156 465.18 52.5569 464.416 53.31C463.662 54.0685 462.613 54.5345 461.462 54.5345H371.88C369.579 54.5345 367.694 52.6628 367.694 50.3726C367.694 49.2296 368.162 48.1883 368.926 47.4352C369.68 46.6767 370.729 46.2106 371.88 46.2106H376.113C377.786 42.3517 381.647 39.6536 386.142 39.6536C389.167 39.6536 391.903 40.8771 393.885 42.8506C396.524 38.4058 401.392 35.4207 406.965 35.4207C408.497 35.4207 409.972 35.6506 411.364 36.069C414.278 30.6264 420.041 26.9199 426.682 26.9199C434.657 26.9199 441.366 32.2672 443.392 39.5435C444.86 38.8136 446.519 38.3963 448.278 38.3963C453.252 38.3963 457.447 41.6938 458.767 46.2106H461.464C463.763 46.2117 465.648 48.0835 465.648 50.3726Z" fill="#DBE6F7"/>
<path d="M363.37 23.7847C363.37 24.9277 362.9 25.969 362.138 26.7221C361.384 27.4806 360.335 27.9467 359.184 27.9467H269.6C267.299 27.9467 265.415 26.0749 265.415 23.7847C265.415 22.6428 265.884 21.6004 266.647 20.8473C267.401 20.0888 268.449 19.6228 269.6 19.6228H273.835C275.508 15.7638 279.369 13.0657 283.864 13.0657C286.89 13.0657 289.625 14.2892 291.607 16.2627C294.246 11.8179 299.113 8.83283 304.687 8.83283C306.219 8.83283 307.693 9.0627 309.085 9.48112C311.999 4.03849 317.761 0.332031 324.403 0.332031C332.378 0.332031 339.087 5.67932 341.112 12.9566C342.581 12.2268 344.24 11.8094 345.999 11.8094C350.973 11.8094 355.168 15.107 356.488 19.6238H359.185C361.485 19.6238 363.37 21.4956 363.37 23.7847Z" fill="#DBE6F7"/>
<path d="M81.7251 110.826C81.611 110.969 81.4937 111.103 81.3721 111.221C77.9053 114.632 71.8967 101.572 77.4498 88.5028C83.003 75.4333 78.428 58.1669 70.9804 57.4942C63.5338 56.8216 70.0075 68.3085 60.4084 66.5458C50.8093 64.7832 49.3308 39.3888 36.9423 40.7903C26.1004 42.0148 33.0489 60.8236 38.4346 68.7481C43.5163 76.2288 42.008 83.8356 36.3023 82.1725C30.5987 80.5115 24.8972 88.3746 33.3891 100.586C41.8811 112.798 53.3821 124.952 47.8471 126.353C42.312 127.758 30.7971 115.753 25.8924 129.96C23.7004 136.31 37.6314 158.285 68.5526 160.024L81.7251 145.856V110.826Z" fill="#DBE6F7"/>
<path d="M78.1016 145.855C65.0485 111.45 43.1078 58.7381 42.8411 58.0972C42.6726 57.6936 42.8646 57.2286 43.2731 57.0602C43.6816 56.8928 44.1478 57.0867 44.3174 57.4913C44.5851 58.1375 66.768 111.424 79.8094 145.854L78.1016 145.855Z" fill="#BBD4F2"/>
<path d="M58.6473 95.465C58.5161 95.4534 58.387 95.4089 58.2707 95.3305C57.9059 95.0837 57.812 94.59 58.0595 94.2278C58.1288 94.1271 64.9567 84.1253 66.9834 76.9126C67.1018 76.4899 67.5435 76.2431 67.968 76.3618C68.3925 76.4794 68.6421 76.9168 68.5227 77.3395C66.4245 84.8054 59.667 94.7044 59.3801 95.1229C59.2115 95.3686 58.9267 95.4904 58.6473 95.465Z" fill="#BBD4F2"/>
<path d="M61.585 103.929C61.569 103.928 61.553 103.926 61.537 103.923C61.0474 103.85 49.4674 102.075 41.6197 97.8082C41.2325 97.5974 41.0907 97.1154 41.3029 96.7309C41.5152 96.3463 42.0005 96.2055 42.3878 96.4163C49.9837 100.546 61.6596 102.338 61.777 102.355C62.2133 102.42 62.513 102.825 62.4469 103.258C62.3829 103.675 62.0031 103.966 61.585 103.929Z" fill="#BBD4F2"/>
<path d="M81.7249 128.328C78.3563 132.345 74.7541 135.439 74.6933 135.491C74.3584 135.777 74.32 136.277 74.6069 136.61C74.7477 136.773 74.9408 136.866 75.1402 136.884C75.3482 136.903 75.5627 136.842 75.7333 136.697C75.9573 136.506 78.751 134.107 81.7249 130.779V128.328Z" fill="#BBD4F2"/>
<path d="M65.1785 143.722C60.6258 143.31 55.6156 142.445 51.4928 140.702C51.0864 140.53 50.8976 140.064 51.0704 139.661C51.2432 139.257 51.7126 139.07 52.119 139.241C61.956 143.399 77.7046 142.347 77.8625 142.336C78.3009 142.304 78.6849 142.634 78.7158 143.071C78.7467 143.508 78.415 143.887 77.9755 143.918C77.5819 143.948 71.8783 144.328 65.1785 143.722Z" fill="#BBD4F2"/>
<path d="M421.037 295.869C421.151 296.012 421.268 296.145 421.39 296.264C424.857 299.675 430.865 286.615 425.312 273.546C419.759 260.476 424.334 243.21 431.782 242.537C439.228 241.865 432.754 253.352 442.354 251.589C451.953 249.826 453.432 224.432 465.82 225.833C476.662 227.058 469.713 245.867 464.327 253.791C459.246 261.272 460.754 268.879 466.46 267.215C472.163 265.555 477.865 273.418 469.373 285.629C460.881 297.841 449.38 309.995 454.915 311.396C460.45 312.801 471.965 300.797 476.87 315.003C479.063 321.353 474.326 326.806 468.417 330.899H421.037V295.869Z" fill="#DBE6F7"/>
<path d="M424.662 330.9C437.715 296.495 459.656 243.784 459.922 243.142C460.091 242.739 459.899 242.274 459.49 242.105C459.082 241.938 458.616 242.132 458.446 242.537C458.178 243.182 435.995 296.47 422.954 330.9H424.662Z" fill="#BBD4F2"/>
<path d="M444.115 280.508C444.246 280.496 444.375 280.452 444.491 280.373C444.856 280.127 444.95 279.633 444.702 279.271C444.633 279.171 437.805 269.168 435.778 261.956C435.66 261.533 435.217 261.286 434.794 261.405C434.369 261.522 434.12 261.96 434.238 262.382C436.336 269.848 443.094 279.747 443.381 280.165C443.551 280.412 443.835 280.533 444.115 280.508Z" fill="#BBD4F2"/>
<path d="M441.177 288.972C441.193 288.971 441.209 288.969 441.225 288.966C441.715 288.893 453.295 287.118 461.142 282.851C461.53 282.641 461.671 282.158 461.46 281.774C461.248 281.389 460.763 281.248 460.375 281.459C452.779 285.589 441.104 287.381 440.986 287.398C440.55 287.463 440.25 287.868 440.316 288.301C440.379 288.717 440.76 289.009 441.177 288.972Z" fill="#BBD4F2"/>
<path d="M421.037 313.371C424.406 317.388 428.008 320.482 428.069 320.534C428.404 320.82 428.442 321.321 428.155 321.654C428.014 321.817 427.821 321.909 427.622 321.928C427.414 321.947 427.199 321.886 427.029 321.741C426.805 321.55 424.011 319.151 421.037 315.823V313.371Z" fill="#BBD4F2"/>
<path d="M437.584 328.765C442.136 328.354 447.146 327.488 451.269 325.745C451.676 325.573 451.864 325.107 451.692 324.704C451.519 324.3 451.049 324.113 450.643 324.284C440.805 328.442 425.057 327.39 424.9 327.378C424.46 327.347 424.077 327.677 424.046 328.114C424.015 328.551 424.346 328.93 424.786 328.961C425.181 328.991 430.884 329.371 437.584 328.765Z" fill="#BBD4F2"/>
<path d="M471.156 125.081C475.59 107.319 483.084 91.312 490.156 98.4876C497.236 105.67 483.815 132.972 465.284 147.479L460.17 153.911C473.488 143.104 494.252 137.379 499.413 144.194C504.541 150.966 490.371 153.53 477.035 153.73C466.883 153.881 460.272 156.29 457.043 157.842L432.884 188.22C454.024 171.167 486.808 162.164 494.974 172.947C503.11 183.693 480.625 187.761 459.464 188.077C443.474 188.315 433.013 192.086 427.849 194.55L423.032 200.607C421.843 199.942 420.658 199.272 419.479 198.593L448.222 162.452C448.597 158.593 448.547 153.105 446.997 146.182C444.101 133.252 443.33 118.97 451.152 122.354C457.94 125.292 458.283 141.6 453.44 155.891L463.38 143.392C465.789 139.004 469.243 132.747 471.156 125.081Z" fill="#DBE6F7"/>
<path d="M250.546 42.3931C250.973 24.0982 247.983 6.6972 239.259 11.7723C230.526 16.8516 236.242 46.6981 250.278 65.5354L253.509 73.0765C243.521 59.1712 225.005 48.2235 218.222 53.4511C211.48 58.6448 224.472 64.8204 237.287 68.4962C247.04 71.2937 252.78 75.3455 255.484 77.6866L270.746 113.306C254.867 91.3313 225.622 74.0807 214.888 82.3517C204.191 90.5929 224.806 100.392 245.139 106.225C260.503 110.633 269.597 117.003 273.926 120.73L276.97 127.832C278.292 127.502 279.613 127.163 280.931 126.816L262.774 84.4395C263.434 80.6176 264.936 75.336 268.264 69.0629C274.483 57.345 279.011 43.767 270.567 44.9884C263.24 46.0488 258.59 61.6934 259.477 76.7459L253.197 62.0906C252.036 57.2274 250.361 50.2891 250.546 42.3931Z" fill="#DBE6F7"/>
<path d="M33.7057 245.327C29.2725 227.565 21.7779 211.558 14.7058 218.734C7.62616 225.916 21.0462 253.218 39.5778 267.726L44.6926 274.158C31.3739 263.351 10.6097 257.627 5.44904 264.441C0.321463 271.213 14.4914 273.778 27.8271 273.977C37.9788 274.128 44.5902 276.538 47.8191 278.09L71.9785 308.468C50.8378 291.415 18.0541 282.412 9.88861 293.195C1.7519 303.941 24.2367 308.01 45.3977 308.325C61.3884 308.564 71.8495 312.335 77.0133 314.799L81.8305 320.856C83.0188 320.19 84.2039 319.52 85.3836 318.841L56.6406 282.7C56.2651 278.84 56.3142 273.353 57.8651 266.43C60.7612 253.502 61.5324 239.218 53.7104 242.603C46.922 245.54 46.5796 261.848 51.4223 276.139L41.4818 263.64C39.0722 259.25 35.6193 252.993 33.7057 245.327Z" fill="#DBE6F7"/>
<path d="M434.126 123.932V324.003C434.126 332.251 427.394 338.936 419.086 338.936H75.7374C67.43 338.936 60.697 332.251 60.697 324.003V123.932C60.697 115.682 67.4289 108.996 75.7374 108.996H419.086C427.393 108.996 434.126 115.681 434.126 123.932Z" fill="#3B3E7D"/>
<path d="M434.126 223.963V324C434.126 332.249 427.393 338.934 419.087 338.934H75.7364C67.4301 338.934 60.6982 332.248 60.6982 324V223.963H434.126Z" fill="#18285D"/>
<path d="M417.538 134.1V313.832C417.538 319.12 413.221 323.409 407.897 323.409H86.9303C84.0844 323.409 81.5243 322.184 79.76 320.228C78.2197 318.539 77.2864 316.291 77.2864 313.831V134.1C77.2864 128.813 81.6054 124.523 86.9303 124.523H407.897C409.678 124.523 411.343 125.003 412.775 125.841C415.623 127.504 417.538 130.584 417.538 134.1Z" fill="white"/>
<path d="M417.538 134.1V313.832C417.538 319.12 413.221 323.409 407.897 323.409H86.9301C84.0842 323.409 81.5241 322.184 79.7598 320.228C78.2195 318.539 77.2861 316.291 77.2861 313.831V134.1C77.2861 128.813 81.6052 124.523 86.9301 124.523H407.897C409.677 124.523 411.343 125.003 412.775 125.841C415.623 127.504 417.538 130.584 417.538 134.1Z" fill="white"/>
<path d="M88.1523 201.094C88.1523 202.527 89.3214 203.688 90.7647 203.688H146.171C147.614 203.688 148.783 202.527 148.783 201.094C148.783 199.661 147.614 198.5 146.171 198.5H90.7647C89.3225 198.5 88.1523 199.662 88.1523 201.094Z" fill="#DBE6F7"/>
<path d="M88.1523 214.334C88.1523 215.768 89.3214 216.929 90.7647 216.929H146.171C147.614 216.929 148.783 215.768 148.783 214.334C148.783 212.901 147.614 211.74 146.171 211.74H90.7647C89.3225 211.74 88.1523 212.901 88.1523 214.334Z" fill="#DBE6F7"/>
<path d="M88.1523 227.218C88.1523 228.454 89.3065 229.457 90.7295 229.457H145.386C146.809 229.457 147.963 228.455 147.963 227.218C147.963 225.982 146.809 224.979 145.386 224.979H90.7295C89.3065 224.979 88.1523 225.982 88.1523 227.218Z" fill="#DBE6F7"/>
<path d="M88.1523 247.008C88.1523 248.441 89.3214 249.602 90.7647 249.602H146.171C147.614 249.602 148.783 248.441 148.783 247.008C148.783 245.575 147.614 244.414 146.171 244.414H90.7647C89.3225 244.414 88.1523 245.576 88.1523 247.008Z" fill="#DBE6F7"/>
<path d="M88.1523 260.249C88.1523 261.682 89.3214 262.843 90.7647 262.843H146.171C147.614 262.843 148.783 261.682 148.783 260.249C148.783 258.815 147.614 257.654 146.171 257.654H90.7647C89.3225 257.654 88.1523 258.815 88.1523 260.249Z" fill="#DBE6F7"/>
<path d="M88.1523 273.487C88.1523 274.92 89.3214 276.081 90.7647 276.081H146.171C147.614 276.081 148.783 274.92 148.783 273.487C148.783 272.054 147.614 270.893 146.171 270.893H90.7647C89.3225 270.893 88.1523 272.055 88.1523 273.487Z" fill="#DBE6F7"/>
<path d="M345.66 201.094C345.66 202.527 346.829 203.688 348.272 203.688H403.679C405.122 203.688 406.291 202.527 406.291 201.094C406.291 199.661 405.122 198.5 403.679 198.5H348.272C346.83 198.5 345.66 199.662 345.66 201.094Z" fill="#DBE6F7"/>
<path d="M345.66 214.334C345.66 215.768 346.829 216.929 348.272 216.929H403.679C405.122 216.929 406.291 215.768 406.291 214.334C406.291 212.901 405.122 211.74 403.679 211.74H348.272C346.83 211.74 345.66 212.901 345.66 214.334Z" fill="#DBE6F7"/>
<path d="M345.66 227.218C345.66 228.454 346.814 229.457 348.237 229.457H402.893C404.316 229.457 405.471 228.455 405.471 227.218C405.471 225.982 404.316 224.979 402.893 224.979H348.237C346.814 224.979 345.66 225.982 345.66 227.218Z" fill="#DBE6F7"/>
<path d="M345.66 247.008C345.66 248.441 346.829 249.602 348.272 249.602H403.679C405.122 249.602 406.291 248.441 406.291 247.008C406.291 245.575 405.122 244.414 403.679 244.414H348.272C346.83 244.414 345.66 245.576 345.66 247.008Z" fill="#DBE6F7"/>
<path d="M345.66 260.249C345.66 261.682 346.829 262.843 348.272 262.843H403.679C405.122 262.843 406.291 261.682 406.291 260.249C406.291 258.815 405.122 257.654 403.679 257.654H348.272C346.83 257.654 345.66 258.815 345.66 260.249Z" fill="#DBE6F7"/>
<path d="M345.66 273.487C345.66 274.92 346.829 276.081 348.272 276.081H403.679C405.122 276.081 406.291 274.92 406.291 273.487C406.291 272.054 405.122 270.893 403.679 270.893H348.272C346.83 270.893 345.66 272.055 345.66 273.487Z" fill="#DBE6F7"/>
<path d="M417.538 134.1V144.095H77.2861V134.1C77.2861 128.813 81.6052 124.523 86.9301 124.523H407.897C409.677 124.523 411.343 125.003 412.775 125.841C415.623 127.504 417.538 130.584 417.538 134.1Z" fill="#DBE6F7"/>
<path d="M415.797 128.623H79.0261C80.7648 126.145 83.6566 124.525 86.9314 124.525H407.896C411.17 124.525 414.063 126.145 415.797 128.623Z" fill="#021147"/>
<path d="M382.229 135.329C382.229 137.177 380.719 138.676 378.858 138.676C376.995 138.676 375.487 137.177 375.487 135.329C375.487 133.48 376.996 131.98 378.858 131.98C380.719 131.98 382.229 133.479 382.229 135.329Z" fill="#707FFF"/>
<path d="M393.154 135.329C393.154 137.177 391.644 138.676 389.783 138.676C387.921 138.676 386.411 137.177 386.411 135.329C386.411 133.48 387.921 131.98 389.783 131.98C391.644 131.98 393.154 133.479 393.154 135.329Z" fill="#3B3E7D"/>
<path d="M403.552 135.329C403.552 137.177 402.042 138.676 400.181 138.676C398.32 138.676 396.81 137.177 396.81 135.329C396.81 133.48 398.32 131.98 400.181 131.98C402.042 131.98 403.552 133.479 403.552 135.329Z" fill="#4F60D9"/>
<path d="M337.1 192.089V313.667H159.776V192.089H167.93L167.856 192.021L167.944 192.089H337.1Z" fill="#DBE6F7"/>
<path d="M337.099 187.15H159.864V308.729H337.099V187.15Z" fill="#1D38C8"/>
<path d="M337.099 182.699H159.864V304.278H337.099V182.699Z" fill="#4F60D9"/>
<g opacity="0.5">
<path d="M172.047 223.697V276.569C172.047 278.329 170.611 279.755 168.839 279.755C167.068 279.755 165.632 278.329 165.632 276.569V223.697C165.632 221.938 167.068 220.512 168.839 220.512C170.61 220.512 172.047 221.938 172.047 223.697Z" fill="#4F60D9"/>
</g>
<g opacity="0.5">
<path d="M172.047 207.513V212.865C172.047 214.624 170.611 216.05 168.839 216.05C167.068 216.05 165.632 214.624 165.632 212.865V207.513C165.632 205.755 167.068 204.328 168.839 204.328C170.611 204.328 172.047 205.755 172.047 207.513Z" fill="#4F60D9"/>
</g>
<path d="M231.408 245.619L164.998 304.278H159.864V301.178L227.59 241.359L231.408 245.619Z" fill="#1D38C8"/>
<path d="M337.1 301.591V304.278H331.502L265.092 245.619L268.91 241.359L337.1 301.591Z" fill="#1D38C8"/>
<path d="M337.095 182.699L310.245 206.414L254.319 255.807C250.988 258.751 245.967 258.751 242.635 255.807L186.72 206.421L159.86 182.699H337.095Z" fill="#1D38C8"/>
<path d="M310.245 163.275V206.412L293.205 221.462L287.332 226.65L278.216 234.701L272.342 239.889L263.226 247.94L257.353 253.128L254.32 255.807C250.989 258.751 245.968 258.751 242.636 255.807L239.602 253.128L233.729 247.94L224.613 239.889L218.739 234.701L209.623 226.65L203.75 221.462L186.72 206.421V163.275C186.72 159.389 189.89 156.24 193.804 156.24H303.162C307.075 156.24 310.245 159.389 310.245 163.275Z" fill="#DBE6F7"/>
<path d="M231.467 173.035H201.539C200.235 173.035 199.178 171.985 199.178 170.691V170.19C199.178 168.895 200.235 167.846 201.539 167.846H231.466C232.769 167.846 233.826 168.895 233.826 170.19V170.691C233.827 171.986 232.77 173.035 231.467 173.035Z" fill="#BBD4F2"/>
<path d="M299.135 186.931H201.791C200.348 186.931 199.179 185.77 199.179 184.336C199.179 182.903 200.348 181.742 201.791 181.742H299.135C300.579 181.742 301.748 182.903 301.748 184.336C301.748 185.77 300.579 186.931 299.135 186.931Z" fill="#BBD4F2"/>
<path d="M299.135 200.171H201.791C200.348 200.171 199.179 199.01 199.179 197.577C199.179 196.143 200.348 194.982 201.791 194.982H299.135C300.579 194.982 301.748 196.143 301.748 197.577C301.748 199.009 300.579 200.171 299.135 200.171Z" fill="#BBD4F2"/>
<path d="M299.135 213.409H201.791C200.348 213.409 199.179 212.248 199.179 210.815C199.179 209.382 200.348 208.221 201.791 208.221H299.135C300.579 208.221 301.748 209.382 301.748 210.815C301.748 212.248 300.579 213.409 299.135 213.409Z" fill="#BBD4F2"/>
<path d="M293.204 221.461L287.33 226.648H209.623L203.749 221.461H293.204Z" fill="#BBD4F2"/>
<path d="M278.214 234.701L272.341 239.89H224.612L218.739 234.701H278.214Z" fill="#BBD4F2"/>
<path d="M263.225 247.939L257.352 253.128H239.601L233.728 247.939H263.225Z" fill="#BBD4F2"/>
<path d="M309.005 170.112H308.048C299.572 170.112 292.7 163.288 292.7 154.871V153.921C292.7 145.504 299.572 138.68 308.048 138.68H309.005C317.48 138.68 324.352 145.504 324.352 153.921V154.871C324.352 163.289 317.48 170.112 309.005 170.112Z" fill="#4F60D9"/>
<path d="M311.802 170.112H310.846C302.37 170.112 295.498 163.288 295.498 154.871V153.921C295.498 145.504 302.37 138.68 310.846 138.68H311.802C320.278 138.68 327.15 145.504 327.15 153.921V154.871C327.15 163.289 320.278 170.112 311.802 170.112Z" fill="#707FFF"/>
<path d="M311.807 143.939L311.636 156.53H309.652L309.481 143.939H311.807ZM310.644 161.594C310.222 161.594 309.86 161.443 309.557 161.141C309.255 160.838 309.104 160.476 309.104 160.054C309.104 159.632 309.255 159.27 309.557 158.968C309.86 158.666 310.222 158.515 310.644 158.515C311.066 158.515 311.428 158.666 311.73 158.968C312.032 159.27 312.183 159.632 312.183 160.054C312.183 160.334 312.112 160.59 311.97 160.824C311.833 161.058 311.647 161.246 311.414 161.389C311.186 161.525 310.929 161.594 310.644 161.594Z" fill="white"/>
<path d="M469.008 330.941V332.221C469.008 338.585 466.953 344.471 463.462 349.258C458.141 356.568 449.48 361.324 439.701 361.324H55.1227C45.3433 361.324 36.6829 356.568 31.3612 349.258C27.8709 344.471 25.8154 338.585 25.8154 332.221V330.941H469.008Z" fill="#18285D"/>
<path d="M197.74 330.939V331.232C197.74 333.537 199.294 335.404 201.211 335.404H291.687C293.604 335.404 295.158 333.536 295.158 331.232V330.939H197.74Z" fill="white"/>
<path d="M463.462 349.258C458.141 356.568 449.48 361.324 439.701 361.324H55.1227C45.3433 361.324 36.6828 356.568 31.3611 349.258H463.462Z" fill="#021147"/>
<path d="M59.495 312.156L55.6133 320.406L63.8204 320.533L66.9863 313.026L59.495 312.156Z" fill="#FAB083"/>
<path d="M58.1966 319.888C58.1966 319.888 56.5113 317.639 55.1726 317.735C53.8339 317.832 43.5072 325.985 39.969 326.659C36.4308 327.333 36.7594 330.912 38.2399 330.912C42.5046 330.912 65.9899 330.742 65.9899 330.742C65.9899 330.742 66.7472 322.591 65.8459 320.099C64.9445 317.606 60.9636 320.478 58.1966 319.888Z" fill="#707FFF"/>
<path d="M52.4889 325.576C52.6137 325.613 52.7545 325.602 52.8761 325.533C53.1139 325.398 53.1961 325.099 53.0617 324.861C53.0169 324.782 51.9363 322.919 50.4814 322.191C48.5464 321.221 47.0381 322.306 46.9741 322.354C46.7543 322.515 46.7085 322.824 46.8717 323.043C47.0349 323.261 47.3453 323.306 47.565 323.144C47.6056 323.115 48.6562 322.383 50.0344 323.071C51.2195 323.664 52.1902 325.333 52.1998 325.35C52.2659 325.464 52.3715 325.541 52.4889 325.576Z" fill="white"/>
<path d="M53.9662 324.192C54.091 324.229 54.2307 324.218 54.3534 324.149C54.5912 324.014 54.6744 323.713 54.539 323.477C54.4931 323.398 53.4136 321.534 51.9586 320.807C50.0226 319.835 48.5154 320.922 48.4514 320.969C48.2316 321.131 48.1858 321.439 48.349 321.657C48.5111 321.875 48.8226 321.921 49.0423 321.759C49.0839 321.73 50.1346 320.997 51.5117 321.686C52.7021 322.281 53.6675 323.947 53.676 323.964C53.7432 324.079 53.8478 324.157 53.9662 324.192Z" fill="white"/>
<path d="M50.4869 326.702C50.6128 326.739 50.7525 326.727 50.8741 326.658C51.112 326.524 51.1952 326.223 51.0597 325.987C51.0139 325.908 49.9344 324.044 48.4794 323.316C46.5434 322.345 45.0361 323.432 44.9721 323.478C44.7524 323.641 44.7065 323.949 44.8697 324.167C45.0329 324.385 45.3433 324.431 45.5631 324.269C45.6047 324.239 46.6554 323.507 48.0325 324.196C49.2229 324.791 50.1882 326.457 50.1968 326.474C50.264 326.589 50.3696 326.667 50.4869 326.702Z" fill="white"/>
<path d="M57.1567 314.847L60.7931 316.025L62.8145 316.144L66.2887 316.347C70.8786 312.742 83.2597 301.894 85.6726 295.497C85.6726 295.497 97.2312 326.728 119.257 326.728C120.687 326.728 121.282 313.979 117.691 310.173C117.691 310.173 97.3891 272.599 84.2283 276.587C78.3337 278.372 72.3709 286.893 57.1567 314.847Z" fill="#18285D"/>
<path d="M60.7932 316.02L62.8146 316.14C76.3253 305.98 82.5846 297.377 85.4658 291.866C85.565 291.675 85.7271 291.613 85.8359 291.615C85.9298 291.618 85.998 291.669 86.0418 291.778C92.5112 306.902 100.276 315.979 105.65 320.933C111.507 326.33 115.792 328.11 115.969 328.184L116.216 327.583L116.464 326.985C116.422 326.967 112.171 325.193 106.473 319.926C101.21 315.063 93.6014 306.143 87.2407 291.27C86.9986 290.698 86.4898 290.343 85.885 290.32C85.2332 290.293 84.6231 290.666 84.3073 291.268C81.4027 296.825 74.9663 305.606 60.7932 316.02Z" fill="#021147"/>
<path d="M69.9313 313.885C69.3531 314.959 68.36 316.475 67.4107 317.208C67.4107 317.208 59.6302 316.851 55.8467 314.963L57.5438 311.035C57.5438 311.035 63.737 313.28 69.9313 313.885Z" fill="#3B3E7D"/>
<path d="M118.706 246.284C118.706 246.284 103.628 264.158 97.2953 267.094C94.5155 268.383 91.7698 268.838 89.7421 268.91C89.0615 268.935 87.2908 268.792 87.1937 268.79C87.1852 268.79 87.1777 268.792 87.1777 268.792C79.6544 267.866 70.8115 265.618 59.7478 261.143L61.3969 256.054C61.3969 256.054 68.0445 257.457 76.1908 258.034C79.1946 258.244 86.1239 258.559 88.686 258.97C89.3207 258.688 89.9458 258.382 90.5549 258.05C101.798 252.024 109.218 239.754 109.218 239.754C112.776 241.08 116.862 243.559 118.706 246.284Z" fill="#4F60D9"/>
<path d="M61.6772 255.65C61.6772 255.65 60.1369 251.786 58.0409 250.683C55.9448 249.581 49.9799 245.697 48.7073 246.859C47.4348 248.021 47.6972 253.6 53.0445 258.265C56.4504 261.236 59.883 261.11 59.883 261.11L61.6772 255.65Z" fill="#FAB083"/>
<path d="M48.3244 250.404L57.1288 258.572C57.4595 258.881 58.0569 258.969 58.4654 258.773L63.8618 256.182C64.0293 256.101 64.1391 255.984 64.1861 255.853L64.1989 255.811L64.4634 254.915L63.0319 254.377L49.1799 249.152L48.4289 248.871L48.1473 249.817L48.126 249.883C48.1217 249.89 48.1206 249.898 48.1238 249.906C48.0908 250.071 48.159 250.252 48.3244 250.404Z" fill="#18285D"/>
<path d="M58.7343 257.865L64.1328 255.272C64.5403 255.077 64.6021 254.671 64.2725 254.365L55.467 246.196C55.1374 245.89 54.54 245.8 54.1326 245.996L48.734 248.588C48.3266 248.784 48.2647 249.19 48.5954 249.496L57.3998 257.664C57.7305 257.97 58.3279 258.059 58.7343 257.865Z" fill="#3B3E7D"/>
<path d="M58.0793 256.405L62.2618 254.396C62.6693 254.201 62.7311 253.795 62.4015 253.489L55.5534 247.136C55.2238 246.83 54.6253 246.74 54.2189 246.936L50.0364 248.944C49.63 249.14 49.5671 249.546 49.8978 249.852L56.7459 256.205C57.0755 256.511 57.6729 256.601 58.0793 256.405Z" fill="#58619B"/>
<path d="M58.1912 248.725C58.1912 248.725 56.9368 248.919 56.8088 249.99C56.6808 251.061 57.8477 250.635 58.5976 250.4C59.3475 250.165 60.0238 250.401 60.1262 250.522C60.4547 250.904 60.3982 248.408 58.1912 248.725Z" fill="#FAB083"/>
<path d="M52.5837 254.539C52.5837 254.539 50.6156 251.328 49.1073 249.573C48.1025 248.404 47.5894 250.1 48.2775 251.282C48.9655 252.464 50.3223 254.872 52.5837 254.539Z" fill="#FAB083"/>
<path d="M129.291 227.775C129.291 227.775 138.793 227.823 143.125 231.712C147.457 235.6 143.322 243.502 138.623 244.514C133.925 245.527 119.252 243.8 117.727 241.303C116.201 238.806 117.168 227.967 129.291 227.775Z" fill="#707FFF"/>
<path d="M144.276 312.453L148.895 282.875L147.893 242.072L136.842 238.362L136.249 238.162L133.769 237.33L131.8 236.67L120.132 238.266L118.234 238.525L117.564 238.617L109.217 239.758C109.138 265.982 111.674 271.646 106.792 292.978C104.339 301.02 113.35 329.516 144.276 312.453Z" fill="#707FFF"/>
<path d="M128.498 244.625C136.858 244.594 138.798 237.278 138.817 237.204C138.859 237.04 138.759 236.873 138.593 236.832C138.429 236.79 138.261 236.89 138.219 237.054C138.147 237.339 136.365 243.983 128.498 244.012C128.455 244.012 128.412 244.012 128.368 244.012C128.203 244.02 128.059 244.147 128.059 244.316C128.058 244.485 128.195 244.623 128.366 244.624C128.41 244.625 128.456 244.625 128.498 244.625Z" fill="#4F60D9"/>
<path d="M120.644 243.481C120.812 243.479 120.95 243.346 120.952 243.179C120.954 243.01 120.818 242.87 120.649 242.867C120.539 242.865 118.108 242.768 117.48 239.505C117.448 239.339 117.288 239.23 117.119 239.261C116.952 239.293 116.842 239.454 116.875 239.619C117.601 243.392 120.608 243.479 120.639 243.479C120.639 243.479 120.642 243.481 120.644 243.481Z" fill="#4F60D9"/>
<path d="M134.142 284.873C134.142 284.873 135.5 295.166 132.735 300.203C132.735 300.203 118.987 301.16 108.991 297.256C108.991 297.256 111.488 290.071 111.526 283.057L134.142 284.873Z" fill="#4F60D9"/>
<path d="M126.8 273.981C126.809 273.981 126.818 273.981 126.827 273.98C126.997 273.965 127.122 273.816 127.106 273.647C126.415 266.016 129.294 246.751 129.323 246.557C129.349 246.39 129.232 246.234 129.064 246.209C128.895 246.183 128.738 246.299 128.713 246.466C128.683 246.661 125.793 265.998 126.492 273.701C126.507 273.861 126.641 273.982 126.8 273.981Z" fill="white"/>
<path d="M116.631 272.488C116.64 272.488 116.65 272.488 116.658 272.487C116.828 272.472 116.953 272.323 116.938 272.155C116.246 264.523 119.222 245.108 119.252 244.913C119.278 244.745 119.163 244.59 118.994 244.564C118.826 244.538 118.669 244.653 118.642 244.821C118.612 245.017 115.624 264.507 116.322 272.211C116.338 272.37 116.474 272.489 116.631 272.488Z" fill="white"/>
<path d="M156.22 322.781C156.22 322.781 152.797 327.391 153.079 329.775C153.362 332.161 156.461 336.655 158.939 336.873C161.417 337.09 156.092 331.096 157.349 331.29C158.87 331.524 169.137 339.89 171.304 339.89C173.471 339.89 168.755 336.002 166.918 335.019C166.918 335.019 171.776 337.177 172.907 338.3C174.037 339.422 174.858 337.015 169.206 333.599C169.206 333.599 174.39 336.522 174.743 336.569C175.897 336.721 172.607 332.891 169.774 331.505C169.774 331.505 173.93 333.515 174.352 333.523C174.937 333.536 173.683 332.185 170.598 330.487C167.824 328.96 163.277 321.947 163.277 321.947L156.22 322.781Z" fill="#FAB083"/>
<path d="M147.894 242.074C147.894 242.074 159.416 264.052 162.04 287.041L163.277 321.948C163.277 321.948 162.093 324.435 156.22 322.781L150.541 287.879L146.189 271.909C146.189 271.909 144.211 252.256 147.894 242.074Z" fill="#707FFF"/>
<path d="M112.503 218.311C113.728 225.187 120.333 229.777 127.257 228.561C134.181 227.346 138.802 220.785 137.578 213.91C136.354 207.034 129.749 202.445 122.825 203.66C115.901 204.875 111.28 211.434 112.503 218.311Z" fill="#021147"/>
<path d="M112.311 216.041C112.311 216.041 108.587 215.691 108.447 212.187C108.327 209.204 112.109 210.488 111.4 208.265C110.692 206.042 109.651 204.091 112.515 203C115.021 202.047 115.378 203.805 118.327 200.646C121.812 196.914 126.15 203.377 129.779 202.957C135.131 202.337 136.33 205.195 137.274 207.483C138.218 209.772 136.477 211.799 136.477 211.799L112.311 216.041Z" fill="#021147"/>
<path d="M115.23 221.423C115.23 221.423 112.775 219.142 111.686 221.576C110.596 224.009 113.827 230.065 117.164 227.862L115.23 221.423Z" fill="#FC8664"/>
<path d="M116.021 226.016C115.888 226.04 115.749 225.974 115.687 225.847C114.774 223.962 112.563 223.522 112.541 223.517C112.372 223.486 112.262 223.325 112.294 223.157C112.326 222.99 112.488 222.881 112.656 222.911C112.759 222.93 115.196 223.409 116.247 225.579C116.321 225.732 116.257 225.917 116.102 225.99C116.076 226.003 116.049 226.012 116.021 226.016Z" fill="#FD664D"/>
<path d="M113.755 225.382C113.699 225.392 113.639 225.387 113.582 225.363C113.424 225.298 113.349 225.116 113.415 224.96C113.426 224.933 113.694 224.315 114.399 223.84C114.54 223.745 114.734 223.782 114.83 223.923C114.926 224.063 114.889 224.255 114.746 224.351C114.201 224.717 113.989 225.194 113.988 225.198C113.945 225.299 113.856 225.365 113.755 225.382Z" fill="#FD664D"/>
<path d="M131.774 230.918L132.911 237.304C132.911 237.304 130.768 240.583 128.213 241.26C125.662 241.939 123.541 239.159 123.541 239.159L122.448 233.017L131.774 230.918Z" fill="#FAB083"/>
<path d="M131.774 230.918L132.279 233.752C130.88 235.975 127.874 236.997 123.181 237.13L122.449 233.019L131.774 230.918Z" fill="#FC8664"/>
<path d="M135.634 213.326C135.957 215.829 136.271 218.974 136.236 221.54C136.227 222.179 136.197 222.785 136.139 223.334C135.623 228.278 133.675 236.943 123.599 235.245C119.149 234.496 116.385 230.206 114.682 225.65C113.527 222.554 112.863 219.339 112.495 217.023C112.12 214.657 113.032 212.276 114.892 210.751C119.925 206.619 126.037 206.757 130.188 207.559C133.068 208.113 135.263 210.44 135.634 213.326Z" fill="#FAB083"/>
<path d="M120.143 221.422C120.264 222.104 120.008 222.718 119.572 222.795C119.136 222.871 118.684 222.38 118.562 221.699C118.44 221.018 118.696 220.403 119.133 220.326C119.569 220.249 120.021 220.74 120.143 221.422Z" fill="#021147"/>
<path d="M129.398 219.796C129.519 220.479 129.263 221.093 128.827 221.169C128.391 221.246 127.938 220.755 127.817 220.074C127.695 219.392 127.951 218.777 128.388 218.701C128.824 218.625 129.276 219.115 129.398 219.796Z" fill="#021147"/>
<path d="M116.108 218.22C116.108 218.22 119.168 216.352 121.895 216.994L121.891 218.198C121.891 218.198 119.04 218.072 116.531 219.538C116.266 219.03 115.992 218.811 116.108 218.22Z" fill="#021147"/>
<path d="M131.161 215.576C131.161 215.576 127.642 214.862 125.302 216.394L125.721 217.524C125.721 217.524 128.355 216.434 131.218 216.958C131.291 216.391 131.473 216.093 131.161 215.576Z" fill="#021147"/>
<path d="M125.386 225.51C125.901 225.419 126.377 225.131 126.45 225.085C126.594 224.993 126.638 224.804 126.546 224.66C126.456 224.516 126.264 224.472 126.119 224.563C125.863 224.723 125.231 225.014 124.913 224.894C124.851 224.871 124.765 224.819 124.713 224.637C124.414 223.597 124.074 219.995 124.071 219.959C124.055 219.789 123.903 219.665 123.734 219.681C123.562 219.696 123.437 219.846 123.453 220.016C123.467 220.166 123.802 223.713 124.117 224.807C124.235 225.219 124.495 225.395 124.693 225.47C124.91 225.552 125.152 225.552 125.386 225.51Z" fill="#FC8664"/>
<path d="M121.873 228.04C122.345 229.243 123.583 231.393 126.38 230.902C129.182 230.41 129.595 228.174 129.608 226.682L121.873 228.04Z" fill="white"/>
<path d="M126.623 232.497C127.414 232.358 128.013 231.842 128.039 231.821C128.168 231.708 128.181 231.514 128.068 231.386C127.954 231.258 127.758 231.245 127.63 231.358C127.626 231.362 127.132 231.783 126.515 231.891C125.95 231.99 125.352 231.762 125.345 231.76C125.186 231.698 125.006 231.774 124.942 231.933C124.879 232.091 124.956 232.27 125.116 232.333C125.147 232.345 125.877 232.628 126.623 232.497Z" fill="#FC8664"/>
<path d="M115.277 223.503C114.824 222.292 114.307 220.717 114.326 219.86C114.364 218.343 115.432 217.267 114.772 215.926C114.113 214.58 115.346 212.797 116.41 212.351C117.47 211.902 120.155 211.995 122.487 210.348C124.713 208.774 129.084 208.853 130.049 210.281C131.216 212.011 130.115 212.387 132.749 214.016C133.799 214.665 133.098 216.953 133.188 218.346C133.23 218.987 133.275 219.296 133.42 219.966L133.491 220.307L136.212 219.829C136.135 217.659 135.891 215.293 135.637 213.324C135.266 210.439 133.068 208.114 130.188 207.557C126.037 206.756 119.927 206.616 114.891 210.749C113.034 212.275 112.121 214.655 112.496 217.02C112.787 218.857 113.266 221.262 114.029 223.723L115.277 223.503Z" fill="#021147"/>
<path d="M135.213 221.209C135.079 220.503 135.003 219.787 135.004 219.07C135.004 218.088 135.129 217.176 136.039 216.607C136.771 216.149 137.613 215.995 138.369 216.773C140.233 218.688 139.792 225.743 135.898 224.811L135.213 221.209Z" fill="#FAB083"/>
<path d="M136.247 222.721C136.373 222.672 136.457 222.544 136.443 222.403C136.236 220.322 137.895 218.804 137.911 218.789C138.038 218.675 138.047 218.48 137.933 218.354C137.819 218.228 137.623 218.217 137.496 218.331C137.418 218.401 135.588 220.068 135.826 222.465C135.843 222.634 135.994 222.757 136.165 222.741C136.194 222.737 136.221 222.731 136.247 222.721Z" fill="#FC8664"/>
<path d="M137.851 221.006C137.904 220.985 137.953 220.95 137.989 220.9C138.09 220.762 138.059 220.569 137.92 220.47C137.897 220.453 137.345 220.063 136.494 220.022C136.323 220.013 136.177 220.145 136.17 220.314C136.161 220.484 136.293 220.629 136.464 220.637C137.122 220.669 137.552 220.966 137.556 220.969C137.644 221.032 137.756 221.043 137.851 221.006Z" fill="#FC8664"/>
<path d="M145.048 319.065C144.847 319.969 144.497 320.893 143.962 321.812C142.35 324.576 139.045 327.333 132.91 329.548C120.192 334.136 95.8722 331.981 95.8722 331.981C96.1666 341.403 73.557 373.142 73.557 373.142L72.4466 372.429L71.4012 371.758L67.0427 368.959C67.0427 368.959 81.9775 315.646 92.1323 314.12C128.058 308.72 144.274 312.451 144.274 312.451C145.053 314.232 145.607 316.575 145.048 319.065Z" fill="#3B3E7D"/>
<path d="M145.048 319.066C144.847 319.97 144.497 320.894 143.962 321.813C138.726 326.019 129.407 328.457 116.188 329.08C106.426 329.536 97.5393 328.804 95.1904 328.583C92.8693 344.807 75.9911 367.759 72.4465 372.431C72.1104 372.874 71.896 373.149 71.8224 373.245C71.7019 373.404 71.5174 373.485 71.3328 373.485C71.2006 373.485 71.0662 373.442 70.9531 373.354C70.6832 373.149 70.6341 372.762 70.8432 372.494C70.8624 372.469 71.0608 372.215 71.4011 371.76C74.759 367.314 92.113 343.655 94.0405 327.84C94.0789 327.505 94.384 327.266 94.72 327.302C95.119 327.346 134.445 331.43 145.048 319.066Z" fill="#18285D"/>
<path d="M67.8846 368.959L62.5693 375.136L68.9172 378.911L73.5573 373.142L67.8846 368.959Z" fill="#FAB083"/>
<path d="M75.14 373.014C74.3581 374.829 73.813 375.414 72.5757 376.31C72.5757 376.31 68.5767 374.489 64.4678 370.931L67.0417 367.479C67.0417 367.479 70.0828 369.413 75.14 373.014Z" fill="#58619B"/>
<path d="M64.3718 375.561C64.3718 375.561 64.0454 372.777 62.8379 372.194C61.6304 371.613 48.5805 373.539 45.1778 372.363C41.775 371.187 40.2561 374.448 41.5372 375.185C45.229 377.304 65.6465 388.83 65.6465 388.83C65.6465 388.83 70.4093 382.15 70.8861 379.544C71.365 376.939 66.47 377.446 64.3718 375.561Z" fill="#707FFF"/>
<path d="M56.5625 377.65C56.6521 377.744 56.779 377.804 56.9198 377.805C57.1939 377.806 57.4158 377.588 57.419 377.315C57.4201 377.224 57.4233 375.074 56.5305 373.721C55.3443 371.919 53.4904 372.11 53.4125 372.12C53.1405 372.15 52.9453 372.395 52.9773 372.665C53.0082 372.935 53.2547 373.129 53.5267 373.097C53.5768 373.092 54.8558 372.98 55.7016 374.261C56.4291 375.364 56.4281 377.291 56.4281 377.31C56.427 377.441 56.4782 377.561 56.5625 377.65Z" fill="white"/>
<path d="M58.5402 377.182C58.6298 377.276 58.7567 377.336 58.8975 377.337C59.1716 377.338 59.3946 377.119 59.3967 376.847C59.3978 376.756 59.401 374.606 58.5092 373.253C57.322 371.45 55.4691 371.642 55.3913 371.65C55.1193 371.681 54.9241 371.926 54.9561 372.196C54.987 372.466 55.2323 372.66 55.5054 372.628C55.5556 372.624 56.8345 372.512 57.6804 373.792C58.4111 374.899 58.4057 376.822 58.4057 376.841C58.4047 376.973 58.4559 377.093 58.5402 377.182Z" fill="white"/>
<path d="M54.2617 377.629C54.3513 377.724 54.4782 377.783 54.619 377.784C54.8932 377.785 55.1161 377.567 55.1182 377.295C55.1182 377.203 55.1225 375.053 54.2297 373.7C53.0435 371.897 51.1907 372.089 51.1117 372.098C50.8397 372.128 50.6445 372.373 50.6765 372.643C50.7075 372.913 50.9539 373.107 51.2259 373.075C51.276 373.071 52.556 372.959 53.4009 374.24C54.1305 375.346 54.1273 377.269 54.1262 377.288C54.1262 377.42 54.1774 377.54 54.2617 377.629Z" fill="white"/>
<path d="M358.044 365.945L356.559 372.689C356.559 372.689 360.629 375.687 363.503 374.064L364.999 367.479L358.044 365.945Z" fill="#FAB083"/>
<path d="M357.947 372.285C357.947 372.285 356.809 369.989 355.591 369.856C354.372 369.722 343.743 375.344 340.454 375.366C337.166 375.39 336.65 379.359 337.828 380.019C339.17 380.771 362.851 384.307 362.851 384.307C362.851 384.307 365.172 376.117 364.779 373.732C364.385 371.345 360.333 373.269 357.947 372.285Z" fill="#707FFF"/>
<path d="M351.875 376.456C351.98 376.51 352.108 376.523 352.23 376.481C352.465 376.399 352.59 376.143 352.508 375.909C352.48 375.83 351.821 373.98 350.637 373.088C349.063 371.898 347.527 372.626 347.462 372.657C347.238 372.766 347.145 373.035 347.255 373.257C347.365 373.48 347.636 373.572 347.861 373.463C347.902 373.443 348.968 372.958 350.09 373.803C351.055 374.529 351.647 376.187 351.654 376.204C351.693 376.317 351.775 376.405 351.875 376.456Z" fill="white"/>
<path d="M353.432 375.455C353.537 375.509 353.665 375.522 353.787 375.479C354.023 375.398 354.147 375.141 354.065 374.907C354.038 374.829 353.378 372.978 352.194 372.086C350.618 370.896 349.084 371.624 349.019 371.655C348.795 371.764 348.702 372.033 348.812 372.257C348.922 372.479 349.193 372.572 349.418 372.463C349.459 372.443 350.525 371.958 351.647 372.803C352.617 373.533 353.204 375.187 353.211 375.204C353.25 375.316 353.331 375.403 353.432 375.455Z" fill="white"/>
<path d="M349.889 377.135C349.995 377.189 350.123 377.202 350.245 377.16C350.48 377.078 350.605 376.822 350.523 376.588C350.495 376.509 349.836 374.659 348.652 373.766C347.075 372.575 345.542 373.304 345.477 373.335C345.253 373.444 345.16 373.714 345.27 373.936C345.379 374.159 345.65 374.251 345.875 374.142C345.917 374.123 346.984 373.638 348.105 374.482C349.073 375.213 349.662 376.866 349.669 376.883C349.708 376.997 349.79 377.085 349.889 377.135Z" fill="white"/>
<path d="M391.634 262.925C391.026 265.522 390.418 268.197 389.8 270.938C386.162 287.137 382.224 305.761 376.433 324.404C374.318 341.12 370.632 351.741 365.671 368.572C365.179 368.668 364.464 368.687 363.634 368.639C363.325 368.619 362.998 368.591 362.659 368.543C360.594 368.294 358.123 367.623 356.559 366.453C356.559 366.453 359.57 346.076 363.74 323.138C365.96 310.898 369.898 280.925 371.771 266.413C372.408 261.429 372.804 258.275 372.804 258.275L388.594 262.177L388.854 262.234L389.529 262.407L391.634 262.925Z" fill="#3B3E7D"/>
<path d="M391.634 262.926C391.026 265.523 390.418 268.198 389.8 270.939L371.77 266.415C372.407 261.431 372.803 258.277 372.803 258.277L388.593 262.179L388.853 262.236L389.528 262.409L391.634 262.926Z" fill="#18285D"/>
<path d="M389.527 262.398V262.408L374.567 324.116C374.548 324.28 371.652 344.485 363.631 368.64C363.322 368.62 362.994 368.592 362.656 368.543C370.687 344.389 373.592 324.145 373.621 323.934L388.591 262.178L388.851 262.235L389.527 262.398Z" fill="#18285D"/>
<path d="M402.646 365.377L403.25 374.236L409.764 372.686V365.377H402.646Z" fill="#FAB083"/>
<path d="M405.536 372.405C405.536 372.405 408.995 371.493 409.951 371.512C410.907 371.532 417.304 378.652 419.46 379.073C423.371 379.837 423.369 385.902 420.989 386.2C414.103 387.063 402.33 384.162 402.33 384.162C402.33 384.162 401.254 376.378 401.729 373.938C402.202 371.497 403.612 373.121 405.536 372.405Z" fill="#707FFF"/>
<path d="M411.229 379.055C411.106 379.081 410.973 379.06 410.86 378.985C410.641 378.839 410.583 378.544 410.73 378.328C410.78 378.256 411.951 376.544 413.399 375.95C415.326 375.157 416.694 376.307 416.752 376.356C416.951 376.526 416.973 376.826 416.8 377.024C416.628 377.222 416.326 377.244 416.127 377.072C416.089 377.04 415.135 376.263 413.762 376.825C412.582 377.309 411.53 378.842 411.52 378.857C411.45 378.962 411.344 379.029 411.229 379.055Z" fill="white"/>
<path d="M409.911 377.615C409.789 377.642 409.655 377.621 409.543 377.546C409.325 377.399 409.267 377.105 409.414 376.889C409.463 376.816 410.636 375.105 412.083 374.511C414.011 373.717 415.378 374.868 415.436 374.917C415.635 375.088 415.657 375.388 415.484 375.585C415.312 375.783 415.01 375.804 414.812 375.632C414.774 375.602 413.819 374.823 412.447 375.386C411.262 375.873 410.215 377.401 410.205 377.417C410.133 377.522 410.027 377.59 409.911 377.615Z" fill="white"/>
<path d="M413.068 380.277C412.945 380.303 412.812 380.282 412.7 380.207C412.481 380.061 412.424 379.766 412.571 379.549C412.62 379.477 413.791 377.765 415.24 377.171C417.167 376.377 418.535 377.528 418.592 377.577C418.792 377.748 418.813 378.047 418.64 378.245C418.468 378.443 418.167 378.464 417.968 378.293C417.931 378.262 416.975 377.483 415.603 378.046C414.418 378.532 413.372 380.063 413.361 380.078C413.291 380.185 413.184 380.252 413.068 380.277Z" fill="white"/>
<path d="M410.654 366.331C409.128 366.982 406.928 367.174 404.805 367.136C404.477 367.136 404.149 367.126 403.83 367.098C403.048 367.069 402.295 367.003 401.61 366.925L392.277 270.816L391.514 262.918L393.309 262.783L394.275 262.717L410.288 261.557C410.288 261.557 410.278 263.493 410.278 266.647C410.269 277.478 410.326 302.706 410.944 313.604C411.734 327.684 410.654 366.331 410.654 366.331Z" fill="#3B3E7D"/>
<path d="M410.287 261.557C410.287 261.557 410.277 263.493 410.277 266.647L392.276 270.816L391.513 262.918L393.308 262.783L394.274 262.717L410.287 261.557Z" fill="#18285D"/>
<path d="M404.802 367.14C404.473 367.14 404.146 367.131 403.827 367.102L393.306 262.787L394.272 262.721L404.802 367.14Z" fill="#18285D"/>
<path d="M406.4 206.753L410.705 220.486L415.419 233.541C416.177 236.274 419.215 237.681 421.81 236.504C421.856 236.484 421.901 236.463 421.947 236.443C426.431 234.337 423.959 225.605 423.959 225.605L423.112 225.539C422.767 224.58 421.836 222.142 420.651 219.077C420.508 218.7 420.358 218.312 420.206 217.921C419.954 217.269 419.693 216.597 419.427 215.907C419.049 214.932 418.658 213.927 418.263 212.914C415.357 205.428 412.949 197.306 412.949 197.306L410.943 191.391L406.4 206.753Z" fill="#FAB083"/>
<path d="M419.134 228.603C419.134 228.603 419.752 218.654 421.889 216.539C424.027 214.423 425.978 213.616 427.983 213.688C429.988 213.76 431.874 214.007 431.75 214.826C431.75 214.826 436.355 214.135 438.411 215.319C440.467 216.505 432.322 217.542 429.903 217.604C427.485 217.667 426.207 219.009 426.11 220.44C426.012 221.871 424.617 231.352 424.617 231.352L419.134 228.603Z" fill="#FAB083"/>
<path d="M407.066 210.405C407.066 210.405 414.674 234.527 416.416 236.166C418.158 237.804 422.072 239.481 424.207 235.068C426.343 230.654 426.769 218.867 426.769 218.867L421.457 216.413L420.626 219.011L411.026 191.33C411.026 191.33 407.616 208.585 407.066 210.405Z" fill="#707FFF"/>
<path d="M418.492 228.403C418.511 228.405 418.527 228.405 418.546 228.406C418.718 228.407 418.87 228.284 418.897 228.111C419.552 223.971 420.19 220.847 420.626 219.013C420.482 218.637 420.383 218.271 420.232 217.879C419.823 219.495 418.992 222.983 418.196 228C418.167 228.192 418.299 228.371 418.492 228.403Z" fill="#4F60D9"/>
<path d="M416.694 215.47L447.217 215.673C448.364 215.68 449.301 214.763 449.31 213.623V213.605C449.317 212.465 448.393 211.535 447.246 211.527L416.723 211.324C415.576 211.317 414.639 212.234 414.63 213.374V213.392C414.622 214.532 415.547 215.463 416.694 215.47Z" fill="#18285D"/>
<path d="M449.287 215.689L455.969 191.491C456.344 190.132 455.32 188.789 453.901 188.779L439.557 188.684C438.589 188.677 437.735 189.311 437.467 190.234L430.119 215.562L449.287 215.689Z" fill="#3B3E7D"/>
<path d="M437.467 190.232L430.18 215.351L428.54 215.341L435.828 190.222C436.098 189.298 436.95 188.664 437.918 188.67L439.558 188.681C438.589 188.674 437.737 189.309 437.467 190.232Z" fill="#18285D"/>
<path d="M441.067 203.251C440.684 204.847 441.678 206.15 443.288 206.161C444.898 206.171 446.515 204.885 446.898 203.289C447.282 201.693 446.286 200.39 444.677 200.379C443.067 200.368 441.451 201.654 441.067 203.251Z" fill="#58619B"/>
<path d="M325.892 181.845C325.292 181.915 324.717 181.85 324.229 181.595C322.938 180.924 321.865 180.258 321.245 179.853C320.877 179.603 320.666 179.458 320.666 179.458C320.666 179.458 320.651 179.458 320.64 179.469C320.5 179.493 319.804 179.594 318.635 178.933C317.32 178.182 316.634 176.916 316.8 176.22C316.961 175.524 317.873 175.344 317.873 175.344C317.873 175.344 317.415 174.683 317.642 173.963C317.869 173.237 319.325 172.866 319.325 172.866C319.325 172.866 318.917 171.955 319.647 171.36C320.343 170.785 321.889 171.876 322.026 171.961C321.819 171.745 317.183 166.921 318.558 166.891C319.964 166.861 324.847 171.3 325.079 171.4C325.306 171.505 326.495 171.425 327.648 171.58C328.803 171.731 329.372 172.256 329.892 173.987C330.411 175.719 330.246 178.513 330.246 178.513C330.603 178.778 331.294 179.397 331.708 179.697C331.708 179.697 331.962 179.833 331.988 179.848C332.855 180.344 346.456 187.894 350.816 191.272C350.821 191.272 350.821 191.278 350.826 191.278C350.981 191.397 351.229 191.498 351.556 191.588C356.036 192.794 375.342 191.348 375.342 191.348L376.341 201.832C376.341 201.832 356.954 202.973 347.711 198.404C340.419 194.801 328.733 183.952 328.733 183.952L325.892 181.845Z" fill="#FAB083"/>
<path d="M327.473 176.197C327.524 176.21 327.577 176.212 327.63 176.199C327.802 176.159 327.909 175.986 327.868 175.816L327.521 174.368C327.5 174.281 327.443 174.207 327.366 174.163C327.287 174.12 327.194 174.111 327.109 174.139C327.093 174.144 325.441 174.672 324.235 174.008C323.866 173.804 323.644 173.57 323.594 173.331C323.536 173.061 323.707 172.833 323.709 172.831C323.815 172.692 323.79 172.492 323.651 172.386C323.513 172.279 323.314 172.301 323.204 172.438C323.168 172.483 322.854 172.898 322.964 173.449C323.052 173.886 323.375 174.261 323.925 174.565C325.029 175.174 326.362 174.977 326.975 174.835L327.245 175.964C327.273 176.081 327.364 176.168 327.473 176.197Z" fill="#FC8664"/>
<path d="M320.638 179.464C320.655 179.457 320.665 179.455 320.665 179.455C320.665 179.455 320.875 179.604 321.247 179.847C321.962 179.356 322.206 178.606 322.414 177.976C322.593 177.428 322.75 176.953 323.139 176.681C323.543 176.401 323.774 176.035 323.9 175.659C324.026 175.299 324.051 174.928 324.036 174.619C324.032 174.503 324.024 174.395 324.011 174.302C323.98 174.056 323.933 173.892 323.928 173.871C323.879 173.701 323.701 173.602 323.531 173.652C323.361 173.698 323.262 173.874 323.31 174.043C323.311 174.047 323.317 174.072 323.327 174.119C323.371 174.31 323.458 174.837 323.322 175.343C323.24 175.648 323.074 175.948 322.769 176.161C322.205 176.554 321.999 177.176 321.802 177.779C321.579 178.461 321.365 179.112 320.638 179.464Z" fill="#FC8664"/>
<path d="M325.561 178.329C325.677 178.36 325.806 178.324 325.889 178.227C326.004 178.093 325.986 177.893 325.851 177.779C325.835 177.765 324.236 176.394 324.521 174.607C324.549 174.433 324.428 174.27 324.254 174.242C324.079 174.215 323.915 174.333 323.887 174.507C323.546 176.653 325.359 178.201 325.437 178.265C325.474 178.296 325.517 178.317 325.561 178.329Z" fill="#FC8664"/>
<path d="M411.906 261.853C404.279 263.605 398.116 264.5 392.029 264.555C391.991 264.555 391.954 264.559 391.918 264.555C391.88 264.559 391.844 264.555 391.805 264.555C385.716 264.5 379.557 263.605 371.927 261.853C370.859 248.274 375.531 239.678 375.012 224.456C375.007 224.324 375.002 224.191 374.998 224.06C374.974 223.402 374.944 222.75 374.912 222.101C374.852 220.867 374.778 219.646 374.693 218.444C374.648 217.785 374.598 217.132 374.547 216.486C373.495 203.335 371.397 192.915 372.535 191.49C373.77 189.941 376.912 188.114 380.106 186.418C383.136 184.813 386.209 183.325 387.749 182.307C389.276 182.968 390.494 183.329 391.805 183.324C391.84 183.324 391.879 183.324 391.918 183.319C391.954 183.324 391.992 183.324 392.029 183.324C393.338 183.33 394.557 182.969 396.086 182.307C397.515 183.25 400.207 184.567 402.951 186.004C406.289 187.75 409.707 189.674 411.026 191.33C412.212 192.817 410.085 204.21 409.143 218.193C409.101 218.821 409.061 219.453 409.024 220.091C408.943 221.47 408.876 222.869 408.827 224.283C408.825 224.34 408.823 224.398 408.821 224.454C408.801 225.013 408.789 225.563 408.784 226.104C408.636 240.315 412.934 248.772 411.906 261.853Z" fill="#707FFF"/>
<path d="M404.26 244.683H404.258C396.571 244.649 390.009 241.176 385.859 238.267C381.37 235.122 378.649 231.935 378.622 231.903C378.491 231.748 378.512 231.516 378.667 231.385C378.824 231.255 379.057 231.275 379.188 231.429C379.214 231.461 381.885 234.587 386.302 237.678C390.362 240.52 396.774 243.915 404.26 243.948C404.465 243.949 404.629 244.114 404.628 244.317C404.629 244.52 404.464 244.683 404.26 244.683Z" fill="#4F60D9"/>
<path d="M396.249 247.279C389.578 247.279 382.926 243.504 382.625 243.33C382.448 243.228 382.388 243.004 382.49 242.828C382.593 242.652 382.819 242.593 382.996 242.693C383.074 242.738 390.901 247.177 397.841 246.465C398.047 246.441 398.226 246.591 398.247 246.792C398.269 246.993 398.12 247.174 397.918 247.195C397.362 247.253 396.805 247.279 396.249 247.279Z" fill="#4F60D9"/>
<path d="M390.343 200.872C390.169 200.872 390.014 200.749 389.981 200.574C389.942 200.374 390.074 200.182 390.275 200.145C399.647 198.379 402.473 192.392 402.499 192.331C402.583 192.147 402.802 192.064 402.989 192.148C403.174 192.232 403.258 192.449 403.173 192.634C403.055 192.895 400.159 199.03 390.413 200.867C390.389 200.87 390.366 200.872 390.343 200.872Z" fill="#4F60D9"/>
<path d="M392.693 189.402C387.311 189.953 385.338 183.481 385.319 183.415C385.277 183.274 385.358 183.128 385.5 183.086C385.642 183.046 385.789 183.125 385.831 183.266C385.908 183.526 387.775 189.632 392.95 188.835C397.48 188.141 397.228 183.095 397.215 182.881C397.206 182.735 397.316 182.609 397.464 182.6C397.612 182.592 397.737 182.702 397.747 182.848C397.75 182.905 398.045 188.59 393.031 189.358C392.917 189.376 392.804 189.39 392.693 189.402Z" fill="white"/>
<path d="M381.724 167.819C381.724 167.819 377.294 160.299 381.03 154.493C384.766 148.687 392.7 149.235 394.755 149.691C396.811 150.148 408.643 155.657 401.486 169.019L381.724 167.819Z" fill="#021147"/>
<path d="M382.465 165.69C382.465 165.69 380.672 163.316 379.338 165.279C378.005 167.242 379.89 173.041 383.154 171.625L382.465 165.69Z" fill="#FC8664"/>
<path d="M382.442 169.833C382.321 169.833 382.21 169.754 382.176 169.633C381.67 167.843 379.803 167.117 379.783 167.11C379.642 167.056 379.57 166.898 379.623 166.757C379.678 166.616 379.837 166.544 379.979 166.598C380.066 166.631 382.124 167.424 382.706 169.486C382.748 169.631 382.661 169.782 382.515 169.824C382.492 169.83 382.466 169.833 382.442 169.833Z" fill="#FD664D"/>
<path d="M380.557 168.932C380.505 168.932 380.454 168.918 380.407 168.888C380.279 168.807 380.242 168.637 380.325 168.509C380.339 168.488 380.67 167.988 381.361 167.681C381.5 167.618 381.663 167.681 381.726 167.818C381.788 167.956 381.726 168.118 381.587 168.181C381.053 168.418 380.792 168.802 380.79 168.805C380.736 168.887 380.647 168.932 380.557 168.932Z" fill="#FD664D"/>
<path d="M400.942 165.69C400.942 165.69 402.735 163.316 404.068 165.279C405.402 167.242 403.517 173.041 400.253 171.625L400.942 165.69Z" fill="#FC8664"/>
<path d="M400.965 169.833C401.086 169.833 401.197 169.754 401.231 169.633C401.737 167.843 403.604 167.117 403.624 167.11C403.766 167.056 403.838 166.898 403.784 166.757C403.729 166.616 403.57 166.544 403.428 166.598C403.341 166.631 401.283 167.424 400.701 169.486C400.659 169.631 400.746 169.782 400.892 169.824C400.915 169.83 400.941 169.833 400.965 169.833Z" fill="#FD664D"/>
<path d="M402.851 168.932C402.902 168.932 402.954 168.918 403 168.888C403.128 168.807 403.165 168.637 403.082 168.509C403.068 168.488 402.737 167.988 402.046 167.681C401.908 167.618 401.744 167.681 401.681 167.818C401.62 167.956 401.681 168.118 401.82 168.181C402.355 168.418 402.615 168.802 402.617 168.805C402.671 168.887 402.76 168.932 402.851 168.932Z" fill="#FD664D"/>
<path d="M396.117 176.543V182.309C396.117 182.309 394.386 185.245 392.044 185.445C389.704 185.648 387.625 182.917 387.625 182.917V176.948L396.117 176.543Z" fill="#FAB083"/>
<path d="M396.117 176.543V179.101C394.546 180.833 391.756 181.265 387.625 180.659V176.948L396.117 176.543Z" fill="#FC8664"/>
<path d="M402.239 161.733C402.131 163.974 401.916 166.777 401.486 169.017C401.378 169.576 401.257 170.102 401.122 170.573C399.9 174.822 396.844 182.109 388.287 179.073C384.508 177.734 382.756 173.553 381.975 169.302C381.446 166.414 381.365 163.497 381.405 161.413C381.446 159.285 382.615 157.34 384.48 156.291C389.531 153.448 394.86 154.508 398.368 155.847C400.805 156.775 402.363 159.15 402.239 161.733Z" fill="#FAB083"/>
<path d="M389.397 153.524C389.397 153.524 400.688 171.509 402.245 164.913C404.451 155.564 397.706 149.781 389.397 153.524Z" fill="#021147"/>
<path d="M388.928 153.523C381.414 153.579 377.677 162.057 381.161 163.061C386.011 164.458 390.215 157.642 391.509 155.278C390.639 154.707 389.767 154.138 388.928 153.523Z" fill="#021147"/>
<path d="M402.617 149.49C402.617 153.565 399.29 156.869 395.186 156.869C391.083 156.869 387.756 153.565 387.756 149.49C387.756 145.415 391.083 142.111 395.186 142.111C399.29 142.11 402.617 145.414 402.617 149.49Z" fill="#021147"/>
<path d="M382.718 162.256C382.718 162.256 383.302 164.511 382.504 166.028C381.706 167.545 382.145 170.145 382.504 173.066C382.504 173.066 381.236 171.286 381.162 168.433C381.089 165.579 381.558 163.205 381.162 162.064L382.718 162.256Z" fill="#021147"/>
<path d="M400.459 162.256C400.459 162.256 399.874 164.511 400.672 166.028C401.47 167.545 401.032 170.145 400.672 173.066C400.672 173.066 401.94 171.286 402.014 168.433C402.088 165.579 401.618 163.205 402.014 162.064L400.459 162.256Z" fill="#021147"/>
<path d="M387.935 166.028C387.935 166.644 387.615 167.143 387.221 167.143C386.827 167.143 386.507 166.644 386.507 166.028C386.507 165.413 386.827 164.914 387.221 164.914C387.616 164.914 387.935 165.413 387.935 166.028Z" fill="#021147"/>
<path d="M396.747 166.028C396.747 166.644 396.427 167.143 396.033 167.143C395.64 167.143 395.32 166.644 395.32 166.028C395.32 165.413 395.64 164.914 396.033 164.914C396.427 164.914 396.747 165.413 396.747 166.028Z" fill="#021147"/>
<path d="M385.809 162.71C386.402 162.544 387.598 162.26 388.861 162.256C389.193 162.255 389.447 162.548 389.389 162.873L389.386 162.882C389.34 163.141 389.106 163.325 388.841 163.312C387.982 163.272 385.727 163.392 384.662 163.82C384.64 163.636 384.75 163.435 384.905 163.257C385.14 162.986 385.462 162.807 385.809 162.71Z" fill="#021147"/>
<path d="M397.337 162.732C396.743 162.565 395.547 162.282 394.285 162.277C393.952 162.276 393.698 162.57 393.757 162.895L393.758 162.903C393.805 163.163 394.038 163.346 394.303 163.333C395.162 163.293 397.418 163.414 398.482 163.842C398.504 163.658 398.395 163.456 398.239 163.278C398.005 163.008 397.683 162.829 397.337 162.732Z" fill="#021147"/>
<path d="M391.8 171.112C391.588 171.112 391.376 171.075 391.2 170.97C391.039 170.873 390.838 170.68 390.799 170.3C390.694 169.294 390.954 166.137 390.964 166.004C390.977 165.853 391.109 165.741 391.262 165.753C391.413 165.765 391.526 165.898 391.514 166.048C391.51 166.08 391.247 169.288 391.347 170.243C391.364 170.409 391.433 170.469 391.483 170.498C391.742 170.652 392.34 170.495 392.589 170.395C392.73 170.337 392.891 170.405 392.948 170.545C393.006 170.685 392.939 170.845 392.798 170.902C392.726 170.933 392.265 171.112 391.8 171.112Z" fill="#FC8664"/>
<path d="M388.296 172.84C388.504 173.882 389.198 175.798 391.533 175.798C393.873 175.798 394.53 174.046 394.755 172.84H388.296Z" fill="white"/>
<path d="M391.5 177.401C390.826 177.401 390.23 177.04 390.206 177.024C390.077 176.945 390.036 176.777 390.116 176.647C390.196 176.519 390.366 176.479 390.495 176.558C390.499 176.562 390.986 176.853 391.499 176.853C392.054 176.853 392.553 176.56 392.558 176.557C392.688 176.479 392.858 176.521 392.937 176.651C393.014 176.78 392.974 176.947 392.844 177.026C392.819 177.041 392.213 177.401 391.5 177.401Z" fill="#FC8664"/>
<path d="M331.718 179.393L327.878 184.425C327.878 184.425 342.348 196.738 349.497 199.173C356.647 201.607 373.233 203.864 373.233 203.864C374.44 199.744 373.878 195.618 372.537 191.49C372.537 191.49 355.461 191.891 350.556 189.434C340.044 184.168 331.718 179.393 331.718 179.393Z" fill="#707FFF"/>
<path d="M326.529 56.8441C326.433 56.8536 326.334 56.8409 326.239 56.8017C325.233 56.3801 324.643 56.1831 324.637 56.182C324.328 56.0793 324.162 55.7488 324.264 55.4427C324.368 55.1365 324.701 54.9713 325.009 55.073C325.034 55.0814 325.642 55.2838 326.695 55.7255C326.995 55.8505 327.135 56.1937 327.009 56.4913C326.924 56.6926 326.736 56.8218 326.529 56.8441Z" fill="#DBE6F7"/>
<path d="M356.527 88.1966C356.927 89.2569 357.303 90.3512 357.642 91.4475C357.726 91.7198 357.992 91.8861 358.266 91.8575C358.303 91.8532 358.341 91.8458 358.377 91.8352C358.688 91.7399 358.862 91.4136 358.766 91.1054C358.421 89.9857 358.038 88.8703 357.629 87.7877C357.515 87.4858 357.177 87.3322 356.872 87.4455C356.567 87.5578 356.413 87.8947 356.527 88.1966Z" fill="#DBE6F7"/>
<path d="M358.559 94.7593C358.828 95.8578 359.073 96.9881 359.283 98.1204C359.339 98.4223 359.62 98.6268 359.923 98.595C359.938 98.5939 359.954 98.5908 359.969 98.5886C360.289 98.5293 360.5 98.2243 360.44 97.9075C360.225 96.754 359.976 95.6025 359.702 94.4828C359.625 94.1693 359.306 93.9776 358.991 94.0538C358.676 94.129 358.482 94.4458 358.559 94.7593Z" fill="#DBE6F7"/>
<path d="M360.328 100.861C360.006 100.903 359.778 101.196 359.82 101.516C359.89 102.044 359.953 102.578 360.008 103.102C360.073 103.707 360.13 104.326 360.178 104.938C360.203 105.26 360.486 105.501 360.81 105.475C360.816 105.474 360.821 105.474 360.826 105.473C361.142 105.44 361.376 105.163 361.351 104.846C361.302 104.223 361.243 103.594 361.178 102.978C361.122 102.445 361.058 101.901 360.987 101.363C360.946 101.047 360.659 100.824 360.342 100.857C360.338 100.861 360.333 100.861 360.328 100.861Z" fill="#DBE6F7"/>
<path d="M355.214 85.02C355.321 85.2562 355.566 85.3886 355.814 85.3632C355.874 85.3569 355.935 85.341 355.992 85.3156C356.289 85.1842 356.422 84.8378 356.29 84.5433C355.81 83.4787 355.291 82.4173 354.746 81.3888C354.595 81.1028 354.24 80.9937 353.95 81.143C353.664 81.2934 353.553 81.6472 353.704 81.9322C354.236 82.9396 354.745 83.9787 355.214 85.02Z" fill="#DBE6F7"/>
<path d="M329.365 58.2535C330.377 58.7662 331.396 59.3245 332.397 59.9134C332.51 59.9802 332.637 60.0045 332.758 59.9918C332.938 59.9728 333.105 59.8732 333.203 59.7079C333.369 59.4304 333.276 59.0713 332.996 58.9071C331.974 58.3065 330.932 57.7355 329.9 57.2123C329.611 57.0661 329.255 57.1794 329.108 57.4665C328.961 57.7546 329.076 58.1073 329.365 58.2535Z" fill="#DBE6F7"/>
<path d="M338.138 63.7579C338.263 63.8522 338.413 63.8893 338.557 63.8745C338.713 63.8586 338.861 63.7812 338.962 63.6478C339.16 63.3914 339.111 63.0249 338.852 62.8289C337.92 62.1224 336.955 61.4339 335.983 60.7835C335.713 60.6034 335.348 60.6733 335.166 60.9413C334.984 61.2093 335.055 61.5726 335.325 61.7527C336.277 62.3893 337.224 63.0652 338.138 63.7579Z" fill="#DBE6F7"/>
<path d="M348.028 73.3286C348.158 73.4896 348.357 73.5649 348.55 73.5447C348.658 73.5331 348.764 73.4918 348.855 73.4197C349.109 73.2185 349.15 72.8498 348.947 72.5977C348.215 71.691 347.444 70.7927 346.653 69.9294C346.435 69.691 346.062 69.673 345.821 69.8902C345.58 70.1073 345.563 70.477 345.782 70.7154C346.556 71.5617 347.311 72.4409 348.028 73.3286Z" fill="#DBE6F7"/>
<path d="M343.378 68.2466C343.509 68.3727 343.684 68.4267 343.851 68.4087C343.983 68.3949 344.111 68.3367 344.211 68.235C344.437 68.0041 344.432 67.6333 344.199 67.4087C343.361 66.5994 342.486 65.8028 341.594 65.0402C341.348 64.8294 340.976 64.8569 340.764 65.1016C340.552 65.3463 340.579 65.7149 340.826 65.9257C341.7 66.6736 342.558 67.4543 343.378 68.2466Z" fill="#DBE6F7"/>
<path d="M351.998 78.9475C352.121 79.1467 352.344 79.2473 352.563 79.224C352.647 79.2155 352.73 79.188 352.807 79.1414C353.084 78.973 353.172 78.6128 353.002 78.3374C352.391 77.3438 351.74 76.3565 351.067 75.4031C350.881 75.1394 350.514 75.0748 350.247 75.2601C349.981 75.4455 349.916 75.8099 350.103 76.0747C350.762 77.008 351.4 77.9751 351.998 78.9475Z" fill="#DBE6F7"/>
<path d="M301.414 39.5387L296.672 57.334L322.614 64.151L327.356 46.3556L301.414 39.5387Z" fill="#4F60D9"/>
<path d="M314.437 52.8068L321.869 63.9473L322.62 64.1443L322.742 63.691L315.162 52.3301L314.437 52.8068Z" fill="#1D38C8"/>
<path d="M296.783 56.9328L296.679 57.3269L297.498 57.5419L309.507 51.5103L309.114 50.7402L296.783 56.9328Z" fill="#1D38C8"/>
<path d="M327.364 46.3488L311.34 54.3963L301.421 39.5312L327.364 46.3488Z" fill="#707FFF"/>
<path d="M401.478 78.3811C397.901 78.3811 394.991 75.4914 394.991 71.9396C394.991 68.3878 397.901 65.498 401.478 65.498C405.054 65.498 407.964 68.3878 407.964 71.9396C407.964 75.4914 405.054 78.3811 401.478 78.3811ZM401.478 67.5192C399.023 67.5192 397.026 69.5022 397.026 71.9396C397.026 74.377 399.023 76.36 401.478 76.36C403.932 76.36 405.929 74.377 405.929 71.9396C405.929 69.5022 403.932 67.5192 401.478 67.5192Z" fill="#707FFF"/>
<path d="M434.444 84.9378C430.867 84.9378 427.958 82.048 427.958 78.4962C427.958 74.9444 430.867 72.0547 434.444 72.0547C438.021 72.0547 440.931 74.9444 440.931 78.4962C440.93 82.048 438.02 84.9378 434.444 84.9378ZM434.444 74.0758C431.99 74.0758 429.993 76.0588 429.993 78.4962C429.993 80.9337 431.99 82.9167 434.444 82.9167C436.899 82.9167 438.895 80.9337 438.895 78.4962C438.894 76.0588 436.899 74.0758 434.444 74.0758Z" fill="#4F60D9"/>
<path d="M450.063 98.0898C449.501 98.0898 449.046 97.6374 449.046 97.0792V92.6238C449.046 92.0656 449.501 91.6133 450.063 91.6133C450.626 91.6133 451.081 92.0656 451.081 92.6238V97.0792C451.081 97.6385 450.626 98.0898 450.063 98.0898Z" fill="#707FFF"/>
<path d="M450.063 105.885C449.501 105.885 449.046 105.432 449.046 104.874V100.419C449.046 99.8605 449.501 99.4082 450.063 99.4082C450.626 99.4082 451.081 99.8605 451.081 100.419V104.874C451.081 105.432 450.626 105.885 450.063 105.885Z" fill="#707FFF"/>
<path d="M456.361 99.7536H452.33C451.768 99.7536 451.312 99.3012 451.312 98.743C451.312 98.1847 451.768 97.7324 452.33 97.7324H456.361C456.923 97.7324 457.379 98.1847 457.379 98.743C457.379 99.3012 456.923 99.7536 456.361 99.7536Z" fill="#707FFF"/>
<path d="M447.797 99.7536H443.766C443.204 99.7536 442.748 99.3012 442.748 98.743C442.748 98.1847 443.204 97.7324 443.766 97.7324H447.797C448.359 97.7324 448.815 98.1847 448.815 98.743C448.814 99.3012 448.358 99.7536 447.797 99.7536Z" fill="#707FFF"/>
<path d="M415.42 90.8242C414.858 90.8242 414.403 90.3718 414.403 89.8136V85.3582C414.403 84.8 414.858 84.3477 415.42 84.3477C415.983 84.3477 416.438 84.8 416.438 85.3582V89.8136C416.438 90.3718 415.983 90.8242 415.42 90.8242Z" fill="#4F60D9"/>
<path d="M415.42 98.6191C414.858 98.6191 414.403 98.1667 414.403 97.6085V93.1531C414.403 92.5949 414.858 92.1426 415.42 92.1426C415.982 92.1426 416.438 92.5949 416.438 93.1531V97.6085C416.438 98.1667 415.982 98.6191 415.42 98.6191Z" fill="#4F60D9"/>
<path d="M421.718 92.486H417.687C417.125 92.486 416.67 92.0336 416.67 91.4754C416.67 90.9172 417.125 90.4648 417.687 90.4648H421.718C422.28 90.4648 422.736 90.9172 422.736 91.4754C422.736 92.0347 422.28 92.486 421.718 92.486Z" fill="#4F60D9"/>
<path d="M413.154 92.486H409.123C408.56 92.486 408.105 92.0336 408.105 91.4754C408.105 90.9172 408.56 90.4648 409.123 90.4648H413.154C413.716 90.4648 414.171 90.9172 414.171 91.4754C414.17 92.0347 413.715 92.486 413.154 92.486Z" fill="#4F60D9"/>
<path d="M22.0214 222.108C22.0214 225.659 19.1115 228.549 15.5349 228.549C11.9583 228.549 9.04834 225.659 9.04834 222.108C9.04834 218.556 11.9583 215.666 15.5349 215.666C19.1115 215.667 22.0214 218.557 22.0214 222.108ZM11.0836 222.108C11.0836 224.545 13.0804 226.528 15.5349 226.528C17.9893 226.528 19.9862 224.545 19.9862 222.108C19.9862 219.67 17.9893 217.687 15.5349 217.687C13.0804 217.687 11.0836 219.67 11.0836 222.108Z" fill="#707FFF"/>
<path d="M28.6201 189.373C28.6201 192.925 25.7101 195.815 22.1335 195.815C18.5569 195.815 15.647 192.925 15.647 189.373C15.647 185.821 18.5569 182.932 22.1335 182.932C25.7101 182.932 28.6201 185.821 28.6201 189.373ZM17.6822 189.373C17.6822 191.811 19.6791 193.794 22.1335 193.794C24.588 193.794 26.5848 191.811 26.5848 189.373C26.5848 186.936 24.588 184.953 22.1335 184.953C19.6791 184.953 17.6822 186.936 17.6822 189.373Z" fill="#4F60D9"/>
<path d="M41.8631 173.862C41.8631 174.42 41.4076 174.873 40.8454 174.873H36.3589C35.7968 174.873 35.3413 174.42 35.3413 173.862C35.3413 173.304 35.7968 172.852 36.3589 172.852H40.8454C41.4076 172.853 41.8631 173.305 41.8631 173.862Z" fill="#707FFF"/>
<path d="M49.7151 173.862C49.7151 174.42 49.2596 174.873 48.6975 174.873H44.211C43.6488 174.873 43.1934 174.42 43.1934 173.862C43.1934 173.304 43.6488 172.852 44.211 172.852H48.6975C49.2596 172.853 49.7151 173.305 49.7151 173.862Z" fill="#707FFF"/>
<path d="M43.5462 167.61V171.613C43.5462 172.171 43.0908 172.624 42.5286 172.624C41.9665 172.624 41.511 172.171 41.511 171.613V167.61C41.511 167.052 41.9665 166.6 42.5286 166.6C43.0908 166.6 43.5462 167.053 43.5462 167.61Z" fill="#707FFF"/>
<path d="M43.5462 176.114V180.117C43.5462 180.675 43.0908 181.128 42.5286 181.128C41.9665 181.128 41.511 180.675 41.511 180.117V176.114C41.511 175.556 41.9665 175.104 42.5286 175.104C43.0908 175.104 43.5462 175.556 43.5462 176.114Z" fill="#707FFF"/>
<path d="M34.5462 208.262C34.5462 208.821 34.0907 209.273 33.5285 209.273H29.042C28.4799 209.273 28.0244 208.821 28.0244 208.262C28.0244 207.704 28.4799 207.252 29.042 207.252H33.5285C34.0907 207.252 34.5462 207.704 34.5462 208.262Z" fill="#4F60D9"/>
<path d="M42.3985 208.262C42.3985 208.821 41.943 209.273 41.3808 209.273H36.8943C36.3322 209.273 35.8767 208.821 35.8767 208.262C35.8767 207.704 36.3322 207.252 36.8943 207.252H41.3808C41.943 207.252 42.3985 207.704 42.3985 208.262Z" fill="#4F60D9"/>
<path d="M36.2288 202.012V206.016C36.2288 206.574 35.7734 207.026 35.2112 207.026C34.6491 207.026 34.1936 206.574 34.1936 206.016V202.012C34.1936 201.454 34.6491 201.002 35.2112 201.002C35.7744 201.002 36.2288 201.455 36.2288 202.012Z" fill="#4F60D9"/>
<path d="M36.2288 210.516V214.519C36.2288 215.078 35.7734 215.53 35.2112 215.53C34.6491 215.53 34.1936 215.078 34.1936 214.519V210.516C34.1936 209.958 34.6491 209.506 35.2112 209.506C35.7744 209.506 36.2288 209.958 36.2288 210.516Z" fill="#4F60D9"/>
<path d="M124.343 68.8859V88.8387C124.343 91.4763 126.498 93.6161 129.154 93.6161H165.636L176.649 97.5397C177.78 97.9433 178.863 96.8395 178.43 95.7283L174.263 85.0432V68.8848C174.263 66.2472 172.109 64.1074 169.45 64.1074H129.154C126.498 64.1085 124.343 66.2482 124.343 68.8859Z" fill="#707FFF"/>
<path d="M156.037 79.432C156.037 81.3408 157.595 82.8884 159.516 82.8884C161.437 82.8884 162.997 81.3408 162.997 79.432C162.997 77.5231 161.438 75.9766 159.516 75.9766C157.594 75.9766 156.037 77.5231 156.037 79.432Z" fill="#4F60D9"/>
<path d="M145.02 79.432C145.02 81.3408 146.578 82.8884 148.499 82.8884C150.422 82.8884 151.979 81.3408 151.979 79.432C151.979 77.5231 150.422 75.9766 148.499 75.9766C146.578 75.9755 145.02 77.5231 145.02 79.432Z" fill="#4F60D9"/>
<path d="M134.004 79.432C134.004 81.3408 135.563 82.8884 137.485 82.8884C139.407 82.8884 140.965 81.3408 140.965 79.432C140.965 77.5231 139.407 75.9766 137.485 75.9766C135.562 75.9755 134.004 77.5231 134.004 79.432Z" fill="#4F60D9"/>
</svg>
