<svg width="38" height="38" viewBox="0 0 38 38" fill="none" xmlns="http://www.w3.org/2000/svg">
<path d="M0.111084 3.88886C0.111084 1.80245 1.80245 0.111084 3.88886 0.111084H34.1111C36.1975 0.111084 37.8889 1.80245 37.8889 3.88886V34.1111C37.8889 36.1975 36.1975 37.8889 34.1111 37.8889H3.88886C1.80245 37.8889 0.111084 36.1975 0.111084 34.1111V3.88886Z" fill="#413D99"/>
<path fill-rule="evenodd" clip-rule="evenodd" d="M19 4.83331C19.3825 4.83331 19.6926 5.14341 19.6926 5.52593V7.23109C25.6519 7.57635 30.4236 12.3481 30.7689 18.3074H32.474C32.8565 18.3074 33.1666 18.6175 33.1666 19C33.1666 19.3825 32.8565 19.6926 32.474 19.6926H30.7689C30.4236 25.6519 25.6519 30.4236 19.6926 30.7689V32.474C19.6926 32.8565 19.3825 33.1666 19 33.1666C18.6175 33.1666 18.3074 32.8565 18.3074 32.474V30.7689C12.3481 30.4236 7.57635 25.6519 7.23109 19.6926H5.52593C5.14341 19.6926 4.83331 19.3825 4.83331 19C4.83331 18.6175 5.14341 18.3074 5.52593 18.3074H7.23109C7.57635 12.3481 12.3481 7.57635 18.3074 7.23109V5.52593C18.3074 5.14341 18.6175 4.83331 19 4.83331ZM18.3074 8.61902C13.1134 8.9604 8.9604 13.1134 8.61902 18.3074H9.48889C9.87141 18.3074 10.1815 18.6175 10.1815 19C10.1815 19.3825 9.87141 19.6926 9.48889 19.6926H8.61902C8.96041 24.8865 13.1134 29.0396 18.3074 29.3809V28.5111C18.3074 28.1285 18.6175 27.8184 19 27.8184C19.3825 27.8184 19.6926 28.1285 19.6926 28.5111V29.3809C24.8865 29.0396 29.0396 24.8865 29.3809 19.6926H28.5111C28.1285 19.6926 27.8184 19.3825 27.8184 19C27.8184 18.6175 28.1285 18.3074 28.5111 18.3074H29.3809C29.0396 13.1134 24.8865 8.96041 19.6926 8.61902L19.6926 9.48889C19.6926 9.87141 19.3825 10.1815 19 10.1815C18.6175 10.1815 18.3074 9.87141 18.3074 9.48889L18.3074 8.61902ZM11.174 19C11.174 14.6778 14.6778 11.174 19 11.174C23.3221 11.174 26.8259 14.6778 26.8259 19C26.8259 23.3221 23.3221 26.8259 19 26.8259C14.6778 26.8259 11.174 23.3221 11.174 19ZM19 17.7111C18.2882 17.7111 17.7111 18.2882 17.7111 19C17.7111 19.7118 18.2882 20.2888 19 20.2888C19.7118 20.2888 20.2888 19.7118 20.2888 19C20.2888 18.2882 19.7118 17.7111 19 17.7111ZM16.3259 19C16.3259 17.5231 17.5231 16.3259 19 16.3259C20.4768 16.3259 21.6741 17.5231 21.6741 19C21.6741 20.4768 20.4768 21.6741 19 21.6741C17.5231 21.6741 16.3259 20.4768 16.3259 19Z" fill="white"/>
</svg>
