<svg fill="none" height="376" viewBox="0 0 1373 376" width="1373" xmlns="http://www.w3.org/2000/svg" xmlns:xlink="http://www.w3.org/1999/xlink"><clipPath id="a"><path d="m0 0h1373v376h-1373z"/></clipPath><clipPath id="b"><rect height="236" rx="5.42923" width="390.209" x="120" y="70"/></clipPath><clipPath id="c"><rect height="20.4477" rx="10.2238" width="20.4477" x="477.833" y="101.933"/></clipPath><clipPath id="d"><rect height="12.9453" rx="6.47267" width="12.9453" x="461.681" y="273.532"/></clipPath><clipPath id="e"><path d="m146.411 266.383h13.1834v13.1834h-13.1834z"/></clipPath><clipPath id="f"><rect height="12.9453" rx="6.47267" width="12.9453" x="461.202" y="184.5"/></clipPath><clipPath id="g"><rect height="12.9453" rx="6.47267" width="12.9453" x="461.202" y="207.617"/></clipPath><g clip-path="url(#a)"><path d="m816.178-66.4963-243.406 244.2993c-6.505 6.529-15.328 10.197-24.527 10.197h-351.183c-9.2 0-18.022 3.668-24.528 10.197l-242.7117 243.603v80.074h1545.5577v-588.3703z" fill="#b8ceff"/></g><g clip-path="url(#b)"><path d="m120 89.0854h390.487v212.5406c0 2.395-1.942 4.337-4.338 4.337h-381.812c-2.395 0-4.337-1.942-4.337-4.337z" fill="#f4f4f6"/><path d="m120 74.3372c0-2.3954 1.942-4.3372 4.337-4.3372h381.812c2.396 0 4.338 1.9418 4.338 4.3372v15.1818h-390.487z" fill="#fff"/><rect fill="#d4d4da" height="8.67509" rx="4.33755" width="8.67748" x="490.527" y="76.5068"/><ellipse cx="482.284" cy="80.8443" fill="#d4d4da" rx="3.03713" ry="3.03628"/><ellipse cx="471.003" cy="80.8443" fill="#ffde00" rx="3.03712" ry="3.03628"/><rect fill="#f4f4f6" height="8.67509" rx="4.33721" width="64.2134" x="276.628" y="76.5067"/><rect fill="#a8a8b5" height="8.67509" rx="4.33755" width="8.67748" x="345.18" y="76.5068"/><path d="m349.52 82.579v-3.47m-1.736 1.735h3.471" stroke="#fff" stroke-linecap="round" stroke-linejoin="round" stroke-width=".506007"/><path d="m506.368 70.4166h-.239-.245-.25-.257-.262-.268-.273-.28-.284-.291-.296-.301-.307-.313-.318-.324-.329-.334-.34-.345-.351-.356-.361-.367-.372-.377-.382-.388-.393-.397-.403-.409-.413-.418-.424-.428-.433-.439-.443-.449-.453-.458-.463-.468-.472-.478-.482-.487-.492-.496-.501-.506-.511-.515-.52-.524-.529-.533-.538-.542-.547-.551-.556-.56-.565-.569-.573-.577-.582-.586-.591-.594-.599-.603-.607-.611-.615-.62-.623-.628-.631-.636-.639-.644-.647-.652-.655-.659-.663-.667-.67-.674-.678-.682-.686-.689-.693-.696-.7-.704-.707-.711-.715-.718-.721-.725-.728-.732-.735-.738-.742-.745-.749-.751-.755-.759-.761-.765-.767-.771-.774-.778-.78-.783-.787-.789-.792-.796-.798-.801-.804-.807-.81-.813-.816-.818-.821-.824-.826-.83-.832-.834-.837-.84-.843-.845-.847-.85-.853-.855-.857-.86-.863-.864-.868-.869-.872-.874-.876-.879-.881-.883-.885-.887-.89-.892-.893-.896-.898-.9-.902-.904-.906-.908-.909-.912-.914-.915-.917-.919-.921-.923-.924-.926-.928-.929-.931-.933-.934-.936-.937-.939-.941-.942-.943-.945-.947-.947-.949-.951-.952-.953-.954-.956-.957-.958-.959-.961-.962-.963-.964-.965-.966-.967-.968-.969-.971-.971-.972-.973-.974-.974-.976-.976-.978-.978-.979-.979-.98-.981-.982-.982-.983-.983-.984-.985-.985-.985-.987-.986-.987-.988-.987-.989-.988-.989-.989-.99-.99-.989-.991-.99-.991-.99-.991-.991-.991-.992-.991-.991-.991-.991-.991-.991-.991-.991-.991-.99-.991-.99-.99-.989-.99-.989-.989-.988-.988-.988-.987-.987-.987-.986-.985-.985-.984-.984-.983-.983-.982-.981-.981-.98-.979-.979-.978-.976-.977-.975-.974-.974-.973-.972-.97-.97-.969-.968-.967-.966-.964-.964-.962-.962-.96-.959-.958-.956-.956-.954-.952-.952-.95-.948-.948-.945-.945-.943-.941-.94-.939-.937-.935-.934-.932-.931-.928-.928-.925-.924-.922-.92-.918-.917-.915-.913-.911-.909-.907-.905-.904-.901-.899-.897-.896-.893-.891-.889-.886-.885-.882-.88-.878-.876-.873-.871-.869-.866-.864-.862-.859-.856-.855-.851-.85-.846-.845-.841-.839-.837-.833-.831-.829-.825-.823-.821-.817-.814-.812-.809-.806-.803-.801-.797-.794-.792-.788-.786-.782-.779-.776-.773-.77-.767-.764-.76-.757-.754-.751-.747-.744-.741-.737-.734-.731-.727-.724-.72-.717-.713-.71-.706-.702-.699-.696-.691-.688-.684-.681-.677-.673-.669-.666-.661-.658-.654-.65-.646-.642-.639-.634-.63-.626-.623-.618-.614-.609-.606-.602-.597-.593-.589-.585-.58-.576-.572-.568-.563-.558-.555-.549-.546-.541-.536-.532-.527-.523-.518-.514-.509-.504-.5-.495-.49-.485-.481-.476-.471-.466-.462-.456-.452-.447-.441-.437-.432-.427-.421-.417-.412-.406-.401-.397-.391-.386-.38-.376-.37-.365-.359-.354-.349-.344-.338-.333-.327-.322-.316-.311-.305-.3-.294-.289-.282c-2.005 0-3.621 1.6245-3.621 3.6317v227.5777c0 2.165 1.755 3.92 3.921 3.92h381.812c2.18 0 3.921-1.659 3.921-3.81v-.188-.192-.194-.197-.201-.203-.207-.209-.212-.216-.218-.221-.224-.227-.23-.233-.236-.238-.242-.244-.247-.25-.253-.256-.258-.261-.264-.267-.269-.272-.275-.277-.28-.283-.286-.288-.291-.293-.296-.299-.301-.304-.306-.309-.312-.314-.316-.319-.322-.323-.327-.329-.331-.334-.336-.339-.341-.343-.346-.348-.35-.353-.355-.358-.36-.362-.364-.366-.369-.371-.373-.376-.378-.38-.382-.384-.386-.389-.39-.393-.395-.397-.399-.401-.403-.405-.408-.409-.411-.413-.416-.417-.419-.421-.423-.425-.427-.429-.43-.433-.434-.437-.438-.44-.441-.444-.445-.447-.449-.451-.452-.454-.456-.458-.459-.461-.462-.464-.466-.468-.469-.471-.472-.474-.475-.477-.479-.48-.482-.483-.484-.487-.487-.489-.491-.492-.493-.495-.496-.498-.499-.5-.502-.503-.504-.506-.507-.508-.51-.51-.512-.514-.514-.516-.517-.518-.52-.52-.522-.523-.524-.525-.526-.527-.529-.529-.531-.531-.533-.534-.534-.536-.537-.537-.539-.539-.541-.541-.543-.543-.544-.545-.546-.547-.547-.549-.549-.55-.551-.552-.552-.553-.554-.555-.555-.556-.557-.558-.558-.559-.559-.56-.561-.561-.562-.563-.563-.563-.565-.564-.566-.566-.566-.567-.567-.568-.568-.569-.569-.569-.57-.571-.57-.572-.571-.572-.572-.572-.573-.573-.574-.573-.574-.574-.575-.574-.575-.575-.575-.576-.575-.576-.576-.576-.576-.576-.577-.576-.577-.576-.577-.576-.577-.577-.576-.577-.576-.577-.576-.577-.576-.576-.577-.576-.576-.575-.576-.576-.575-.575-.575-.575-.574-.574-.574-.574-.574-.573-.573-.572-.573-.572-.571-.572-.571-.57-.57-.57-.569-.569-.569-.568-.567-.567-.567-.566-.565-.565-.565-.564-.563-.563-.562-.562-.561-.56-.56-.559-.559-.558-.557-.556-.556-.555-.554-.554-.552-.552-.552-.55-.55-.548-.548-.548-.546-.545-.545-.544-.542-.542-.541-.54-.539-.538-.538-.536-.535-.534-.533-.532-.531-.53-.529-.528-.527-.525-.525-.523-.522-.521-.52-.519-.518-.516-.515-.514-.513-.511-.51-.509-.508-.506-.505-.504-.502-.501-.5-.498-.497-.495-.494-.493-.491-.49-.488-.487-.485-.484-.483-.48-.48-.477-.477-.474-.473-.472-.47-.468-.467-.465-.463-.462-.46-.458-.457-.454-.454-.451-.45-.448-.446-.444-.443-.441-.439-.437-.435-.433-.432-.43-.427-.426-.424-.422-.42-.419-.416-.414-.412-.41-.409-.406-.404-.402-.3999-.3979-.3959-.3937-.3917-.3895-.3873-.3853-.3831-.3808-.3788-.3765-.3743-.3721-.3699-.3676-.3653-.3631-.3608-.3586-.3562-.3539-.3515-.3493-.3468-.3445-.3422-.3397-.3373-.335-.3325-.33-.3276-.3252-.3226-.3202-.3177-.3152-.3127-.3101-.3075-.3051-.3024-.2999-.2972-.2947-.292-.2894-.2868-.2841-.2814-.2787-.2761-.2734-.2706-.2679-.2652-.2624-.2597-.2568-.2541-.2513-.2485-.2456-.2428-.24-.2371-.2342-.2313-.2284-.2256-.2226-.2196-.2167-.2138-.2108-.2078-.2048-.2018-.1988-.1957-.1928-.1896-.1866-.1835-.1804-.1773-.1742c0-2.1844-1.555-3.8451-3.702-3.8451z" stroke="#f4f4f6" stroke-linecap="round" stroke-linejoin="round" stroke-width=".832744"/><path clip-rule="evenodd" d="m471.245 183.351v-7.671c0-1.164.944-2.109 2.109-2.109s2.109.945 2.109 2.109v7.231c0-1.165.944-2.109 2.109-2.109s2.109.944 2.109 2.109v.603c0-1.165.944-2.109 2.109-2.109s2.109.944 2.109 2.109v1.808c0-1.165.944-2.11 2.109-2.11s2.109.945 2.109 2.11v8.507c0 5.784-4.586 10.474-10.244 10.474-5.657 0-10.244-4.69-10.244-10.475 0-2.781 1.932-8.423 3.662-10.936z" fill="#fff" fill-rule="evenodd"/><path d="m471.245 175.68v7.671l.046-.459c-1.73 2.513-3.662 8.155-3.662 10.936 0 5.785 4.587 10.475 10.244 10.475 5.658 0 10.244-4.69 10.244-10.474v-8.507c0-1.165-.944-2.11-2.109-2.11s-2.109.945-2.109 2.11v-1.808m-12.654-7.834c0-1.164.944-2.109 2.109-2.109s2.109.945 2.109 2.109m-4.218 0v15.366m4.218-15.366v7.231m0-7.231v10.787m0-3.556c0-1.165.944-2.109 2.109-2.109s2.109.944 2.109 2.109m-4.218 0v3.775m4.218-3.775v.603m0-.603v4.52m0-3.917c0-1.165.944-2.109 2.109-2.109s2.109.944 2.109 2.109m-4.218 0v2.844m4.218-2.844v3.917" stroke="#262647" stroke-linecap="round" stroke-linejoin="round" stroke-width="1.43772"/><path d="m0 0h370.614v31.5235h-370.614z" fill="#fff" transform="translate(138.744 95.5431)"/><path d="m156.939 103.807h-4.016c-.444 0-.804.315-.804.703v.469c0 .388.36.703.804.703h4.016c.297 0 .556-.141.695-.351.004-.005.008-.011.011-.017.062-.1.097-.214.097-.335v-.469c0-.388-.359-.703-.803-.703z" fill="#a8a8b5"/><path d="m160.085 104.745h-1.64v.234c0 .862-.765 1.406-1.506 1.406h-4.016c-.741 0-1.507-.544-1.507-1.406v-.234h-1.64c-.517 0-.937.419-.937.937v12.183c0 .518.42.937.937.937h10.309c.518 0 .938-.419.938-.937v-12.183c0-.518-.42-.937-.938-.937z" fill="#a8a8b5"/><path d="m152.176 112.843 1.712 1.689s2.518-3.054 4.595-4.416" stroke="#fff" stroke-linecap="round" stroke-linejoin="round" stroke-width="1.27798"/><path d="m170.299 110.944c.215-.706.409-1.462.583-2.198h.041c.194.726.388 1.492.603 2.198l.225.797h-1.677zm-2.249 3.537h1.237l.511-1.789h2.219l.511 1.789h1.288l-2.167-6.686h-1.432zm6.59 0h2.321c1.472 0 2.576-.623 2.576-1.963 0-.899-.542-1.421-1.278-1.584v-.041c.573-.205.92-.818.92-1.452 0-1.227-1.012-1.646-2.392-1.646h-2.147zm1.216-3.936v-1.799h.849c.859 0 1.288.235 1.288.869 0 .572-.398.93-1.308.93zm0 2.986v-2.076h.982c.981 0 1.503.307 1.503.992 0 .746-.532 1.084-1.503 1.084zm7.563 1.073c.858 0 1.554-.327 2.116-.971l-.654-.726c-.368.409-.829.644-1.411.644-1.115 0-1.82-.92-1.82-2.423 0-1.493.777-2.392 1.84-2.392.522 0 .92.194 1.268.531l.644-.746c-.419-.46-1.094-.849-1.932-.849-1.697 0-3.067 1.299-3.067 3.487 0 2.218 1.339 3.445 3.016 3.445zm5.279-.123h1.85c1.984 0 3.21-1.145 3.21-3.374 0-2.218-1.226-3.312-3.271-3.312h-1.789zm1.216-.981v-4.713h.491c1.329 0 2.096.685 2.096 2.32 0 1.646-.767 2.393-2.096 2.393zm7.218 1.104c.654 0 1.268-.184 1.738-.532l-.409-.756c-.347.225-.736.347-1.165.347-.798 0-1.329-.49-1.452-1.329h3.169c.041-.184.062-.368.062-.613 0-1.411-.737-2.392-2.096-2.392-1.176 0-2.321 1.001-2.321 2.637 0 1.677 1.084 2.638 2.474 2.638zm-1.288-3.169c.102-.757.593-1.166 1.165-1.166.655 0 1.002.43 1.002 1.166zm5.498 3.169c.287 0 .491-.041.634-.112l-.143-.89c-.082.021-.123.021-.184.021-.123 0-.256-.103-.256-.399v-5.961h-1.216v5.899c0 .89.317 1.442 1.165 1.442zm1.62-.123h1.217v-5.03h-1.217zm.614-5.889c.429 0 .726-.276.726-.685s-.297-.685-.726-.685c-.43 0-.726.276-.726.685s.296.685.726.685zm3.207 5.889h1.39l1.708-5.03h-1.166l-.787 2.587c-.133.501-.286 1.012-.419 1.523h-.041c-.143-.511-.286-1.022-.429-1.523l-.777-2.587h-1.227zm6.044.123c.655 0 1.268-.184 1.738-.532l-.409-.756c-.347.225-.736.347-1.165.347-.798 0-1.329-.49-1.452-1.329h3.169c.041-.184.062-.368.062-.613 0-1.411-.736-2.392-2.096-2.392-1.176 0-2.321 1.001-2.321 2.637 0 1.677 1.084 2.638 2.474 2.638zm-1.288-3.169c.102-.757.593-1.166 1.166-1.166.654 0 1.001.43 1.001 1.166zm4.333 3.046h1.217v-3.046c.296-.767.777-1.033 1.175-1.033.205 0 .328.02.481.061l.245-1.032c-.153-.062-.317-.102-.572-.102-.532 0-1.064.368-1.432 1.022h-.03l-.092-.9h-.992zm4.351 2.055c1.105 0 1.636-.695 2.055-1.84l1.81-5.245h-1.165l-.737 2.444c-.122.46-.255.951-.378 1.421h-.041c-.143-.481-.286-.982-.439-1.421l-.849-2.444h-1.227l1.973 4.959-.092.317c-.163.49-.47.838-.991.838-.113 0-.205-.01-.348-.051l-.235.91c.194.071.388.112.664.112zm6.884-2.055h1.216v-2.443h.941c1.442 0 2.556-.675 2.556-2.168 0-1.554-1.114-2.075-2.597-2.075h-2.116zm1.216-3.414v-2.301h.808c.971 0 1.483.286 1.483 1.104 0 .808-.46 1.197-1.442 1.197zm4.632 3.414h1.217v-3.046c.296-.767.777-1.033 1.175-1.033.205 0 .327.02.481.061l.245-1.032c-.153-.062-.317-.102-.572-.102-.532 0-1.064.368-1.432 1.022h-.03l-.092-.9h-.992zm5.819.123c1.248 0 2.393-.961 2.393-2.628 0-1.676-1.145-2.647-2.393-2.647-1.257 0-2.402.971-2.402 2.647 0 1.667 1.145 2.628 2.402 2.628zm0-.981c-.725 0-1.155-.655-1.155-1.647 0-1.001.43-1.656 1.155-1.656.726 0 1.156.655 1.156 1.656 0 .992-.43 1.647-1.156 1.647zm3.148 2.954c1.206 0 1.615-.797 1.615-1.871v-5.255h-1.206v5.286c0 .583-.133.889-.573.889-.153 0-.296-.041-.429-.081l-.225.889c.194.082.46.143.818.143zm1.002-7.985c.429 0 .725-.276.725-.685s-.296-.685-.725-.685c-.43 0-.726.276-.726.685s.296.685.726.685zm4.229 6.012c.654 0 1.268-.184 1.738-.532l-.409-.756c-.348.225-.736.347-1.166.347-.797 0-1.329-.49-1.451-1.329h3.169c.041-.184.061-.368.061-.613 0-1.411-.736-2.392-2.095-2.392-1.176 0-2.321 1.001-2.321 2.637 0 1.677 1.083 2.638 2.474 2.638zm-1.288-3.169c.102-.757.593-1.166 1.165-1.166.655 0 1.002.43 1.002 1.166zm6.439 3.169c.572 0 1.165-.194 1.646-.613l-.491-.767c-.286.235-.634.399-1.033.399-.766 0-1.308-.655-1.308-1.647 0-1.001.552-1.656 1.349-1.656.317 0 .573.102.828.327l.583-.756c-.368-.327-.838-.562-1.472-.562-1.35 0-2.535.971-2.535 2.647 0 1.667 1.063 2.628 2.433 2.628zm4.306 0c.408 0 .777-.092 1.042-.215l-.214-.848c-.174.071-.348.102-.522.102-.47 0-.705-.286-.705-.869v-2.362h1.278v-.961h-1.278v-1.564h-1.002l-.143 1.564-.777.062v.899h.715v2.362c0 1.094.43 1.83 1.606 1.83z" fill="#262647"/><g clip-path="url(#c)"><rect fill="#e9e9ed" height="20.4477" rx="10.2238" width="20.4477" x="477.833" y="101.933"/><g fill="#d4d4da"><path d="m493.182 117.064 2.752 8.438c.2.613.302 1.255.302 1.9v12.359h-17.994v-12.506c0-.284.057-.565.168-.827l5.188-9.364z"/><path clip-rule="evenodd" d="m492.294 132.87v-15.806c4.293 0 7.774 3.481 7.774 7.775v8.031c0 3.811-3.09 6.9-6.901 6.9h-2.179c-3.811.001-6.901-3.089-6.901-6.9z" fill-rule="evenodd"/><path d="m472.428 133.276h.006l-.214.532c-1.146 2.85.959 5.953 4.038 5.953h12.208v-6.485h-8.453l6.77-16.212h-3.519c-2.817 0-4.818 1.613-5.832 4.084z"/></g><path d="m487.75 119.722c1.412 0 2.556-1.19 2.556-2.658h-5.112c0 1.468 1.145 2.658 2.556 2.658z" fill="#fff"/><path d="m486.538 104.176c1.24-.233 2.278-.462 3.282-.238 1.004.227 1.969.908 2.583 1.943.614 1.034.874 2.418.494 3.555-.38 1.14-1.398 2.03-2.425 3.141s-2.064 2.441-2.99 2.415c-.925-.029-1.745-1.417-2.532-2.545-.784-1.13-1.54-2.002-1.954-3.22-.417-1.221-.496-2.785.185-3.686.679-.898 2.12-1.133 3.357-1.365z" fill="#262647"/><path d="m490.998 112.345v1.515c0 .887-.533 1.649-1.296 1.985v1.478c0 1.073-.87 1.944-1.943 1.944-1.074 0-1.944-.871-1.944-1.944v-1.478c-.763-.336-1.296-1.098-1.296-1.985v-1.515c-.477 0-.863-.387-.863-.864s.386-.864.863-.864h.216l.648-2.387h4.751l.648 2.387h.216c.477 0 .864.387.864.864s-.387.864-.864.864z" fill="#7d7d91"/><path d="m486.626 113.956s.49-.572 1.226-.572c.737 0 1.227.572 1.227.572s-.435.654-1.227.654c-.791 0-1.226-.654-1.226-.654z" fill="#a8a8b5"/><g fill="#262647"><circle cx="486.263" cy="110.726" r=".20459"/><circle cx="489.263" cy="110.726" r=".20459"/></g></g><path d="m0 0h153.357v74.1227h-153.357z" fill="#fff" transform="translate(142.152 131.327)"/><rect fill="#e9e9ed" height="3.40794" rx="1.70397" width="138.342" x="148.636" y="156.98"/><rect fill="#90e093" height="3.40794" rx="1.70397" width="119.394" x="148.636" y="156.98"/><rect fill="#ffde00" height="5.11191" rx="2.55596" width="18.6006" x="148.636" y="170.092"/><rect fill="#aecef1" height="5.11191" rx="2.55596" width="27.0158" x="170.275" y="170.092"/><g fill="#e9e9ed"><rect height="1.84933" rx=".924667" transform="matrix(1 0 0 -1 167.307 194.478)" width="9.63127"/><rect height="1.84933" rx=".924667" transform="matrix(1 0 0 -1 221.834 194.478)" width="9.63127"/><rect height="1.84933" rx=".924667" transform="matrix(1 0 0 -1 185.198 194.478)" width="9.63127"/><rect height="1.84933" rx=".924667" transform="matrix(1 0 0 -1 239.726 194.478)" width="9.63127"/><rect height="1.84933" rx=".924667" transform="matrix(1 0 0 -1 257.618 194.478)" width="9.63127"/><rect height=".851986" rx=".425993" transform="matrix(.5 -.866025 -.866025 -.5 179.414 197.085)" width="9.63127"/><rect height=".851986" rx=".425993" transform="matrix(.5 -.866025 -.866025 -.5 233.941 197.085)" width="9.63127"/><rect height=".851986" rx=".425993" transform="matrix(.5 -.866025 -.866025 -.5 251.833 197.085)" width="9.63127"/></g><path d="m238.462 140.214c0-.941.763-1.704 1.704-1.704h45.109c.941 0 1.704.763 1.704 1.704v3.01 3.01c0 .941-.763 1.704-1.704 1.704h-45.109c-.941 0-1.704-.763-1.704-1.704z" style="fill-rule:evenodd;clip-rule:evenodd;fill:#f4f4f6;stroke:#fff;stroke-width:1.3153;stroke-linejoin:round"/><path d="m194.146 140.214c0-.941.762-1.704 1.703-1.704h43.855c.709 0 1.343.439 1.594 1.102l1.136 3.01c.147.388.147.816 0 1.204l-1.136 3.01c-.251.663-.885 1.102-1.594 1.102h-43.855c-.941 0-1.703-.763-1.703-1.704z" style="fill-rule:evenodd;clip-rule:evenodd;fill:#51c466;stroke:#fff;stroke-width:1.3153;stroke-linejoin:round"/><path d="m147.923 140.215c0-.941.763-1.704 1.704-1.704h43.854c.709 0 1.343.439 1.594 1.102l1.137 3.009c.146.388.146.816 0 1.204l-1.137 3.01c-.251.663-.885 1.102-1.594 1.102h-43.854c-.941 0-1.704-.763-1.704-1.704z" style="fill-rule:evenodd;clip-rule:evenodd;fill:#51c466;stroke:#fff;stroke-width:1.3153;stroke-linejoin:round"/><path d="m153.367 188.958v3.48h3.128v-2.436c0-.385.311-.696.695-.696h.351v-.348zm3.128 4.523h-3.128v3.653c0 .288-.234.522-.522.522s-.522-.234-.522-.522v-8.698c0-.288.234-.521.522-.521.028 0 .055.002.081.006.03-.004.061-.006.093-.006h4.869c.385 0 .696.311.696.695v.696h2.782c.384 0 .696.311.696.696v4.175c0 .384-.312.696-.696.696h-4.176c-.384 0-.695-.312-.695-.696zm1.043.348h3.48v-3.48h-3.48z" fill="#a8a8b5"/><path d="m211.166 188.958h1.86v.348h-.35c-.384 0-.696.311-.696.696v.117h-.814v1.161h-1.161v-1.161h-1.153v-1.161h1.153v1.161h1.161zm.814 2.322v1.158h-.814v-1.158zm0 2.201v.696c0 .384.312.696.696.696h4.175c.384 0 .696-.312.696-.696v-4.175c0-.385-.312-.696-.696-.696h-2.782v-.696c0-.384-.311-.695-.695-.695h-4.87c-.323 0-.595.22-.673.519-.014.048-.022.099-.022.152v8.548c0 .288.233.522.522.522.288 0 .521-.234.521-.522v-3.653zm-3.128-2.201h1.153v1.158h-1.153zm4.171-.933h1.161v1.162h-1.161zm3.484 0v1.162h-1.161v-1.162zm-3.484 2.323h1.161v-1.161h1.162v1.161h1.161v1.161h-1.161v-1.161h-1.162v1.161h-1.161z" fill="#a8a8b5"/><path d="m0 0h153.357v51.1191h-153.357z" fill="#fff" transform="translate(142.152 208.448)"/><g fill="#e9e9ed"><rect height="3.40794" rx="1.70397" width="43.7331" x="148.636" y="214.834"/><rect height="1.70397" rx=".851986" width="25.7987" x="182.365" y="228.139"/><rect height="1.70397" rx=".851986" width="20.8623" x="187.301" y="238.67"/><rect height="1.70397" rx=".851986" width="20.8623" x="187.301" y="249.201"/><rect height="1.70397" rx=".851986" width="42.3444" x="215.604" y="228.139"/><rect height="1.70397" rx=".851986" width="27.5346" x="215.604" y="238.67"/><rect height="1.70397" rx=".851986" width="27.5346" x="215.604" y="249.201"/></g><rect fill="#fff" height="13.6318" rx="1.70397" width="201.921" x="299.769" y="131.327"/><rect fill="#e9e9ed" height="3.40794" rx="1.70397" width="34.3104" x="460" y="136.5"/><rect fill="#a8a8b5" height="3.40794" rx="1.70397" width="26.1529" x="460" y="136.5"/><rect fill="#e9e9ed" height="3.40794" rx="1.70397" transform="matrix(1 0 0 -1 316.448 139.908)" width="31.3357"/><path d="m306.917 134.846c.148-.148.388-.148.536 0l3.029 3.029c.148.148.148.387 0 .535l-3.029 3.03c-.148.147-.388.147-.536 0-.148-.148-.148-.388 0-.536l2.762-2.761-2.762-2.762c-.148-.148-.148-.388 0-.535z" fill="#a8a8b5"/><rect fill="#fff" height="13.6318" rx="1.70397" width="201.921" x="299.769" y="148.366"/><rect fill="#e9e9ed" height="3.40794" rx="1.70397" width="34.3104" x="460" y="153.54"/><rect fill="#a8a8b5" height="3.40794" rx="1.70397" width="32.5961" x="460" y="153.54"/><rect fill="#e9e9ed" height="3.40794" rx="1.70397" transform="matrix(1 0 0 -1 316.448 156.948)" width="25.1339"/><path d="m306.917 151.885c.148-.148.388-.148.536 0l3.029 3.029c.148.148.148.388 0 .536l-3.029 3.029c-.148.148-.388.148-.536 0s-.148-.388 0-.535l2.762-2.762-2.762-2.762c-.148-.147-.148-.387 0-.535z" fill="#a8a8b5"/><rect fill="#fff" height="135.466" rx="1.70397" width="201.921" x="299.769" y="165.234"/><path d="m301.44 201.703h200.249v21.6372h-200.249z" fill="#f4f4f6"/><rect fill="#e9e9ed" height="3.40794" rx="1.70397" width="34.3104" x="460" y="170.58"/><rect fill="#51c466" height="3.40794" rx="1.70397" width="25.7986" x="460" y="170.58"/><path d="m301.44 165.406v135.293c-.923 0-1.671-.748-1.671-1.671v-131.951c0-.923.748-1.671 1.671-1.671z" fill="#2aaa51"/><rect fill="#a8a8b5" height="3.40794" rx="1.70397" transform="matrix(1 0 0 -1 316.448 173.988)" width="31.3357"/><rect fill="#6fd27a" height="2.55596" rx="1.27798" transform="matrix(1 0 0 -1 349.169 236.814)" width="43.0691"/><rect fill="#2aaa51" height="2.55596" rx="1.27798" transform="matrix(1 0 0 -1 349.169 213.81)" width="50.2397"/><rect fill="#2aaa51" height="2.55596" rx="1.27798" transform="matrix(-1 0 0 -1 868.448 427.62)" width="31.2237" x="434.224" y="213.81"/><rect fill="#e9e9ed" height="2.55596" rx="1.27798" transform="matrix(1 0 0 -1 349.169 257.687)" width="43.0691"/><rect fill="#a8a8b5" height=".851986" rx=".425993" transform="matrix(1 0 0 -1 459.891 236.484)" width="12.0299"/><rect fill="#a8a8b5" height=".851986" rx=".425993" transform="matrix(1 0 0 -1 459.891 256.08)" width="12.0299"/><path d="m311.997 170.44c.148.148.148.387 0 .535l-3.03 3.029c-.147.148-.387.148-.535 0l-3.029-3.029c-.148-.148-.148-.387 0-.535s.387-.148.535 0l2.762 2.761 2.761-2.761c.148-.148.388-.148.536 0z" fill="#7d7d91"/><path d="m316.199 199.522v12.739h10.359" stroke="#a8a8b5" stroke-linecap="round" stroke-width=".851986"/><path d="m316.199 202.078v34.226h10.359" stroke="#a8a8b5" stroke-linecap="round" stroke-width=".851986"/><path d="m316.199 202.078v55.609h10.359" stroke="#a8a8b5" stroke-linecap="round" stroke-width=".851986"/><path clip-rule="evenodd" d="m335.111 242.51c3.529 0 6.39-2.86 6.39-6.389s-2.861-6.39-6.39-6.39-6.39 2.861-6.39 6.39 2.861 6.389 6.39 6.389z" fill="#6fd27a" fill-rule="evenodd"/><path d="m331.894 236.735 1.913 1.888s2.814-3.414 5.135-4.936" stroke="#fff" stroke-linecap="round" stroke-linejoin="round" stroke-width="1.27798"/><path clip-rule="evenodd" d="m335.111 219.507c3.529 0 6.39-2.861 6.39-6.39s-2.861-6.39-6.39-6.39-6.39 2.861-6.39 6.39 2.861 6.39 6.39 6.39z" fill="#2aaa51" fill-rule="evenodd"/><path d="m331.894 213.731 1.913 1.888s2.814-3.414 5.135-4.935" stroke="#fff" stroke-linecap="round" stroke-linejoin="round" stroke-width="1.27798"/><path d="m335.111 263.384c3.529 0 6.39-2.861 6.39-6.39s-2.861-6.39-6.39-6.39-6.39 2.861-6.39 6.39 2.861 6.39 6.39 6.39z" style="fill-rule:evenodd;clip-rule:evenodd;stroke:#e9e9ed;stroke-width:.851986;stroke-linecap:round;stroke-linejoin:round"/><path d="m301.44 180.404h200.249v.851986h-200.249z" fill="#e9e9ed"/><rect fill="#7d7d91" height="2.55596" rx="1.27798" transform="matrix(1 0 0 -1 329.55 192.669)" width="18.0678"/><rect fill="#7d7d91" height="2.55596" rx="1.27798" transform="matrix(1 0 0 -1 351.026 192.669)" width="44.219"/><path d="m314.158 188.316h-.866c-.235 0-.426.19-.426.426v7.667c0 .236.191.426.426.426h6.816c.235 0 .426-.19.426-.426v-7.667c0-.236-.191-.426-.426-.426h-.838v.414c0 .235-.191.426-.426.426h-4.26c-.235 0-.426-.191-.426-.426zm5.112-1.278h.838c.941 0 1.704.762 1.704 1.704v7.667c0 .941-.763 1.704-1.704 1.704h-6.816c-.941 0-1.704-.763-1.704-1.704v-7.667c0-.942.763-1.704 1.704-1.704h.866c0-.471.381-.852.852-.852h3.408c.47 0 .852.381.852.852z" fill="#7d7d91"/><rect fill="#d6e6f8" height="13.6318" rx="2.55596" width="22.9884" x="399.409" y="184.173"/><rect fill="#0070d6" height="10.0846" rx="2.55596" width="10.0896" x="401.296" y="185.964"/><path d="m405.859 193.555c-.349 0-.659-.06-.93-.179-.269-.12-.482-.286-.639-.499-.156-.213-.239-.459-.249-.738h.91c.008.134.052.251.133.351.081.098.188.175.322.23s.284.082.45.082c.178 0 .335-.031.472-.092.137-.063.245-.15.322-.261.078-.112.115-.24.114-.385.001-.15-.037-.283-.116-.397-.079-.115-.194-.204-.344-.269-.149-.064-.328-.097-.537-.097h-.438v-.692h.438c.172 0 .323-.03.452-.089.131-.06.233-.144.308-.252.074-.11.11-.237.109-.38.001-.141-.03-.262-.095-.366-.063-.105-.152-.186-.269-.244-.114-.058-.249-.087-.404-.087-.151 0-.292.027-.421.082s-.233.133-.312.235c-.079.1-.121.219-.126.358h-.864c.006-.278.086-.521.24-.731.154-.211.361-.376.619-.494.258-.119.548-.179.869-.179.331 0 .618.062.862.187.245.122.435.288.569.496s.2.438.2.69c.002.279-.08.513-.246.701-.165.189-.381.313-.649.371v.039c.348.048.616.177.801.387.187.208.28.467.278.777 0 .277-.079.526-.237.745-.156.218-.373.389-.648.513-.275.125-.589.187-.944.187z" fill="#fff"/><path d="m414.166 190.338c.124-.124.325-.124.449 0l1.469 1.469 1.469-1.469c.124-.124.325-.124.449 0s.124.325 0 .449l-1.693 1.693c-.06.06-.141.093-.225.093s-.165-.033-.224-.093l-1.694-1.693c-.124-.124-.124-.325 0-.449z" fill="#0070d6"/><path clip-rule="evenodd" d="m340.717 220.399v-6.38c0-.969.786-1.754 1.754-1.754.969 0 1.754.785 1.754 1.754v6.014c0-.969.786-1.754 1.754-1.754.969 0 1.755.785 1.755 1.754v.501c0-.968.785-1.754 1.754-1.754.968 0 1.754.786 1.754 1.754v1.504c0-.969.785-1.754 1.754-1.754s1.754.785 1.754 1.754v7.076c0 4.81-3.815 8.711-8.52 8.711s-8.52-3.901-8.52-8.712c0-2.313 1.607-7.006 3.046-9.096z" fill="#fff" fill-rule="evenodd"/><path d="m340.717 214.019v6.38l.039-.382c-1.439 2.09-3.046 6.783-3.046 9.096 0 4.811 3.815 8.712 8.52 8.712s8.52-3.901 8.52-8.711v-7.076c0-.969-.785-1.754-1.754-1.754s-1.754.785-1.754 1.754v-1.504m-10.525-6.515c0-.969.786-1.754 1.754-1.754.969 0 1.754.785 1.754 1.754m-3.508 0v12.78m3.508-12.78v6.014m0-6.014v8.972m0-2.958c0-.969.786-1.754 1.754-1.754.969 0 1.755.785 1.755 1.754m-3.509 0v3.14m3.509-3.14v.501m0-.501v3.759m0-3.258c0-.968.785-1.754 1.754-1.754.968 0 1.754.786 1.754 1.754m-3.508 0v2.366m3.508-2.366v3.258" stroke="#262647" stroke-linecap="round" stroke-linejoin="round" stroke-width="1.70397"/><rect fill="#a8a8b5" height="2.774" rx="1.387" transform="matrix(1 0 0 -1 334.035 281.854)" width="34.9157"/><rect fill="#a8a8b5" height="2.774" rx="1.387" transform="matrix(1 0 0 -1 372.65 281.854)" width="57.8268"/><path d="m313.858 275.059c0-.511.414-.925.925-.925h3.698c1.022 0 1.85.828 1.85 1.85v4.62h-5.086v5.782c0 .383-.31.694-.693.694s-.694-.311-.694-.694zm7.402.926v5.547c0 .51.414.924.925.924h1.844c.511 0 .925-.414.925-.924v-4.622c0-.511-.414-.925-.925-.925z" fill="#a8a8b5"/><g clip-path="url(#d)"><rect fill="#a8a8b5" height="12.9453" rx="6.47267" width="12.9453" x="461.681" y="273.532"/><path d="m467.808 275.12c-.885 0-1.474.134-1.917.669-.82-.012-1.082 1.04-1.082 1.697 0 2.759 2.237 4.995 4.995 4.995h2.723s-.148-1.204-1.033-2.008c-.884-.803-1.179-1.204-1.179-2.81 0-2.008-1.622-2.543-2.507-2.543z" fill="#fff"/><path d="m462.458 290.49h13.98l-2.725-6.605c-.553-1.352-1.868-2.235-3.326-2.235h-4.153c-2.098 0-3.799 1.701-3.799 3.799z" fill="#262647"/><path d="m465.394 278.182.194-1.414 1.009.689c.42.288.934.39 1.425.291.077-.047.168-.074.265-.074.284 0 .514.232.514.518s-.23.518-.514.518v2.977c0 .429-.345.777-.771.777s-.771-.348-.771-.777v-1.165h-.062c-.851 0-1.505-.757-1.389-1.606l.016-.114-.164-.026c-.089-.014-.13-.119-.073-.19z" fill="#dfdfe3"/><circle cx="465.953" cy="277.804" fill="#262647" r=".129453"/><path d="m468.282 278.71h1.425v4.965c-.787 0-1.425-.638-1.425-1.425z" fill="#fff"/></g><path d="m0 0h153.357v76.1606h-153.357z" fill="#fff" transform="translate(142.152 262.566)"/><g clip-path="url(#e)"><path clip-rule="evenodd" d="m153.003 278.248c2.912 0 5.273-2.361 5.273-5.273 0-2.913-2.361-5.274-5.273-5.274s-5.273 2.361-5.273 5.274c0 2.912 2.361 5.273 5.273 5.273z" fill="#e9e9ed" fill-rule="evenodd"/><path d="m154.506 271.316c-.124-.401-.685-.821-1.447-.821-.961 0-1.559.47-1.559 1.183 0 .476.501.886 1.503 1.229 1.002.344 1.503.753 1.503 1.229 0 .714-.598 1.183-1.559 1.183-.761 0-1.322-.42-1.447-.82m1.545-4.808v.782m0 4.845v.941" stroke="#7d7d91" stroke-linecap="round" stroke-linejoin="round" stroke-width=".941671"/></g><path d="m165.056 271.694c.163-.536.31-1.111.442-1.671h.032c.147.552.295 1.135.458 1.671l.171.606h-1.274zm-1.71 2.689h.94l.389-1.36h1.686l.389 1.36h.979l-1.648-5.083h-1.088zm5.009 0h1.764c1.119 0 1.959-.474 1.959-1.492 0-.684-.412-1.08-.972-1.205v-.031c.435-.155.7-.622.7-1.103 0-.933-.77-1.252-1.819-1.252h-1.632zm.925-2.992v-1.368h.645c.653 0 .979.179.979.661 0 .435-.303.707-.995.707zm0 2.269v-1.577h.746c.746 0 1.142.233 1.142.753 0 .568-.404.824-1.142.824zm5.748.816c.653 0 1.181-.248 1.609-.738l-.498-.552c-.279.311-.629.49-1.072.49-.847 0-1.383-.7-1.383-1.842 0-1.135.59-1.819 1.398-1.819.397 0 .7.148.964.404l.49-.567c-.319-.35-.832-.645-1.469-.645-1.29 0-2.331.987-2.331 2.65 0 1.687 1.018 2.619 2.292 2.619zm4.013-.093h1.406c1.508 0 2.441-.87 2.441-2.565 0-1.686-.933-2.518-2.487-2.518h-1.36zm.925-.746v-3.583h.373c1.01 0 1.593.521 1.593 1.764 0 1.252-.583 1.819-1.593 1.819zm5.486.839c.498 0 .964-.14 1.321-.404l-.311-.575c-.264.171-.559.264-.886.264-.606 0-1.01-.373-1.103-1.01h2.409c.031-.14.047-.28.047-.466 0-1.073-.56-1.819-1.593-1.819-.894 0-1.765.762-1.765 2.005 0 1.275.824 2.005 1.881 2.005zm-.979-2.409c.078-.575.451-.886.886-.886.497 0 .761.326.761.886zm4.135 2.409c.451 0 .824-.217 1.166-.513h.031l.078.42h.746v-2.262c0-1.064-.482-1.655-1.43-1.655-.606 0-1.15.233-1.57.497l.326.607c.342-.202.7-.358 1.073-.358.513 0 .668.327.684.715-1.57.171-2.239.591-2.239 1.43 0 .668.467 1.119 1.135 1.119zm.28-.73c-.311 0-.529-.125-.529-.451 0-.389.311-.622 1.353-.746v.808c-.28.264-.513.389-.824.389zm3.681.73c.217 0 .373-.031.481-.085l-.108-.676c-.062.015-.094.015-.14.015-.093 0-.194-.078-.194-.303v-4.531h-.925v4.484c0 .677.241 1.096.886 1.096z" fill="#7d7d91"/><rect fill="#e9e9ed" height="4.14479" rx="2.0724" width="33.1584" x="163.361" y="279.266"/><rect fill="#e9e9ed" height="4.14479" rx="2.0724" width="24.2236" x="200.665" y="279.266"/><rect fill="#6fd27a" height="1.81412" rx=".907058" width="23.3959" x="163.626" y="289.382"/><rect fill="#6fd27a" height="1.81412" rx=".907058" width="23.3959" x="187.475" y="289.382"/><rect fill="#e9e9ed" height="1.81412" rx=".907058" width="23.3959" x="211.325" y="289.382"/><rect fill="#e9e9ed" height="1.81412" rx=".907058" width="23.3959" x="235.174" y="289.382"/><rect fill="#e9e9ed" height="1.81412" rx=".907058" width="23.3959" x="259.024" y="289.382"/></g><ellipse cx="129.323" cy="99.5479" fill="#6c68c4" rx="3.7964" ry="3.79535"/><ellipse cx="129.323" cy="117.766" fill="#6c68c4" rx="3.7964" ry="3.79535"/><path d="m127.534 131.57c0-.309.251-.56.56-.56h3.36c.309 0 .56.251.56.56v1.12c0 .309-.251.56-.56.56h-3.36c-.309 0-.56-.251-.56-.56zm-.7 0h-.7c-.618 0-1.12.502-1.12 1.12v8.4c0 .619.502 1.12 1.12 1.12h7.28c.619 0 1.12-.501 1.12-1.12v-8.4c0-.618-.501-1.12-1.12-1.12h-.7v1.12c0 .619-.501 1.12-1.12 1.12h-3.64c-.618 0-1.12-.501-1.12-1.12zm1.489 5.443.891.891 2.475-2.475c.164-.164.43-.164.594 0s.164.43 0 .594l-2.772 2.772c-.079.079-.185.123-.297.123-.111 0-.218-.044-.297-.123l-1.188-1.188c-.164-.164-.164-.43 0-.594s.43-.164.594 0z" fill="#000E5C"/><g fill="#6c68c4"><path d="m124.008 154.58c0-.21.169-.38.379-.38h9.871c.21 0 .379.17.379.38 0 .209-.169.379-.379.379h-9.871c-.21 0-.379-.17-.379-.379z"/><ellipse cx="129.323" cy="172.419" rx="3.7964" ry="3.79535"/><ellipse cx="129.323" cy="190.637" rx="3.7964" ry="3.79535"/><ellipse cx="129.323" cy="208.853" rx="3.7964" ry="3.79536"/><ellipse cx="129.323" cy="227.071" rx="3.7964" ry="3.79536"/><ellipse cx="129.323" cy="245.29" rx="3.7964" ry="3.79536"/><ellipse cx="126.287" cy="263.507" rx=".75928" ry=".759084"/><ellipse cx="129.323" cy="263.508" rx=".759279" ry=".759077"/><ellipse cx="132.361" cy="263.507" rx=".759279" ry=".759077"/></g><path clip-rule="evenodd" d="m127.805 79.9073c0-1.9208 1.041-2.6048 2.015-2.6048 1.195 0 1.998 1.0391 1.998 2.5869 0 1.7654-1.021 2.5538-2.032 2.5538-1.362 0-1.981-1.316-1.981-2.5359zm2.495-4.8647c-1.421 0-2.244.6444-2.641 1.089-.047-.3834-.297-.8808-1.275-.8808h-2.123v2.242h.87c.147 0 .195.0471.195.196v10.238h2.53v-3.8425c0-.1037-.001-.2007-.004-.2874.395.3656 1.15.8705 2.329.8705 2.474 0 4.204-1.9783 4.204-4.8119 0-2.8789-1.643-4.8129-4.085-4.8129z" fill="#fff" fill-rule="evenodd"/><g clip-path="url(#f)"><rect fill="#e9e9ed" height="12.9453" rx="6.47267" width="12.9453" x="461.202" y="184.5"/><g fill="#d4d4da"><path d="m470.919 194.08 1.606 4.923c.217.666.328 1.362.328 2.062v7.384h-11.392v-7.918c0-.179.036-.357.106-.523l3.284-5.928z"/><path clip-rule="evenodd" d="m475.279 204.086c0 2.413-1.956 4.369-4.369 4.369h-1.38c-2.413 0-4.369-1.956-4.369-4.369h5.196v-10.006c2.718 0 4.922 2.203 4.922 4.922z" fill-rule="evenodd"/><path d="m457.78 204.344h.004l-.136.336c-.725 1.805.607 3.769 2.557 3.769h7.728v-4.105h-5.351l4.286-10.264h-2.228c-1.783 0-3.05 1.021-3.692 2.585z"/></g><path d="m467.48 195.763c.894 0 1.619-.754 1.619-1.683h-3.237c0 .929.725 1.683 1.618 1.683z" fill="#fff"/><path d="m466.713 185.92c.785-.147 1.442-.292 2.077-.15.636.143 1.248.574 1.636 1.229.389.655.553 1.532.313 2.252-.241.721-.885 1.285-1.535 1.988-.651.703-1.307 1.546-1.894 1.529-.585-.019-1.104-.897-1.602-1.612-.497-.715-.976-1.267-1.238-2.038-.263-.773-.313-1.763.118-2.333.43-.569 1.342-.718 2.125-.865z" fill="#262647"/><path d="m469.536 191.092v.959c0 .562-.337 1.044-.82 1.257v.936c0 .679-.551 1.23-1.23 1.23-.68 0-1.231-.551-1.231-1.23v-.936c-.483-.213-.82-.695-.82-1.257v-.959c-.302 0-.547-.245-.547-.547s.245-.547.547-.547h.137l.41-1.511h3.008l.41 1.511h.136c.302 0 .547.245.547.547s-.245.547-.547.547z" fill="#7d7d91"/><path d="m466.768 192.112s.311-.362.777-.362.777.362.777.362-.276.414-.777.414-.777-.414-.777-.414z" fill="#a8a8b5"/><g fill="#262647"><ellipse cx="466.539" cy="190.067" rx=".129525" ry=".129525"/><ellipse cx="468.438" cy="190.067" rx=".129525" ry=".129525"/></g></g><g clip-path="url(#g)"><rect fill="#a9a6ff" height="12.9453" rx="6.47267" width="12.9453" x="461.202" y="207.617"/><path d="m458.095 224.488 2.33-6.236c.604-1.475 2.071-2.437 3.627-2.437h.903 5.438c2.145 0 4.143 1.738 4.143 3.883v4.79z" fill="#fff"/><path d="m466.82 213.09c-.478-.36-.889-.651-1.154-1.073-.264-.422-.381-.975-.277-1.517s.429-1.07.891-1.296c.464-.228 1.064-.153 1.733-.145.668.008 1.405-.05 1.703.283.297.332.157 1.057.082 1.689-.076.631-.085 1.172-.31 1.701-.224.532-.662 1.054-1.154 1.1-.491.047-1.036-.383-1.514-.742z" fill="#262647"/><path d="m469.521 213.053v.91c0 .542-.334 1.007-.806 1.2v1.002c0 .643-.522 1.165-1.166 1.165s-1.166-.522-1.166-1.165v-1.028c-.442-.206-.748-.654-.748-1.174v-.91c-.291-.033-.518-.28-.518-.58s.227-.547.518-.579v-.004h.259l.259-1.554h2.85l.259 1.554h.259v.004c.291.032.518.279.518.579s-.227.547-.518.58z" fill="#c18959"/><g fill="#262647"><path d="m466.283 214.222 1.036-.518c.15.125.368.125.518 0l1.036.518c.215 0 .389-.174.389-.389v-.777c0-.143.116-.259.259-.259v1.295c0 1.002-.812 1.814-1.814 1.814h-.259c-1.001 0-1.813-.812-1.813-1.814v-1.295c.143 0 .259.116.259.259v.777c0 .215.174.389.389.389z"/><circle cx="466.728" cy="212.279" r=".129525"/><ellipse cx="468.369" cy="212.279" rx=".129525" ry=".129525"/></g></g></svg>